<svg version="1.0" xmlns="http://www.w3.org/2000/svg"
 width="1350.000000pt" height="675.000000pt" viewBox="0 0 1350.000000 675.000000"
 preserveAspectRatio="xMidYMid meet"><g xmlns="http://www.w3.org/2000/svg" transform="translate(0.000000,675.000000) scale(0.100000,-0.100000)" fill="#000000" stroke="none">
<path d="M4870 5633 c-8 -4 -22 -16 -32 -27 -20 -23 -20 -7 1 -336 15 -246&#10;-12 -1133 -36 -1176 -7 -12 -17 -46 -22 -75 -5 -30 -14 -72 -20 -94 -6 -22&#10;-11 -88 -11 -146 0 -100 1 -107 28 -138 25 -31 151 -121 232 -165 46 -26 151&#10;-26 203 -1 47 22 121 105 151 170 28 59 38 142 26 205 -21 105 -31 145 -40&#10;154 -6 6 -10 19 -10 30 0 12 -7 35 -16 51 -9 17 -20 73 -25 125 -4 52 -13 153&#10;-19 224 -6 71 -15 137 -20 147 -6 10 -10 42 -10 71 0 54 -7 102 -35 263 -8 50&#10;-20 121 -26 159 -5 39 -14 75 -18 80 -5 6 -12 32 -16 59 -4 26 -11 50 -16 53&#10;-5 3 -9 13 -9 22 0 9 -12 44 -26 77 -13 33 -30 72 -35 88 -6 15 -15 27 -20 27&#10;-5 0 -9 5 -9 11 0 27 -128 152 -151 148 -2 0 -11 -3 -19 -6z m81 -104 c33 -37&#10;78 -119 114 -204 15 -36 33 -102 46 -170 5 -27 14 -59 18 -70 5 -11 14 -56 20&#10;-100 7 -44 19 -123 27 -175 8 -52 19 -142 24 -200 6 -58 15 -118 20 -135 4&#10;-16 11 -70 15 -120 3 -49 9 -98 11 -107 9 -30 -19 -20 -68 26 -78 73 -157 74&#10;-241 4 -27 -22 -50 -38 -53 -36 -4 5 12 560 23 747 6 111 -7 333 -29 473 -17&#10;115 9 139 73 67z m164 -1270 c89 -47 158 -147 180 -259 4 -19 11 -39 15 -45 4&#10;-5 13 -37 19 -70 7 -33 14 -72 17 -86 6 -27 -14 -100 -44 -158 -23 -46 -70&#10;-94 -111 -114 -36 -18 -151 -24 -151 -8 0 5 -10 13 -22 17 -13 3 -41 19 -62&#10;35 -22 16 -43 29 -47 29 -9 0 -51 35 -85 69 -22 22 -24 32 -24 120 0 54 4 101&#10;9 107 5 5 14 36 19 69 29 167 72 245 167 294 50 26 70 26 120 0z"/>
<path d="M8544 5611 c-42 -31 -104 -103 -104 -120 0 -6 -4 -11 -8 -11 -5 0&#10;-16 -19 -26 -42 -10 -24 -25 -56 -33 -73 -8 -16 -18 -46 -23 -65 -27 -103 -33&#10;-127 -42 -145 -4 -11 -13 -49 -18 -85 -5 -36 -16 -103 -25 -150 -8 -47 -20&#10;-130 -25 -185 -6 -55 -15 -120 -21 -145 -5 -25 -14 -101 -20 -170 -22 -266&#10;-27 -306 -43 -335 -9 -16 -16 -39 -16 -51 0 -11 -4 -24 -9 -30 -9 -9 -24 -67&#10;-41 -154 -12 -63 -2 -146 26 -205 30 -65 104 -148 151 -170 52 -25 157 -25&#10;203 1 81 44 207 134 233 165 26 31 27 38 27 138 0 58 -5 124 -11 146 -6 22&#10;-15 64 -20 94 -5 29 -15 63 -22 75 -24 43 -52 939 -36 1181 22 341 23 307 -6&#10;338 -32 34 -42 34 -91 -2z m61 -61 c4 -11 2 -53 -4 -93 -23 -164 -34 -339 -28&#10;-463 12 -231 27 -748 22 -752 -2 -2 -25 14 -52 36 -84 70 -163 69 -241 -4 -59&#10;-54 -72 -56 -66 -6 6 44 19 159 34 297 6 55 16 123 21 150 6 28 14 82 19 120&#10;16 132 32 230 41 250 4 11 13 43 18 70 13 68 31 134 46 170 56 134 131 244&#10;167 245 9 0 20 -9 23 -20z m-119 -1292 c93 -46 137 -125 166 -293 5 -33 14&#10;-64 19 -69 5 -6 9 -53 9 -107 0 -88 -2 -98 -24 -120 -34 -34 -76 -69 -85 -69&#10;-4 0 -25 -13 -47 -29 -21 -16 -49 -32 -61 -35 -13 -4 -23 -12 -23 -17 0 -15&#10;-114 -10 -149 7 -87 44 -176 202 -157 281 4 15 11 51 17 78 5 28 14 59 18 70&#10;5 11 19 51 31 90 36 110 82 170 165 214 50 26 67 26 121 -1z"/>
<path d="M6184 5372 c-54 -44 -53 -37 -54 -462 0 -222 -4 -409 -9 -428 -6 -18&#10;-13 -88 -16 -155 -6 -114 -23 -208 -46 -250 -5 -10 -14 -66 -19 -125 -14 -160&#10;-21 -212 -31 -218 -5 -3 -9 1 -10 8 -4 89 -34 244 -52 266 -6 7 -14 63 -18&#10;125 -12 168 -27 316 -38 372 -5 28 -15 84 -20 125 -24 168 -30 196 -65 306 -9&#10;29 -16 57 -16 63 0 22 -58 145 -84 180 -23 29 -82 88 -110 109 -35 27 -77 28&#10;-100 3 -22 -24 -18 -121 9 -221 30 -116 36 -234 30 -590 -6 -318 -10 -375 -36&#10;-500 -15 -69 -32 -344 -25 -383 7 -35 69 -107 92 -107 6 0 25 -7 40 -15 22&#10;-11 65 -15 175 -15 135 0 148 2 174 22 33 25 65 97 65 144 0 46 17 43 26 -3 9&#10;-48 35 -86 78 -112 31 -20 48 -21 272 -21 l238 0 28 27 c27 25 28 31 27 112 0&#10;87 -5 120 -33 266 -30 155 -38 190 -47 202 -6 6 -14 76 -19 155 -12 176 -26&#10;317 -39 383 -5 28 -14 82 -19 120 -6 39 -18 102 -26 140 -9 39 -21 90 -26 115&#10;-6 24 -15 49 -20 54 -6 6 -10 17 -10 26 -1 8 -9 33 -20 55 -11 22 -19 43 -20&#10;48 0 14 -71 111 -112 155 -44 46 -78 54 -114 24z m103 -89 c21 -27 40 -50 43&#10;-53 3 -3 15 -27 28 -55 13 -27 27 -58 33 -67 5 -10 9 -25 9 -34 0 -9 7 -30 14&#10;-47 8 -18 20 -57 26 -87 6 -30 18 -86 26 -125 8 -38 19 -108 24 -155 5 -47 12&#10;-98 15 -115 4 -16 13 -82 21 -145 8 -63 17 -132 20 -153 l6 -38 -53 51 c-29&#10;28 -68 58 -86 67 -71 33 -152 14 -223 -53 -19 -18 -38 -30 -43 -25 -5 5 -3 33&#10;2 62 29 141 33 216 35 584 1 410 4 435 46 435 10 0 35 -21 57 -47z m-690 -61&#10;c58 -57 82 -89 89 -117 3 -14 10 -25 15 -25 5 0 9 -8 9 -17 0 -10 6 -30 14&#10;-44 7 -14 16 -43 20 -65 5 -21 11 -43 16 -49 8 -11 26 -95 40 -194 5 -35 14&#10;-77 19 -95 5 -17 14 -76 20 -131 6 -55 17 -156 26 -224 8 -68 13 -127 10 -129&#10;-3 -3 -20 8 -38 25 -17 18 -51 39 -75 48 -39 16 -45 16 -76 1 -19 -9 -37 -16&#10;-41 -16 -3 0 -19 -14 -34 -31 -16 -17 -31 -27 -34 -22 -3 5 -1 72 6 149 22&#10;274 10 748 -22 788 -14 18 -34 142 -26 165 9 29 18 27 62 -17z m782 -942 c71&#10;-20 160 -116 176 -190 4 -19 11 -41 16 -50 5 -8 13 -44 19 -80 6 -36 18 -103&#10;26 -150 23 -128 29 -237 14 -255 -19 -23 -428 -22 -473 1 -71 37 -72 39 -72&#10;239 1 184 9 238 51 332 8 17 14 36 14 41 0 19 98 97 137 109 49 15 52 15 92 3z&#10;m-580 -151 c37 -27 101 -117 101 -141 0 -9 4 -19 9 -22 5 -3 12 -27 16 -52 3&#10;-26 11 -56 15 -68 18 -41 30 -232 18 -267 -22 -63 -36 -69 -163 -69 -143 0&#10;-216 20 -253 68 -23 30 -24 37 -19 120 20 316 34 362 132 434 47 35 94 34 144&#10;-3z"/>
<path d="M7182 5348 c-41 -44 -112 -141 -112 -155 -1 -5 -9 -26 -20 -48 -11&#10;-22 -19 -47 -20 -55 0 -9 -4 -20 -10 -26 -5 -5 -14 -30 -20 -54 -5 -25 -17&#10;-76 -26 -115 -8 -38 -20 -101 -26 -140 -5 -38 -14 -92 -19 -120 -13 -66 -27&#10;-207 -39 -382 -5 -78 -14 -151 -20 -162 -11 -21 -22 -66 -45 -186 -31 -160&#10;-35 -194 -35 -276 0 -80 2 -87 28 -112 l28 -27 238 0 c224 0 241 1 272 21 43&#10;26 69 64 78 112 9 46 26 49 26 3 0 -47 32 -119 65 -144 26 -20 39 -22 174 -22&#10;110 0 153 4 175 15 15 8 34 15 40 15 23 0 85 72 92 107 7 39 -10 314 -25 383&#10;-30 145 -33 193 -34 591 -2 305 1 422 10 440 18 37 35 117 40 192 4 56 1 72&#10;-13 88 -33 36 -70 25 -152 -46 -24 -20 -102 -129 -102 -142 -1 -5 -9 -26 -20&#10;-48 -11 -22 -19 -46 -20 -54 0 -7 -7 -36 -16 -65 -34 -108 -31 -94 -64 -296&#10;-27 -161 -31 -191 -41 -290 -5 -58 -13 -155 -18 -217 -4 -62 -12 -118 -18&#10;-125 -19 -23 -40 -137 -52 -271 -1 -5 -5 -6 -10 -3 -10 6 -17 58 -31 218 -5&#10;59 -13 115 -19 125 -24 45 -39 128 -46 252 -3 73 -11 145 -16 158 -5 14 -9&#10;197 -9 422 0 365 -2 398 -18 424 -47 70 -93 75 -150 15z m100 -40 c10 -18 13&#10;-117 15 -413 1 -369 6 -457 33 -584 6 -29 8 -57 3 -62 -5 -5 -24 7 -43 25 -45&#10;42 -105 71 -150 71 -49 0 -97 -26 -159 -84 l-53 -50 6 37 c3 20 12 89 20 152&#10;8 63 17 129 21 145 3 17 10 68 15 115 5 47 16 117 24 155 36 162 43 191 54&#10;218 7 16 12 35 12 43 0 8 4 22 9 32 6 9 20 40 33 67 13 28 25 52 28 55 3 3 22&#10;26 43 53 42 52 69 59 89 25z m663 -69 c8 -23 -12 -147 -26 -165 -32 -40 -44&#10;-514 -22 -788 7 -77 9 -144 6 -149 -3 -5 -18 5 -34 22 -15 17 -31 31 -34 31&#10;-4 0 -22 7 -41 16 -31 15 -37 15 -76 -1 -23 -9 -59 -32 -80 -51 -43 -38 -53&#10;-42 -43 -16 7 18 29 180 46 347 6 55 15 114 20 131 5 18 14 60 19 95 14 99 32&#10;183 40 194 5 6 11 28 16 49 4 22 13 51 20 65 8 14 14 34 14 44 0 9 4 17 9 17&#10;5 0 12 11 15 25 7 28 31 60 89 117 44 44 53 46 62 17z m-731 -969 c27 -10 116&#10;-88 116 -102 0 -5 6 -24 14 -41 42 -94 50 -148 51 -332 0 -200 -1 -202 -72&#10;-239 -45 -23 -454 -24 -473 -1 -15 18 -8 128 14 255 36 198 41 225 47 235 4 6&#10;10 26 14 45 15 71 104 169 172 190 29 9 79 5 117 -10z m612 -139 c97 -70 111&#10;-118 131 -433 5 -83 4 -90 -19 -120 -37 -48 -110 -68 -251 -68 -125 1 -144 8&#10;-165 68 -12 36 0 222 18 272 5 14 12 41 15 60 12 69 50 142 98 191 64 67 112&#10;75 173 30z"/>
<path d="M3576 5263 l-25 -38 1 -452 c0 -248 -3 -456 -6 -462 -4 -6 -11 -70&#10;-16 -143 -6 -86 -14 -144 -24 -163 -9 -17 -16 -37 -16 -45 0 -9 -4 -20 -9 -25&#10;-6 -6 -15 -39 -22 -75 -31 -171 -21 -236 51 -310 40 -41 59 -51 145 -79 55&#10;-17 108 -31 119 -31 33 0 148 63 194 106 80 75 78 174 -8 404 -23 62 -29 97&#10;-34 204 -4 70 -11 136 -16 146 -6 10 -10 43 -10 72 0 53 -7 98 -35 258 -9 47&#10;-20 116 -25 154 -5 38 -12 76 -16 85 -7 16 -26 87 -44 170 -6 24 -14 49 -19&#10;55 -5 6 -12 27 -16 46 -4 19 -19 53 -33 75 -59 96 -96 109 -136 48z m82 -55&#10;c23 -38 57 -136 79 -223 33 -139 45 -194 53 -255 6 -36 13 -72 16 -80 8 -20&#10;32 -191 44 -320 6 -58 13 -114 16 -125 18 -66 23 -92 18 -108 -5 -16 -11 -13&#10;-45 18 -73 65 -133 72 -211 24 -28 -16 -53 -28 -56 -25 -3 4 0 23 7 44 12 36&#10;35 433 35 582 0 41 -4 164 -9 272 -6 155 -5 201 5 213 18 22 26 19 48 -17z&#10;m118 -1107 c59 -29 134 -120 134 -164 0 -5 6 -23 14 -40 61 -143 71 -263 25&#10;-300 -13 -10 -34 -27 -47 -38 -12 -10 -26 -19 -31 -19 -5 0 -17 -8 -27 -17&#10;-24 -24 -140 -24 -174 0 -14 9 -32 17 -42 17 -25 0 -74 32 -100 65 -21 27 -23&#10;40 -22 141 0 65 5 118 11 126 6 7 14 29 18 48 7 38 37 106 57 131 23 28 92 68&#10;119 68 14 1 43 -8 65 -18z"/>
<path d="M9813 5278 c-34 -38 -73 -107 -80 -141 -3 -18 -10 -37 -14 -43 -5 -6&#10;-13 -31 -19 -55 -17 -78 -36 -154 -43 -169 -3 -8 -11 -44 -16 -80 -19 -120&#10;-32 -195 -41 -240 -6 -25 -15 -92 -20 -150 -6 -58 -14 -132 -19 -165 -5 -33&#10;-10 -94 -10 -136 -1 -59 -7 -90 -26 -133 -47 -106 -78 -265 -66 -332 7 -37 18&#10;-55 55 -89 49 -44 160 -105 192 -105 21 0 107 25 139 39 11 5 33 12 49 16 15&#10;3 49 27 75 54 73 75 83 139 52 311 -7 36 -16 69 -22 75 -5 5 -9 16 -9 25 0 8&#10;-7 28 -16 45 -10 19 -18 77 -24 163 -5 73 -12 137 -15 143 -4 5 -7 213 -6 462&#10;l0 452 -25 38 c-28 43 -60 49 -91 15z m57 -53 c10 -13 11 -59 5 -223 -5 -114&#10;-9 -236 -9 -272 0 -148 24 -538 35 -572 7 -21 10 -40 7 -44 -3 -3 -28 9 -56&#10;25 -77 48 -138 41 -210 -24 -33 -29 -41 -32 -46 -19 -6 16 -1 51 15 94 5 14&#10;13 75 19 135 12 129 35 304 44 325 3 8 10 44 16 80 14 102 58 285 90 380 23&#10;68 56 130 70 130 4 0 13 -7 20 -15z m-37 -1132 c23 -14 48 -33 55 -42 20 -25&#10;50 -93 57 -131 4 -19 12 -41 18 -48 6 -7 11 -63 11 -125 1 -102 -1 -115 -22&#10;-141 -26 -34 -75 -66 -100 -66 -10 0 -27 -7 -39 -15 -12 -8 -48 -18 -80 -21&#10;-57 -6 -59 -5 -136 46 -82 54 -97 76 -97 138 0 36 30 146 56 209 8 17 14 35&#10;14 40 0 22 41 91 72 119 71 68 126 78 191 37z"/>
<path d="M4212 5225 c-78 -43 -120 -126 -106 -209 5 -28 9 -256 8 -506 0 -455&#10;-7 -559 -38 -599 -7 -9 -11 -64 -11 -141 l0 -127 34 -44 c59 -77 193 -159 260&#10;-159 33 0 171 57 171 71 0 4 9 10 20 14 35 11 89 88 99 142 16 81 -3 186 -47&#10;268 -13 23 -18 74 -23 230 -9 262 -26 432 -60 585 -6 25 -15 72 -20 105 -5 33&#10;-14 73 -19 90 -52 165 -74 209 -121 250 -55 46 -101 56 -147 30z m90 -53 c28&#10;-12 85 -95 92 -136 4 -21 11 -46 16 -55 10 -18 27 -90 40 -168 4 -28 13 -66&#10;19 -85 13 -41 28 -169 41 -358 6 -80 14 -176 19 -214 9 -82 -4 -94 -52 -50&#10;-49 45 -91 64 -139 64 -49 0 -112 -29 -145 -68 -12 -15 -24 -24 -27 -21 -3 3&#10;0 141 6 308 8 224 8 355 -1 498 -9 162 -9 199 3 227 23 55 75 79 128 58z m80&#10;-1068 c90 -30 158 -118 202 -261 20 -66 21 -163 0 -205 -16 -35 -70 -78 -144&#10;-117 -36 -19 -55 -22 -97 -18 -29 3 -60 13 -69 21 -8 9 -21 16 -27 16 -7 0&#10;-27 14 -46 30 -18 17 -37 30 -41 30 -4 0 -18 21 -31 47 -41 80 -29 208 33 340&#10;25 55 71 99 122 117 53 19 45 18 98 0z"/>
<path d="M9165 5227 c-65 -38 -109 -102 -139 -202 -10 -33 -22 -70 -27 -83 -5&#10;-12 -12 -48 -15 -80 -4 -31 -11 -62 -15 -68 -5 -6 -13 -44 -18 -85 -14 -108&#10;-30 -233 -41 -325 -5 -44 -10 -151 -10 -238 0 -141 -2 -164 -21 -205 -37 -79&#10;-39 -84 -48 -155 -13 -95 0 -158 44 -212 20 -23 44 -46 55 -49 11 -4 20 -10&#10;20 -14 0 -14 138 -71 171 -71 67 0 201 82 260 159 l34 44 0 127 c0 77 -4 132&#10;-11 141 -31 40 -38 144 -38 599 -1 250 3 478 8 507 7 41 5 61 -8 95 -39 98&#10;-135 152 -201 115z m104 -63 c48 -34 52 -65 40 -282 -8 -144 -8 -280 -1 -492&#10;6 -162 8 -298 5 -303 -3 -5 -15 2 -27 16 -32 37 -95 67 -143 67 -47 0 -108&#10;-28 -143 -65 -31 -33 -65 -34 -56 -2 4 12 11 99 17 192 5 94 14 188 19 210 5&#10;22 12 79 16 125 4 47 11 93 15 102 5 9 13 43 18 75 14 83 30 155 41 174 5 9&#10;12 34 16 55 6 37 49 103 83 132 21 17 72 15 100 -4z m-77 -1059 c54 -19 100&#10;-61 126 -118 62 -132 74 -260 33 -340 -13 -26 -27 -47 -31 -47 -4 0 -23 -13&#10;-41 -30 -19 -16 -39 -30 -46 -30 -6 0 -19 -7 -27 -15 -28 -28 -106 -30 -161&#10;-5 -71 32 -131 80 -150 120 -22 46 -21 134 3 208 49 147 108 225 196 256 53&#10;19 45 18 98 1z"/>
<path d="M2644 5133 c-11 -17 -20 -53 -22 -90 l-4 -61 -43 45 c-34 38 -46 45&#10;-66 39 -29 -7 -58 -45 -72 -95 -20 -69 -7 -363 19 -420 31 -67 65 -278 71&#10;-429 4 -128 3 -136 -21 -185 -50 -102 -66 -166 -66 -263 0 -86 2 -93 31 -134&#10;17 -23 39 -45 50 -47 10 -3 19 -9 19 -13 0 -5 15 -12 33 -15 17 -4 37 -11 43&#10;-16 7 -5 36 -10 67 -11 60 -2 107 16 151 57 15 14 31 25 35 25 5 0 39 -18 77&#10;-40 99 -57 145 -61 228 -20 41 19 77 46 94 68 26 34 27 40 27 161 0 113 -3&#10;134 -28 204 l-28 79 4 261 c3 144 6 267 7 272 4 27 -20 199 -29 208 -6 6 -11&#10;19 -11 29 0 24 -41 118 -52 118 -4 0 -8 7 -8 15 0 17 -77 96 -119 123 -14 9&#10;-30 22 -34 29 -13 21 -85 16 -99 -7 -19 -29 -44 -25 -56 10 -6 16 -32 52 -58&#10;80 -40 43 -52 50 -84 50 -30 0 -41 -6 -56 -27z m129 -88 c27 -33 54 -71 61&#10;-85 6 -14 20 -41 31 -60 45 -82 65 -338 35 -457 -18 -75 -37 -70 -78 20 -18&#10;39 -39 86 -47 102 -7 17 -21 48 -30 70 -9 22 -23 53 -31 68 -8 16 -14 34 -14&#10;40 0 7 -8 26 -17 42 -14 24 -17 56 -18 155 0 189 22 210 108 105z m-203 -89&#10;c10 -23 35 -94 55 -159 20 -64 41 -119 45 -122 4 -3 11 -17 15 -32 7 -33 124&#10;-276 136 -283 4 -3 11 -18 14 -33 6 -21 13 -27 34 -27 21 0 30 9 49 50 12 27&#10;22 55 22 63 0 7 6 19 12 25 18 18 24 300 8 344 -18 50 -39 140 -40 169 0 49&#10;22 53 76 12 91 -69 142 -149 175 -273 14 -50 29 -659 17 -674 -4 -6 -15 -3&#10;-25 6 -62 52 -174 75 -219 44 -14 -10 -61 -15 -159 -18 -117 -3 -145 -6 -168&#10;-22 -15 -10 -30 -16 -34 -12 -3 3 -5 59 -4 124 1 64 -3 140 -9 167 -6 28 -15&#10;77 -21 110 -5 33 -13 69 -18 80 -49 104 -68 459 -27 504 24 26 40 15 66 -43z&#10;m484 -935 c3 -5 18 -12 33 -16 97 -24 149 -126 160 -309 6 -102 -11 -142 -73&#10;-177 -80 -43 -200 -22 -266 48 -24 26 -56 30 -64 9 -9 -24 -73 -68 -109 -76&#10;-72 -16 -178 20 -220 74 -21 27 -25 44 -25 99 0 36 4 76 9 89 5 13 19 55 31&#10;93 12 39 31 80 42 92 34 37 105 53 240 53 82 1 133 5 153 15 35 16 81 19 89 6z"/>
<path d="M10696 5110 c-26 -28 -52 -64 -58 -80 -12 -35 -37 -39 -56 -10 -14&#10;23 -86 28 -99 7 -4 -7 -20 -20 -34 -29 -42 -27 -119 -106 -119 -123 0 -8 -4&#10;-15 -8 -15 -11 0 -52 -94 -52 -118 0 -10 -5 -23 -11 -29 -9 -9 -33 -181 -29&#10;-208 1 -5 4 -128 7 -272 l4 -263 -28 -77 c-25 -70 -28 -91 -28 -203 0 -122 1&#10;-126 28 -162 15 -20 53 -49 84 -65 90 -45 153 -37 265 34 47 29 51 29 84 -2&#10;44 -41 92 -59 151 -58 30 1 60 6 66 11 7 5 27 13 45 17 17 3 32 10 32 15 0 4&#10;9 10 19 13 11 2 33 24 50 47 29 41 31 48 31 134 0 97 -16 161 -66 263 -24 49&#10;-25 57 -21 185 6 149 46 396 71 437 25 40 39 344 19 412 -14 50 -43 88 -72 95&#10;-20 6 -32 -1 -66 -39 l-43 -45 -4 61 c-5 83 -28 117 -78 117 -32 0 -44 -7 -84&#10;-50z m112 -45 c19 -55 11 -239 -12 -280 -9 -16 -16 -35 -16 -42 0 -6 -6 -24&#10;-14 -40 -8 -15 -22 -46 -31 -68 -9 -22 -23 -53 -30 -70 -8 -16 -29 -63 -47&#10;-102 -41 -90 -60 -95 -78 -20 -18 70 -17 265 1 352 8 39 24 87 37 108 12 21&#10;22 42 22 46 0 5 16 30 37 57 86 116 109 126 131 59z m190 -193 c4 -135 -20&#10;-311 -51 -382 -4 -8 -11 -42 -16 -75 -6 -33 -15 -82 -21 -110 -6 -27 -10 -103&#10;-9 -167 1 -65 -1 -121 -4 -124 -4 -4 -19 2 -34 12 -23 16 -51 19 -168 22 -98&#10;3 -145 8 -159 18 -45 31 -157 8 -219 -44 -10 -9 -21 -12 -25 -6 -12 15 3 624&#10;17 674 35 132 81 200 195 288 34 26 56 16 56 -27 -1 -29 -22 -119 -40 -168&#10;-16 -44 -10 -327 8 -345 6 -6 12 -18 12 -25 0 -8 10 -36 23 -63 18 -41 27 -50&#10;48 -50 21 0 28 6 34 27 3 15 10 30 14 33 12 7 129 250 136 283 4 15 11 29 15&#10;32 4 3 24 58 45 122 42 134 61 180 83 206 15 17 17 17 36 -3 18 -17 21 -35 24&#10;-128z m-485 -857 c26 -11 72 -15 157 -15 133 0 204 -16 238 -53 11 -12 30 -53&#10;42 -92 12 -38 26 -80 31 -93 5 -13 9 -53 9 -89 0 -55 -4 -72 -25 -99 -42 -54&#10;-148 -90 -220 -74 -36 8 -100 52 -109 76 -8 21 -38 17 -66 -9 -70 -63 -143&#10;-85 -220 -67 -27 7 -50 16 -50 20 0 5 -8 11 -19 15 -34 11 -53 74 -48 161 11&#10;185 62 285 160 309 15 4 30 11 33 16 8 14 47 11 87 -6z"/>
<path d="M1596 5111 c-9 -10 -21 -34 -27 -54 -5 -19 -23 -52 -40 -73 -36 -45&#10;-79 -129 -79 -153 0 -9 -6 -23 -12 -30 -18 -17 -18 -436 0 -506 16 -66 21&#10;-333 6 -343 -24 -16 -51 -85 -71 -185 -17 -84 66 -204 174 -253 57 -27 97 -26&#10;138 2 33 23 77 17 111 -15 117 -110 297 -68 373 85 20 40 23 57 19 134 -2 49&#10;-9 94 -15 102 -14 17 -31 109 -44 233 -5 55 -14 113 -19 129 -6 16 -10 83 -11&#10;150 -1 147 -23 294 -50 321 -5 5 -9 17 -9 27 0 50 -164 295 -225 337 -17 11&#10;-40 21 -51 21 -10 0 -36 20 -57 45 -43 50 -81 59 -111 26z m84 -63 c17 -23 25&#10;-48 26 -83 1 -27 10 -75 19 -105 9 -30 21 -75 26 -100 6 -25 15 -54 21 -65 15&#10;-26 24 -323 11 -336 -7 -7 -15 5 -25 33 -51 139 -61 202 -77 443 -9 129 -9&#10;130 -41 156 -28 23 -31 31 -25 58 9 41 34 40 65 -1z m131 -90 c16 -18 46 -58&#10;67 -88 20 -30 39 -57 42 -60 9 -9 70 -135 70 -143 0 -5 6 -23 14 -40 21 -46&#10;46 -236 46 -352 1 -55 5 -120 11 -145 37 -168 36 -190 -9 -147 -15 14 -40 31&#10;-57 38 -29 13 -231 39 -310 41 -44 1 -125 -18 -139 -33 -6 -5 -17 -9 -25 -9&#10;-13 0 -16 19 -19 115 -1 63 -8 157 -14 208 -16 119 -15 366 1 437 21 94 78&#10;190 113 190 3 0 13 -7 22 -15 12 -12 15 -45 15 -165 0 -145 21 -302 42 -324 5&#10;-6 9 -18 9 -28 0 -23 64 -146 90 -172 33 -33 50 -14 51 56 0 35 4 86 8 113 11&#10;64 -6 233 -30 308 -11 31 -19 66 -19 76 0 11 -4 22 -9 26 -14 8 -33 108 -25&#10;128 9 25 23 21 55 -15z m9 -964 c242 -27 286 -65 317 -281 10 -77 -45 -178&#10;-113 -203 -29 -11 -121 -12 -145 -2 -9 4 -36 23 -59 42 -57 47 -78 52 -131 27&#10;-24 -11 -61 -21 -81 -20 -38 0 -104 34 -126 65 -7 9 -20 24 -29 34 -12 12 -17&#10;35 -17 93 -1 156 77 246 224 260 8 0 80 -6 160 -15z"/>
<path d="M11773 5085 c-21 -25 -47 -45 -57 -45 -33 0 -80 -40 -134 -114 -29&#10;-39 -57 -76 -62 -83 -22 -27 -80 -143 -80 -161 0 -10 -4 -22 -9 -28 -27 -26&#10;-49 -173 -50 -320 -1 -67 -5 -134 -11 -150 -5 -16 -14 -74 -19 -129 -13 -122&#10;-30 -216 -43 -233 -6 -6 -13 -52 -16 -101 -4 -78 -2 -94 18 -135 77 -153 257&#10;-195 374 -85 37 34 71 37 123 9 48 -26 63 -25 127 4 107 49 189 170 173 253&#10;-20 101 -44 161 -75 192 -11 11 -12 41 -7 150 3 75 11 159 18 186 17 71 16&#10;490 0 506 -7 7 -13 21 -13 30 0 24 -43 108 -79 153 -17 21 -35 54 -40 73 -24&#10;86 -79 97 -138 28z m92 -36 c6 -27 3 -35 -25 -58 -32 -26 -32 -27 -41 -156&#10;-16 -241 -26 -304 -76 -442 -9 -24 -20 -40 -26 -36 -13 8 -3 312 11 338 6 11&#10;15 40 21 65 5 25 17 70 26 100 9 30 18 78 19 105 3 89 76 155 91 84z m-140&#10;-78 c6 -20 -11 -109 -24 -126 -5 -5 -12 -26 -16 -45 -3 -19 -13 -53 -20 -75&#10;-25 -75 -33 -207 -20 -368 9 -106 21 -126 55 -91 26 26 90 149 90 172 0 10 4&#10;22 9 28 21 22 41 176 41 322 0 124 3 153 16 166 19 20 24 20 50 2 29 -21 69&#10;-110 89 -196 18 -83 17 -266 -4 -415 -6 -43 -12 -135 -13 -202 -3 -103 -5&#10;-123 -19 -123 -8 0 -19 4 -25 9 -14 15 -95 34 -139 33 -79 -2 -281 -28 -310&#10;-41 -16 -7 -42 -24 -57 -38 -24 -23 -28 -24 -34 -9 -4 9 1 47 11 84 10 38 21&#10;135 25 227 10 180 23 279 46 345 17 46 73 167 87 185 4 5 28 39 53 75 74 103&#10;96 120 109 81z m207 -992 c39 -20 64 -50 94 -114 25 -54 26 -184 2 -209 -10&#10;-9 -23 -25 -30 -34 -22 -31 -88 -65 -126 -66 -21 0 -56 9 -80 22 -52 27 -74&#10;23 -127 -24 -22 -20 -50 -40 -63 -45 -30 -12 -114 -12 -146 1 -37 14 -83 61&#10;-91 93 -4 15 -11 30 -16 33 -14 8 -11 75 6 146 37 152 86 188 285 211 144 17&#10;239 12 292 -14z"/>
<path d="M530 4913 c-23 -8 -40 -34 -40 -61 0 -19 -4 -22 -20 -17 -13 4 -31 0&#10;-45 -9 -22 -15 -25 -23 -25 -84 0 -40 5 -76 13 -87 32 -47 56 -319 45 -500&#10;-10 -171 -23 -245 -51 -300 -63 -120 -15 -292 101 -365 68 -43 122 -41 173 5&#10;43 39 55 42 84 21 130 -90 222 -100 306 -31 53 43 69 85 69 181 0 68 -4 95&#10;-17 114 -12 17 -20 55 -24 120 -17 230 -29 342 -39 360 -5 10 -10 32 -10 48 0&#10;27 -28 130 -49 177 -56 128 -71 151 -164 246 -60 61 -82 70 -101 43 -14 -18&#10;-43 -10 -51 16 -13 42 -127 132 -155 123z m70 -93 c54 -58 72 -84 105 -145 19&#10;-35 35 -73 35 -83 0 -11 7 -36 16 -57 16 -39 16 -114 -1 -118 -5 -1 -11 14&#10;-13 33 -1 19 -9 49 -17 65 -47 100 -57 122 -68 140 -24 39 -72 100 -101 126&#10;-23 20 -28 31 -22 52 8 32 28 28 66 -13z m-70 -78 c53 -55 81 -95 114 -157 29&#10;-53 66 -157 66 -183 0 -10 5 -23 12 -30 6 -6 14 -50 16 -97 4 -82 5 -85 29&#10;-85 29 0 30 2 42 116 14 128 -9 285 -55 372 -14 27 -9 52 11 52 35 0 141 -155&#10;195 -285 36 -87 97 -502 76 -522 -3 -4 -21 7 -39 24 -17 17 -59 46 -91 64 -50&#10;28 -72 33 -140 37 -87 4 -144 -11 -225 -62 -21 -14 -41 -23 -43 -21 -2 2 3 62&#10;11 132 12 105 12 157 3 288 -11 149 -17 182 -64 336 -25 80 16 91 82 21z m285&#10;-752 c3 -5 14 -10 23 -10 54 0 179 -99 210 -167 13 -26 27 -56 33 -65 5 -10 9&#10;-47 9 -83 0 -52 -5 -73 -25 -105 -14 -21 -35 -44 -47 -51 -30 -16 -142 -6&#10;-163 15 -9 9 -23 16 -31 16 -8 0 -14 4 -14 8 0 5 -17 17 -39 26 -35 16 -41 16&#10;-67 3 -16 -8 -40 -27 -53 -41 -14 -14 -35 -26 -47 -26 -38 0 -88 32 -124 79&#10;-29 39 -34 54 -38 117 -7 105 2 138 50 184 39 40 68 56 158 90 50 19 155 26&#10;165 10z"/>
<path d="M12873 4877 c-23 -17 -52 -49 -65 -69 -28 -45 -48 -55 -65 -31 -13&#10;17 -15 16 -49 -2 -19 -10 -54 -42 -77 -69 -23 -28 -45 -54 -50 -57 -22 -16&#10;-107 -192 -107 -222 0 -9 -4 -18 -9 -22 -5 -3 -12 -31 -16 -63 -3 -31 -11 -68&#10;-16 -81 -9 -22 -21 -139 -38 -361 -4 -65 -12 -103 -24 -120 -26 -38 -24 -182&#10;4 -235 57 -106 164 -135 276 -74 32 17 60 35 63 39 3 5 17 11 32 15 21 5 34 0&#10;66 -29 33 -30 47 -36 83 -36 82 1 169 77 206 180 22 61 16 158 -14 215 -27 54&#10;-40 128 -51 296 -12 178 13 457 45 504 8 11 13 47 13 87 0 61 -3 69 -25 84&#10;-13 8 -33 13 -43 10 -16 -6 -20 0 -26 34 -6 37 -9 40 -39 40 -21 0 -47 -12&#10;-74 -33z m77 -59 c0 -9 -12 -27 -27 -40 -47 -39 -96 -110 -133 -188 -12 -25&#10;-28 -58 -35 -73 -8 -16 -15 -39 -15 -52 0 -32 -10 -56 -21 -49 -14 8 -10 74 6&#10;119 8 22 15 48 15 58 0 22 61 136 92 173 82 97 117 112 118 52z m88 -60 c2&#10;-15 -5 -48 -16 -75 -58 -144 -76 -418 -43 -656 4 -31 6 -59 3 -61 -2 -3 -21 5&#10;-41 18 -84 53 -112 61 -211 61 -89 0 -99 -2 -155 -34 -33 -18 -75 -47 -92 -64&#10;-18 -17 -36 -28 -39 -24 -21 20 40 435 76 522 54 132 160 285 196 285 16 0 20&#10;-50 5 -66 -15 -16 -41 -116 -50 -196 -8 -67 1 -227 14 -265 2 -7 15 -13 28&#10;-13 24 0 25 3 29 85 2 47 10 91 16 97 7 7 12 20 12 30 0 26 37 130 66 183 35&#10;66 63 104 117 158 53 53 80 58 85 15z m-213 -777 c93 -34 123 -50 163 -91 48&#10;-46 57 -79 50 -184 -4 -63 -9 -78 -38 -117 -34 -44 -89 -79 -127 -79 -11 0&#10;-30 12 -44 26 -13 14 -37 33 -53 41 -26 13 -32 13 -67 -3 -22 -9 -39 -21 -39&#10;-26 0 -4 -6 -8 -14 -8 -8 0 -22 -7 -31 -16 -21 -21 -133 -31 -163 -15 -12 7&#10;-33 30 -47 51 -20 32 -25 53 -25 105 0 36 4 73 9 83 6 9 20 39 33 65 31 68&#10;156 167 210 167 9 0 20 5 23 10 10 16 106 11 160 -9z"/>
<path d="M6330 3241 c-13 -4 -37 -25 -53 -47 l-29 -41 11 -99 c23 -201 30&#10;-250 41 -284 12 -40 26 -186 40 -405 6 -82 14 -174 20 -203 5 -29 12 -168 15&#10;-310 7 -277 14 -316 62 -347 20 -14 27 -14 41 -3 30 24 52 53 58 78 4 14 11&#10;30 15 36 12 15 29 94 40 189 6 44 14 101 20 126 11 51 28 420 29 629 0 82 6&#10;164 16 210 8 41 19 95 24 120 12 62 12 297 0 320 -5 10 -24 23 -41 29 -34 12&#10;-268 13 -309 2z m307 -180 c-5 -114 -15 -192 -46 -334 -6 -27 -13 -53 -17 -58&#10;-11 -18 -84 -59 -105 -59 -58 0 -102 58 -114 150 -3 25 -10 65 -15 90 -5 25&#10;-15 101 -21 168 -16 176 -21 171 145 174 197 4 178 18 173 -131z m-52 -683&#10;c-3 -128 -10 -264 -16 -303 -6 -38 -14 -115 -19 -170 -10 -119 -27 -224 -39&#10;-245 -5 -9 -12 -30 -15 -47 -9 -37 -43 -73 -50 -52 -3 8 -7 97 -10 199 -6 221&#10;-22 480 -36 570 -5 36 -12 109 -15 163 -6 100 -1 114 31 82 24 -24 85 -19 124&#10;10 19 14 38 25 43 25 4 0 6 -103 2 -232z"/>
<path d="M6834 3236 c-17 -8 -34 -21 -38 -31 -9 -24 -6 -262 4 -315 5 -25 15&#10;-76 23 -115 10 -46 17 -177 22 -380 4 -170 11 -344 16 -385 5 -41 14 -119 20&#10;-174 5 -54 13 -106 18 -115 5 -9 12 -35 16 -58 4 -24 11 -45 16 -49 5 -3 9&#10;-13 9 -21 0 -21 38 -77 62 -92 14 -9 23 -8 42 4 47 31 54 71 61 347 3 142 10&#10;281 15 310 6 29 14 123 20 208 14 218 28 348 40 395 11 39 19 95 41 289 l11&#10;99 -29 41 c-16 22 -40 43 -53 47 -47 13 -283 9 -316 -5z m326 -71 c10 -18 10&#10;-49 1 -147 -6 -67 -16 -143 -21 -168 -5 -25 -12 -65 -15 -90 -12 -92 -56 -150&#10;-114 -150 -21 0 -94 41 -105 59 -4 5 -11 31 -17 58 -31 143 -41 220 -46 335&#10;-5 149 -25 135 173 130 126 -3 132 -4 144 -27z m-220 -580 c39 -29 100 -34&#10;124 -10 32 32 37 18 31 -82 -3 -54 -10 -127 -15 -163 -14 -92 -31 -353 -36&#10;-570 -3 -102 -7 -191 -10 -199 -7 -21 -41 15 -50 52 -3 17 -10 38 -15 47 -12&#10;21 -28 124 -39 250 -5 58 -14 134 -19 170 -13 84 -24 530 -13 530 4 0 23 -11&#10;42 -25z"/>
<path d="M5745 3198 l-38 -41 6 -166 c3 -91 10 -182 16 -201 20 -74 45 -284&#10;71 -600 5 -63 14 -137 20 -165 6 -27 14 -174 18 -325 7 -245 9 -279 27 -315&#10;22 -43 55 -57 79 -32 22 22 56 90 56 112 0 12 5 26 10 31 11 11 26 100 41 244&#10;5 52 14 129 20 170 6 41 13 239 16 440 3 201 9 370 13 375 18 23 40 203 40&#10;328 0 128 -1 133 -25 160 l-26 27 -153 0 -154 0 -37 -42z m331 -34 c13 -51 -2&#10;-346 -21 -404 -35 -111 -49 -142 -77 -172 -22 -24 -33 -29 -54 -24 -106 27&#10;-149 150 -161 464 -4 92 -2 105 17 132 l21 30 134 0 135 0 6 -26z m-37 -754&#10;c-24 -523 -30 -612 -59 -805 -18 -119 -52 -217 -70 -199 -5 5 -11 92 -13 194&#10;-7 238 -25 517 -36 555 -5 17 -12 77 -15 135 -3 58 -12 137 -21 175 -19 88&#10;-19 105 0 105 8 0 15 -4 15 -9 0 -15 70 -51 99 -51 21 0 38 11 62 38 19 21 37&#10;33 40 27 3 -5 2 -80 -2 -165z"/>
<path d="M7365 3213 c-24 -27 -25 -32 -25 -160 0 -125 22 -305 40 -328 4 -5&#10;10 -174 13 -375 3 -201 10 -399 16 -440 6 -41 15 -118 20 -170 15 -144 30&#10;-233 41 -244 5 -5 10 -19 10 -31 0 -26 37 -95 63 -118 18 -15 23 -15 41 -3 44&#10;29 53 83 60 376 4 151 11 291 17 310 5 19 14 89 19 155 17 213 39 418 55 515&#10;29 173 34 224 35 342 l0 118 -36 40 -36 40 -154 0 -153 0 -26 -27z m335 -53&#10;c19 -27 21 -40 17 -132 -6 -152 -27 -307 -48 -355 -37 -84 -107 -130 -153&#10;-100 -39 26 -83 132 -106 257 -10 52 -13 321 -4 344 5 14 27 16 139 16 l134 0&#10;21 -30z m-159 -650 c29 0 99 36 99 51 0 5 7 9 16 9 13 0 15 -8 9 -52 -4 -29&#10;-11 -63 -16 -75 -4 -12 -11 -75 -14 -140 -4 -65 -11 -131 -16 -148 -11 -38&#10;-29 -316 -36 -555 -2 -102 -8 -189 -13 -194 -18 -19 -53 83 -70 204 -5 36 -14&#10;99 -20 140 -14 100 -50 804 -42 827 2 6 19 -6 39 -28 25 -28 43 -39 64 -39z"/>
<path d="M5145 3169 c-75 -51 -106 -80 -159 -149 -59 -76 -79 -135 -73 -213 6&#10;-84 26 -188 39 -204 13 -16 23 -101 38 -308 5 -82 16 -172 22 -200 17 -69 18&#10;-786 1 -835 -6 -19 -15 -54 -18 -77 -6 -37 -3 -46 19 -68 39 -39 50 -35 153&#10;59 38 35 64 72 93 131 22 45 40 89 40 96 1 8 8 32 16 54 8 22 19 65 24 95 9&#10;59 24 137 40 210 6 25 15 104 21 175 5 72 14 168 19 215 4 47 9 143 9 213 1&#10;121 21 256 42 282 8 11 21 56 40 145 20 91 -10 210 -72 283 -52 61 -166 137&#10;-205 137 -17 0 -52 -16 -89 -41z m118 -25 c68 -35 128 -86 160 -136 26 -42 39&#10;-158 26 -237 -6 -36 -15 -70 -19 -76 -5 -5 -11 -27 -15 -48 -4 -20 -11 -40&#10;-16 -43 -5 -3 -9 -13 -9 -23 0 -10 -17 -41 -37 -69 -76 -102 -182 -120 -262&#10;-43 -77 74 -114 181 -115 336 -1 94 2 114 19 139 25 38 83 104 114 131 13 11&#10;31 27 40 35 15 12 68 46 79 49 2 1 17 -6 35 -15z m123 -768 c-4 -44 -11 -108&#10;-17 -141 -5 -33 -14 -125 -19 -205 -13 -195 -44 -406 -76 -514 -8 -26 -14 -57&#10;-14 -67 0 -10 -4 -20 -9 -23 -5 -4 -12 -24 -16 -46 -4 -22 -11 -42 -15 -45 -5&#10;-3 -19 -26 -31 -51 -28 -54 -96 -124 -122 -124 -16 0 -18 5 -13 33 35 193 47&#10;531 26 742 -6 55 -15 150 -21 210 -5 61 -15 152 -20 204 -5 51 -7 96 -4 99 3&#10;3 20 -8 38 -26 17 -17 53 -38 79 -47 44 -14 51 -14 99 1 32 11 66 32 88 54 20&#10;20 40 35 44 32 5 -2 6 -41 3 -86z"/>
<path d="M8210 3203 c-38 -15 -134 -89 -170 -131 -62 -73 -93 -202 -71 -289 6&#10;-24 16 -62 22 -85 5 -23 14 -47 18 -53 22 -29 41 -152 42 -277 0 -73 5 -171 9&#10;-218 5 -47 14 -146 20 -220 6 -74 14 -148 19 -165 6 -16 13 -58 16 -93 4 -34&#10;11 -65 16 -68 5 -3 9 -22 9 -42 0 -21 9 -63 20 -95 11 -31 20 -62 20 -68 0 -7&#10;18 -49 40 -94 29 -60 55 -95 94 -131 100 -91 114 -97 152 -59 22 22 25 31 19&#10;68 -3 23 -12 58 -18 77 -17 49 -16 766 1 835 6 28 17 118 22 200 15 207 25&#10;292 38 308 13 16 33 120 39 204 7 97 -23 163 -127 277 -19 21 -64 58 -101 82&#10;-61 41 -93 50 -129 37z m66 -58 c51 -26 93 -62 154 -132 73 -83 75 -87 74&#10;-208 -1 -155 -38 -262 -115 -336 -80 -77 -186 -59 -262 43 -20 28 -37 59 -37&#10;69 0 10 -4 20 -9 23 -5 3 -12 23 -16 43 -4 21 -10 43 -15 48 -19 24 -30 144&#10;-20 214 13 92 39 134 120 193 27 19 86 54 96 58 1 0 15 -7 30 -15z m-47 -769&#10;c48 -15 55 -15 99 -1 26 9 62 30 79 47 18 18 35 29 39 26 3 -4 1 -50 -6 -105&#10;-6 -54 -15 -143 -20 -198 -5 -55 -14 -145 -20 -200 -21 -211 -9 -558 26 -752&#10;5 -28 3 -33 -13 -33 -28 0 -97 73 -124 130 -13 28 -27 50 -30 50 -4 0 -10 18&#10;-14 40 -4 22 -11 42 -16 46 -5 3 -9 13 -9 23 0 10 -6 41 -14 67 -32 108 -63&#10;319 -76 514 -5 80 -14 172 -19 205 -15 87 -24 213 -16 224 3 6 23 -7 44 -28&#10;23 -23 58 -44 90 -55z"/>
<path d="M3020 3188 c-46 -18 -115 -53 -120 -60 -12 -15 -39 -11 -94 16 -84&#10;40 -123 43 -198 15 -35 -13 -68 -28 -75 -34 -36 -30 -43 -35 -57 -35 -8 0 -18&#10;5 -21 10 -16 26 -110 -3 -143 -44 -13 -17 -22 -49 -26 -93 -7 -75 7 -248 23&#10;-266 5 -7 17 -41 26 -76 14 -53 16 -104 12 -320 -4 -252 -11 -318 -50 -471 -7&#10;-30 -19 -68 -25 -83 -7 -16 -12 -31 -12 -35 0 -4 -13 -43 -30 -85 -36 -95 -38&#10;-148 -7 -194 28 -41 58 -42 109 -5 91 68 120 92 141 119 12 15 24 30 27 33 12&#10;10 110 178 110 188 0 6 4 12 9 14 4 2 40 69 80 150 39 80 78 149 86 152 23 8&#10;43 -20 51 -70 10 -68 -1 -204 -19 -239 -73 -138 -87 -213 -52 -270 46 -73 72&#10;-72 158 6 120 110 188 236 217 404 23 127 32 224 26 270 -20 161 -25 229 -20&#10;310 6 114 19 164 61 242 18 34 33 72 33 83 0 12 5 30 11 41 17 33 12 169 -7&#10;209 -24 48 -73 95 -118 114 -44 18 -70 19 -106 4z m95 -54 c36 -11 75 -69 84&#10;-126 11 -70 -4 -170 -35 -231 -13 -27 -24 -54 -24 -61 0 -40 -146 -89 -202&#10;-67 -52 20 -135 24 -169 8 -74 -33 -109 -39 -227 -42 l-122 -4 -24 32 c-14 18&#10;-28 46 -32 62 -4 17 -11 35 -16 41 -4 7 -9 68 -9 138 -1 157 2 162 104 159 62&#10;-3 72 0 105 26 20 15 62 35 92 43 49 13 61 13 107 -2 29 -9 66 -26 82 -38 38&#10;-28 45 -28 85 3 18 14 38 25 43 25 6 0 16 6 23 14 17 22 92 32 135 20z m-19&#10;-623 c-5 -62 -3 -166 4 -243 15 -181 -5 -389 -45 -465 -8 -15 -15 -33 -15 -40&#10;0 -42 -131 -212 -188 -246 l-31 -18 -11 40 c-13 51 5 123 52 206 21 36 31 99&#10;31 180 -1 109 -10 147 -43 184 -52 57 -107 33 -154 -66 -32 -68 -156 -303&#10;-191 -362 -31 -53 -91 -123 -132 -157 -27 -21 -54 -44 -61 -51 -15 -15 -23&#10;-16 -46 -7 -18 7 -23 79 -7 89 5 3 12 19 16 36 4 17 13 42 21 57 8 15 14 34&#10;14 42 0 9 4 20 10 26 5 5 14 30 20 54 5 25 16 74 25 110 32 133 36 181 34 429&#10;l-2 254 155 1 c94 1 160 5 169 12 35 27 100 36 169 23 69 -12 175 -6 185 12 4&#10;5 11 9 17 9 7 0 8 -34 4 -109z"/>
<path d="M10351 3183 c-43 -18 -92 -67 -115 -113 -20 -40 -24 -176 -7 -209 6&#10;-11 11 -29 11 -41 0 -11 14 -46 31 -78 53 -98 62 -141 62 -318 0 -110 -4 -172&#10;-12 -193 -14 -32 -12 -76 8 -259 6 -50 15 -101 21 -111 5 -11 10 -28 10 -38 0&#10;-10 7 -31 15 -47 8 -15 15 -34 15 -40 0 -22 98 -161 147 -207 97 -92 133 -99&#10;174 -32 39 66 28 134 -48 278 -18 35 -29 171 -19 239 8 50 28 78 51 70 8 -3&#10;47 -72 86 -152 40 -81 76 -148 80 -150 5 -2 9 -8 9 -14 0 -10 98 -178 110&#10;-188 3 -3 15 -18 27 -33 21 -27 50 -51 141 -119 51 -37 81 -36 110 5 30 46 28&#10;99 -8 194 -16 42 -30 81 -30 85 0 4 -5 19 -12 35 -6 15 -18 53 -25 83 -39 153&#10;-46 219 -50 471 -4 216 -2 267 12 320 9 35 21 69 27 76 14 17 29 199 22 270&#10;-8 71 -31 107 -83 129 -39 16 -77 18 -86 4 -3 -5 -13 -10 -21 -10 -14 0 -21 5&#10;-57 35 -7 6 -40 21 -75 34 -74 28 -113 25 -194 -13 -54 -26 -93 -33 -100 -18&#10;-1 4 -23 17 -48 29 -102 48 -122 51 -179 26z m192 -93 c33 -22 64 -40 69 -40&#10;5 0 24 11 41 23 18 13 57 31 87 39 49 13 60 13 108 -2 30 -9 69 -28 87 -43 30&#10;-24 41 -26 102 -24 101 3 105 -2 104 -159 0 -70 -5 -131 -9 -138 -5 -6 -12&#10;-24 -16 -41 -4 -16 -18 -44 -32 -61 l-23 -32 -113 2 c-111 3 -187 16 -238 43&#10;-32 16 -58 16 -140 -1 -103 -22 -230 11 -230 59 0 6 -11 34 -24 62 -30 62 -46&#10;167 -35 236 7 43 16 59 50 91 40 38 42 38 97 32 41 -5 71 -17 115 -46z m-138&#10;-479 c10 -17 111 -23 185 -12 74 12 110 7 169 -22 15 -8 79 -12 175 -12 l151&#10;0 -3 -246 c-4 -244 1 -304 33 -439 9 -36 20 -85 25 -110 6 -24 15 -49 20 -54&#10;6 -6 10 -17 10 -26 0 -8 6 -27 14 -42 8 -15 17 -40 21 -57 4 -17 11 -33 16&#10;-36 16 -10 11 -82 -7 -89 -23 -9 -31 -8 -46 7 -7 7 -34 30 -61 51 -41 34 -101&#10;104 -132 157 -32 53 -154 285 -193 366 -50 103 -109 123 -159 54 -27 -35 -36&#10;-80 -36 -176 0 -82 11 -144 31 -180 50 -88 69 -186 45 -229 -8 -15 -14 -13&#10;-50 13 -65 47 -146 159 -181 251 -50 129 -69 326 -49 515 7 73 10 150 6 175&#10;-17 98 -7 178 16 141z"/>
<path d="M1970 3180 c-19 -5 -36 -13 -38 -19 -2 -6 -10 -11 -17 -11 -8 0 -34&#10;-13 -58 -30 -56 -38 -75 -37 -153 1 -53 26 -75 30 -139 31 -84 0 -108 -10&#10;-162 -70 -61 -67 -73 -153 -43 -322 6 -36 15 -87 20 -115 35 -196 45 -403 25&#10;-505 -24 -124 -39 -168 -116 -334 -8 -17 -14 -62 -14 -107 0 -72 2 -81 27&#10;-105 20 -21 32 -25 52 -20 34 8 120 94 171 171 22 33 43 62 46 65 3 3 12 19&#10;21 35 8 17 32 62 53 100 21 39 52 96 69 128 16 31 34 57 38 57 4 0 8 -14 8&#10;-31 0 -33 -35 -190 -49 -224 -30 -69 -65 -187 -68 -230 -3 -53 12 -83 50 -98&#10;38 -14 145 57 203 134 26 36 84 158 84 179 0 5 4 18 9 28 16 29 51 147 51 170&#10;0 12 4 30 9 40 13 23 51 194 51 227 0 14 5 35 11 46 6 11 14 50 19 87 30 221&#10;39 272 59 322 17 44 21 76 21 162 0 60 -4 110 -10 113 -5 3 -10 14 -10 24 0&#10;10 -18 37 -40 59 -51 50 -97 61 -180 42z m136 -72 c31 -29 37 -43 49 -112 18&#10;-109 -1 -206 -53 -263 l-36 -38 -161 0 c-123 0 -166 -3 -178 -14 -11 -8 -44&#10;-14 -90 -15 -86 -1 -130 17 -188 76 -45 46 -53 80 -47 181 8 123 60 177 168&#10;177 32 0 61 -4 64 -9 3 -4 20 -11 38 -15 17 -3 40 -14 51 -24 26 -23 115 -22&#10;132 1 15 20 110 70 150 78 55 12 65 9 101 -23z m-630 -451 c29 -28 135 -62&#10;167 -54 12 3 47 13 77 22 57 18 89 20 224 9 51 -4 82 -2 89 5 6 6 18 11 26 11&#10;8 0 23 8 34 18 22 20 23 24 -7 -138 -9 -47 -20 -112 -26 -145 -6 -33 -15 -74&#10;-20 -90 -6 -17 -13 -53 -16 -80 -4 -28 -10 -55 -15 -60 -4 -6 -11 -31 -14 -55&#10;-4 -25 -10 -54 -15 -65 -5 -11 -18 -54 -30 -95 -12 -41 -28 -87 -36 -102 -8&#10;-14 -14 -31 -14 -38 0 -15 -61 -106 -97 -146 -36 -39 -87 -58 -103 -39 -12 15&#10;0 84 25 131 8 16 15 39 15 51 0 12 4 24 9 27 5 4 12 25 16 49 3 23 10 51 15&#10;62 9 20 27 113 37 193 6 47 -15 82 -48 82 -16 0 -67 -56 -82 -90 -8 -17 -30&#10;-53 -37 -60 -3 -3 -18 -30 -33 -60 -72 -141 -147 -255 -211 -323 -39 -42 -47&#10;-47 -65 -37 -39 20 -25 103 40 236 16 33 29 65 29 71 0 6 7 24 15 39 8 16 15&#10;43 15 60 0 16 6 36 13 43 17 17 17 383 0 426 -6 17 -15 60 -18 98 -7 75 0 82&#10;41 44z"/>
<path d="M11393 3183 c-29 -6 -103 -80 -103 -104 0 -10 -4 -21 -10 -24 -6 -3&#10;-10 -53 -10 -113 0 -86 4 -118 21 -162 20 -50 29 -101 59 -322 5 -37 13 -76&#10;19 -87 6 -11 11 -32 11 -46 0 -33 38 -204 51 -227 5 -10 9 -28 9 -40 0 -23 35&#10;-141 51 -170 5 -10 9 -23 9 -28 0 -13 34 -92 57 -135 58 -104 181 -197 235&#10;-176 34 13 51 51 46 102 -5 38 -43 164 -69 224 -14 34 -49 191 -49 224 0 17 4&#10;31 8 31 4 0 22 -26 38 -57 17 -32 48 -89 69 -128 21 -38 45 -83 53 -100 9 -16&#10;18 -32 21 -35 3 -3 24 -32 46 -65 51 -77 137 -163 171 -171 20 -5 32 -1 52 20&#10;25 24 27 33 27 105 0 45 -6 90 -14 107 -26 57 -70 158 -86 199 -37 97 -48 300&#10;-26 485 12 101 15 124 41 270 30 169 18 255 -43 322 -54 60 -78 70 -162 70&#10;-64 -1 -86 -5 -139 -31 -78 -38 -97 -39 -153 -1 -24 17 -50 30 -58 30 -7 0&#10;-15 5 -17 11 -7 20 -98 33 -155 22z m164 -85 c32 -17 61 -36 65 -43 17 -29&#10;148 -24 148 5 0 5 16 12 35 16 19 3 38 10 41 15 3 5 32 9 64 9 108 0 160 -54&#10;168 -177 6 -101 -2 -135 -47 -181 -58 -59 -102 -77 -188 -76 -46 1 -79 7 -90&#10;15 -12 11 -55 14 -178 14 l-161 0 -36 39 c-51 56 -71 156 -52 264 11 68 17 81&#10;49 110 34 31 41 33 81 27 24 -3 69 -20 101 -37z m-136 -448 c8 0 20 -5 26 -11&#10;7 -7 38 -9 89 -5 135 11 167 9 224 -9 30 -9 65 -19 77 -22 32 -8 138 26 167&#10;54 41 38 48 31 41 -44 -3 -38 -12 -81 -18 -98 -17 -43 -17 -409 1 -426 6 -7&#10;12 -27 12 -43 0 -17 7 -44 15 -60 8 -15 15 -33 15 -39 0 -6 13 -38 29 -71 65&#10;-133 79 -216 40 -236 -18 -10 -26 -5 -65 37 -59 62 -149 198 -198 298 -8 17&#10;-29 53 -45 80 -17 28 -34 57 -38 65 -15 35 -66 90 -82 90 -33 0 -54 -35 -48&#10;-82 10 -80 28 -173 37 -193 5 -11 12 -39 15 -62 4 -24 11 -45 16 -49 5 -3 9&#10;-14 9 -25 0 -11 9 -39 19 -62 11 -24 21 -61 23 -82 l3 -40 -37 1 c-28 1 -44 9&#10;-68 35 -39 43 -100 133 -100 149 0 7 -6 24 -14 38 -8 15 -24 61 -36 102 -12&#10;41 -25 84 -30 95 -5 11 -11 40 -15 64 -3 24 -9 49 -13 55 -7 11 -23 88 -41&#10;193 -5 28 -14 66 -19 85 -6 18 -16 67 -22 108 -7 41 -14 91 -17 110 -5 34 -5&#10;35 14 18 11 -10 26 -18 34 -18z"/>
<path d="M4393 3161 c-39 -22 -173 -129 -191 -153 -7 -9 -20 -24 -28 -33 -9&#10;-9 -20 -32 -25 -53 -9 -40 5 -178 20 -196 13 -15 28 -105 48 -281 20 -170 29&#10;-679 13 -733 -6 -20 -13 -87 -17 -147 -6 -115 3 -158 45 -207 54 -64 163 53&#10;220 236 12 38 22 77 22 86 0 9 4 20 10 26 9 9 17 38 44 169 7 33 16 67 19 75&#10;4 8 12 44 17 80 16 110 39 244 45 265 3 11 10 72 15 135 17 200 28 280 38 293&#10;6 7 13 30 17 52 4 22 11 54 17 70 8 23 6 44 -6 86 -17 58 -46 91 -136 160 -25&#10;18 -47 36 -50 39 -19 19 -72 50 -87 49 -10 0 -32 -8 -50 -18z m149 -107 c99&#10;-79 115 -98 123 -144 9 -55 -24 -193 -59 -248 -49 -77 -107 -112 -183 -112&#10;-48 1 -64 5 -96 29 -56 42 -89 92 -102 151 -4 19 -11 40 -16 46 -5 6 -10 43&#10;-11 81 -2 53 2 74 14 86 9 9 18 20 20 25 1 4 31 29 65 55 34 26 69 54 77 62&#10;15 16 53 33 73 34 6 1 49 -29 95 -65z m68 -501 c-1 -48 -42 -331 -59 -403 -5&#10;-25 -10 -62 -11 -83 0 -20 -4 -45 -10 -55 -5 -9 -14 -42 -19 -72 -17 -93 -37&#10;-174 -49 -203 -7 -16 -12 -39 -12 -52 0 -13 -4 -26 -9 -29 -5 -3 -12 -21 -15&#10;-40 -4 -20 -13 -48 -21 -63 -8 -15 -15 -34 -15 -41 0 -27 -66 -112 -86 -112&#10;-7 0 -20 16 -29 35 -18 37 -17 91 5 225 18 114 8 736 -14 810 -27 92 -19 121&#10;23 83 50 -47 65 -53 134 -53 72 0 125 21 155 62 19 26 32 22 32 -9z"/>
<path d="M8990 3160 c-14 -11 -29 -23 -35 -28 -5 -4 -30 -23 -55 -41 -91 -69&#10;-119 -102 -136 -160 -12 -42 -14 -63 -6 -86 6 -16 13 -48 17 -70 4 -22 11 -45&#10;17 -52 10 -13 21 -93 37 -288 6 -60 14 -132 20 -160 12 -59 28 -153 41 -245 6&#10;-36 13 -72 16 -80 4 -8 13 -44 21 -80 7 -36 18 -85 23 -110 6 -24 15 -49 20&#10;-54 6 -6 10 -17 10 -26 0 -9 10 -48 22 -86 57 -183 166 -300 220 -236 42 49&#10;51 92 45 207 -4 60 -11 127 -17 147 -16 56 -7 564 13 733 21 179 36 266 48&#10;281 15 18 29 156 20 196 -5 21 -16 44 -25 53 -8 9 -21 24 -28 33 -17 22 -143&#10;123 -189 150 -45 27 -67 27 -99 2z m75 -50 c15 -6 33 -17 41 -25 8 -8 43 -36&#10;77 -62 34 -26 64 -51 65 -55 2 -5 11 -15 19 -23 17 -17 20 -149 4 -169 -5 -6&#10;-12 -26 -16 -44 -14 -68 -41 -107 -106 -155 -29 -22 -47 -27 -93 -27 -99 0&#10;-188 79 -216 192 -34 135 -35 183 -2 224 21 26 181 154 192 154 5 0 21 -5 35&#10;-10z m-163 -548 c30 -41 83 -62 155 -62 69 0 84 6 134 53 33 30 41 21 34 -35&#10;-4 -29 -12 -64 -18 -78 -17 -38 -22 -686 -7 -780 22 -132 23 -195 6 -229 -9&#10;-17 -22 -31 -29 -31 -21 0 -87 85 -87 112 0 7 -7 26 -15 41 -8 15 -17 43 -21&#10;63 -3 19 -10 37 -15 40 -5 3 -9 16 -9 29 0 13 -5 36 -12 52 -12 29 -32 110&#10;-49 203 -5 30 -14 63 -19 72 -6 10 -10 35 -10 55 -1 21 -5 58 -11 83 -9 41&#10;-18 99 -48 305 -18 120 -11 152 21 107z"/>
<path d="M3685 3160 c-3 -5 -15 -10 -25 -10 -10 0 -25 -6 -32 -12 -17 -16 -46&#10;-35 -73 -48 -51 -24 -102 -70 -125 -110 -20 -38 -24 -59 -25 -131 0 -55 5 -91&#10;13 -101 7 -9 19 -76 27 -149 8 -74 20 -172 26 -219 6 -47 14 -121 20 -165 5&#10;-44 13 -91 18 -105 6 -14 13 -54 17 -90 3 -36 11 -76 16 -90 5 -13 11 -132 14&#10;-264 2 -148 9 -253 16 -275 14 -41 46 -81 64 -81 18 0 101 80 113 110 6 14 15&#10;32 20 40 5 8 13 26 19 40 6 14 20 46 31 72 12 26 21 58 21 72 0 14 4 27 9 30&#10;5 4 12 25 16 49 3 23 10 53 16 67 13 36 28 190 44 460 15 260 27 366 49 437&#10;52 170 48 281 -14 343 -30 30 -174 120 -191 120 -10 0 -21 5 -24 10 -3 6 -17&#10;10 -30 10 -13 0 -27 -4 -30 -10z m150 -106 c115 -70 119 -77 111 -210 -4 -68&#10;-12 -123 -21 -140 -8 -16 -15 -35 -15 -42 0 -7 -8 -25 -17 -40 -60 -92 -154&#10;-136 -244 -112 -54 14 -133 92 -144 141 -4 19 -11 40 -16 49 -8 15 -27 84 -36&#10;132 -3 15 3 54 12 86 17 55 22 62 84 103 116 78 143 90 179 84 18 -3 67 -26&#10;107 -51z m-214 -591 c24 -13 59 -23 78 -23 40 0 116 35 148 67 49 51 50 38 23&#10;-242 -5 -55 -14 -165 -19 -245 -11 -168 -40 -319 -77 -407 -8 -17 -14 -38 -14&#10;-46 0 -9 -4 -18 -9 -21 -5 -3 -12 -17 -15 -30 -10 -40 -70 -134 -89 -139 -26&#10;-7 -31 26 -32 213 -1 158 -19 413 -31 432 -8 12 -33 162 -45 268 -5 47 -14 99&#10;-19 115 -14 47 -23 122 -15 135 4 7 18 0 40 -21 18 -18 52 -43 76 -56z"/>
<path d="M9735 3160 c-3 -5 -14 -10 -24 -10 -17 0 -161 -90 -191 -120 -62 -62&#10;-66 -173 -14 -343 22 -71 34 -177 49 -437 16 -270 31 -424 44 -460 6 -14 13&#10;-44 16 -67 4 -24 11 -45 16 -49 5 -3 9 -16 9 -30 0 -14 9 -46 21 -72 11 -26&#10;25 -58 31 -72 6 -14 14 -32 19 -40 5 -8 14 -26 20 -40 12 -30 95 -110 113&#10;-110 18 0 50 40 64 81 7 22 14 128 16 282 3 135 9 254 14 264 5 10 13 47 17&#10;83 3 36 11 80 17 98 9 31 16 78 38 267 6 50 17 148 26 219 8 72 20 137 27 145&#10;7 8 12 47 12 100 -1 72 -5 93 -25 130 -22 38 -99 108 -123 110 -4 1 -26 15&#10;-49 31 -22 17 -49 30 -59 30 -10 0 -21 5 -24 10 -3 6 -17 10 -30 10 -13 0 -27&#10;-4 -30 -10z m168 -121 c92 -61 95 -63 112 -121 17 -58 17 -74 -5 -158 -12 -46&#10;-15 -55 -45 -127 -36 -85 -132 -143 -214 -128 -56 11 -117 52 -150 102 -17 26&#10;-31 51 -31 57 0 6 -7 24 -15 39 -9 17 -17 73 -21 137 -8 128 -2 142 79 194&#10;147 94 156 94 290 5z m73 -549 c-4 -33 -11 -72 -16 -87 -5 -16 -14 -66 -19&#10;-113 -12 -105 -37 -256 -45 -268 -12 -20 -30 -275 -31 -437 -1 -185 -6 -215&#10;-33 -208 -18 5 -78 99 -88 139 -3 13 -10 27 -15 30 -5 3 -9 12 -9 21 0 8 -6&#10;29 -14 46 -37 88 -66 239 -77 407 -5 80 -14 190 -19 245 -27 280 -26 293 23&#10;242 31 -32 108 -67 147 -67 42 0 113 35 153 77 18 18 36 33 41 33 5 0 6 -27 2&#10;-60z"/>
<path d="M880 3130 c-8 -5 -24 -10 -35 -10 -11 0 -33 -7 -49 -15 -15 -8 -41&#10;-15 -56 -15 -15 0 -41 7 -56 15 -42 22 -143 19 -206 -6 -39 -15 -64 -19 -96&#10;-14 -41 6 -45 4 -85 -37 -74 -76 -84 -203 -25 -319 32 -63 26 -492 -8 -558 -8&#10;-14 -14 -32 -14 -39 0 -37 -71 -152 -132 -214 -97 -99 -108 -126 -65 -166 19&#10;-18 35 -22 84 -22 65 0 95 10 158 52 78 51 174 158 236 260 23 38 45 68 50 68&#10;14 0 10 -59 -6 -88 -8 -15 -24 -49 -35 -75 -12 -27 -40 -79 -62 -115 -32 -52&#10;-41 -77 -42 -114 -1 -55 4 -62 47 -61 62 2 180 79 277 182 91 96 91 96 121&#10;152 13 24 27 46 30 49 10 8 49 98 49 112 0 8 4 18 9 23 9 10 14 26 48 160 26&#10;105 32 148 32 235 1 74 7 103 47 220 40 116 45 143 41 188 -6 60 -39 111 -91&#10;143 -34 21 -139 27 -166 9z m158 -68 c11 -10 28 -37 38 -60 17 -44 14 -64 -26&#10;-182 -5 -14 -12 -40 -15 -57 l-7 -33 -124 0 c-105 0 -130 -3 -161 -20 -21 -11&#10;-45 -20 -53 -20 -9 0 -22 -6 -28 -12 -9 -9 -49 -13 -125 -13 -132 0 -174 15&#10;-212 75 -46 73 -46 215 0 265 21 22 30 25 61 19 19 -3 45 -2 57 4 40 19 120&#10;42 148 42 14 0 43 -7 62 -15 46 -19 129 -19 170 -1 52 23 59 24 128 25 50 1&#10;71 -3 87 -17z m-34 -380 c13 -21 -23 -272 -57 -402 -14 -52 -20 -69 -53 -147&#10;-8 -17 -14 -34 -14 -37 0 -21 -104 -169 -158 -225 -68 -69 -196 -161 -226&#10;-161 -25 0 -20 19 25 95 44 75 79 148 79 163 0 5 7 23 15 38 8 16 15 37 15 47&#10;0 9 4 25 9 35 5 9 14 52 21 96 10 68 10 81 -3 94 -22 22 -45 8 -67 -40 -78&#10;-170 -213 -340 -335 -421 -28 -18 -60 -29 -101 -33 -88 -9 -89 8 -6 93 71 72&#10;139 176 149 227 3 17 12 40 20 51 7 11 13 34 13 52 0 17 5 44 10 59 14 35 14&#10;313 0 349 -14 36 -8 41 32 22 62 -29 114 -39 174 -34 61 5 134 20 169 37 75&#10;34 98 40 165 43 41 2 85 4 97 5 12 1 24 -2 27 -6z"/>
<path d="M12434 3121 c-52 -32 -85 -83 -91 -143 -4 -45 1 -72 41 -188 40 -117&#10;46 -146 47 -220 0 -87 6 -130 32 -235 34 -134 39 -150 48 -160 5 -5 9 -15 9&#10;-23 0 -18 35 -94 73 -155 41 -68 40 -66 127 -158 69 -74 119 -112 209 -162 42&#10;-23 99 -26 112 -7 19 28 3 94 -39 162 -22 36 -50 88 -62 115 -12 26 -28 62&#10;-36 80 -16 35 -19 83 -5 83 5 0 27 -30 50 -68 83 -138 209 -260 311 -302 41&#10;-17 127 -18 158 -1 24 13 37 49 27 80 -3 11 -38 53 -78 94 -66 68 -137 181&#10;-137 219 0 7 -6 25 -14 39 -19 38 -28 151 -27 348 1 148 4 180 19 210 59 116&#10;49 243 -25 319 -40 41 -44 43 -85 37 -32 -5 -57 -1 -96 14 -63 25 -164 28&#10;-206 6 -32 -17 -87 -20 -101 -6 -16 16 -95 33 -165 38 -52 3 -71 0 -96 -16z&#10;m221 -65 c38 -20 124 -21 172 -1 19 8 48 15 62 15 28 0 108 -23 148 -42 12 -6&#10;38 -7 57 -4 31 6 40 3 61 -19 46 -50 46 -192 0 -265 -38 -60 -80 -75 -212 -75&#10;-76 0 -116 4 -125 13 -6 6 -19 12 -28 12 -8 0 -32 9 -53 20 -31 17 -56 20&#10;-161 20 l-124 0 -7 33 c-3 17 -10 43 -15 57 -40 118 -43 138 -26 182 29 70 48&#10;81 141 75 47 -2 92 -11 110 -21z m55 -393 c19 -8 44 -18 55 -23 35 -17 108&#10;-32 169 -37 60 -5 112 5 174 34 40 19 46 14 32 -23 -14 -36 -14 -312 0 -348 5&#10;-15 10 -42 10 -60 0 -18 7 -41 15 -52 8 -10 15 -27 15 -37 0 -19 38 -108 49&#10;-117 3 -3 19 -24 34 -47 16 -23 53 -64 83 -92 38 -36 52 -55 47 -67 -10 -26&#10;-115 -12 -168 23 -79 52 -175 155 -253 269 -20 31 -61 106 -82 152 -22 48 -45&#10;62 -67 40 -13 -13 -13 -26 -3 -94 7 -44 16 -87 21 -96 5 -10 9 -26 9 -35 0&#10;-10 7 -31 15 -47 8 -15 15 -33 15 -38 0 -15 35 -88 79 -163 45 -76 50 -95 25&#10;-95 -30 0 -158 92 -226 161 -54 56 -158 204 -158 225 0 3 -6 20 -14 37 -33 78&#10;-39 95 -53 147 -34 129 -70 381 -57 401 8 13 195 -1 234 -18z"/>
</g></svg>