<svg version="1.0" width="900.000000pt" height="534.000000pt" viewBox="0 0 900.000000 534.000000" preserveAspectRatio="xMidYMid meet" xmlns="http://www.w3.org/2000/svg">
  <defs></defs>
  <path d="M 413 43.2 C 411.1 45.2 409.9 47.9 409.5 50.4 C 408.7 57 407 88.2 407 98.2 C 407 103.3 406.5 109.3 405.9 111.5 C 405.4 113.7 404.6 120 404.1 125.5 C 403.6 131 402.7 138.1 402.1 141.2 C 401.5 144.4 400.5 149.6 399.9 152.7 C 399.3 155.9 398.4 160.7 398 163.5 C 397.6 166.2 396.8 169.8 396.2 171.3 C 395.5 172.9 395 175.2 395 176.6 C 395 177.9 393.8 181.4 392.4 184.3 C 387.9 193.1 385.8 209 388 216.4 C 392.8 232.3 398.2 235 425.2 235 L 442.1 235 L 446.8 231.9 C 449.4 230.2 452.3 227.3 453.3 225.4 C 455.4 221.1 455.5 211.2 453.5 205.5 C 452.7 203.3 452 200.6 452 199.5 C 452 198.4 451.3 196.6 450.5 195.6 C 449.7 194.5 449 192.9 449 192.1 C 449 191.2 447.7 187.8 446.1 184.5 C 443 177.9 440 165.7 440 159.5 C 440 157.3 439.3 153 438.5 150 C 437.7 147 437 142.2 437 139.5 C 437 136.7 436.3 131.8 435.5 128.5 C 434.7 125.2 434 120 434 117 C 434 114 433.3 108.8 432.5 105.5 C 431.7 102.2 431 97.2 431 94.5 C 431 91.7 430.5 87.7 430 85.5 C 429.4 83.3 428.5 76.5 428 70.5 C 425.9 47.8 423.4 40 418.3 40 C 416.9 40 414.7 41.3 413 43.2 Z M 422 50.4 C 422.1 52.1 422.7 56.4 423.5 60 C 424.3 63.6 425 69.2 425 72.5 C 425 75.8 425.7 81.2 426.5 84.5 C 427.3 87.8 428 93.2 428 96.5 C 428 99.8 428.7 105.2 429.5 108.5 C 430.3 111.8 431 117 431 120 C 431 123 431.7 128 432.5 131 C 433.3 134 434 138.6 434 141.2 C 434 143.8 434.6 148.7 435.4 152.2 C 437.6 162.3 438.1 171 436.4 171.7 C 435.6 172 434.3 171.7 433.5 171 C 430.5 168.5 420.7 167.2 414.2 168.4 C 410.9 169 407.8 169.9 407.3 170.3 C 406.4 171.3 399.8 174.1 399.4 173.8 C 399.1 173.5 400.2 168.4 402.2 160 C 402.8 157.5 403.6 152.8 404 149.5 C 404.4 146.2 405.2 140.8 405.8 137.5 C 408.4 123.4 409.4 111.4 411.8 65.3 C 412.6 49.1 412.8 47.9 415.1 45.6 L 417.5 43.1 L 419.7 45.2 C 421.1 46.5 422 48.6 422 50.4 Z M 431.1 173.6 C 431.9 174.3 433.1 175 433.8 175 C 435.1 175 443 184.1 443 185.7 C 443 186.3 443.6 188.1 444.4 189.7 C 447.2 195.3 449 200.1 449 201.9 C 449 202.9 449.7 205.4 450.5 207.3 C 454.1 215.9 451.3 225.6 444 229.8 C 440.5 231.8 438.8 232 425.8 232 C 407.6 232 400.8 230.5 396.3 225.4 C 393 221.7 390 213.5 390 208.4 C 390 200.4 393.6 188.1 397.5 182.7 C 400.4 178.5 408.7 172.8 412.9 171.9 C 418 170.8 429.1 171.8 431.1 173.6 Z" fill="#000000" stroke="none"></path>
  <path d="M 490.6 41.9 C 488.3 44.5 486 54.4 485 66 C 484.6 71.2 483.8 78.6 483.2 82.5 C 481.3 94.8 479.8 106.3 478.9 115 C 478.5 119.7 477.6 125.3 477.1 127.5 C 476.5 129.7 476 133.7 476 136.5 C 476 139.2 475.3 144 474.5 147 C 473.7 150 473 154.5 473 157 C 473 159.5 472.3 164.2 471.5 167.3 C 470.7 170.5 470 174.6 470 176.5 C 470 178.4 469.6 180.1 469.1 180.4 C 467.8 181.2 464 189.3 464 191.1 C 464 191.9 463.3 193.5 462.5 194.6 C 461.7 195.6 461 197.5 461 198.6 C 461 199.8 460.3 202.4 459.5 204.3 C 457.4 209.5 457.5 222.8 459.7 226 C 462 229.3 464.1 231.2 467.7 233.2 C 472 235.7 500.9 235.8 509.1 233.4 C 517.7 230.9 522.3 225.6 524.7 215.7 C 525.9 210.5 526 208.1 524.9 200.5 C 524.3 195.5 523.2 190.4 522.5 189 C 518.7 181.3 516.6 174.7 515 165 C 514.6 162.5 513.7 157.9 513.1 154.7 C 510.2 139.7 509.8 136.9 509 128.2 C 508.5 123.1 507.8 118.5 507.5 118 C 506.9 117 505.8 99.3 504.1 64.7 L 503.2 46.8 L 499.9 43.4 C 496.2 39.6 493.1 39.1 490.6 41.9 Z M 500.4 64.7 C 500.8 73.7 501.5 84.8 502 89.3 C 502.6 93.8 503 101.1 503 105.5 C 503 109.9 503.5 115.3 504 117.5 C 504.6 119.7 505.4 125.8 505.9 131 C 506.8 140.2 508 147.7 510.2 157 C 510.7 159.5 511.5 164.1 511.9 167.2 C 512.7 173.7 511.7 174.6 507.1 171.3 C 503 168.5 493.3 167 487 168.2 C 484 168.8 480.8 169.9 479.9 170.6 C 479.1 171.4 477.3 172 476.1 172 C 474.1 172 473.9 171.6 474.5 169.7 C 474.8 168.5 475.5 163.7 476 159 C 476.5 154.3 477.4 148.9 478 147 C 478.5 145.1 479 141.5 479 139 C 479.1 136.5 479.7 131.6 480.5 128 C 481.3 124.4 482 119.2 482 116.5 C 482 113.7 482.7 108.8 483.5 105.5 C 484.3 102.2 485 96.8 485 93.5 C 485 90.2 485.7 84.8 486.5 81.5 C 487.3 78.2 487.9 73 488 70 C 488 60.9 491 46.8 493.3 44.7 C 495.3 43 495.4 43 497.5 45.6 C 499.5 48.1 499.8 50 500.4 64.7 Z M 506.8 175.1 C 511.8 178.3 516.3 183.9 519.4 190.5 C 520.8 193.6 521.3 197 521.4 206 C 521.5 216.6 521.3 217.8 519 221.5 C 517.7 223.7 515.9 226.2 515 227.1 C 512.2 230.1 501.3 232 486.9 232 C 471.3 232 466.7 230.6 463.2 224.8 C 460.5 220.5 460.2 210.8 462.5 205.3 C 463.3 203.4 464 200.9 464 200 C 464 199 464.6 196.9 465.4 195.3 C 466.2 193.8 468.2 189.5 470 185.9 C 472.3 181 474.3 178.4 477.7 176 C 483.5 171.8 486.8 171 495.3 171.6 C 500.8 171.9 503.1 172.6 506.8 175.1 Z" fill="#000000" stroke="none"></path>
  <path d="M 353.9 63.1 C 349.4 68 349.5 67 348 107 C 347.4 122.1 346.3 138.8 345.5 144 C 344.6 149.2 344 155.1 344 157.1 C 344 159.1 343.3 162.7 342.5 165 C 341.7 167.3 341 170.9 340.9 172.9 C 340.9 174.9 339.8 178.5 338.5 181 C 333.8 189.9 332 194.3 332 196.4 C 332 197.6 331.3 199.6 330.4 200.9 C 327.2 205.4 330.5 223.8 335.4 228.9 C 340.2 233.9 347.3 235.4 362.2 234.6 C 376.7 233.9 381.5 232.5 383 228.4 C 385.5 222 379.9 188.7 375.4 183 C 373.5 180.6 371.9 167.9 371 147 C 370.5 136.3 369.6 121.6 369.1 114.5 C 368.5 107.3 368 94.2 368 85.2 C 368 67.8 367.3 64.5 362.6 60.8 C 359.5 58.2 358.1 58.6 353.9 63.1 Z M 363 67 C 364.8 70.5 365 72.8 365 90.7 C 365 101.6 365.5 115.7 366 122 C 366.6 128.3 367.4 141.8 367.9 152 C 368.4 162.2 369.1 171.2 369.5 172.1 C 370.6 174.9 368.1 175.4 362.6 173.5 C 357.5 171.8 357.2 171.8 351.4 173.8 C 347.9 175 345.1 175.5 344.6 175 C 344 174.4 344.3 171.7 345.3 168 C 346.2 164.7 347 160.1 347 157.8 C 347 155.4 347.5 151.9 348.1 150 C 349.3 146 350.6 125.7 351.8 92.8 C 352.7 68.8 352.7 68.7 357.9 64.2 C 360.2 62.3 360.8 62.7 363 67 Z M 363.3 177.3 C 371 180 373.5 184.3 378.1 202.5 C 379.8 209.3 380.9 224 379.9 226.7 C 378.9 229.4 377.8 229.7 365.6 231 C 350.9 232.5 340.9 230.7 337.2 225.9 C 333.5 221 332.1 209.1 334.1 200.3 C 336.7 189.3 341.5 181.9 348.2 178.6 C 354.2 175.7 357.8 175.4 363.3 177.3 Z" fill="#000000" stroke="none"></path>
  <path d="M 324.7 296.9 C 322.6 297.9 319.5 300 317.7 301.6 C 314.1 304.8 305 316.4 305 317.7 C 305 318.2 304.5 319.1 303.9 319.7 C 301.8 321.8 299 331.3 299 336.5 C 299 344.7 302.4 358.2 306.1 365 C 309.5 371.1 311 375.5 311 379.7 C 311.1 382.3 311.7 387.2 312.5 390.5 C 313.3 393.8 314 399.2 314 402.5 C 314.1 405.8 314.5 410.5 315.1 413 C 315.6 415.5 316.5 424.5 317 433 C 317.5 441.5 318.4 453.7 319 460 C 319.5 466.3 320 475.7 320 480.8 C 320 493.8 321.8 496.7 329.5 496.1 C 332.1 495.8 338 489.1 338 486.4 C 338 485.2 338.7 482.3 339.5 480 C 340.3 477.7 341 474.1 341 472.1 C 341 470.1 341.7 466.3 342.5 463.6 C 343.3 460.9 344 456.6 344 454.1 C 344.1 451.6 344.7 446.6 345.5 443 C 346.3 439.4 347 433.6 347 430 C 347 426.4 347.7 419 348.5 413.5 C 349.3 408 350 396.4 350 387.7 C 350 376.1 350.4 371.1 351.4 369.2 C 356 360.3 357.4 353.6 357.3 340.5 C 357.3 327.3 356.2 320.7 353.4 315.6 C 352.1 313.4 350.6 310.5 350.1 309.4 C 348.5 305.9 340.8 298.5 336.7 296.7 C 332.1 294.6 329.6 294.7 324.7 296.9 Z M 336.9 300.6 C 340.2 302.3 347.5 310.7 349.3 315 C 349.9 316.4 350.9 318.2 351.6 319 C 355.3 323.7 355.1 354.7 351.4 360.7 C 350.6 361.9 350 363.4 350 364.1 C 350 364.7 348.7 367.2 347 369.7 C 345.4 372.1 344 374.3 344 374.5 C 344 375.4 338 381.4 335.3 383.1 C 327.9 388 320.9 383.2 310.3 365.5 C 307.7 361.1 305.7 356.3 304.9 352.5 C 301.5 335 301.5 335.3 303.5 329.2 C 305.8 322.4 306.9 320.5 313.4 312 C 322.8 299.8 329.1 296.7 336.9 300.6 Z M 347 388.3 C 347 393.4 346.3 402.9 345.5 409.5 C 344.7 416.1 344 424.2 344 427.5 C 344 430.8 343.3 436.4 342.5 440 C 341.7 443.6 341 448.5 341 451 C 341 453.5 340.3 458 339.5 461 C 338.7 464 338 468.1 338 470.1 C 338 472.1 337.3 475.7 336.5 478 C 335.7 480.3 335 483.3 335 484.5 C 335 487.3 330.5 493 328.2 493 C 327.4 493 325.8 492.3 324.8 491.3 C 323.2 489.9 323 487.9 323 475.1 C 323 467.1 322.3 455.1 321.5 448.5 C 320.7 441.9 320 433.1 320 429 C 320 424.9 319.3 417.7 318.5 413 C 317.7 408.3 317 402 317 398.9 C 317 395.8 316.3 391.1 315.5 388.4 C 314.7 385.7 314.3 382.7 314.6 381.7 C 315.1 380.2 315.8 380.6 319.9 384 C 323.9 387.4 325.3 388 329.3 388 C 334.5 388 339.2 385.6 342.9 381.1 C 344.3 379.5 345.7 378.3 346.2 378.6 C 346.6 378.9 347 383.3 347 388.3 Z" fill="#000000" stroke="none"></path>
  <path d="M 575.1 297 C 570.6 299.5 567.4 302.6 563.7 308 C 559.3 314.2 557 319 557 321.6 C 557 322.9 556.6 325 556 326.4 C 552.6 335.4 554.2 352.4 559.7 365.5 C 562 371 562.3 373.3 563.1 394 C 563.6 406.4 564.4 418.7 564.9 421.5 C 565.4 424.2 565.9 429.4 566 433 C 566 436.6 566.7 442.2 567.5 445.5 C 568.3 448.8 568.9 453.6 569 456.1 C 569 458.6 569.7 462.9 570.5 465.6 C 571.3 468.3 572 472.1 572 474 C 572 479.2 575.3 488.8 578.4 492.6 C 580.6 495.4 581.8 496 585 496 C 588.3 496 589.1 495.5 590.9 492.6 C 592.8 489.6 593 487.7 593 474.9 C 593 467 593.5 456.4 594 451.5 C 594.6 446.5 595.5 436 596 428 C 596.5 420 597.4 411.7 598 409.5 C 598.5 407.3 599 402.8 599 399.5 C 599 396.2 599.7 390.8 600.5 387.5 C 601.3 384.2 602 379.5 602 377 C 602.1 374.1 602.9 371.1 604.5 368.5 C 605.9 366.3 607.2 363.8 607.6 363 C 607.9 362.2 608.7 360.1 609.5 358.5 C 610.6 355.9 611.5 351.4 613.5 338 C 613.7 336.6 613.2 332.6 612.3 329.1 C 608.4 313.2 591.6 294.8 581.1 295.1 C 579.7 295.1 577 296 575.1 297 Z M 586.4 299.9 C 594.2 303.5 605.6 318 608.7 328.3 C 609.7 331.9 610 335.4 609.6 339.5 C 608.5 350.2 607.4 356 606.2 357.2 C 605.5 357.9 605 359 605 359.8 C 605 360.6 603.7 363.2 602 365.7 C 600.4 368.1 599 370.3 599 370.6 C 599 372.1 590.7 381.8 588.2 383.2 C 584 385.7 580.9 385.4 576.3 382.1 C 572.5 379.4 567.1 373.1 565.7 370 C 565.3 369.2 564.6 367.8 564.2 367 C 560.1 359.9 559.2 356.1 558.3 343.5 C 557.5 330.9 559.4 322.1 565.7 310.7 C 567.8 306.8 572.4 302.3 576.5 300.2 C 581.5 297.6 581.2 297.6 586.4 299.9 Z M 569.8 381 C 570.4 382.1 572.8 384.1 575 385.5 C 579.6 388.4 587 388.9 589 386.5 C 589.7 385.7 590.6 385 591.1 385 C 591.5 385 593.1 383.8 594.7 382.4 C 598 379.4 598.6 380.4 597.1 386.5 C 596.5 388.9 596 393.3 596 396.2 C 596 399.1 595.3 405 594.5 409.3 C 593.7 413.6 593 420.2 593 423.8 C 593 427.5 592.3 435.9 591.5 442.5 C 590.7 449 590 461.8 590 470.8 C 590 488.4 589 493 585 493 C 580.4 493 576.8 485.3 575 471.5 C 574.6 467.6 573.7 463.2 573.1 461.7 C 572.5 460.1 572 456.8 572 454.2 C 572 451.6 571.5 447.7 571 445.5 C 570.4 443.3 569.5 436.3 569 430 C 568.5 423.7 567.6 415.3 567 411.5 C 565.6 400.9 565.7 379 567.3 379 C 568 379 569.1 379.9 569.8 381 Z" fill="#000000" stroke="none"></path>
  <path d="M 424.3 299.9 C 422 300.8 418.5 303.3 416.5 305.5 L 412.9 309.5 L 413.3 333 C 413.7 354 413.9 357.3 416 364 C 418.1 371 418.3 373.6 418.7 404 C 419.1 431.2 418.9 437.6 417.6 443.3 C 415.5 452.4 415.5 457.3 417.8 459.3 C 418.8 460.3 420.4 461 421.3 461 C 423.3 461 429.9 455.4 431.1 452.6 C 431.6 451.4 432.4 449.8 432.9 449 C 434.4 446.4 436.2 440.7 437 435.8 C 437.5 433.2 438.3 430.2 438.9 429.1 C 439.5 428 440 425.4 440 423.3 C 440 421.2 440.5 417.9 441 416 C 441.6 414.1 442.5 407.8 443 402 C 443.5 396.2 444.4 385.2 445 377.5 C 445.7 369.8 446.8 362.1 447.5 360.5 C 449.3 356.3 450.8 345.5 452.1 325.3 C 453.5 303.7 453.2 301.7 448 299.6 C 442.7 297.5 429.9 297.6 424.3 299.9 Z M 444.2 302 C 446.3 302.6 448.4 303.9 449 304.9 C 450.3 307.3 449.2 331.1 447.4 341.4 C 446.6 345.7 446 350.8 446 352.7 C 446 362.1 433.7 373.8 426.8 370.9 C 418.7 367.6 416.2 357.3 416.1 327.3 L 416 311 L 418.8 307.9 C 424.1 302 435 299.5 444.2 302 Z M 442.5 371 C 442.8 371.5 442.6 374.6 442 377.8 C 441.5 381 440.5 389.4 440 396.6 C 439.5 403.7 438.6 411.9 438 414.7 C 437.5 417.6 436.5 422.4 436 425.2 C 435.4 428.1 434.5 432.7 434 435.4 C 433.5 438.1 432.6 440.8 432 441.4 C 431.5 441.9 431 443.2 431 444.3 C 431 446.9 424.9 455.9 422.7 456.6 C 419 457.8 418.5 455.5 420.5 446.8 C 422 439.7 422.3 433.9 422.2 406.3 C 422.1 374.7 422.5 371.1 425.3 373.9 C 427.1 375.7 432.3 375.1 436.5 372.5 C 441 369.8 441.6 369.6 442.5 371 Z" fill="#000000" stroke="none"></path>
  <path d="M 464.4 299.4 C 460 301.3 458.6 305.5 459.4 313.8 C 459.8 317.5 460.5 325.7 460.9 332 C 462 346.8 463.9 359 465.6 361.5 C 466.5 362.7 467 366.5 467 372 C 467 376.7 467.5 383.4 468 387 C 468.6 390.6 469.5 398 469.9 403.5 C 470.8 413.2 472 420.6 474.2 430 C 474.8 432.5 475.6 436.1 476.1 438 C 477.8 445.6 480.4 451.2 484.2 455.4 C 488.5 460.4 491 461.6 493.9 460.1 C 496.8 458.5 497.3 454.2 495.4 446.5 C 494 440.7 493.7 434.1 493.7 407.5 C 493.7 376.1 493.8 375.3 496.4 364.5 C 498.8 355.1 499.2 350.6 499.7 333.4 C 500 322.3 500 312.1 499.6 310.7 C 498.7 307.1 493.7 302.4 488.3 300 C 482.9 297.6 469.3 297.3 464.4 299.4 Z M 487.2 303 C 489.7 304.1 493 306.6 494.5 308.6 L 497.3 312.3 L 496.6 331.9 C 496.2 342.7 495.4 354 494.7 357 C 493.3 363.4 490.1 368.4 486 370.5 C 483.5 371.8 482.7 371.8 479.7 370.5 C 475.8 368.9 468.2 360.8 467.6 357.6 C 465.4 346.1 464 335.2 464 329.6 C 464 325.9 463.5 319.8 462.9 316 C 461.2 304.5 464.2 301 476.1 301 C 480.6 301 484.2 301.6 487.2 303 Z M 476.4 372.6 C 481 375.2 482.9 375.3 488.8 373.5 L 491 372.8 L 490.4 397.1 C 489.9 419.1 490.6 436.7 492.6 451.6 C 493.1 454.9 492.8 455.8 491.4 456.4 C 488.6 457.5 483.3 450.4 480.8 442 C 477 429.5 476 425.2 476 422.4 C 476 420.8 475.5 417.9 474.9 416 C 474.3 414.1 473.5 407.8 473 402 C 472.6 396.2 471.7 387.1 471 381.7 C 470 373.3 470.2 370 471.4 370 C 471.6 370 473.8 371.2 476.4 372.6 Z" fill="#000000" stroke="none"></path>
  <path d="M 120.5 302.7 C 108.5 306.4 102.7 311.8 99.8 322.3 C 97.3 331 97.4 348.1 100 357.9 C 101.9 365 105.7 371.6 108.6 372.7 C 110.4 373.4 110.4 376 108.5 378.7 C 105.7 382.7 98 398.3 98 400 C 98 400.9 97.5 402.1 97 402.6 C 95.8 403.8 93.2 412.4 92.1 419 C 91.6 421.5 90.8 425.5 90.2 428 C 88.4 435.1 86.7 454.8 87.2 462.2 C 87.6 469.2 90 474.2 93.2 474.8 C 94 475 96.7 473.1 99.1 470.8 C 103.5 466.4 103.9 465.5 107.9 450 C 110.9 438.5 113.1 432.5 117.9 422.9 C 122.7 413.4 127.2 407.3 133 403 C 137 399.9 138.2 399.5 143.5 399.5 C 148.9 399.5 150.1 399.9 153.8 402.8 C 158.7 406.7 165.7 415.7 168.4 421.5 C 169.5 423.7 170.9 426.7 171.7 428.2 C 172.4 429.6 173 431.8 173 433 C 173 434.2 173.5 436 174.1 437.2 C 174.7 438.3 175.6 441.7 176.1 444.9 C 177.6 454.7 179.5 460.1 182.7 463.6 C 186.5 467.9 189.3 467.9 193.4 463.7 C 202 455.1 201.7 420.6 192.9 394.5 C 192.3 392.8 191.6 390.6 191.3 389.5 C 190.8 387.4 188.6 382.4 186.3 377.8 C 184.8 374.8 184.6 370 185.9 370 C 187 370 187.7 368.8 193.1 357.8 C 199 345.6 200 341.5 200 328.3 C 200 318.4 199.7 315.8 198 312.5 C 195.8 308.2 191.4 304.1 188.9 304 C 188 304 185.6 303.3 183.7 302.5 C 181.7 301.7 177.2 301 173.7 301 C 170.1 301 165.3 301.7 163 302.5 C 160.7 303.3 157.7 304 156.5 304 C 155.2 304 152.9 304.7 151.4 305.5 C 147.8 307.4 144.6 307.4 141.2 305.6 C 137.5 303.8 128.8 301 127 301.1 C 126.2 301.1 123.3 301.9 120.5 302.7 Z M 133.8 305.9 C 136.7 306.9 140.4 308.7 142 309.9 C 145.6 312.5 145.5 312.5 151.5 309.6 C 156.5 307.2 169.4 304 174 304 C 178.1 304 189.9 307.7 191.7 309.5 C 195.9 313.7 197 317.7 197 328.2 C 197 338.1 196 343.4 192.5 351.5 C 191.8 353.1 190.9 355.2 190.6 356 C 190.3 356.8 189.1 358.8 188 360.5 C 186.9 362.1 185.6 364.4 185.1 365.6 C 183.6 369 176.3 374.7 171.2 376.4 C 165 378.6 149.5 382 145.7 382 C 139.1 382 125.5 378.2 116.1 373.6 C 110.9 371.1 104.7 364.1 103.9 359.7 C 103.5 357.9 102.7 353.8 102 350.5 C 100.5 343.2 101.3 328.6 103.5 321.5 C 105.2 315.9 112.3 308.4 116.8 307.4 C 118.3 307.1 121.3 306.2 123.5 305.4 C 128.6 303.7 127.7 303.7 133.8 305.9 Z M 183.5 379.7 C 189.1 391.2 192.6 402.3 194.1 413 C 196.1 428.2 196.8 436.3 196.4 439.7 C 194 458.5 192.5 462.9 188.4 463 C 187.3 463 185.6 462.2 184.6 461.2 C 182.8 459.1 180.1 450.3 179 442.5 C 178.3 437.8 177.8 436.1 174.2 426.5 C 170.3 416 166.6 410.3 158.5 402.5 C 144.1 388.7 126.6 396.2 115 421 C 113.8 423.5 112.2 426.8 111.5 428.3 C 110.7 429.9 110 431.9 110 432.8 C 110 433.7 109.3 435.4 108.5 436.4 C 107.7 437.5 107 439.5 107 440.8 C 107 442.1 106.5 444.1 105.8 445.3 C 105.2 446.5 104.3 449.3 103.9 451.5 C 102.3 460 100.3 465.1 97.5 468 C 95.9 469.6 94.2 471 93.8 471 C 93.3 471 92.2 469.3 91.3 467.2 C 89.9 464 89.9 461.7 90.9 449 C 91.6 441 92.5 432.5 93.1 430 C 93.7 427.5 94.5 423.5 95 421 C 96.9 411.3 101.2 399.1 105.2 392 C 105.6 391.2 106.2 390 106.4 389.5 C 108 385.5 109.3 383.2 112.1 379.2 C 113.8 376.9 113.8 376.9 118.9 378.6 C 121.7 379.5 124.3 380.6 124.6 381.1 C 124.9 381.6 126.3 382 127.7 382 C 129.1 382 132.7 382.7 135.8 383.6 C 139.8 384.8 143.4 385.1 148.9 384.7 C 160 383.8 174.4 380 177.2 377.2 C 179.4 375 181.7 376 183.5 379.7 Z" fill="#000000" stroke="none"></path>
  <path d="M 259.3 303 C 257.5 304 255.3 305.3 254.4 306.1 C 252.3 307.9 243.8 307.7 240.9 305.9 C 239.6 305.1 236 303.8 232.8 303 C 217.7 299.5 207 310.7 207 330.1 C 207 337 209 349 210.6 352.2 C 211.4 353.6 212 355.3 212 356 C 212 356.7 213.4 359.3 215.1 361.8 C 218 366 218.1 366.8 217.1 369.5 C 215.5 373.5 213.1 381.5 212 386.8 C 211.5 389.1 210.6 391.9 210 392.9 C 209.5 394 209 396.3 209 398 C 209 399.7 208.5 402.1 207.9 403.3 C 207.2 404.4 206.4 408.3 205.9 411.9 C 205.4 415.5 204.6 420.5 204.1 423 C 202.5 430.2 202.7 451.7 204.4 454.8 C 205.2 456.3 206.1 458.3 206.4 459.2 C 207.2 461.9 211.5 464.2 214.3 463.5 C 217.2 462.7 221 456.5 221 452.6 C 221 451.3 221.7 448.6 222.5 446.7 C 223.3 444.7 224 441.5 224 439.5 C 224 437.5 224.7 434.3 225.5 432.3 C 226.3 430.4 227 427.6 227 426.2 C 227 423 229.7 413.6 231.8 409 C 237.7 396.7 250.9 390.8 261 396.1 C 266.3 398.9 270.1 403.6 287.7 429.5 C 297.5 443.9 302.3 446.3 306.1 438.9 C 309.4 432.3 307.6 421.1 300.5 404.5 C 297.3 397.2 282.6 367.9 281.8 367.4 C 280.6 366.6 280.8 363.3 282.3 361.8 C 284.5 359.3 287.3 354 291.5 344.5 C 294.6 337.4 295.7 323.1 293.6 316.2 C 290.2 304.7 284.7 300.9 271.2 301.1 C 265 301.2 261.6 301.7 259.3 303 Z M 282.2 306 C 286.9 308.7 289.4 312.5 290.9 319.2 C 292.2 324.6 292.1 327.1 290.1 337 C 287.1 351.6 277.1 366.1 266.3 371.4 C 264.2 372.4 261.3 373.9 259.8 374.6 C 256.1 376.5 244 376.4 239.3 374.4 C 228.6 369.8 226.1 368.2 221 363 C 214.8 356.7 213.5 353.6 211.5 340.5 C 207.7 316.6 216.2 302.7 232.2 306.5 C 235.1 307.2 238.9 308.5 240.5 309.4 C 242.2 310.3 244.3 311 245.3 311 C 246.2 311 247 311.3 247 311.7 C 247 312.2 247.5 313.2 248 314 C 248.8 315.3 249.3 315.1 251.2 312.8 C 252.5 311.3 256 308.7 259 307 C 263.6 304.5 265.6 304 271.7 304 C 277.1 304 279.7 304.5 282.2 306 Z M 279.2 369.7 C 280 370.7 281.7 373.5 282.9 376 C 285.1 380.6 286.2 382.6 288 385.7 C 288.6 386.7 289.3 388.2 289.6 389 C 289.9 389.8 291.6 393.4 293.3 397 C 303.5 418.9 306.7 432.7 302.7 437.7 C 300.9 440.1 299 439 294.1 432.2 C 291.3 428.5 288.6 425 288 424.3 C 287.5 423.6 287 422.8 287 422.5 C 287 422.1 285 419.2 282.5 416 C 280 412.8 278 409.9 278 409.5 C 278 408.5 269.4 397.7 267.3 396 C 260.2 390.4 250.4 389.2 242.8 393.1 C 238 395.6 231.1 402.5 228.9 407.1 C 226.7 411.6 224 421.1 224 424 C 224 425.3 223.4 428.6 222.6 431.4 C 220.4 439.4 218 450.3 218 452.3 C 218 453.4 217.2 455.5 216.3 457.1 C 213.7 461.4 210.3 460.7 208.2 455.5 C 206.2 450.4 205.5 432.5 207 425.7 C 207.7 422.8 208.5 417.8 209 414.5 C 209.9 406.6 212 398.1 218.8 374.1 C 220.2 369.3 222.5 369.1 228.5 373 C 230.2 374.1 232.2 375.2 233 375.6 C 233.8 375.9 236 376.8 237.8 377.6 C 244.7 380.6 259.7 379.2 267 374.9 C 267.8 374.4 269.2 373.7 270 373.3 C 270.8 372.9 272.6 371.6 274 370.3 C 277 367.5 277.3 367.5 279.2 369.7 Z" fill="#000000" stroke="none"></path>
  <path d="M 375 302.6 C 369.2 304.2 366.7 306.3 363.8 311.9 C 360.3 318.8 362 354.4 366.5 367.6 C 367.3 370.1 368 374.2 368 376.8 C 368 379.4 368.7 385.1 369.6 389.5 C 370.8 395.9 371.1 404.2 370.9 432.1 C 370.8 451.1 371 467.2 371.4 467.8 C 371.8 468.5 373.6 469 375.4 469 C 382.6 469 389.8 457.8 392 443.3 C 392.5 440.5 393.2 437.5 393.6 436.8 C 394.1 436.1 394.7 433.2 395.1 430.5 C 395.5 427.7 396.3 423 396.8 420 C 399 408.8 400.3 399.2 401 388.5 C 402.2 371.5 404 357 405.5 352 C 407.4 345.8 408.9 333.8 409.6 318.9 C 410.2 307.9 410.1 306 408.5 303.7 L 406.8 301 L 393.6 301.1 C 385.4 301.1 378.4 301.7 375 302.6 Z M 405.9 305.8 C 406.4 306.8 406.5 312.8 406 321 C 404.6 342.1 403.9 348.3 402.4 351.7 C 401.6 353.4 401 355.9 401 357.3 C 401 362.5 389 372 382.5 372 C 378.6 372 373.4 369.2 370.8 365.8 C 367.5 361.5 365 344.9 365 328.5 C 365.1 317.9 365.4 316 367.4 312.5 C 371 306.1 376.7 304.4 395.2 304.1 C 403.5 304 405.1 304.3 405.9 305.8 Z M 398.4 381.7 C 398.1 388.2 397.2 396.5 396.4 400.2 C 395.6 403.9 395 408.8 395 411.2 C 395 413.6 394.5 417.1 393.9 419 C 393.3 420.9 392.5 425 392.1 428 C 391.2 434.1 389.4 441.9 387.8 446.5 C 387.2 448.1 386.5 450.8 386.2 452.5 C 385.3 457.9 379 466 375.8 466 C 373.7 466 373.8 469.8 374 427.5 C 374.1 401.5 373.8 392.8 372.5 386.5 C 370.7 376.9 370.6 373 372.2 373 C 372.9 373 375.4 373.8 377.8 374.7 C 382 376.3 382.5 376.2 387.6 374.5 C 390.6 373.5 393.5 372.1 394.1 371.3 C 394.7 370.6 396.1 370 397.1 370 C 398.8 370 398.9 370.8 398.4 381.7 Z" fill="#000000" stroke="none"></path>
  <path d="M 504.7 302.8 C 501.9 305.9 502.6 331.2 506 347 C 508.6 359.4 512 385.6 512 394.1 C 512 397.1 512.5 401.3 513.1 403.5 C 513.6 405.7 514.5 410.9 514.9 415 C 515.9 423.5 517.6 432.8 519.3 438 C 519.9 439.9 520.7 443.3 521.1 445.5 C 522.6 453.9 526.3 461.9 530.6 466.1 C 533.2 468.6 534.4 469.1 537.6 468.8 C 541.2 468.5 541.5 468.2 542 465 C 542.3 463.1 542.3 454.1 541.9 445 C 541.1 426.8 542.4 388.8 543.9 382.5 C 544.5 380.3 545 376.3 545 373.7 C 545 371 545.6 367.4 546.4 365.7 C 548.5 361.2 551 339.9 551 327.2 C 551 318.7 550.6 315.8 549 312.5 C 544.5 303.3 538.7 301 519.6 301 C 508 301 506.1 301.2 504.7 302.8 Z M 533.1 305 C 539.6 306.2 542.6 308.3 545.7 313.6 C 548.5 318.5 548.7 329.8 546.4 347.5 C 544.3 363.8 544.4 363.4 541 366.7 C 533.9 373.7 524.5 373.2 516.9 365.4 C 514.7 363.1 512.5 359.7 512 357.9 C 511.6 356 510.7 353.1 510.2 351.5 C 507.2 342.9 505 308 507.1 305.3 C 508.5 303.7 525.1 303.5 533.1 305 Z M 519 371.5 C 519.8 372.2 522.6 373.5 525.2 374.5 C 529.7 376.2 530.1 376.2 535 374.4 C 542.1 371.9 542.6 372.7 540.4 383.1 C 538.9 390.2 538.6 397.2 538.6 428.5 C 538.5 461.8 538.3 465.5 536.9 465.8 C 534.9 466.2 528.1 458.6 527.4 455 C 527.1 453.6 526.2 451.1 525.4 449.3 C 524.6 447.6 524 445.3 524 444.2 C 524 443 523.5 440.9 522.9 439.3 C 522.3 437.8 521.4 434 521 431 C 520.6 428 519.7 423 519.2 420 C 517 409 515.9 400.3 515 389 C 514.6 382.7 513.9 375.6 513.5 373.3 C 512.8 369.3 512.9 369.1 515.1 369.7 C 516.4 370 518.2 370.8 519 371.5 Z" fill="#000000" stroke="none"></path>
  <path d="M 627.8 303.6 C 625.7 304.9 623.3 307.2 622.3 308.7 C 619.7 312.6 617 320.9 617 324.8 C 617 328.9 619.7 341.4 621.5 345.5 C 625 353.3 626.8 356.8 629.4 360.8 C 632.1 364.7 632.2 365.1 630.6 366.8 C 629.7 367.8 629 369.4 629 370.3 C 629 371.2 628.6 372.1 628.2 372.4 C 627.4 372.9 616.1 395.5 612.6 403.5 C 605 420.7 603.1 433.4 607 439.8 C 610.4 445.4 614.2 443.9 621.1 434.3 C 624.1 430.2 629.1 423.3 632.3 418.9 C 635.4 414.6 638 410.7 638 410.4 C 638 409.6 643.8 402 646.4 399.5 C 652.3 393.7 661.9 392.3 668.7 396.2 C 675.6 400.1 683 409.9 683 415.1 C 683 416.2 683.5 418.1 684.1 419.2 C 684.8 420.4 685.6 423.9 686.1 426.9 C 686.5 430 687.3 434.3 687.9 436.5 C 688.4 438.7 689.7 444.1 690.6 448.5 C 692.7 458 695.1 462.6 698.6 463.4 C 702.4 464.4 705 462.1 707.9 455 C 710.1 449.7 710.4 431.7 708.6 423.6 C 707.7 419.9 707 415.4 707 413.6 C 707 411.7 706.3 408.3 705.5 406 C 704.7 403.7 704 400.4 704 398.8 C 704 397.2 703.5 394.9 702.8 393.7 C 702.2 392.5 701.3 389.7 700.9 387.5 C 700.5 385.3 699.7 382 699.1 380.2 C 698.5 378.5 697.5 375.5 696.9 373.7 C 694.6 367.2 694.7 365.5 697.7 360.9 C 701.5 355.1 703 350.9 704.2 343 C 705.6 333.6 704.7 316.7 702.5 313.2 C 697.8 305.9 691.9 302 685.6 302 C 681.4 302.1 673.6 304.2 671.6 305.9 C 669.6 307.6 660.5 307.7 658.5 306 C 654 302.2 649.5 301 640.5 301.1 C 632.7 301.1 631 301.4 627.8 303.6 Z M 653.8 307.1 C 656.9 308.8 660.5 311.4 661.7 312.8 C 662.9 314.2 664 315.2 664.2 315 C 664.4 314.7 665 313.6 665.6 312.5 C 666.2 311.4 668.1 310.3 669.8 309.9 C 671.6 309.5 673.6 308.8 674.2 308.3 C 674.9 307.8 677.8 306.8 680.5 306.2 C 684.7 305.1 686.3 305.2 689.7 306.4 C 694 307.9 698 310.8 698 312.4 C 698 312.9 698.8 314.2 699.8 315.3 C 702.3 318.1 702 343.2 699.4 350.5 C 695.9 359.9 687.3 368.7 678 372.5 C 677.2 372.9 675 373.8 673.2 374.6 C 671.4 375.4 666.8 376 662.9 376 C 657.1 376 654.9 375.5 649.4 372.8 C 642.7 369.5 634.9 362.8 631.4 357.5 C 628.2 352.4 627.1 350.6 626.5 349 C 624.2 343.7 623 339.6 621.5 332.8 C 619.8 325.3 619.8 324.9 621.9 318.3 C 623.1 314.6 624.6 310.7 625.4 309.7 C 628.3 305.9 633.2 304.1 640.8 304.1 C 647.1 304 648.9 304.4 653.8 307.1 Z M 638.6 370.1 C 639.6 371.3 641.4 372.6 642.5 373.1 C 643.6 373.6 645.2 374.4 646 374.9 C 653.6 379.3 667.4 380.5 674.7 377.4 C 681.4 374.5 686.4 372 688.7 370.4 C 690.8 368.9 691 369 693 372.2 C 694.1 374 695 376.4 695 377.5 C 695 378.5 695.6 381.2 696.4 383.5 C 698.3 389 700 395.6 700.9 401 C 701.4 403.5 702.2 407.5 702.8 410 C 704.8 418.3 707 435.5 707 442 C 706.9 449.6 703.4 459.3 700.6 459.8 C 699.6 460 698.1 459.2 697.2 457.8 C 695.5 455.5 695.2 454.3 693 443.5 C 692.4 440.2 691.2 435.2 690.4 432.4 C 689.6 429.6 689 426.3 689 425 C 689 422 686.3 412.6 683.9 407.3 C 681.5 402.3 675.3 395.9 669.9 393.1 C 664.1 390 654.2 390.2 649.2 393.4 C 645.7 395.6 638 403.2 638 404.5 C 638 404.8 635.9 408 633.3 411.5 C 630.6 415.1 626.5 420.9 624 424.5 C 621.5 428.1 618.7 432.1 617.6 433.3 C 616.6 434.5 615.2 436.3 614.5 437.3 C 613.6 438.6 612.5 439 611.2 438.6 C 605.9 436.9 607.5 424.5 615.4 405.5 C 617.6 400.5 632.3 370.6 633.3 369.2 C 634.7 367.4 636.4 367.7 638.6 370.1 Z" fill="#000000" stroke="none"></path>
  <path d="M 726 303.2 C 719.4 305.6 718.5 306.3 715.1 311.5 C 712.7 315.3 712.5 316.2 712.6 328 C 712.7 341.9 714.3 348.6 720.2 359 C 720.6 359.8 721.4 361.4 721.9 362.5 C 722.4 363.6 724 366.2 725.4 368.3 C 728.3 372.6 728.7 375.2 726.5 377 C 725.7 377.7 725 379 725 379.9 C 725 380.9 724.3 382.5 723.5 383.6 C 722.7 384.6 722 386.4 722 387.5 C 722 388.6 721.3 390.4 720.5 391.4 C 719.7 392.5 719 394.2 719 395.3 C 719 396.4 718.3 399.3 717.5 401.9 C 714.3 412.3 712.7 426.3 713.3 439.6 C 713.6 446.7 714.5 454.3 715.2 456.5 C 717.9 464.9 722.2 468.2 727.2 466 C 729.9 464.7 734 458.8 734 456.1 C 734 455.1 734.7 452.3 735.5 450 C 736.3 447.7 737 444.6 737 443.1 C 737 440.5 739.2 433 741.5 427.5 C 746 417.2 748.2 413.8 754.6 407 L 761.8 399.5 L 768.7 399.5 C 774.9 399.5 775.9 399.8 780.1 403 C 785.2 406.9 791.1 414.3 793.6 420 C 793.9 420.8 795.4 424.2 796.9 427.5 C 800.4 435 802 439.5 802.9 444 C 803.3 445.9 804.2 448.5 804.8 449.7 C 805.5 450.9 806 452.9 806 454.2 C 806 459.2 809.8 467.5 813.6 470.8 C 819.7 476 823 474.7 824.9 466.4 C 825.8 462.7 825.8 459.2 825.1 453 C 824.5 448.3 824 441.8 824 438.4 C 824 435.1 823.3 430.1 822.5 427.4 C 821.7 424.7 821 421.1 821 419.5 C 820.9 417.8 820.3 415.4 819.5 414 C 818.7 412.6 818 410.4 818 409 C 818 407.6 817.3 405.6 816.5 404.6 C 815.7 403.5 815 401.8 815 400.9 C 815 399.9 814.3 397.9 813.5 396.3 C 812.8 394.8 811.1 391.5 810 389 C 807 382.8 805.4 380 804.1 378.7 C 802.3 376.9 802.9 374 805.6 371.5 C 807.1 370.1 809 367.8 809.8 366.3 C 812 362.1 814.9 347.4 815 339.9 C 815 332.3 812.6 320.1 810.2 315.2 C 808.3 311.5 799.8 304.6 796 303.7 C 794.6 303.4 791.6 302.5 789.2 301.8 C 785.3 300.7 784.3 300.8 777.2 303.4 C 766.4 307.3 765.5 307.4 761.9 305.6 C 760.1 304.7 757.7 304 756.5 304 C 755.3 304 752.3 303.3 750 302.5 C 744 300.4 732.8 300.7 726 303.2 Z M 749.5 305.6 C 753.4 306.5 758.8 308.4 761.6 309.7 L 766.7 312.2 L 770.6 309.7 C 772.8 308.3 776.7 306.4 779.3 305.4 C 783.9 303.8 784.5 303.8 789.3 305.3 C 792.2 306.2 795.6 307.2 796.9 307.6 C 798.1 307.9 801.3 310.3 803.9 313 C 808.7 317.9 809.3 319.7 811.6 336.3 C 812.3 341.2 809.7 359.1 807.9 362 C 807.4 362.8 806.6 364.4 806.1 365.6 C 803.6 371.2 790.1 377.6 774.8 380.5 C 767.6 381.9 765.2 381.9 760.3 380.9 C 757.1 380.3 752.9 379.6 751 379.3 C 747.6 378.9 744.6 377.7 736.5 373.8 C 734.3 372.7 730.9 369.7 729 367.2 C 725.3 362.4 719 350.4 719 348.2 C 719 347.5 718.3 345.6 717.5 343.9 C 715.1 339.3 715.2 318.3 717.6 313.9 C 719.8 309.9 722.9 307.1 725 307 C 725.8 307 728.3 306.3 730.5 305.5 C 735.8 303.6 741 303.6 749.5 305.6 Z M 735.8 377.2 C 738.3 379.7 753.3 383.8 763.4 384.7 C 771.3 385.4 787.2 382 795.2 377.9 C 799.2 375.9 799.1 375.7 806.7 390.5 C 808.2 393.2 809.9 396.8 810.6 398.5 C 811.2 400.1 812.5 403.2 813.4 405.3 C 814.3 407.4 815 410.1 815 411.3 C 815.1 412.5 815.7 414.6 816.5 416 C 817.3 417.4 817.9 419.8 818 421.5 C 818 423.1 818.7 426.7 819.5 429.5 C 821.2 435 822.1 467.5 820.7 469.8 C 819.7 471.3 816.2 469.7 814 466.6 C 812 463.8 809 455.2 809 452 C 808.9 450.6 808.3 448.4 807.5 447 C 806.7 445.6 806.1 443.5 806 442.3 C 806 441.1 805.3 438.4 804.4 436.3 C 803.5 434.2 802.2 431.1 801.5 429.5 C 798.7 422.8 793.4 412.8 792.3 411.8 C 791.6 411.2 791 410.2 791 409.5 C 791 408.8 788.5 405.9 785.5 403.1 C 778.2 396.5 771.1 394.1 764.8 395.9 C 756.3 398.5 744.4 410.7 740.4 421 C 740.1 421.8 739.3 423.8 738.5 425.5 C 737.8 427.1 736.9 429.6 736.7 431 C 736.4 432.4 735.7 434.8 735.2 436.5 C 734.6 438.1 733.4 443.1 732.5 447.5 C 731.6 451.9 730 457.1 729 459 C 726.8 463.3 723.3 464.1 720.9 460.7 C 716.5 454.6 714.5 430.2 717.5 419 C 718.3 416 719 411.7 719 409.5 C 719 407.3 719.7 404.4 720.5 403 C 721.3 401.6 721.9 399.5 722 398.3 C 722 396.1 723.7 391.6 726.6 385.7 C 727.4 384.1 728 382.3 728 381.6 C 728 379.5 731.1 376 732.9 376 C 733.8 376 735.1 376.5 735.8 377.2 Z" fill="#000000" stroke="none"></path>
  <path d="M 607.487 40.385 C 606.587 40.785 604.987 42.185 603.887 43.585 C 601.987 46.085 601.887 47.785 601.787 85.085 C 601.787 108.085 601.387 126.985 600.687 131.085 C 600.087 134.885 599.187 142.485 598.687 147.885 C 598.187 153.285 597.487 158.085 597.087 158.685 C 596.787 159.285 596.087 162.485 595.687 165.885 C 595.187 169.885 593.387 175.285 590.587 181.085 C 586.387 189.985 586.287 190.185 586.287 201.085 C 586.187 211.785 586.287 212.385 589.687 219.085 C 591.987 223.685 595.787 228.685 600.787 233.785 L 608.387 241.585 L 617.087 241.585 C 624.487 241.585 626.287 241.285 629.587 239.185 C 633.987 236.385 640.687 228.685 640.687 226.385 C 640.687 225.485 641.387 223.185 642.187 221.285 C 644.087 216.585 644.187 203.385 642.187 196.985 C 641.387 194.285 640.687 191.085 640.687 189.785 C 640.687 188.485 639.387 184.785 637.687 181.385 C 636.087 178.085 634.687 174.085 634.687 172.585 C 634.687 171.085 633.987 167.885 633.187 165.585 C 632.387 163.285 631.687 159.285 631.687 156.685 C 631.687 154.185 630.987 149.585 630.187 146.585 C 629.387 143.585 628.687 138.185 628.687 134.585 C 628.587 130.985 628.187 126.085 627.687 123.585 C 627.087 121.085 626.287 110.985 625.787 101.085 C 625.287 91.185 624.287 75.085 623.587 65.385 L 622.287 47.685 L 619.087 44.185 C 615.887 40.685 610.787 38.985 607.487 40.385 Z M 616.787 46.785 C 619.587 49.885 619.687 50.485 619.687 59.085 C 619.687 63.985 620.387 74.785 621.187 83.085 C 621.987 91.285 622.687 101.885 622.687 106.585 C 622.687 111.285 623.187 117.785 623.687 121.085 C 624.287 124.385 625.187 131.585 625.687 137.085 C 626.487 146.885 627.987 157.485 629.587 164.785 C 630.487 168.985 628.587 170.685 625.787 168.185 C 624.887 167.485 621.887 165.985 618.987 164.985 C 613.487 162.985 611.587 163.285 602.887 167.285 C 601.087 168.185 599.387 168.585 598.987 168.285 C 598.687 167.885 599.187 164.785 600.087 161.185 C 600.987 157.585 601.687 152.885 601.687 150.685 C 601.687 148.585 602.387 143.185 603.287 138.885 C 604.487 132.685 604.887 122.485 605.187 89.485 C 605.387 60.585 605.787 47.185 606.587 45.685 C 608.387 42.385 613.187 42.885 616.787 46.785 Z M 620.887 169.485 C 623.287 170.485 626.687 172.685 628.387 174.185 C 631.987 177.485 637.687 188.285 637.687 191.785 C 637.787 193.085 638.387 196.785 639.187 200.085 C 639.987 203.385 640.687 208.085 640.687 210.585 C 640.687 215.485 637.787 225.885 635.887 227.785 C 635.187 228.485 634.687 229.485 634.687 230.085 C 634.687 231.385 632.387 233.385 627.587 236.385 C 624.787 238.085 622.387 238.585 617.587 238.585 C 609.387 238.585 607.587 237.385 598.887 227.185 C 597.587 225.685 594.987 221.485 592.987 217.785 C 589.587 211.485 589.387 210.585 589.287 201.885 C 589.287 193.185 590.487 188.085 593.787 182.585 C 594.287 181.785 595.087 180.085 595.587 178.985 C 596.787 176.185 604.287 170.185 608.187 168.785 C 612.687 167.185 616.087 167.385 620.887 169.485 Z" fill="#000000" stroke="none"></path>
  <path d="M 298.487 41.885 C 291.287 45.085 290.287 49.885 288.687 88.585 C 288.087 101.485 287.187 114.285 286.687 117.085 C 286.187 119.785 285.787 125.185 285.687 129.085 C 285.687 132.885 284.987 138.785 284.187 142.085 C 283.387 145.385 282.787 150.085 282.687 152.585 C 282.687 155.085 282.187 158.685 281.587 160.585 C 280.987 162.485 280.187 166.785 279.787 170.185 C 279.287 173.485 277.787 178.685 276.387 181.685 C 271.687 191.985 270.487 198.085 270.887 211.085 C 271.487 227.485 273.787 232.785 283.187 239.085 C 288.187 242.385 289.087 242.585 296.487 242.585 C 302.387 242.585 304.787 242.185 305.687 241.085 C 306.387 240.285 307.287 239.585 307.787 239.585 C 310.087 239.585 322.387 224.685 324.287 219.585 C 324.587 218.785 325.487 216.785 326.287 215.285 C 327.187 213.385 327.687 209.185 327.687 202.585 C 327.687 192.185 327.287 190.585 321.587 179.385 C 319.987 176.185 318.687 172.385 318.687 170.785 C 318.687 169.285 318.187 166.485 317.587 164.585 C 316.987 162.685 316.087 157.485 315.687 153.085 C 315.187 148.685 314.387 141.885 313.787 138.085 C 311.887 124.685 310.487 81.885 311.487 66.285 C 312.587 49.085 312.387 47.485 308.687 43.585 C 305.687 40.385 302.887 39.885 298.487 41.885 Z M 307.287 46.785 C 307.687 48.085 308.087 63.885 308.187 82.085 C 308.487 123.085 309.487 137.785 313.787 162.985 C 314.887 169.485 314.687 170.185 311.987 168.685 C 308.187 166.485 302.287 164.585 299.487 164.585 C 297.887 164.585 293.787 165.985 290.487 167.585 C 287.087 169.285 283.987 170.285 283.587 169.885 C 283.087 169.385 283.387 167.285 284.187 165.085 C 284.987 162.885 285.587 159.085 285.687 156.585 C 285.687 154.085 286.387 149.185 287.187 145.585 C 287.987 141.985 288.687 136.385 288.687 133.085 C 288.687 129.785 289.387 122.785 290.187 117.585 C 290.987 112.385 291.687 103.785 291.687 98.585 C 291.687 93.385 292.387 80.385 293.187 69.785 C 294.487 52.885 294.887 50.185 296.887 47.585 C 298.587 45.185 299.787 44.585 302.787 44.585 C 305.787 44.585 306.687 45.085 307.287 46.785 Z M 305.787 169.785 C 310.887 171.385 316.787 176.885 319.487 182.685 C 324.287 193.085 324.687 194.485 324.687 202.085 C 324.687 209.585 323.887 212.585 319.887 220.085 C 316.787 225.985 310.287 233.785 306.087 236.685 C 297.987 242.185 286.387 239.985 279.687 231.585 C 278.087 229.485 276.687 227.385 276.687 226.885 C 276.687 226.285 275.987 224.485 275.087 222.685 C 273.887 220.185 273.587 217.285 273.987 208.785 C 274.887 188.385 280.487 176.385 291.587 170.885 C 296.887 168.285 300.087 168.085 305.787 169.785 Z" fill="#000000" stroke="none"></path>
  <path d="M 120.987 65.785 C 116.887 70.285 116.687 71.785 116.687 96.285 C 116.687 115.885 116.287 121.285 114.887 126.785 C 113.887 130.485 112.787 133.785 112.487 134.185 C 111.687 134.885 103.187 124.185 99.487 117.785 C 96.587 112.685 90.287 100.185 87.887 94.585 C 87.087 92.685 85.787 89.885 84.987 88.385 C 84.287 86.985 83.687 85.085 83.687 84.285 C 83.687 83.485 82.987 81.485 82.187 79.985 C 81.387 78.385 80.687 76.385 80.687 75.485 C 80.687 73.385 74.887 67.585 72.787 67.585 C 70.487 67.685 66.887 70.985 65.587 74.185 C 64.287 77.685 65.287 88.885 67.287 92.785 C 68.087 94.285 68.687 96.385 68.687 97.485 C 68.687 98.585 69.287 100.985 70.087 102.785 C 71.787 106.985 73.587 112.185 74.687 116.085 C 75.987 120.685 77.787 125.785 79.287 128.785 C 80.087 130.185 80.687 132.285 80.687 133.285 C 80.687 134.385 81.387 136.085 82.187 137.185 C 82.987 138.185 83.687 139.885 83.687 140.785 C 83.687 141.685 84.287 143.685 85.087 145.285 C 85.887 146.785 87.887 150.985 89.487 154.585 C 93.887 164.085 99.587 175.685 101.687 179.085 C 104.287 183.285 104.187 184.185 99.887 189.385 C 93.487 197.285 92.287 201.285 92.187 214.585 C 92.187 224.485 92.487 226.685 93.987 228.285 C 94.887 229.385 95.687 230.785 95.687 231.385 C 95.687 233.385 104.587 239.985 108.987 241.285 C 115.387 243.185 119.087 242.885 126.087 239.585 C 131.187 237.185 132.987 236.785 134.987 237.485 C 136.387 237.985 137.687 239.085 137.887 239.785 C 138.587 241.885 162.487 241.385 167.987 239.185 C 180.087 234.185 184.487 230.285 187.187 222.085 C 189.087 216.785 189.087 216.385 187.287 210.885 C 185.087 203.885 182.387 198.585 178.187 192.585 C 174.087 186.785 173.687 185.585 175.187 182.585 C 177.187 178.485 178.887 173.385 179.687 168.485 C 180.187 165.985 180.987 162.085 181.587 159.985 C 183.487 152.785 184.987 130.085 184.387 118.985 C 183.187 99.885 181.887 86.185 180.787 82.585 C 180.187 80.685 179.687 77.785 179.687 76.285 C 179.687 71.085 174.287 63.685 170.387 63.585 C 168.187 63.585 165.387 66.085 163.387 70.185 C 162.087 72.685 161.787 77.285 161.787 95.285 C 161.887 113.085 161.587 117.985 160.287 121.085 C 159.387 123.085 158.687 125.485 158.687 126.385 C 158.687 128.385 154.687 136.885 153.287 137.785 C 151.187 139.185 149.887 138.585 149.387 135.785 C 149.187 134.285 147.887 130.585 146.687 127.585 C 145.487 124.585 144.087 120.485 143.687 118.585 C 143.287 116.685 142.387 113.685 141.887 112.085 C 138.887 103.185 137.687 98.785 137.687 96.585 C 137.687 95.185 136.987 91.885 136.187 89.185 C 135.387 86.485 134.687 81.485 134.687 78.185 C 134.687 71.885 133.387 68.885 129.187 65.385 C 126.387 62.985 123.387 63.185 120.987 65.785 Z M 129.487 70.585 C 131.187 72.885 131.687 74.885 131.687 80.085 C 131.687 83.785 132.387 89.785 133.287 93.385 C 136.787 108.085 137.887 112.185 139.287 115.385 C 140.087 117.185 140.687 119.485 140.687 120.585 C 140.687 121.685 141.387 124.085 142.187 126.085 C 142.987 127.985 144.287 131.085 145.087 132.985 C 145.887 134.885 146.887 137.985 147.187 139.885 C 147.887 143.285 147.687 143.585 143.787 145.485 C 139.087 147.985 132.387 148.185 128.287 146.085 C 126.787 145.285 125.087 144.585 124.487 144.585 C 123.987 144.585 122.187 143.585 120.387 142.385 C 118.587 141.085 116.987 139.985 116.687 139.785 C 115.787 139.185 116.687 131.885 118.187 127.585 C 119.487 123.885 119.787 118.585 119.787 98.685 C 119.787 78.385 120.087 73.785 121.487 70.985 C 123.487 66.685 126.487 66.485 129.487 70.585 Z M 174.487 71.585 C 175.687 73.685 176.687 76.685 176.687 78.285 C 176.687 79.785 177.387 84.385 178.187 88.585 C 180.687 101.785 181.487 124.385 180.087 142.085 C 178.887 157.285 178.387 160.585 175.187 172.085 C 174.387 174.785 173.487 178.085 173.187 179.285 C 172.287 182.485 169.787 182.185 164.587 178.285 C 157.887 173.385 154.787 171.985 147.487 170.485 C 140.187 169.085 130.587 170.185 124.187 173.085 C 122.587 173.885 120.487 174.685 119.687 174.985 C 118.887 175.385 116.387 176.685 114.187 178.085 C 108.787 181.385 106.387 181.285 104.587 177.585 C 103.787 175.985 101.587 171.285 99.587 167.385 C 97.587 163.385 95.687 159.385 95.287 158.585 C 94.987 157.785 94.287 156.385 93.887 155.585 C 93.387 154.785 92.187 152.285 91.287 150.085 C 90.287 147.885 88.887 144.785 88.087 143.285 C 87.287 141.685 86.687 139.685 86.687 138.685 C 86.687 137.785 86.287 136.585 85.787 135.985 C 84.787 135.085 82.187 128.385 80.687 123.085 C 79.687 119.385 77.787 114.085 75.987 109.885 C 75.287 108.185 74.687 106.185 74.687 105.485 C 74.687 104.785 74.087 102.385 73.287 100.085 C 68.887 87.085 68.187 83.585 68.587 76.385 C 68.887 70.385 75.787 70.885 77.587 77.085 C 81.787 91.085 90.887 110.785 99.087 123.585 C 106.687 135.385 118.787 147.585 122.987 147.585 C 123.687 147.585 125.187 148.285 126.287 149.085 C 129.187 151.285 140.487 151.085 145.787 148.585 C 154.787 144.485 157.687 140.285 163.287 123.585 C 164.787 118.985 165.087 114.485 165.187 96.085 C 165.387 77.585 165.587 73.585 167.087 70.785 C 169.287 66.485 171.687 66.785 174.487 71.585 Z M 149.187 174.285 C 154.887 175.185 163.287 180.585 169.787 187.385 C 175.487 193.385 176.287 194.685 180.287 202.785 C 184.987 212.485 185.687 217.185 183.187 222.685 C 180.887 227.985 173.787 234.585 170.387 234.585 C 169.587 234.585 167.687 235.185 166.087 235.985 C 161.987 237.885 144.587 238.985 141.287 237.485 C 139.887 236.785 138.687 235.985 138.687 235.585 C 138.687 233.985 131.487 225.585 130.187 225.585 C 128.187 225.585 128.287 228.185 130.287 228.985 C 132.487 229.785 131.687 233.985 129.187 234.385 C 128.087 234.585 126.487 235.385 125.687 236.085 C 118.287 242.285 103.787 237.985 97.487 227.785 C 95.487 224.485 95.187 222.885 95.387 214.185 C 95.487 203.685 96.787 199.185 101.587 192.785 C 106.887 185.685 124.687 174.685 131.487 174.485 C 132.987 174.385 135.287 173.985 136.687 173.585 C 138.087 173.085 140.587 172.885 142.187 173.185 C 143.887 173.385 146.987 173.885 149.187 174.285 Z" fill="#000000" stroke="none"></path>
  <path d="M 215.087 67.085 L 212.387 70.685 L 212.987 84.385 C 213.787 102.285 212.387 127.485 210.587 128.685 C 208.387 130.085 207.787 129.785 207.087 126.785 C 206.787 125.285 206.087 122.985 205.487 121.585 C 204.887 120.185 203.987 117.285 203.587 115.085 C 203.187 112.885 202.287 109.085 201.687 106.585 C 198.887 95.685 198.387 92.685 197.687 86.585 C 196.587 77.385 194.587 70.885 192.087 68.485 L 189.887 66.485 L 187.787 68.685 C 185.787 70.785 185.687 72.085 185.687 87.485 C 185.687 97.085 186.287 108.285 187.187 113.985 C 187.987 119.485 188.687 126.385 188.687 129.485 C 188.687 132.585 189.387 137.585 190.187 140.585 C 190.987 143.585 191.687 147.985 191.687 150.185 C 191.687 152.485 192.387 156.285 193.187 158.585 C 193.987 160.885 194.687 163.985 194.687 165.285 C 194.687 167.585 195.887 172.185 198.887 181.085 C 200.687 186.385 200.987 188.785 199.987 189.485 C 198.187 190.685 194.787 199.085 193.187 206.385 C 191.787 212.985 191.787 214.485 193.087 221.585 C 193.987 225.985 195.187 230.485 195.887 231.585 C 197.487 234.285 204.587 237.585 208.687 237.585 C 210.387 237.585 214.987 238.085 218.887 238.685 C 226.387 239.885 233.487 238.785 236.787 235.985 C 239.787 233.385 244.387 233.185 248.687 235.485 C 257.087 239.885 264.487 236.885 267.387 227.885 C 268.787 223.285 268.887 221.585 267.787 213.885 C 266.587 205.985 265.187 201.185 262.487 196.585 C 262.087 195.785 261.387 194.385 260.987 193.585 C 260.687 192.785 259.087 190.485 257.487 188.485 C 253.987 183.885 253.987 182.385 257.687 175.085 C 259.387 171.885 260.687 168.585 260.687 167.785 C 260.687 166.985 261.287 165.185 262.087 163.785 C 262.787 162.285 264.187 158.385 265.087 155.085 C 265.987 151.785 267.487 146.985 268.287 144.485 C 268.987 141.885 269.687 138.485 269.687 136.785 C 269.687 135.185 270.387 131.885 271.187 129.585 C 271.987 127.285 272.687 123.385 272.687 120.985 C 272.687 118.685 273.287 113.685 274.087 109.885 C 275.787 101.385 276.987 76.285 275.787 71.485 C 274.787 66.985 271.887 63.585 269.187 63.585 C 264.787 63.585 257.687 73.585 257.687 79.785 C 257.687 86.285 254.787 107.485 253.087 112.685 C 252.287 115.285 251.687 118.285 251.687 119.485 C 251.687 120.585 251.087 122.985 250.287 124.785 C 249.487 126.585 248.087 130.085 247.087 132.585 C 246.087 135.085 244.987 137.485 244.687 137.885 C 243.887 138.785 239.687 131.385 239.687 129.185 C 239.687 128.385 239.087 126.485 238.287 124.885 C 237.487 123.385 236.087 119.385 235.187 116.085 C 234.287 112.785 232.887 108.085 232.087 105.585 C 231.287 103.085 230.687 99.985 230.687 98.585 C 230.687 97.185 229.987 93.885 229.187 91.185 C 228.387 88.485 227.687 83.885 227.687 80.985 C 227.687 75.485 225.487 68.385 222.887 65.285 C 220.587 62.685 218.087 63.185 215.087 67.085 Z M 222.287 71.085 C 223.087 72.985 223.987 77.385 224.287 80.885 C 224.787 86.985 226.787 98.085 228.887 106.085 C 229.487 108.285 230.287 111.685 230.787 113.585 C 231.487 117.085 232.987 121.585 235.187 127.085 C 237.587 132.985 238.987 137.085 239.387 140.185 C 239.787 142.885 239.387 143.585 236.387 145.485 C 233.987 146.985 231.287 147.585 227.387 147.585 C 222.687 147.585 221.187 147.085 217.487 144.285 C 212.487 140.385 211.787 137.685 214.187 130.785 C 215.587 126.985 215.987 121.085 216.187 98.885 C 216.487 78.885 216.887 71.185 217.887 69.685 C 219.687 66.785 220.587 67.085 222.287 71.085 Z M 271.087 69.185 C 271.987 69.985 272.787 72.185 272.787 73.885 C 273.187 83.585 272.287 100.985 271.087 106.885 C 270.287 110.685 269.687 115.485 269.687 117.785 C 269.687 121.385 268.687 126.585 265.587 139.085 C 264.987 141.285 264.187 144.885 263.787 147.085 C 263.387 149.285 262.487 152.085 261.887 153.285 C 261.187 154.485 260.687 156.485 260.687 157.785 C 260.687 159.085 259.987 161.085 259.187 162.185 C 258.387 163.185 257.687 164.985 257.687 166.185 C 257.687 167.285 256.987 169.085 256.187 170.185 C 255.387 171.185 254.687 172.685 254.687 173.385 C 254.687 174.085 253.687 175.985 252.587 177.585 L 250.387 180.485 L 247.087 177.985 C 238.387 171.285 228.287 169.585 220.087 173.285 C 215.387 175.385 206.687 181.585 206.687 182.785 C 206.687 183.185 205.987 183.585 205.187 183.585 C 203.487 183.585 201.587 180.385 200.587 175.585 C 200.187 173.685 199.387 170.285 198.787 168.085 C 195.987 156.685 194.687 149.785 194.687 146.585 C 194.587 144.685 193.987 140.385 193.187 137.085 C 192.387 133.785 191.687 128.585 191.687 125.585 C 191.687 122.585 190.987 115.385 190.187 109.585 C 188.387 97.685 188.487 73.485 190.287 72.885 C 191.287 72.585 194.187 83.685 195.087 91.585 C 195.587 96.485 197.687 106.385 198.887 110.585 C 199.487 112.485 200.387 115.685 200.787 117.585 C 202.287 124.885 208.687 140.385 211.687 143.985 C 215.387 148.585 220.387 150.585 227.687 150.585 C 235.187 150.585 240.187 148.385 245.287 142.885 C 248.687 139.285 253.087 129.085 254.687 121.085 C 255.187 118.885 255.987 115.785 256.587 114.285 C 257.187 112.685 257.687 109.985 257.687 108.285 C 257.687 106.485 258.387 101.885 259.187 98.085 C 259.987 94.185 260.687 87.985 260.687 84.185 C 260.687 78.885 261.187 76.485 262.887 73.685 C 266.987 67.085 268.287 66.285 271.087 69.185 Z M 239.887 177.385 C 242.587 178.885 246.687 182.085 249.187 184.385 C 253.787 188.885 260.687 198.585 260.687 200.585 C 260.687 201.185 261.287 202.685 262.087 203.885 C 263.887 206.485 265.187 223.785 263.987 227.985 C 263.487 229.685 261.687 231.685 259.487 232.985 L 255.787 235.085 L 251.187 232.785 C 248.687 231.585 246.287 229.585 245.787 228.385 C 244.587 225.385 239.387 219.585 237.887 219.585 C 237.187 219.585 236.687 220.285 236.687 221.085 C 236.687 221.885 237.087 222.585 237.687 222.585 C 239.187 222.585 241.687 228.085 240.787 229.385 C 240.387 230.085 238.287 231.685 236.087 232.885 C 232.687 234.785 230.887 235.085 221.287 234.885 C 209.587 234.785 202.987 233.385 199.887 230.585 C 198.687 229.485 197.587 226.085 196.687 221.185 C 194.387 207.685 198.387 194.985 207.887 185.985 C 210.787 183.285 213.887 180.585 214.687 180.185 C 215.487 179.785 218.187 178.385 220.687 177.085 C 226.987 173.785 233.787 173.885 239.887 177.385 Z" fill="#000000" stroke="none"></path>
  <path d="M 736.587 65.285 C 733.687 68.485 731.087 77.185 730.187 86.085 C 729.887 89.385 729.287 94.285 728.787 97.085 C 727.187 105.585 727.487 146.185 729.187 152.585 C 729.987 155.585 730.687 159.385 730.687 160.985 C 730.687 163.585 731.987 168.585 734.887 177.085 C 737.187 183.685 736.987 186.085 733.787 190.785 C 726.987 200.885 724.487 207.385 724.387 215.185 C 724.387 220.485 724.887 223.185 726.187 225.285 C 728.787 229.385 732.887 233.585 734.287 233.585 C 734.887 233.585 735.987 234.285 736.687 235.085 C 737.387 235.885 738.787 236.585 739.887 236.585 C 740.887 236.585 743.087 237.285 744.587 238.085 C 746.387 238.985 752.087 239.785 759.287 240.185 C 771.187 240.885 771.187 240.885 774.387 238.185 C 777.687 235.385 781.387 235.385 784.687 238.085 C 788.087 240.985 794.287 241.985 800.487 240.585 C 812.287 238.085 820.687 227.085 820.687 214.285 C 820.687 204.585 816.787 193.385 811.487 187.485 C 809.887 185.785 808.687 183.485 808.787 182.285 C 808.787 181.085 810.587 176.885 812.787 173.085 C 814.887 169.185 816.987 165.385 817.287 164.585 C 817.587 163.785 819.287 160.185 820.887 156.585 C 822.487 152.985 824.487 148.485 825.387 146.585 C 826.187 144.685 827.487 141.785 828.287 140.285 C 829.087 138.685 829.687 136.685 829.687 135.685 C 829.687 134.785 830.287 133.185 831.087 132.085 C 831.787 130.985 832.687 128.985 832.987 127.585 C 833.587 124.785 835.287 119.685 837.187 115.085 C 838.287 112.285 839.087 109.785 843.387 95.085 C 844.187 92.285 845.287 88.685 845.887 87.085 C 848.187 80.485 848.087 75.685 845.287 71.585 C 842.387 67.085 839.387 65.885 836.087 67.685 C 833.887 68.785 830.687 74.285 829.387 79.085 C 826.687 89.085 814.387 114.985 810.187 119.585 C 809.387 120.485 808.687 121.585 808.687 121.985 C 808.687 122.685 804.687 128.285 801.687 131.885 C 800.387 133.485 797.687 131.285 797.287 128.285 C 794.987 112.785 794.487 105.385 794.387 87.985 C 794.187 67.985 794.187 67.885 791.687 65.285 C 788.587 61.985 784.987 61.885 781.387 65.085 C 778.387 67.685 777.387 71.585 775.687 86.085 C 774.787 94.085 773.487 100.385 771.487 106.085 C 770.987 107.685 770.087 110.685 769.687 112.585 C 768.687 117.085 766.887 122.285 765.087 125.885 C 764.287 127.485 763.687 129.385 763.687 130.185 C 763.687 132.585 760.787 137.585 759.387 137.585 C 758.287 137.585 757.487 136.085 753.687 127.085 C 752.987 125.385 752.087 122.085 751.587 119.585 C 751.187 117.085 750.387 112.285 749.787 108.785 C 749.087 105.185 748.787 95.085 748.887 85.585 L 749.187 68.685 L 746.287 65.685 C 742.587 61.885 739.787 61.785 736.587 65.285 Z M 745.987 90.985 C 746.287 111.785 747.287 119.685 750.487 128.085 C 755.187 140.585 757.887 143.785 766.387 147.585 C 771.787 149.985 781.187 150.285 785.387 148.185 C 786.887 147.385 788.887 146.385 789.687 146.085 C 794.887 144.085 807.887 131.685 809.187 127.485 C 809.587 126.485 810.287 125.585 810.787 125.585 C 811.287 125.585 811.687 125.185 811.687 124.685 C 811.687 124.085 812.887 121.785 814.487 119.385 C 819.987 110.585 821.687 107.285 827.987 92.585 C 828.787 90.685 830.187 87.385 831.087 85.285 C 831.987 83.185 832.687 80.885 832.687 80.085 C 832.687 77.585 836.187 71.585 837.987 70.985 C 840.187 70.285 842.087 71.785 843.687 75.585 C 844.687 77.985 844.587 79.385 843.387 83.285 C 842.587 85.985 841.087 90.785 840.187 94.085 C 839.287 97.385 837.987 101.185 837.487 102.585 C 836.887 103.985 836.087 106.685 835.687 108.585 C 835.187 110.485 833.887 114.585 832.687 117.585 C 831.487 120.585 830.187 124.585 829.687 126.485 C 829.187 128.285 828.387 130.285 827.787 130.885 C 827.187 131.485 826.687 132.785 826.687 133.685 C 826.687 134.685 826.087 136.685 825.287 138.285 C 824.587 139.785 823.187 142.885 822.187 145.085 C 821.287 147.285 819.887 150.385 819.087 151.885 C 818.287 153.485 817.687 155.285 817.687 156.085 C 817.687 156.785 816.987 157.885 816.187 158.585 C 815.387 159.285 814.687 160.585 814.687 161.585 C 814.687 162.585 813.987 163.885 813.187 164.585 C 812.387 165.285 811.687 166.585 811.687 167.585 C 811.687 168.585 810.987 169.885 810.187 170.585 C 809.387 171.285 808.687 172.585 808.687 173.485 C 808.587 177.585 801.987 181.485 800.187 178.485 C 799.787 177.985 798.487 177.085 797.387 176.485 C 796.187 175.985 794.487 175.185 793.687 174.685 C 788.387 171.585 777.987 168.785 770.987 168.685 C 766.287 168.585 757.187 170.685 753.587 172.785 C 750.287 174.585 743.287 179.885 742.887 180.785 C 740.987 185.185 735.587 171.885 733.687 158.085 C 733.287 154.785 732.387 149.685 731.787 146.685 C 730.487 140.185 730.487 108.285 731.787 100.585 C 732.287 97.585 733.087 91.485 733.587 87.085 C 734.587 77.185 736.387 70.785 738.987 67.785 L 741.087 65.585 L 743.287 67.685 C 745.487 69.785 745.587 70.485 745.987 90.985 Z M 790.787 92.185 C 791.187 105.385 791.887 117.685 792.587 119.585 C 793.187 121.485 793.687 124.585 793.687 126.385 C 793.687 128.185 794.387 130.985 795.187 132.685 C 796.587 135.285 796.587 135.885 795.287 137.685 C 793.887 139.685 791.087 141.785 787.687 143.085 C 786.887 143.485 784.987 144.385 783.487 145.185 C 779.787 147.185 773.287 146.885 768.087 144.585 C 763.287 142.385 762.687 140.685 765.087 135.885 C 766.387 133.285 767.287 130.985 770.687 121.585 C 771.287 119.685 772.287 116.485 772.687 114.585 C 773.087 112.685 773.987 109.685 774.487 108.085 C 776.187 102.985 777.987 95.385 778.787 89.085 C 780.987 72.285 781.687 69.385 783.987 67.585 C 785.887 65.985 786.487 65.885 788.187 66.985 C 790.087 68.285 790.187 69.785 790.787 92.185 Z M 780.687 173.385 C 783.187 173.885 786.287 174.785 787.687 175.585 C 789.087 176.285 790.887 177.285 791.687 177.685 C 792.487 178.185 794.987 179.485 797.187 180.585 C 802.087 183.185 807.487 187.885 810.987 192.685 C 813.887 196.585 817.587 208.885 817.687 214.685 C 817.687 220.385 813.387 228.885 808.387 232.985 C 801.887 238.285 792.887 238.985 785.687 234.685 C 784.887 234.185 783.187 233.385 781.987 232.985 C 779.787 232.085 779.787 231.885 781.187 229.185 C 782.987 225.785 783.087 224.585 781.587 224.585 C 780.387 224.585 775.687 229.185 775.687 230.385 C 775.587 230.785 774.487 232.385 773.187 234.085 L 770.687 237.085 L 760.487 236.785 C 746.387 236.385 738.787 233.785 732.487 227.285 C 727.787 222.585 727.687 222.285 727.687 216.185 C 727.687 203.985 737.387 188.085 750.487 178.785 C 752.187 177.585 753.987 176.585 754.487 176.585 C 754.887 176.585 755.887 175.985 756.487 175.285 C 759.687 172.185 769.887 171.385 780.687 173.385 Z" fill="#000000" stroke="none"></path>
  <path d="M 549.987 61.285 C 549.287 61.485 547.787 63.785 546.687 66.285 C 544.887 70.285 544.687 72.985 544.687 89.485 C 544.687 99.685 544.187 113.685 543.587 120.585 C 543.087 127.485 542.187 141.385 541.687 151.585 C 540.687 171.785 539.687 179.485 537.387 184.085 C 533.187 192.385 531.087 201.085 529.687 216.285 C 529.087 222.885 529.087 227.485 529.687 229.085 C 531.187 233.085 536.187 234.485 550.887 235.185 C 562.887 235.785 564.787 235.585 570.187 233.685 C 573.887 232.385 576.987 230.585 578.187 228.885 C 580.687 225.485 583.687 215.285 583.687 210.085 C 583.587 204.085 580.287 193.085 575.787 184.085 C 573.387 179.285 571.687 174.685 571.687 172.585 C 571.687 170.685 570.987 166.885 570.187 164.185 C 569.387 161.485 568.687 157.385 568.687 155.185 C 568.687 152.885 567.987 147.485 567.287 143.085 C 566.487 138.385 565.587 123.585 565.187 107.585 C 564.887 92.485 564.087 77.285 563.487 73.785 C 561.687 64.285 555.887 58.885 549.987 61.285 Z M 557.687 67.785 C 559.887 70.785 560.087 72.185 560.887 90.585 C 562.187 123.885 563.487 144.885 564.587 149.085 C 565.187 151.285 565.687 154.885 565.687 157.085 C 565.687 159.285 566.487 164.085 567.387 167.785 C 568.487 172.185 568.787 174.885 568.187 175.485 C 567.587 176.085 565.087 175.685 561.387 174.385 C 555.887 172.485 555.487 172.485 550.587 174.085 C 547.787 175.085 545.187 175.385 544.687 174.985 C 543.787 173.985 544.987 145.685 546.587 130.085 C 547.187 124.585 547.687 109.385 547.687 96.385 C 547.687 76.085 547.987 71.985 549.387 68.585 C 551.587 63.585 554.387 63.285 557.687 67.785 Z M 561.087 177.785 C 567.087 179.485 571.087 182.885 574.187 188.885 C 579.587 199.185 581.087 211.285 578.187 220.785 C 576.387 226.885 574.287 228.985 568.387 230.585 C 562.887 232.085 539.787 231.485 535.487 229.685 C 532.787 228.685 532.687 228.485 532.687 220.485 C 532.687 208.085 537.987 187.785 542.587 182.685 C 545.287 179.685 551.287 176.785 555.087 176.685 C 556.087 176.585 558.787 177.085 561.087 177.785 Z" fill="#000000" stroke="none"></path>
  <path d="M 640.887 63.285 C 640.187 63.585 638.787 65.485 637.687 67.685 C 635.187 72.485 634.987 83.285 637.187 95.585 C 637.987 100.285 638.687 106.285 638.687 109.085 C 638.687 111.785 639.387 116.585 640.187 119.585 C 640.987 122.585 641.687 126.385 641.687 127.985 C 641.687 129.585 642.287 133.185 643.087 135.985 C 644.587 141.285 646.187 147.585 647.687 153.585 C 648.987 159.085 652.587 168.285 657.287 177.985 C 659.087 181.785 659.087 182.085 656.487 185.185 C 649.187 193.485 644.687 206.085 644.687 217.885 C 644.687 228.585 646.587 232.785 652.287 234.585 C 656.487 235.985 663.987 235.085 665.687 233.085 C 667.087 231.385 672.287 231.085 673.187 232.485 C 673.487 233.085 675.687 234.485 678.087 235.585 C 681.887 237.485 683.487 237.685 691.787 237.285 C 715.987 235.885 719.687 232.685 719.687 213.185 C 719.687 201.385 719.287 199.685 714.487 190.385 C 712.487 186.485 712.787 182.085 715.487 174.085 C 717.187 169.085 718.687 162.385 719.687 155.585 C 720.187 151.985 721.087 147.785 721.587 146.185 C 722.187 144.685 722.687 141.085 722.687 138.285 C 722.687 135.385 723.187 131.285 723.787 129.085 C 724.287 126.885 725.187 118.085 725.687 109.585 C 726.187 101.085 727.087 89.885 727.587 84.785 C 728.487 76.885 728.387 74.985 726.987 71.285 C 726.087 68.985 724.887 66.785 724.387 66.485 C 722.987 65.485 719.687 66.685 719.687 68.085 C 719.687 68.785 718.987 69.885 718.187 70.585 C 717.287 71.285 716.687 73.485 716.687 75.785 C 716.687 77.985 716.087 82.485 715.287 85.885 C 713.587 93.085 711.887 101.185 710.787 107.585 C 710.387 110.085 709.487 113.085 708.887 114.285 C 708.187 115.485 707.687 117.285 707.687 118.385 C 707.687 121.085 703.787 129.785 702.787 129.085 C 702.287 128.885 701.687 126.685 701.387 124.385 C 701.087 121.985 700.287 117.385 699.687 114.085 C 699.087 110.585 698.687 99.585 698.887 87.485 C 699.187 68.285 699.087 66.685 697.287 64.685 C 696.187 63.485 694.287 62.585 693.087 62.585 C 688.587 62.585 686.487 68.485 683.787 88.585 C 683.387 92.185 682.487 96.685 681.887 98.585 C 681.287 100.485 680.387 104.085 679.687 106.585 C 677.087 117.185 676.587 118.785 675.787 120.385 C 674.887 122.285 672.987 127.585 671.587 132.285 C 670.987 134.085 670.287 135.585 669.887 135.585 C 666.787 135.485 664.187 129.885 660.787 116.085 C 657.387 102.085 656.687 97.985 656.587 91.885 C 656.587 85.885 656.087 82.485 653.987 72.385 C 653.687 70.885 651.687 67.985 649.587 66.085 C 645.887 62.785 643.787 62.085 640.887 63.285 Z M 648.187 69.285 C 650.887 73.385 652.587 81.085 653.287 92.085 C 653.587 97.585 654.287 103.485 654.787 105.185 C 655.387 106.985 656.187 110.585 656.687 113.185 C 659.587 129.185 665.487 141.185 672.187 145.285 C 682.487 151.485 692.687 150.585 700.387 142.785 C 702.787 140.385 704.687 137.685 704.687 136.885 C 704.687 136.085 705.287 134.185 706.087 132.785 C 708.187 128.585 710.287 122.185 712.687 112.585 C 713.387 110.085 714.487 106.085 715.287 103.585 C 716.087 101.085 716.687 97.685 716.687 96.085 C 716.687 94.385 717.187 91.485 717.787 89.585 C 718.287 87.685 719.087 83.185 719.487 79.585 C 720.087 73.985 720.487 73.085 722.187 73.085 C 723.987 73.085 724.187 73.685 724.087 79.085 C 723.987 90.485 721.687 122.085 720.687 126.085 C 720.187 128.285 719.687 132.385 719.687 135.185 C 719.687 137.985 718.987 142.485 718.187 145.185 C 717.387 147.885 716.687 151.685 716.687 153.585 C 716.687 155.485 716.087 159.085 715.287 161.585 C 713.687 166.685 711.887 173.485 710.887 178.385 C 710.487 180.185 709.887 181.785 709.487 181.885 C 709.087 181.985 706.487 180.385 703.787 178.285 C 700.987 176.285 698.387 174.585 698.087 174.585 C 697.687 174.585 696.587 173.985 695.787 173.285 C 694.887 172.485 691.587 171.285 688.387 170.585 C 681.287 168.985 674.487 170.285 667.887 174.685 C 665.487 176.285 662.987 177.585 662.187 177.585 C 660.887 177.585 658.287 173.385 656.687 168.585 C 656.187 167.185 654.887 163.585 653.687 160.585 C 652.487 157.585 651.087 153.485 650.687 151.585 C 649.187 145.485 647.587 139.285 646.087 133.985 C 645.287 131.185 644.687 127.385 644.687 125.485 C 644.687 123.585 644.187 120.485 643.587 118.585 C 642.987 116.685 642.187 110.785 641.687 105.585 C 641.287 100.385 640.287 91.285 639.587 85.385 C 638.387 75.585 638.487 74.485 640.187 70.685 C 642.387 65.685 645.487 65.185 648.187 69.285 Z M 695.787 92.085 C 696.287 114.785 697.087 123.585 699.687 133.485 C 700.987 138.385 697.587 142.785 690.587 144.985 C 686.187 146.485 684.787 146.485 680.587 145.485 C 677.887 144.785 674.687 143.185 673.587 141.985 C 671.687 139.885 671.587 139.485 672.987 136.885 C 675.687 131.685 677.687 126.485 677.687 124.785 C 677.687 123.785 678.387 122.085 679.187 120.985 C 679.987 119.985 680.687 118.285 680.687 117.185 C 680.687 116.185 681.287 113.285 682.087 110.685 C 685.387 100.285 686.687 94.685 686.687 91.485 C 686.687 89.585 687.387 85.585 688.187 82.585 C 688.987 79.585 689.687 75.285 689.687 72.985 C 689.687 68.685 691.187 66.385 693.687 66.785 C 694.987 67.085 695.287 70.885 695.787 92.085 Z M 689.087 174.285 C 697.887 175.985 711.087 188.685 714.487 198.785 C 716.987 205.985 717.587 221.085 715.587 224.885 C 713.587 228.785 710.387 231.585 708.087 231.585 C 706.787 231.585 703.187 232.285 699.987 233.085 C 690.587 235.585 684.587 235.085 677.687 231.385 C 674.187 229.385 671.687 227.385 671.687 226.485 C 671.687 225.585 672.987 223.385 674.587 221.485 C 676.187 219.685 677.287 217.785 677.087 217.385 C 676.387 216.285 668.687 222.385 668.687 223.885 C 668.687 224.485 667.287 226.485 665.487 228.285 C 662.687 231.185 661.687 231.585 657.087 231.585 C 652.187 231.585 651.687 231.385 649.787 228.185 C 647.287 224.185 646.987 213.285 649.187 207.085 C 649.987 204.885 650.687 202.585 650.687 201.885 C 650.687 199.885 657.387 189.285 661.387 184.985 C 668.987 176.785 677.687 172.185 683.587 173.285 C 684.887 173.485 687.287 173.985 689.087 174.285 Z" fill="#000000" stroke="none"></path>
</svg>