<svg viewBox="0 0 120 220" xmlns="http://www.w3.org/2000/svg">
  <path d="M 44.175 33.8 C 43.175 34.2 41.575 35.9 40.475 37.5 C 38.575 40.4 38.475 42.5 38.475 82.7 C 38.475 117 38.175 126 36.975 130.7 C 36.175 133.8 35.475 139.4 35.475 143 C 35.475 146.6 34.975 151.3 34.375 153.5 C 33.775 155.7 33.075 158.6 32.775 160 C 32.575 161.4 31.675 163.9 30.875 165.7 C 30.075 167.5 29.475 172 29.475 176.4 C 29.475 180.6 28.975 187.1 28.275 191 C 27.275 196.6 27.275 198.5 28.275 200 C 28.975 201.1 29.475 203.6 29.475 205.6 C 29.475 209.4 34.375 217 36.975 217 C 37.675 217 38.775 217.7 39.475 218.5 C 40.475 219.8 44.475 220 63.775 220 L 86.875 220 L 89.675 217.3 C 92.275 214.8 92.475 214.1 92.475 206.5 C 92.475 202 91.775 196.1 90.975 193.4 C 90.175 190.7 89.475 186.7 89.475 184.5 C 89.375 182.3 88.775 178.7 87.975 176.5 C 87.175 174.3 86.475 170.9 86.475 168.9 C 86.475 167 85.775 164.5 84.975 163.4 C 84.075 162.2 83.475 158.9 83.475 154 C 83.375 149.9 82.875 144.2 82.375 141.5 C 81.775 138.7 80.975 131.3 80.575 124.9 C 80.075 118.6 79.275 112.4 78.575 111.2 C 77.975 110.1 77.475 106.2 77.475 102.7 C 77.475 99.1 76.775 94.3 75.975 92 C 75.175 89.7 74.475 86.2 74.475 84.3 C 74.475 82.5 73.775 79.3 72.975 77.3 C 72.175 75.4 71.475 72.5 71.475 71.1 C 71.475 69.6 70.775 67.5 69.975 66.4 C 69.175 65.4 68.475 63.3 68.475 61.9 C 68.475 60.5 67.775 58.5 66.975 57.4 C 66.175 56.4 65.475 54.8 65.475 53.9 C 65.475 53 64.775 51.7 63.975 51 C 63.175 50.3 62.475 49 62.475 48 C 62.475 47 61.775 46 60.975 45.6 C 60.175 45.3 59.475 44.5 59.475 43.8 C 59.475 43.1 57.775 40.6 55.675 38.3 C 51.875 34 47.675 32.3 44.175 33.8 Z M 49.875 36.6 C 51.975 37.4 60.275 48.6 61.975 53 C 62.275 53.8 63.275 55.8 64.075 57.3 C 64.775 58.9 65.475 60.9 65.475 61.9 C 65.475 62.8 66.175 64.5 66.975 65.6 C 67.775 66.6 68.475 69.1 68.475 71.1 C 68.475 73 69.175 75.5 69.975 76.6 C 70.775 77.6 71.475 80.3 71.475 82.5 C 71.575 84.7 72.175 88.3 72.975 90.5 C 73.775 92.7 74.475 97.2 74.475 100.5 C 74.575 103.8 75.175 108.3 75.975 110.5 C 76.775 112.7 77.475 118.1 77.475 122.5 C 77.475 126.9 78.175 133.2 78.975 136.5 C 80.675 143.5 80.875 148.6 79.575 149.5 C 78.975 149.8 78.275 149.5 77.775 148.7 C 76.275 146.3 66.875 139 65.175 139 C 64.375 139 63.275 138.5 62.975 138 C 62.175 136.6 56.875 136.7 52.575 138.2 C 50.575 138.9 46.875 141.1 44.175 143.3 C 40.475 146.3 39.375 146.8 38.875 145.6 C 38.075 143.6 38.975 130.5 40.275 125 C 40.975 122.2 41.375 105.5 41.475 80.7 C 41.475 44.4 41.675 40.7 43.275 38.5 C 44.975 36 46.975 35.5 49.875 36.6 Z M 63.475 140.8 C 66.975 142.5 70.975 145.6 74.675 149.5 C 77.575 152.4 83.475 165.2 83.475 168.4 C 83.475 169.9 84.175 172.7 84.975 174.7 C 85.775 176.6 86.475 180.1 86.475 182.5 C 86.475 184.8 87.175 188.9 87.975 191.6 C 90.075 198.4 89.975 213.3 87.875 215.4 C 86.575 216.8 82.875 217 63.075 217 L 39.775 217 L 36.175 213.3 C 34.175 211.3 32.475 208.9 32.475 207.9 C 32.475 206.9 31.775 204 30.875 201.4 C 29.675 197.7 29.575 195.9 30.375 192.6 C 30.875 190.3 31.675 183.5 32.075 177.5 C 32.475 171 33.275 165.7 34.075 164.5 C 34.875 163.4 35.475 161.9 35.475 161 C 35.475 157.3 43.875 145 46.375 145 C 46.875 145 47.475 144.3 47.875 143.5 C 48.175 142.7 49.275 142 50.275 142 C 51.275 142 52.975 141.3 54.075 140.5 C 56.675 138.6 59.375 138.6 63.475 140.8 Z" fill="#000000" stroke="none">
    <title>11</title>
  </path>
</svg>