<svg viewBox="0 0 120 220" xmlns="http://www.w3.org/2000/svg">
  <path d="M 35.957 39.6 C 34.157 42.3 34.257 44.1 36.357 56.3 C 36.857 59.5 37.757 62.6 38.257 63.3 C 40.057 65.7 41.657 101.7 40.557 116.5 C 39.957 124.2 39.457 136.1 39.457 143 C 39.357 149.9 38.857 157.5 38.357 160 C 37.757 162.5 36.857 167.6 36.457 171.5 C 35.957 175.3 35.057 180.7 34.557 183.5 C 34.057 186.2 33.557 192.8 33.557 198 C 33.457 205.6 33.857 208.1 35.357 210.3 C 39.957 217.4 47.857 220 64.457 220 C 76.957 220 76.957 220 80.757 216.9 C 83.157 215 84.457 213 84.457 211.5 C 84.457 210.2 84.957 208.8 85.457 208.5 C 86.057 208.2 86.457 206.1 86.457 204 C 86.457 201.9 86.057 199.8 85.457 199.5 C 84.957 199.2 84.457 195.3 84.457 190.9 C 84.457 186.1 83.857 181.5 82.957 179.3 C 82.157 177.4 81.457 174.6 81.457 173.3 C 81.457 171.9 80.757 169.6 79.957 168.2 C 78.357 165.2 76.757 153.7 75.557 135.5 C 75.057 128.9 74.157 122.2 73.557 120.7 C 72.957 119.1 72.457 115 72.457 111.6 C 72.457 108.1 71.757 103.6 70.957 101.7 C 70.157 99.7 69.457 96 69.457 93.5 C 69.457 91 68.757 87.3 67.957 85.3 C 67.157 83.4 66.457 80.6 66.457 79.1 C 66.457 77.7 65.757 75.2 64.957 73.6 C 64.157 72.1 63.457 69.8 63.457 68.6 C 63.457 67.4 62.757 65.5 61.957 64.4 C 61.157 63.4 60.457 61.7 60.457 60.8 C 60.457 58.7 57.357 52.7 55.757 51.7 C 55.057 51.3 54.457 50.3 54.457 49.5 C 54.457 47.4 42.357 37 39.857 37 C 38.657 37 36.957 38.1 35.957 39.6 Z M 47.357 45.7 C 53.257 51.8 60.457 64.6 60.457 69.1 C 60.457 70.5 61.157 72.5 61.957 73.6 C 62.757 74.6 63.457 76.8 63.457 78.3 C 63.457 79.8 64.157 82.7 64.957 84.7 C 65.757 86.6 66.457 90.2 66.457 92.7 C 66.457 95.1 67.157 98.7 67.957 100.7 C 68.757 102.6 69.457 107 69.457 110.5 C 69.457 113.9 70.157 118.9 70.957 121.6 C 71.757 124.3 72.457 129.7 72.457 133.5 C 72.457 137.4 73.157 143.2 73.957 146.3 C 75.457 152.2 75.857 156 74.957 156 C 73.857 156 70.057 153.4 67.257 150.7 C 64.757 148.3 63.657 148 57.657 148 C 51.557 148 50.557 148.3 47.657 151 C 45.857 152.6 43.957 154 43.457 154 C 42.957 154 42.657 135.5 42.657 110.7 C 42.857 72 42.657 67.1 41.157 63.6 C 40.257 61.5 39.457 58.3 39.457 56.6 C 39.357 54.9 38.757 52.4 37.957 51 C 35.357 46.4 36.857 40 40.657 40 C 41.257 40 44.257 42.6 47.357 45.7 Z M 61.657 151 C 63.957 151.7 66.757 153.7 69.157 156.4 C 73.457 161.3 78.457 170.5 78.457 173.5 C 78.457 174.6 79.157 176.8 79.957 178.4 C 80.757 179.9 81.457 183.8 81.457 186.9 C 81.557 190 82.157 194.3 82.957 196.5 C 84.957 201.9 84.857 204.9 82.457 209.4 C 78.657 217 78.657 217 63.557 217 C 51.457 217 49.457 216.7 45.257 214.7 C 37.357 210.9 36.457 209 36.457 195.6 C 36.457 188.6 37.057 181.8 37.957 178.3 C 38.757 175.2 39.457 170.9 39.457 168.8 C 39.457 166.8 39.857 164.8 40.457 164.5 C 40.957 164.2 42.157 162.4 43.057 160.4 C 45.457 155.4 51.757 150.7 56.957 150.1 C 57.557 150.1 59.657 150.5 61.657 151 Z" fill="#000000" stroke="none">
    <title>12</title>
  </path>
</svg>