<svg viewBox="0 0 120 220" xmlns="http://www.w3.org/2000/svg">
  <path d="M 37.485 8.2 C 35.885 10.9 35.585 12.6 36.085 17 C 38.085 37.5 38.485 51.2 37.985 89 C 37.385 132.8 35.885 155.6 33.085 161.1 C 32.285 162.6 31.585 165.7 31.585 167.8 C 31.585 170 30.885 173.4 30.085 175.3 C 27.885 180.7 27.985 197.6 30.385 201.2 C 32.385 204.2 36.885 208 38.485 208 C 38.985 208 39.885 208.6 40.285 209.3 C 40.685 210.1 41.785 211 42.585 211.3 C 43.385 211.7 45.485 212.9 47.085 213.9 C 54.985 219 57.685 220 63.585 220 C 70.885 220 75.785 217.6 81.185 211.6 C 86.085 206.2 86.985 204.5 89.585 197.3 C 91.985 190.5 92.085 186.2 90.085 181.3 C 89.285 179.4 88.585 176.3 88.585 174.6 C 88.485 172.9 87.885 170.4 87.085 169 C 86.285 167.6 85.685 165.4 85.585 164 C 85.585 162.5 84.985 160.8 84.385 160.2 C 82.785 158.6 80.785 145.4 79.685 128.4 C 79.185 121.2 78.285 114.3 77.685 113.2 C 77.085 112.1 76.585 107.8 76.585 103.8 C 76.585 99.8 76.085 94.7 75.485 92.5 C 74.885 90.3 74.085 84.8 73.685 80.2 C 73.285 75.7 72.385 71.4 71.785 70.8 C 71.085 70.1 70.585 67.3 70.585 64.4 C 70.585 61.6 69.885 57.6 69.085 55.7 C 68.285 53.7 67.585 50.8 67.585 49.3 C 67.585 47.8 66.885 45.2 66.085 43.6 C 65.285 42.1 64.585 39.8 64.585 38.6 C 64.585 37.4 63.885 35.5 63.085 34.4 C 62.285 33.4 61.585 31.6 61.585 30.5 C 61.485 29.4 60.385 26.7 59.085 24.5 C 57.685 22.3 56.185 19.6 55.685 18.5 C 53.285 13.1 43.985 5 40.385 5 C 39.985 5 38.685 6.5 37.485 8.2 Z M 47.185 12.4 C 51.885 16.9 52.785 18.2 56.585 26 C 60.485 34.2 61.385 36.5 61.885 39 C 62.185 40.4 62.885 42.8 63.385 44.5 C 65.285 50 66.785 56.4 67.485 62.5 C 67.985 65.9 68.785 69.5 69.385 70.7 C 70.085 71.9 70.585 75.5 70.585 78.8 C 70.585 82.1 71.285 86.7 72.085 89 C 72.885 91.3 73.585 96.5 73.585 100.4 C 73.585 104.3 74.085 109.1 74.685 111 C 75.285 112.9 76.185 120.5 76.685 127.9 C 77.185 135.3 77.985 141.8 78.585 142.4 C 79.785 143.6 79.885 147 78.685 147 C 78.285 147 75.885 145.3 73.485 143.2 C 66.185 136.9 64.185 136 57.785 136 C 52.885 136 51.185 136.5 47.785 138.9 C 45.585 140.5 43.485 142.3 43.085 142.9 C 42.785 143.5 41.585 144 40.385 144 C 38.885 144 38.585 143.6 39.185 142.2 C 39.585 141.3 40.085 115 40.385 83.8 C 40.785 33.6 40.585 26.5 39.185 22.4 C 38.285 19.8 37.585 16.6 37.585 15.3 C 37.585 12.9 40.385 8.1 41.785 8 C 42.185 8 44.585 10 47.185 12.4 Z M 66.785 141.2 C 75.685 147.7 83.585 161.4 85.485 174 C 85.885 176.5 86.785 179.5 87.385 180.7 C 88.985 183.7 88.885 193.2 87.185 196.7 C 83.285 204.6 81.785 207 78.885 210.4 C 77.085 212.4 75.285 214 74.785 214 C 74.285 214 73.285 214.7 72.585 215.5 C 71.685 216.6 69.285 217 63.485 217 C 59.085 217 55.585 216.6 55.585 216.1 C 55.585 215.6 54.685 214.8 53.485 214.5 C 50.685 213.6 38.785 205.4 34.885 201.7 L 31.585 198.6 L 31.585 187.6 C 31.685 179.9 32.085 175.7 33.085 174 C 33.885 172.6 34.585 169.9 34.585 168 C 34.785 159.9 40.485 148.7 47.785 142.7 C 51.585 139.4 52.685 139 57.885 139 C 62.285 139 64.385 139.5 66.785 141.2 Z" fill="#000000" stroke="none">
    <title>13</title>
  </path>
</svg>