<svg viewBox="0 0 120 220" xmlns="http://www.w3.org/2000/svg">
  <path d="M 46.675 45.309 C 45.475 45.709 42.875 47.509 40.975 49.409 C 38.275 52.009 37.475 53.609 37.475 56.409 C 37.475 58.409 37.375 81.609 37.375 108.009 C 37.375 159.009 36.775 168.409 32.875 177.209 C 31.975 179.209 31.475 183.809 31.475 189.909 C 31.475 202.409 32.975 205.509 43.075 213.309 C 45.375 215.109 47.575 216.509 48.075 216.509 C 48.475 216.509 49.675 217.209 50.575 218.109 C 53.675 220.909 64.875 220.509 71.275 217.509 C 74.075 216.109 76.475 214.709 76.475 214.309 C 76.475 213.809 77.075 213.509 77.775 213.509 C 79.175 213.509 84.075 208.609 86.775 204.509 C 89.075 201.209 89.075 186.309 86.975 182.109 C 86.175 180.609 85.475 178.509 85.475 177.609 C 85.475 176.709 84.675 174.909 83.775 173.509 C 82.475 171.709 81.875 167.609 81.275 155.609 C 79.475 120.709 78.675 110.909 77.575 108.209 C 76.975 106.609 76.475 102.809 76.475 99.709 C 76.475 96.609 75.775 92.709 74.975 91.109 C 74.175 89.609 73.475 86.209 73.475 83.609 C 73.375 81.109 72.775 77.909 71.975 76.509 C 71.175 75.109 70.475 72.609 70.475 71.009 C 70.475 69.309 69.775 66.909 68.975 65.509 C 68.175 64.109 67.575 61.809 67.475 60.409 C 67.475 58.909 66.775 57.209 65.975 56.509 C 65.175 55.809 64.475 54.709 64.475 54.009 C 64.475 52.209 57.975 46.109 55.275 45.309 C 53.975 45.009 52.075 44.709 50.975 44.709 C 49.875 44.709 47.975 45.009 46.675 45.309 Z M 55.175 48.309 C 58.075 49.209 64.475 57.809 64.475 60.709 C 64.475 62.109 65.175 64.009 65.975 65.109 C 66.775 66.109 67.475 68.309 67.475 70.009 C 67.475 71.609 68.175 74.309 68.975 75.909 C 69.775 77.409 70.475 80.609 70.475 82.909 C 70.475 85.109 71.175 88.309 71.975 89.909 C 72.775 91.409 73.475 95.109 73.475 98.009 C 73.475 100.809 74.175 105.409 74.975 108.109 C 75.775 110.809 76.475 116.409 76.475 120.509 C 76.475 124.609 77.175 132.709 77.975 138.509 C 79.575 150.409 79.875 160.109 78.575 160.909 C 78.175 161.209 76.275 160.109 74.375 158.409 C 70.375 154.709 61.575 150.509 58.175 150.509 C 54.675 150.509 47.275 154.009 44.175 157.009 C 42.575 158.709 41.375 159.209 40.975 158.509 C 40.575 157.909 40.275 134.109 40.275 105.609 L 40.275 53.809 L 42.675 51.309 C 45.775 47.909 50.175 46.909 55.175 48.309 Z M 64.475 155.309 C 66.375 156.209 68.975 157.709 70.175 158.609 C 73.175 160.709 79.475 169.009 79.475 170.809 C 79.475 171.609 80.175 172.809 80.975 173.509 C 81.775 174.209 82.475 175.709 82.475 176.909 C 82.575 178.009 83.175 180.109 83.975 181.509 C 86.075 185.109 86.075 201.809 83.975 203.509 C 83.175 204.209 82.475 205.309 82.475 205.909 C 82.375 207.009 74.175 213.509 72.875 213.509 C 72.475 213.509 71.275 214.309 70.175 215.209 C 68.775 216.609 66.475 217.009 60.475 217.009 C 54.475 217.009 52.175 216.609 50.775 215.209 C 49.675 214.309 48.375 213.509 47.875 213.509 C 47.275 213.509 44.075 210.809 40.675 207.509 L 34.475 201.409 L 34.475 189.709 C 34.575 181.009 34.875 177.509 35.975 176.109 C 36.775 175.009 37.475 173.309 37.475 172.409 C 37.475 170.409 42.675 162.109 45.875 159.009 C 51.275 153.709 58.575 152.209 64.475 155.309 Z" fill="#000000" stroke="none">
    <title>14</title>
  </path>
</svg>