<svg viewBox="0 0 120 220" xmlns="http://www.w3.org/2000/svg">
  <path d="M 44.356 42.125 C 42.456 45.325 42.356 47.525 42.356 93.925 C 42.356 128.525 42.056 143.325 41.156 145.425 C 40.556 147.025 39.756 152.225 39.456 156.925 C 39.156 161.625 38.256 166.325 37.556 167.425 C 36.756 168.525 36.156 170.425 36.156 171.725 C 36.156 173.025 35.456 175.425 34.556 177.125 C 33.356 179.325 32.956 183.425 32.856 192.425 C 32.656 202.825 32.956 205.025 34.456 206.625 C 35.356 207.725 36.156 209.025 36.156 209.525 C 36.156 210.925 45.456 216.925 47.656 216.925 C 48.756 216.925 50.556 217.625 51.556 218.425 C 54.356 220.525 70.456 220.525 72.156 218.425 C 72.856 217.625 73.856 216.925 74.356 216.925 C 75.556 216.925 83.056 211.225 85.356 208.425 C 87.656 205.825 87.856 189.725 85.656 185.925 C 84.856 184.525 84.256 182.225 84.156 180.825 C 84.156 179.425 83.456 177.425 82.656 176.325 C 81.856 175.325 81.156 173.725 81.156 172.825 C 81.156 171.925 80.456 169.825 79.656 168.325 C 78.756 166.525 78.156 162.525 78.156 157.925 C 78.056 153.825 77.656 148.425 77.056 145.925 C 76.456 143.425 75.656 136.425 75.256 130.325 C 74.756 124.225 73.856 118.325 73.256 117.125 C 72.656 116.025 72.156 112.525 72.156 109.425 C 72.156 106.425 71.456 102.225 70.656 100.225 C 69.856 98.325 69.156 94.725 69.156 92.225 C 69.156 89.825 68.456 86.225 67.656 84.225 C 66.856 82.325 66.156 79.325 66.156 77.725 C 66.156 76.125 65.456 73.225 64.656 71.225 C 63.856 69.325 63.156 66.225 63.156 64.525 C 63.156 62.725 62.456 60.425 61.656 59.325 C 60.856 58.325 60.156 56.225 60.156 54.825 C 60.156 53.325 59.456 51.625 58.656 50.925 C 57.856 50.225 57.156 48.925 57.156 48.025 C 57.156 45.525 50.756 38.925 48.356 38.925 C 47.156 38.925 45.556 40.225 44.356 42.125 Z M 55.156 49.725 C 56.256 52.225 57.156 54.925 57.156 55.825 C 57.156 56.725 57.856 58.325 58.656 59.325 C 59.456 60.425 60.156 62.725 60.156 64.325 C 60.156 66.025 60.756 68.525 61.456 70.025 C 62.256 71.425 63.156 74.925 63.456 77.925 C 63.856 80.825 64.556 83.725 65.156 84.325 C 65.656 84.825 66.156 87.525 66.156 90.225 C 66.156 92.825 66.656 96.025 67.356 97.225 C 67.956 98.425 68.856 103.425 69.256 108.325 C 69.756 113.225 70.556 117.725 71.156 118.325 C 71.656 118.825 72.156 122.925 72.156 127.425 C 72.156 131.825 72.856 138.125 73.656 141.225 C 75.256 147.525 75.656 158.525 74.256 159.325 C 73.856 159.625 72.456 158.725 71.156 157.425 C 67.756 153.825 61.656 150.925 57.456 150.925 C 55.256 150.925 52.056 152.025 48.956 153.925 C 46.356 155.525 43.656 156.925 43.056 156.925 C 41.856 156.925 42.256 152.425 44.056 143.925 C 44.656 141.325 45.056 119.325 45.156 91.825 L 45.156 44.225 L 47.456 43.225 C 50.356 41.825 52.556 43.725 55.156 49.725 Z M 64.856 156.125 C 69.056 158.525 73.856 163.325 75.256 166.425 C 75.756 167.525 76.556 169.125 76.956 169.925 C 79.756 174.825 81.156 178.325 81.156 180.025 C 81.156 181.125 81.756 183.225 82.556 184.725 C 84.156 188.025 85.156 197.325 84.456 202.625 C 84.056 205.925 83.056 207.125 76.856 211.925 L 69.656 217.425 L 62.056 217.325 C 56.656 217.325 53.856 216.825 52.156 215.625 C 50.756 214.725 48.956 213.925 47.956 213.925 C 45.556 213.925 40.356 210.625 38.356 207.825 C 33.056 200.325 34.356 180.925 41.056 167.125 C 42.956 163.325 48.356 156.925 49.856 156.925 C 50.456 156.925 51.456 156.225 52.156 155.425 C 53.956 153.225 60.456 153.625 64.856 156.125 Z" fill="#000000" stroke="none">
    <title>15</title>
  </path>
</svg>