<svg viewBox="0 0 120 220" xmlns="http://www.w3.org/2000/svg">
  <path d="M 38.708 52.774 C 37.308 54.974 36.608 57.774 36.608 61.074 C 36.608 63.774 36.308 66.374 36.008 66.674 C 35.608 66.974 33.308 65.274 30.808 62.874 C 28.308 60.374 25.908 58.374 25.408 58.374 C 23.408 58.374 19.008 64.874 18.208 69.174 C 16.508 78.674 18.008 104.174 20.408 106.574 C 21.108 107.274 21.608 109.274 21.608 111.074 C 21.608 112.974 22.308 116.074 23.108 118.074 C 23.908 119.974 24.608 123.074 24.608 124.774 C 24.608 126.474 25.308 130.074 26.108 132.774 C 28.208 139.674 28.208 165.374 26.108 169.474 C 25.308 171.074 23.908 173.674 23.108 175.274 C 22.308 176.874 21.608 179.274 21.608 180.674 C 21.608 182.074 20.908 184.474 20.108 185.974 C 19.108 187.874 18.608 191.774 18.608 196.974 C 18.608 204.374 18.908 205.474 21.508 209.074 C 25.308 214.274 36.008 219.374 43.108 219.374 C 46.608 219.374 54.608 216.474 54.608 215.274 C 54.608 214.774 55.208 214.374 56.008 214.374 C 56.808 214.374 57.608 213.674 58.008 212.874 C 58.308 212.074 59.608 211.374 60.908 211.374 C 62.308 211.374 63.908 212.074 64.608 212.874 C 65.308 213.674 66.308 214.374 66.908 214.374 C 67.508 214.374 68.708 214.974 69.508 215.674 C 70.408 216.474 73.708 217.874 76.808 218.774 C 82.108 220.374 82.808 220.374 85.708 218.974 C 87.508 218.074 89.508 217.374 90.308 217.374 C 92.508 217.374 98.308 212.574 100.608 208.774 C 102.508 205.874 102.708 204.174 102.408 195.174 C 102.208 189.474 101.508 183.474 100.908 181.874 C 100.308 180.174 99.208 177.274 98.508 175.374 C 97.608 172.874 97.108 161.174 96.708 134.174 C 96.208 105.974 95.808 96.174 94.908 95.174 C 94.208 94.574 93.608 92.574 93.608 90.874 C 93.608 89.274 92.908 86.974 92.108 85.974 C 91.308 84.874 90.608 83.174 90.608 82.174 C 90.608 81.174 89.908 80.074 89.108 79.774 C 88.308 79.374 87.608 78.774 87.608 78.174 C 87.608 76.274 82.108 70.074 76.508 65.774 C 69.708 60.574 65.108 59.874 63.608 63.774 C 62.908 65.674 62.208 66.074 60.608 65.674 C 59.408 65.374 58.208 64.374 57.808 63.474 C 57.508 62.574 55.908 60.074 54.208 57.874 C 47.208 48.574 42.308 46.974 38.708 52.774 Z M 47.708 54.674 C 49.208 55.874 51.608 58.774 53.108 61.074 C 54.608 63.474 56.308 65.374 56.708 65.374 C 57.208 65.374 57.608 66.074 57.608 66.874 C 57.608 67.674 59.008 70.574 60.608 73.374 C 62.308 76.174 63.608 79.274 63.608 80.274 C 63.608 81.274 64.308 84.074 65.108 86.374 C 67.108 92.174 67.108 114.774 65.108 118.374 C 64.308 119.774 63.708 122.074 63.608 123.574 C 63.608 125.974 63.208 126.374 60.608 126.374 C 58.308 126.374 57.608 125.874 57.608 124.474 C 57.608 123.474 56.908 122.074 56.108 121.374 C 55.308 120.674 54.608 119.374 54.608 118.374 C 54.608 117.374 53.908 116.074 53.108 115.374 C 52.308 114.674 51.608 113.474 51.608 112.674 C 51.608 111.874 51.008 109.974 50.208 108.574 C 46.408 100.974 45.808 99.674 45.208 97.074 C 44.908 95.574 44.108 94.374 43.608 94.374 C 43.008 94.374 42.608 93.174 42.608 91.574 C 42.608 90.074 41.808 87.674 40.908 86.374 C 39.408 84.274 39.108 81.574 39.108 70.174 C 39.108 58.174 39.308 56.274 41.008 54.474 C 43.408 51.874 44.408 51.874 47.708 54.674 Z M 32.008 70.374 C 33.008 72.874 34.408 76.374 35.208 78.174 C 36.008 79.974 36.608 82.274 36.608 83.174 C 36.608 84.174 37.308 85.874 38.108 86.974 C 38.908 87.974 39.608 89.874 39.608 90.974 C 39.608 92.174 40.308 93.674 41.108 94.374 C 41.908 95.074 42.608 96.474 42.608 97.574 C 42.608 98.674 43.208 100.774 43.908 102.174 C 45.408 104.974 48.008 110.774 49.008 113.374 C 49.308 114.174 50.008 115.574 50.508 116.374 C 51.008 117.174 51.708 118.574 52.008 119.374 C 52.308 120.174 53.008 121.574 53.508 122.374 C 54.008 123.174 54.708 124.574 55.008 125.374 C 56.408 128.874 59.408 132.874 60.608 132.874 C 62.208 132.874 66.508 125.674 66.608 122.774 C 66.608 121.574 67.308 119.274 68.108 117.774 C 70.208 113.774 70.208 90.574 68.208 86.074 C 67.408 84.274 66.508 81.074 66.108 78.874 C 65.808 76.674 65.308 73.174 65.008 71.074 C 63.908 64.274 68.408 62.274 73.908 67.074 C 80.808 73.274 84.308 76.974 84.908 78.574 C 85.308 79.574 86.008 80.374 86.608 80.374 C 87.108 80.374 87.608 81.474 87.608 82.774 C 87.608 84.074 88.308 85.674 89.108 86.374 C 89.908 87.074 90.608 88.774 90.608 90.274 C 90.608 91.774 91.308 93.974 92.208 95.174 C 93.608 97.174 93.808 101.874 93.708 130.574 C 93.608 148.774 93.308 164.074 93.008 164.574 C 92.708 165.074 90.908 164.374 89.108 162.974 C 87.208 161.474 85.108 160.374 84.408 160.374 C 83.708 160.374 82.208 159.674 81.208 158.874 C 78.708 156.974 72.908 156.974 69.208 158.874 C 67.108 159.974 62.908 160.374 53.208 160.374 C 43.708 160.474 39.408 160.874 37.608 161.874 C 36.208 162.674 34.108 163.274 32.908 163.374 C 30.608 163.374 30.608 163.174 30.608 151.574 C 30.608 145.174 30.108 138.074 29.508 135.874 C 28.908 133.674 28.108 129.174 27.708 125.874 C 27.208 122.474 26.408 118.874 25.808 117.674 C 25.108 116.474 24.608 114.274 24.608 112.874 C 24.608 111.374 24.008 108.774 23.208 107.074 C 22.408 105.274 21.508 100.974 21.208 97.374 C 20.908 93.774 20.408 88.274 20.008 84.974 C 19.108 77.174 21.308 65.474 24.008 63.174 C 25.908 61.674 26.208 61.674 28.108 63.674 C 29.308 64.874 31.008 67.874 32.008 70.374 Z M 81.608 161.874 C 82.308 162.674 83.608 163.374 84.508 163.374 C 87.908 163.474 96.608 173.674 96.608 177.474 C 96.608 178.774 97.308 181.174 98.108 182.774 C 99.108 184.774 99.608 188.674 99.608 195.774 L 99.608 205.974 L 95.908 209.874 C 90.008 216.074 82.508 218.474 76.808 216.074 C 74.808 215.274 72.408 214.274 71.608 213.974 C 70.808 213.574 68.808 212.474 67.108 211.374 C 60.208 206.874 60.108 206.874 56.308 210.474 C 54.308 212.374 50.608 214.774 48.008 215.774 C 43.608 217.574 43.108 217.574 38.708 215.974 C 36.208 215.074 33.308 214.374 32.408 214.374 C 31.508 214.374 28.708 212.274 26.208 209.774 L 21.608 205.174 L 21.608 196.074 C 21.708 189.574 22.108 186.274 23.108 184.974 C 23.908 183.874 24.608 182.074 24.608 180.874 C 24.608 179.774 25.508 177.074 26.608 174.974 C 31.508 165.374 36.008 163.374 53.708 163.374 C 63.908 163.274 67.608 162.974 69.008 161.874 C 71.608 159.874 80.008 159.874 81.608 161.874 Z" fill="#000000" stroke="none">
    <title>16</title>
  </path>
</svg>