<svg viewBox="0 0 120 220" xmlns="http://www.w3.org/2000/svg">
  <path d="M 41.267 56.048 C 40.067 57.348 39.067 59.348 39.067 60.448 C 39.067 61.548 37.067 65.248 34.567 68.648 C 32.067 72.048 30.067 75.348 30.067 76.148 C 30.067 76.848 29.367 78.048 28.567 78.748 C 27.767 79.448 27.067 81.148 27.067 82.648 C 27.067 84.048 26.367 87.048 25.567 89.248 C 23.567 94.748 23.567 121.348 25.467 128.848 C 26.367 132.248 27.067 140.848 27.267 151.748 L 27.567 169.248 L 24.267 175.048 C 21.267 180.448 20.967 181.548 20.967 189.848 C 20.967 197.248 21.367 199.448 23.067 202.248 C 25.867 206.748 33.167 212.748 35.867 212.748 C 36.967 212.748 38.267 213.148 38.567 213.748 C 39.267 214.848 45.367 215.148 46.467 214.048 C 47.267 213.248 54.167 210.748 55.667 210.748 C 56.367 210.748 57.867 211.848 59.167 213.248 C 60.467 214.548 62.067 215.748 62.567 215.748 C 63.167 215.748 64.167 216.248 64.867 216.948 C 67.367 219.448 75.267 220.748 80.567 219.548 C 87.567 217.848 95.967 211.648 96.067 207.948 C 96.067 207.248 96.767 205.548 97.667 204.148 C 98.967 202.248 99.267 200.048 98.867 194.148 C 98.567 190.048 97.867 186.148 97.167 185.448 C 96.567 184.848 96.067 182.748 96.067 180.748 C 95.967 178.848 95.367 175.448 94.567 173.248 C 93.767 171.048 93.067 166.748 93.067 163.748 C 92.967 160.748 92.367 156.448 91.567 154.248 C 90.567 151.448 90.067 145.848 90.067 135.748 C 90.067 126.048 89.567 119.248 88.567 115.448 C 87.767 112.248 87.067 108.448 87.067 106.848 C 87.067 105.348 86.367 103.248 85.567 102.148 C 84.767 101.148 84.067 99.248 84.067 98.148 C 84.067 96.948 83.367 95.448 82.567 94.748 C 81.767 94.048 81.067 92.848 81.067 92.148 C 81.067 90.248 77.067 82.748 75.967 82.748 C 75.467 82.748 75.067 82.148 75.067 81.348 C 75.067 80.548 74.467 79.248 73.867 78.548 C 73.167 77.848 71.267 75.448 69.567 73.248 C 64.767 66.748 59.967 62.748 56.867 62.748 C 55.367 62.748 54.067 62.448 54.067 61.948 C 54.067 60.348 47.067 53.748 45.267 53.748 C 44.267 53.748 42.467 54.748 41.267 56.048 Z M 48.667 59.048 C 51.167 61.748 52.467 65.048 52.667 69.748 C 52.867 74.648 54.867 82.948 56.067 84.148 C 56.667 84.748 57.067 86.548 57.067 88.248 C 57.067 89.948 57.767 92.248 58.567 93.448 C 59.767 95.148 60.167 99.348 60.367 112.648 C 60.567 131.848 59.767 134.848 56.167 127.548 C 55.067 125.048 54.067 122.248 54.067 121.148 C 54.067 120.048 53.367 118.248 52.567 117.148 C 51.767 116.148 51.067 113.448 51.067 111.248 C 51.067 109.048 50.367 104.748 49.567 101.748 C 48.667 98.248 48.067 91.548 48.067 83.048 L 48.067 69.848 L 44.567 67.048 C 41.467 64.648 41.167 63.848 41.667 61.248 C 41.967 59.548 42.467 57.948 42.767 57.448 C 43.567 56.048 46.567 56.848 48.667 59.048 Z M 62.667 69.348 C 64.567 71.248 66.067 73.348 66.067 73.848 C 66.067 74.348 66.467 74.748 66.967 74.748 C 67.767 74.748 71.167 79.548 75.667 87.248 C 78.567 92.048 81.067 97.448 81.067 98.848 C 81.067 99.648 81.667 100.948 82.267 101.548 C 84.467 103.748 86.167 115.548 86.967 133.248 C 87.367 142.548 88.267 151.548 88.867 153.048 C 89.567 154.648 90.067 159.048 90.067 162.848 C 90.067 168.348 89.767 169.748 88.567 169.748 C 87.767 169.748 87.067 169.348 87.067 168.948 C 87.067 167.948 82.567 165.648 77.067 163.748 C 75.167 163.148 65.967 162.348 56.667 162.048 C 41.667 161.548 39.367 161.648 36.467 163.248 C 30.667 166.348 30.367 165.648 29.867 148.048 C 29.667 138.448 28.967 131.348 28.267 130.048 C 26.467 126.748 26.667 91.048 28.567 87.748 C 29.367 86.348 29.967 84.048 30.067 82.648 C 30.067 81.148 30.767 79.448 31.567 78.748 C 32.367 78.048 33.067 76.948 33.067 76.248 C 33.067 75.448 34.267 73.448 35.667 71.748 C 37.767 69.248 38.967 68.748 41.467 68.948 L 44.567 69.248 L 45.167 84.248 C 45.567 92.448 46.267 100.548 46.967 102.048 C 47.567 103.648 48.067 107.048 48.067 109.648 C 48.067 112.248 48.767 115.248 49.567 116.348 C 50.367 117.348 51.067 119.648 51.067 121.348 C 51.067 123.048 51.767 125.048 52.567 125.748 C 53.367 126.448 54.067 127.748 54.067 128.748 C 54.067 129.748 54.767 131.048 55.567 131.748 C 56.367 132.448 57.067 133.548 57.067 134.348 C 57.067 136.448 61.267 138.948 62.267 137.448 C 62.667 136.848 63.067 127.448 63.067 116.748 C 63.067 101.348 62.767 96.648 61.567 94.348 C 60.767 92.848 60.067 90.148 60.067 88.548 C 60.067 86.948 59.467 84.348 58.667 82.948 C 57.967 81.448 56.667 78.048 55.767 75.348 C 54.367 70.948 54.367 70.248 55.767 68.148 C 57.767 64.948 58.767 65.148 62.667 69.348 Z M 75.067 166.248 C 76.467 166.948 78.667 167.748 80.067 168.048 C 88.467 170.148 96.067 183.348 96.067 195.848 C 96.067 201.548 95.567 203.548 93.567 206.748 C 89.867 212.548 86.467 215.248 80.967 216.648 C 74.367 218.348 68.367 216.748 61.767 211.548 C 59.067 209.448 56.067 207.748 55.067 207.748 C 53.967 207.748 51.067 208.848 48.467 210.248 C 42.767 213.248 42.767 213.248 37.167 210.548 C 30.167 207.148 24.467 200.748 23.667 195.248 C 21.367 180.548 30.267 165.848 42.167 164.548 C 48.667 163.748 72.567 165.048 75.067 166.248 Z" fill="#000000" stroke="none">
    <title>17</title>
  </path>
</svg>