<svg viewBox="0 0 120 220" xmlns="http://www.w3.org/2000/svg">
  <path d="M 40.456 76.2 C 39.956 76.9 39.256 78.6 39.056 80 C 38.856 81.9 38.056 82.6 35.756 82.8 C 34.156 83 32.156 83.6 31.556 84.2 C 29.756 85.7 29.856 96.1 31.756 98.6 C 32.556 99.6 33.256 101.9 33.256 103.7 C 33.256 105.4 33.756 108.1 34.456 109.7 C 38.556 119.7 36.356 172.2 31.656 178.1 C 28.256 182.3 28.456 202.2 31.856 205.1 C 32.656 205.7 33.256 206.8 33.256 207.4 C 33.256 208.1 34.756 209.9 36.556 211.6 C 44.356 218.8 51.056 219.9 55.856 215 C 58.156 212.7 59.656 212 62.956 212 C 65.256 212 67.456 212.5 67.756 213.1 C 68.156 213.6 69.456 214.5 70.556 215.1 C 71.756 215.6 73.456 216.4 74.256 216.9 C 76.556 218.2 82.656 220 84.956 220 C 89.856 220 99.256 213.9 99.256 210.7 C 99.256 209.9 99.956 208.7 100.756 208 C 102.756 206.3 102.856 191.3 100.856 188.5 C 98.756 185.4 97.056 174 96.356 158.3 C 95.956 149.1 95.256 143.6 94.456 142.8 C 93.856 142.2 93.256 139.4 93.256 136.8 C 93.256 134.1 92.556 130.3 91.756 128.3 C 90.956 126.4 90.256 123.8 90.256 122.6 C 90.256 121.4 89.556 119.5 88.756 118.4 C 87.956 117.4 87.256 115.5 87.256 114.3 C 87.256 113.1 86.856 111.9 86.356 111.5 C 85.756 111.2 84.356 108.9 83.056 106.4 C 81.856 103.8 80.256 101.5 79.556 101.3 C 78.856 101 78.256 100.2 78.256 99.5 C 78.256 97.6 67.656 88 65.556 88 C 64.456 88 63.156 88.5 62.656 89 C 61.056 90.6 58.656 89.2 55.756 85.1 C 52.956 81 45.356 75 42.956 75 C 42.156 75 41.056 75.6 40.456 76.2 Z M 50.856 83.8 C 52.756 85.6 54.256 87.5 54.256 88 C 54.256 88.6 54.756 89 55.356 89 C 55.856 89 57.456 91.5 58.856 94.5 C 60.256 97.5 61.856 100.2 62.356 100.5 C 62.856 100.9 63.256 102.3 63.256 103.8 C 63.256 105.3 63.956 107.5 64.756 108.8 C 66.756 111.5 66.456 125.1 64.556 125.8 C 63.656 126 63.256 124.9 63.256 122 C 63.256 119.7 62.656 116.6 61.856 115.2 C 61.156 113.7 58.756 108.9 56.656 104.6 C 54.456 100.2 50.356 94.1 47.556 90.9 C 43.656 86.7 42.256 84.5 42.256 82.3 C 42.256 80.7 42.556 79.1 42.856 78.7 C 43.756 77.9 46.956 79.9 50.856 83.8 Z M 44.756 92.3 C 48.056 95.8 51.756 100.8 53.056 103.3 C 54.356 105.9 55.756 108.2 56.356 108.5 C 56.856 108.9 57.256 110 57.256 111.2 C 57.256 112.3 57.856 114.4 58.656 115.8 C 59.456 117.3 60.456 120.2 60.756 122.2 C 61.056 124.3 61.756 126 62.256 126 C 62.856 126 63.256 128.6 63.256 131.9 C 63.256 139.7 64.156 144 65.856 144 C 68.356 144 69.256 139.2 69.256 126.3 C 69.256 113.9 68.156 107.5 64.656 99.2 C 60.956 90.4 65.356 89.3 72.856 97.2 C 77.656 102.3 79.256 104.4 81.156 108.7 C 81.656 109.8 82.656 111.1 83.156 111.5 C 83.756 111.8 84.256 113.1 84.256 114.3 C 84.256 115.5 84.956 117.4 85.756 118.4 C 86.556 119.5 87.256 121.3 87.256 122.4 C 87.256 123.6 87.956 125.8 88.756 127.4 C 89.556 128.9 90.256 132 90.256 134.1 C 90.256 136.2 90.856 139.9 91.656 142.2 C 92.456 144.6 93.256 152.1 93.656 158.9 C 93.956 165.7 94.656 171.8 95.256 172.4 C 95.756 172.9 96.256 173.8 96.256 174.3 C 96.256 175.8 91.956 173.8 87.756 170.5 C 85.556 168.8 83.056 167 82.256 166.7 C 81.456 166.3 80.056 165.6 79.256 165.1 C 72.056 160.9 60.456 159.6 54.856 162.5 C 53.356 163.3 51.156 164 50.156 164 C 49.156 164 48.156 164.4 47.856 164.9 C 46.756 166.6 39.256 169.9 37.756 169.4 C 35.956 168.7 35.856 167.8 37.556 166.2 C 38.456 165.2 38.856 158.5 39.056 141.3 C 39.356 122 39.156 116.8 37.856 112.9 C 36.956 110.3 36.256 106.6 36.256 104.8 C 36.256 102.9 35.556 100.5 34.756 99.4 C 33.856 98.3 33.356 95.2 33.256 91.7 C 33.256 86.1 33.356 86 36.056 86 C 38.156 86 40.256 87.5 44.756 92.3 Z M 74.456 165.7 C 76.256 166.6 78.456 167.7 79.256 168.2 C 80.056 168.6 81.456 169.3 82.256 169.7 C 84.956 170.9 96.256 183 96.256 184.8 C 96.256 185.7 96.956 187.4 97.756 188.4 C 99.856 191.2 99.856 206.3 97.756 208 C 96.956 208.7 96.256 209.6 96.256 210.1 C 96.256 211.6 92.856 214.4 88.956 216.2 C 85.556 217.8 84.856 217.9 81.556 216.5 C 79.656 215.7 77.356 215 76.556 215 C 75.756 215 73.356 213.6 71.256 212 C 68.356 209.7 66.456 209 63.056 209 C 59.656 209 58.056 209.6 55.456 212 C 52.956 214.3 51.156 215 48.256 215 C 44.856 215 43.556 214.3 39.056 209.7 C 34.756 205.4 33.556 203.4 32.556 198.9 C 30.056 188.1 31.656 181.5 38.656 174.7 C 41.256 172.1 44.056 170 44.756 170 C 45.456 170 46.556 169.3 47.256 168.5 C 47.956 167.7 49.456 167 50.656 167 C 51.856 167 53.756 166.3 54.856 165.5 C 57.556 163.4 70.156 163.5 74.456 165.7 Z" fill="#000000" stroke="none">
    <title>18</title>
  </path>
</svg>