<svg viewBox="0 0 120 220" xmlns="http://www.w3.org/2000/svg">
  <path d="M 69.597 33.7 C 67.497 34.4 60.597 42.2 60.597 43.8 C 60.597 44.5 59.897 45.3 59.097 45.6 C 58.297 46 57.597 47 57.597 48 C 57.597 49 56.897 50.3 56.097 51 C 55.297 51.7 54.597 53 54.597 53.9 C 54.597 54.8 53.897 56.4 53.097 57.4 C 52.297 58.5 51.597 60.5 51.597 61.9 C 51.597 63.3 50.897 65.4 50.097 66.4 C 49.297 67.5 48.597 69.6 48.597 71.1 C 48.597 72.5 47.897 75.4 47.097 77.3 C 46.297 79.3 45.597 82.5 45.597 84.3 C 45.597 86.2 44.897 89.7 44.097 92 C 43.297 94.3 42.597 99.5 42.597 103.4 C 42.597 107.4 42.097 111.1 41.497 111.7 C 40.897 112.3 39.997 118.2 39.497 124.7 C 39.097 131.2 38.297 138.7 37.697 141.5 C 37.197 144.2 36.697 149.9 36.597 154 C 36.597 158.9 35.997 162.2 35.097 163.4 C 34.297 164.5 33.597 167 33.597 168.9 C 33.597 170.9 32.897 174.3 32.097 176.5 C 31.297 178.7 30.697 182.3 30.597 184.5 C 30.597 186.7 29.897 190.7 29.097 193.4 C 28.297 196.1 27.597 202 27.597 206.5 C 27.597 214.1 27.797 214.8 30.397 217.3 L 33.197 220 L 55.397 220 C 75.797 220 77.797 219.8 81.497 217.9 C 87.097 215 90.597 210.1 90.597 205.1 C 90.597 202.9 91.097 200.8 91.697 200.4 C 92.497 199.9 92.597 197.8 92.097 193.6 C 91.797 190.3 91.097 182.7 90.697 176.9 C 90.397 171 89.597 165.6 88.997 164.9 C 88.297 164.1 87.597 162.1 87.297 160.5 C 86.997 158.8 86.297 155.7 85.697 153.5 C 85.097 151.3 84.597 146.6 84.597 143 C 84.597 139.4 83.897 133.8 83.097 130.7 C 81.897 126 81.597 117 81.597 82.8 C 81.597 42.4 81.497 40.6 79.597 37.5 C 77.197 33.6 73.597 32.3 69.597 33.7 Z M 76.697 38.2 C 78.397 40.4 78.497 42.9 78.597 80.5 C 78.697 105.5 79.097 122.2 79.797 125 C 81.197 131.1 81.997 145 80.897 146.1 C 80.297 146.7 78.297 145.5 75.897 143.3 C 70.297 138.1 58.997 135 57.097 138 C 56.797 138.5 55.797 139 54.897 139 C 53.297 139 46.197 144.4 42.497 148.3 C 40.797 150.1 40.597 150.2 39.997 148.6 C 39.297 146.8 39.897 141.5 41.497 134 C 42.097 131.5 42.497 126.3 42.597 122.5 C 42.597 118.6 43.297 113.3 44.097 110.6 C 44.897 107.9 45.597 103.2 45.597 100.1 C 45.597 97 46.297 92.7 47.097 90.5 C 47.897 88.3 48.497 84.7 48.597 82.5 C 48.597 80.3 49.297 77.6 50.097 76.6 C 50.897 75.5 51.597 73 51.597 71.1 C 51.597 69.1 52.297 66.6 53.097 65.6 C 53.897 64.5 54.597 62.8 54.597 61.9 C 54.597 60.9 55.297 58.9 55.997 57.3 C 56.797 55.8 57.797 53.8 58.097 53 C 59.697 49 67.997 37.4 69.897 36.7 C 72.597 35.6 74.897 36.1 76.697 38.2 Z M 67.697 141.5 C 70.097 142.9 72.797 144.3 73.597 144.7 C 77.297 146.4 84.597 157.2 84.597 161 C 84.597 161.9 85.197 163.4 85.997 164.5 C 86.797 165.7 87.597 170.9 87.897 177.3 C 88.297 183.2 89.097 190 89.697 192.4 C 90.597 195.9 90.497 197.6 89.197 201.4 C 88.297 204 87.597 206.8 87.597 207.8 C 87.597 209.4 84.997 212.6 81.197 215.7 C 80.097 216.7 73.597 217 56.697 217 C 37.197 217 33.497 216.8 32.197 215.4 C 30.097 213.3 29.997 198.4 32.097 191.6 C 32.897 188.9 33.597 184.8 33.597 182.5 C 33.597 180.1 34.297 176.6 35.097 174.7 C 35.897 172.7 36.597 169.9 36.597 168.4 C 36.597 165.2 42.497 152.4 45.397 149.5 C 51.297 143.4 57.497 139.3 61.197 139.1 C 62.297 139.1 65.297 140.1 67.697 141.5 Z" fill="#000000" stroke="none">
    <title>21</title>
  </path>
</svg>