<svg viewBox="0 0 120 220" xmlns="http://www.w3.org/2000/svg">
  <path d="M 71.743 42.6 C 68.343 45.7 65.543 48.8 65.543 49.5 C 65.543 50.3 64.943 51.3 64.343 51.7 C 62.643 52.7 59.543 58.7 59.543 60.8 C 59.543 61.7 58.843 63.4 58.043 64.4 C 57.243 65.5 56.543 67.4 56.543 68.6 C 56.543 69.8 55.843 72.1 55.043 73.6 C 54.243 75.2 53.543 77.8 53.543 79.3 C 53.543 80.8 52.843 83.7 52.043 85.7 C 51.243 87.6 50.543 91.2 50.543 93.5 C 50.543 95.8 49.843 99.7 49.043 102 C 48.243 104.3 47.543 108.6 47.543 111.4 C 47.543 114.2 47.043 118.1 46.443 120 C 45.843 121.9 45.043 128.7 44.543 135 C 43.243 153.3 41.543 165.3 40.043 168.2 C 39.243 169.6 38.543 171.9 38.543 173.3 C 38.543 174.6 37.843 177.4 37.043 179.3 C 35.243 183.8 34.943 200.7 36.743 197.6 C 37.343 196.5 38.043 192.5 38.243 188.6 C 38.543 184.7 39.343 180.1 40.143 178.3 C 40.943 176.6 41.543 174.4 41.543 173.4 C 41.543 170.5 46.643 161.2 50.843 156.4 C 55.043 151.6 60.443 149.5 65.243 150.6 C 69.243 151.6 75.043 156.4 76.943 160.4 C 77.843 162.4 79.043 164.2 79.543 164.5 C 80.143 164.8 80.543 166.8 80.543 168.8 C 80.543 170.9 81.243 175.2 82.043 178.3 C 82.943 181.8 83.543 188.6 83.543 195.6 C 83.543 209 82.643 210.9 74.743 214.7 C 70.543 216.7 68.543 217 56.443 217 C 44.443 217 42.643 216.8 41.143 215.1 C 38.443 212.1 35.543 205.8 35.543 202.8 C 35.543 201.3 35.143 200 34.543 200 C 34.043 200 33.543 201.8 33.543 203.9 C 33.543 206.1 34.043 208.2 34.543 208.5 C 35.143 208.8 35.543 210.2 35.543 211.5 C 35.543 212.9 36.943 215 39.043 216.9 L 42.643 220 L 55.343 220 C 72.143 220 80.043 217.4 84.643 210.3 C 86.143 208.1 86.543 205.7 86.443 198.5 C 86.443 193.5 85.943 187 85.443 184 C 84.943 181 84.143 175.3 83.643 171.5 C 83.143 167.6 82.243 162.5 81.643 160 C 81.143 157.5 80.643 149.9 80.543 143 C 80.543 136.1 80.043 124.2 79.443 116.5 C 78.343 101.7 79.943 65.7 81.743 63.3 C 82.643 62.2 84.143 55.1 85.243 46.4 C 85.843 41.4 83.443 37 80.143 37 C 78.843 37 75.343 39.3 71.743 42.6 Z M 81.943 41.6 C 83.943 43.5 83.943 47.7 82.043 51 C 81.243 52.4 80.643 55 80.543 56.8 C 80.543 58.6 79.743 61.5 78.843 63.3 C 77.243 66.2 77.143 70.7 77.243 110.2 C 77.343 134.4 77.043 154 76.543 154 C 76.043 154 74.143 152.6 72.343 151 C 69.443 148.3 68.443 148 62.343 148 C 56.343 148 55.243 148.3 52.743 150.7 C 49.943 153.4 46.143 156 45.043 156 C 44.143 156 44.543 152.2 46.043 146.3 C 46.843 143.2 47.543 137.4 47.543 133.5 C 47.543 129.7 48.243 124.3 49.043 121.6 C 49.843 118.9 50.543 113.8 50.543 110.3 C 50.543 106.8 51.043 102.9 51.743 101.7 C 52.343 100.5 53.243 96.9 53.643 93.5 C 54.843 84.5 56.543 76.8 58.143 73.8 C 58.943 72.4 59.543 69.9 59.543 68.2 C 59.543 66.6 60.243 64.7 61.043 64 C 61.843 63.3 62.543 62.3 62.543 61.7 C 62.543 58.9 67.543 50.9 72.543 45.8 C 78.443 39.6 79.543 39.2 81.943 41.6 Z" fill="#000000" stroke="none">
    <title>22</title>
  </path>
</svg>