<svg viewBox="0 0 120 220" xmlns="http://www.w3.org/2000/svg">
  <path d="M 74.832 6.9 C 71.832 8.7 65.432 15.9 64.032 19 C 63.732 19.8 62.332 22.3 60.932 24.5 C 59.632 26.7 58.532 29.4 58.432 30.5 C 58.432 31.6 57.732 33.4 56.932 34.4 C 56.132 35.5 55.432 37.4 55.432 38.6 C 55.432 39.8 54.732 42.1 53.932 43.6 C 53.132 45.2 52.432 47.8 52.432 49.3 C 52.432 50.8 51.732 53.7 50.932 55.7 C 50.132 57.6 49.432 61.6 49.432 64.4 C 49.432 67.3 48.932 70.1 48.232 70.8 C 47.632 71.4 46.732 75.7 46.332 80.2 C 45.932 84.8 45.132 90.3 44.532 92.5 C 43.932 94.7 43.432 99.8 43.432 103.8 C 43.432 107.8 42.932 112.1 42.332 113.2 C 41.732 114.3 40.832 121.2 40.332 128.4 C 39.232 145.4 37.232 158.6 35.732 160.2 C 35.032 160.8 34.432 162.5 34.432 164 C 34.332 165.4 33.732 167.6 32.932 169 C 32.132 170.4 31.532 172.9 31.432 174.6 C 31.432 176.3 30.732 179.4 29.932 181.3 C 27.932 186.2 28.032 190.5 30.432 197.3 C 33.032 204.5 33.932 206.2 38.832 211.6 C 44.232 217.6 49.132 220 56.432 220 C 62.332 220 65.132 219 72.932 213.9 C 74.632 212.9 76.732 211.7 77.732 211.4 C 78.632 211 79.432 210.4 79.432 209.9 C 79.432 209.3 80.232 208.6 81.232 208.3 C 83.932 207.3 87.732 204.1 89.632 201.2 C 91.932 197.7 92.132 178.9 89.932 175 C 89.132 173.6 88.532 170.6 88.432 168.2 C 88.432 165.8 87.732 162.6 86.932 161.1 C 84.132 155.6 82.632 132.8 82.032 89 C 81.532 51.2 81.932 37.5 83.932 17 C 84.432 12.6 84.132 10.9 82.532 8.2 C 80.132 4.5 79.132 4.3 74.832 6.9 Z M 80.532 10.2 C 82.832 13 82.932 16.3 80.832 22.4 C 79.432 26.5 79.232 33.6 79.632 83.8 C 79.932 115 80.432 141.3 80.832 142.2 C 81.432 143.6 81.132 144 79.632 144 C 78.432 144 77.232 143.5 76.932 142.9 C 76.532 142.3 74.432 140.5 72.232 138.9 C 68.732 136.4 67.232 136 62.032 136 C 55.432 136 54.132 136.6 46.532 143.2 C 44.132 145.3 41.732 147 41.332 147 C 40.132 147 40.232 143.6 41.432 142.4 C 42.032 141.8 42.832 135.3 43.332 127.9 C 43.832 120.5 44.732 112.9 45.332 111 C 45.932 109.1 46.432 104.3 46.432 100.4 C 46.432 96.5 47.132 91.3 47.932 89 C 48.732 86.7 49.432 82.1 49.432 78.8 C 49.432 75.5 49.932 71.9 50.632 70.7 C 51.232 69.5 52.032 65.9 52.532 62.5 C 53.332 56.3 54.832 49.8 56.632 44.5 C 57.232 42.8 57.932 40.1 58.132 38.3 C 58.432 36.5 59.232 34.5 60.032 33.9 C 60.832 33.3 61.432 32 61.432 31 C 61.432 30.1 62.532 27.3 63.932 24.9 C 65.332 22.5 66.732 19.8 67.032 19 C 67.732 17.4 77.132 8 78.032 8 C 78.332 8 79.432 9 80.532 10.2 Z M 72.032 142.5 C 76.732 146.4 82.432 154.1 82.432 156.8 C 82.532 157.7 83.132 159.6 83.932 161 C 84.732 162.4 85.432 165.3 85.432 167.5 C 85.432 169.7 86.132 172.6 86.932 174 C 87.932 175.7 88.332 179.9 88.432 187.6 L 88.432 198.6 L 85.232 201.7 C 81.232 205.4 69.332 213.6 66.532 214.5 C 65.332 214.8 64.432 215.6 64.432 216.1 C 64.432 216.6 60.932 217 56.532 217 C 50.732 217 48.332 216.6 47.432 215.5 C 46.732 214.7 45.732 214 45.232 214 C 43.032 214 36.932 205.6 33.032 197.1 C 31.132 193.1 30.932 183.8 32.632 180.7 C 33.232 179.5 34.132 176.5 34.532 174 C 35.932 165.1 42.032 151.9 47.332 146.6 C 54.132 139.8 55.532 139.1 61.832 139 C 67.132 139 68.132 139.4 72.032 142.5 Z" fill="#000000" stroke="none">
    <title>23</title>
  </path>
</svg>