<svg viewBox="0 0 120 220" xmlns="http://www.w3.org/2000/svg">
  <path d="M 64.716 45.397 C 62.016 46.197 55.516 52.397 55.516 54.097 C 55.516 54.797 54.816 55.897 54.016 56.597 C 53.216 57.297 52.516 58.997 52.516 60.497 C 52.416 61.897 51.816 64.197 51.016 65.597 C 50.216 66.997 49.516 69.397 49.516 71.097 C 49.516 72.697 48.816 75.197 48.016 76.597 C 47.216 77.997 46.616 81.197 46.516 83.697 C 46.516 86.297 45.816 89.697 45.016 91.197 C 44.216 92.797 43.516 96.697 43.516 99.797 C 43.516 102.897 43.016 106.697 42.416 108.297 C 41.316 110.897 40.616 120.497 38.716 156.197 C 38.116 167.697 37.516 171.797 36.216 173.597 C 35.316 174.997 34.516 176.797 34.516 177.697 C 34.516 178.597 33.816 180.697 33.016 182.197 C 30.816 186.497 30.916 201.397 33.216 204.597 C 36.416 209.097 40.816 213.597 42.216 213.597 C 42.916 213.597 43.516 213.997 43.516 214.497 C 43.516 214.997 44.516 215.797 45.816 216.197 C 47.016 216.497 48.816 217.497 49.716 218.297 C 52.416 220.697 65.116 220.497 69.516 218.097 C 77.916 213.297 84.016 207.997 86.716 202.897 C 89.016 198.697 89.216 181.997 87.116 177.297 C 83.116 168.397 82.616 159.197 82.616 104.897 C 82.616 48.897 82.916 51.797 76.916 47.297 C 74.316 45.397 68.016 44.397 64.716 45.397 Z M 77.216 51.197 L 79.716 53.897 L 79.716 105.697 C 79.716 134.197 79.416 157.997 79.016 158.597 C 78.616 159.297 77.416 158.797 75.816 157.097 C 72.716 154.097 65.316 150.597 61.816 150.597 C 58.416 150.597 49.616 154.797 45.616 158.497 C 43.716 160.197 41.816 161.297 41.416 160.997 C 40.116 160.197 40.416 150.497 42.016 138.597 C 42.816 132.797 43.516 124.697 43.516 120.597 C 43.516 116.497 44.216 110.897 45.016 108.197 C 45.816 105.497 46.516 100.897 46.516 98.097 C 46.516 95.197 47.216 91.497 48.016 89.997 C 48.816 88.397 49.516 85.197 49.516 82.997 C 49.516 80.697 50.216 77.497 51.016 75.997 C 51.816 74.397 52.516 71.697 52.516 70.097 C 52.516 68.397 53.216 66.197 54.016 65.197 C 54.816 64.097 55.516 62.197 55.516 60.797 C 55.516 57.897 61.916 49.297 64.816 48.397 C 69.016 47.097 74.516 48.297 77.216 51.197 Z M 68.616 155.397 C 70.616 156.397 73.116 158.097 74.216 159.197 C 77.216 162.097 82.516 170.497 82.516 172.397 C 82.616 173.297 83.216 175.197 84.016 176.597 C 85.016 178.297 85.416 182.497 85.516 190.297 L 85.516 201.497 L 79.316 207.597 C 75.916 210.897 72.716 213.597 72.116 213.597 C 71.616 213.597 70.316 214.397 69.216 215.297 C 67.816 216.697 65.516 217.097 59.516 217.097 C 53.516 217.097 51.216 216.697 49.816 215.297 C 48.716 214.397 47.516 213.597 47.116 213.597 C 45.216 213.597 37.616 206.697 36.116 203.497 C 34.016 199.297 34.216 185.397 36.516 179.597 C 44.316 159.197 57.116 149.497 68.616 155.397 Z" fill="#000000" stroke="none">
    <title>24</title>
  </path>
</svg>