<svg viewBox="0 0 120 220" xmlns="http://www.w3.org/2000/svg">
  <path d="M 66.243 42.45 C 64.343 44.45 62.843 46.85 62.843 47.85 C 62.843 48.75 62.143 50.05 61.343 50.75 C 60.543 51.45 59.843 53.15 59.843 54.65 C 59.843 56.05 59.143 58.15 58.343 59.15 C 57.543 60.25 56.843 62.75 56.843 64.65 C 56.743 66.65 56.143 69.35 55.343 70.75 C 54.543 72.15 53.943 74.85 53.843 76.85 C 53.843 78.85 53.143 82.15 52.343 84.05 C 51.543 86.05 50.843 89.85 50.843 92.55 C 50.843 95.15 50.343 97.85 49.743 98.45 C 49.143 99.05 48.243 103.35 47.843 107.95 C 47.443 112.45 46.543 118.05 45.943 120.25 C 45.343 122.45 44.843 127.45 44.843 131.45 C 44.843 135.35 44.343 139.85 43.743 141.45 C 43.143 142.95 42.343 149.55 41.943 156.05 C 41.543 162.75 40.743 168.25 40.043 168.95 C 39.343 169.65 38.843 171.05 38.843 172.25 C 38.843 173.35 38.143 175.15 37.343 176.15 C 36.543 177.25 35.843 179.25 35.843 180.65 C 35.743 182.05 35.143 184.35 34.343 185.75 C 32.143 189.55 32.343 205.65 34.643 208.25 C 36.743 210.75 44.343 216.75 45.443 216.75 C 45.843 216.75 46.943 217.45 47.943 218.35 C 50.443 220.55 65.043 220.55 68.443 218.35 C 69.743 217.45 71.543 216.75 72.543 216.75 C 74.643 216.75 83.843 210.65 83.843 209.35 C 83.843 208.85 84.643 207.55 85.643 206.45 C 87.043 204.85 87.343 202.65 87.143 192.25 C 87.043 183.25 86.643 179.15 85.443 176.95 C 84.543 175.25 83.843 172.85 83.843 171.55 C 83.843 170.25 83.243 168.35 82.443 167.25 C 81.743 166.15 80.843 161.45 80.543 156.75 C 80.243 152.05 79.443 146.85 78.843 145.25 C 77.943 143.15 77.643 128.35 77.643 93.75 C 77.643 47.35 77.543 45.15 75.643 41.95 C 73.043 37.75 70.443 37.85 66.243 42.45 Z M 74.843 94.35 C 75.243 131.65 75.743 146.05 76.643 148.05 C 78.043 151.45 78.243 156.75 76.843 156.75 C 76.343 156.75 73.643 155.35 71.043 153.75 C 67.943 151.85 64.743 150.75 62.543 150.75 C 58.343 150.75 52.243 153.65 48.843 157.25 C 47.543 158.55 46.143 159.45 45.743 159.15 C 44.343 158.35 44.743 147.95 46.343 141.25 C 47.143 137.95 47.843 131.65 47.843 127.15 C 47.843 122.75 48.343 118.65 48.843 118.15 C 49.443 117.55 50.243 113.05 50.743 108.15 C 51.143 103.25 52.043 98.25 52.643 97.05 C 53.343 95.85 53.843 92.65 53.843 90.05 C 53.843 87.35 54.343 84.65 54.843 84.15 C 55.443 83.55 56.143 80.65 56.543 77.75 C 56.843 74.75 57.743 71.25 58.543 69.85 C 59.243 68.35 59.843 65.85 59.843 64.15 C 59.843 62.55 60.543 60.25 61.343 59.15 C 62.143 58.15 62.843 56.45 62.843 55.55 C 62.843 53.15 65.843 46.65 68.143 44.05 C 69.543 42.45 70.643 42.05 72.243 42.65 C 74.343 43.45 74.343 43.45 74.843 94.35 Z M 67.543 154.85 C 68.143 155.45 69.643 156.45 70.943 157.15 C 73.543 158.45 80.743 168.55 80.843 170.95 C 80.843 171.85 81.343 173.85 82.043 175.45 C 84.343 180.85 85.643 195.35 84.443 200.85 C 83.043 206.75 78.343 212.35 74.043 213.25 C 72.543 213.55 69.843 214.65 67.943 215.55 C 65.743 216.65 62.143 217.15 57.443 217.15 C 50.243 217.15 50.243 217.15 43.143 211.75 C 37.343 207.25 35.943 205.65 35.443 202.85 C 34.743 198.15 35.843 187.85 37.443 184.55 C 38.243 183.05 38.843 180.95 38.843 179.85 C 38.843 178.15 40.243 174.65 43.043 169.75 C 43.443 168.95 44.243 167.35 44.743 166.25 C 46.143 163.25 50.943 158.35 54.843 156.05 C 58.643 153.75 65.743 153.05 67.543 154.85 Z" fill="#000000" stroke="none">
    <title>25</title>
  </path>
</svg>