<svg viewBox="0 0 120 220" xmlns="http://www.w3.org/2000/svg">
  <path d="M 71.292 51.674 C 68.392 54.274 62.992 61.174 62.192 63.474 C 61.792 64.374 60.592 65.374 59.392 65.674 C 57.792 66.074 57.092 65.674 56.392 63.774 C 54.892 59.874 50.292 60.574 43.592 65.774 C 37.492 70.374 32.392 75.974 32.392 77.974 C 32.392 78.574 31.692 79.374 30.892 79.774 C 30.092 80.074 29.392 81.174 29.392 82.174 C 29.392 83.174 28.692 84.874 27.892 85.974 C 27.092 86.974 26.392 89.074 26.392 90.474 C 26.392 91.974 25.692 94.474 24.892 95.974 C 23.692 98.374 23.392 104.774 23.392 133.474 C 23.392 168.974 23.192 171.174 19.092 181.874 C 18.492 183.474 17.792 189.474 17.592 195.174 C 17.292 204.174 17.492 205.874 19.392 208.774 C 21.692 212.574 27.492 217.374 29.692 217.374 C 30.492 217.374 32.492 218.074 34.292 218.974 C 37.192 220.374 37.892 220.374 43.192 218.774 C 46.292 217.874 49.592 216.474 50.492 215.674 C 51.292 214.974 52.492 214.374 53.092 214.374 C 53.692 214.374 54.692 213.674 55.392 212.874 C 56.092 212.074 57.692 211.374 59.092 211.374 C 60.392 211.374 61.692 212.074 61.992 212.874 C 62.392 213.674 62.992 214.374 63.592 214.374 C 64.092 214.374 65.192 215.074 65.992 215.874 C 66.892 216.674 68.392 217.374 69.392 217.374 C 70.392 217.374 71.592 217.774 71.892 218.374 C 72.692 219.674 78.892 219.674 83.292 218.274 C 90.992 215.774 95.592 213.074 98.492 209.074 C 101.092 205.474 101.392 204.374 101.392 196.974 C 101.392 191.774 100.892 187.874 99.892 185.974 C 99.092 184.474 98.392 182.074 98.392 180.674 C 98.392 179.274 97.692 176.874 96.892 175.274 C 96.092 173.674 94.692 171.074 93.892 169.474 C 92.792 167.274 92.392 162.974 92.392 151.574 C 92.392 140.874 92.792 135.474 93.892 132.374 C 94.692 130.074 95.392 126.674 95.392 124.874 C 95.392 123.074 96.092 119.974 96.892 118.074 C 97.692 116.074 98.392 112.974 98.392 111.074 C 98.392 109.274 98.892 107.274 99.592 106.574 C 101.992 104.174 103.492 78.674 101.792 69.174 C 100.992 64.874 96.592 58.374 94.592 58.374 C 94.092 58.374 91.692 60.374 89.192 62.874 C 86.692 65.274 84.392 66.974 83.992 66.674 C 83.692 66.374 83.392 63.774 83.392 61.074 C 83.392 51.174 77.392 46.474 71.292 51.674 Z M 78.892 54.474 C 80.592 56.174 80.792 58.274 80.792 70.174 C 80.892 81.574 80.592 84.274 79.092 86.374 C 78.192 87.674 77.392 90.074 77.392 91.574 C 77.392 93.174 76.992 94.374 76.392 94.374 C 75.892 94.374 75.092 95.574 74.792 97.074 C 74.092 99.874 73.392 101.674 70.092 108.174 C 69.192 110.074 68.392 112.074 68.392 112.874 C 68.392 113.574 67.692 114.674 66.892 115.374 C 66.092 116.074 65.392 117.374 65.392 118.374 C 65.392 119.374 64.692 120.674 63.892 121.374 C 63.092 122.074 62.392 123.474 62.392 124.474 C 62.392 125.874 61.692 126.374 59.392 126.374 C 56.792 126.374 56.392 125.974 56.392 123.574 C 56.292 122.074 55.692 119.774 54.892 118.374 C 52.892 114.774 52.892 92.174 54.892 86.374 C 55.692 84.074 56.392 81.274 56.392 80.274 C 56.392 79.274 57.792 76.174 59.392 73.374 C 61.092 70.574 62.392 67.674 62.392 66.874 C 62.392 66.074 62.792 65.374 63.292 65.374 C 63.692 65.374 65.392 63.474 66.892 61.074 C 69.792 56.674 74.192 52.474 75.992 52.374 C 76.592 52.374 77.892 53.274 78.892 54.474 Z M 99.392 72.074 C 100.092 76.174 100.392 81.774 99.992 85.074 C 99.692 88.274 99.092 93.774 98.792 97.374 C 98.492 100.974 97.592 105.274 96.792 107.074 C 95.992 108.774 95.392 111.374 95.392 112.874 C 95.392 114.274 94.892 116.474 94.192 117.674 C 93.592 118.874 92.792 122.474 92.292 125.874 C 91.892 129.174 91.092 133.674 90.492 135.874 C 89.892 138.074 89.392 145.174 89.392 151.574 C 89.392 163.174 89.392 163.374 87.192 163.374 C 85.892 163.274 83.792 162.674 82.392 161.874 C 80.592 160.874 76.292 160.474 66.792 160.374 C 57.092 160.374 52.892 159.974 50.792 158.874 C 45.692 156.274 41.392 156.974 33.392 161.474 C 29.492 163.774 27.392 164.674 26.892 164.174 C 26.692 163.974 26.392 148.874 26.292 130.574 C 26.192 101.874 26.392 97.174 27.792 95.174 C 28.692 93.974 29.392 91.774 29.392 90.274 C 29.392 88.774 30.092 87.074 30.892 86.374 C 31.692 85.674 32.392 84.074 32.392 82.774 C 32.392 81.474 32.892 80.374 33.392 80.374 C 33.992 80.374 34.692 79.574 35.092 78.574 C 35.692 76.974 39.192 73.274 46.092 67.074 C 51.592 62.274 56.092 64.274 54.992 71.074 C 54.692 73.174 54.192 76.674 53.892 78.874 C 53.492 81.074 52.592 84.274 51.792 86.074 C 49.792 90.574 49.792 113.774 51.892 117.774 C 52.692 119.274 53.392 121.574 53.392 122.774 C 53.492 125.174 57.692 132.974 58.692 132.574 C 59.092 132.474 59.892 132.374 60.392 132.374 C 60.992 132.374 61.892 131.374 62.392 130.074 C 62.992 128.874 63.792 127.074 64.392 126.074 C 64.892 125.174 65.892 123.574 66.392 122.574 C 66.992 121.674 67.692 120.174 67.992 119.374 C 68.292 118.574 68.992 117.174 69.492 116.374 C 69.992 115.574 70.692 114.174 70.992 113.374 C 71.992 110.774 74.592 104.974 76.092 102.174 C 76.792 100.774 77.392 98.674 77.392 97.574 C 77.392 96.474 78.092 95.074 78.892 94.374 C 79.692 93.674 80.392 92.174 80.392 90.974 C 80.392 89.874 81.092 87.974 81.892 86.974 C 82.692 85.874 83.392 84.174 83.392 83.174 C 83.392 82.274 83.992 79.974 84.792 78.174 C 85.592 76.374 86.992 72.874 87.992 70.374 C 88.992 67.874 90.692 64.874 91.792 63.774 C 93.692 61.674 93.892 61.674 95.892 63.174 C 97.492 64.374 98.392 66.774 99.392 72.074 Z M 50.992 161.874 C 52.392 162.974 56.092 163.274 66.392 163.374 C 80.492 163.374 84.392 164.274 89.492 168.974 C 91.792 171.074 95.392 178.374 95.392 180.974 C 95.392 182.074 96.092 183.874 96.892 184.974 C 97.892 186.274 98.292 189.574 98.392 196.074 L 98.392 205.174 L 93.892 209.674 C 90.992 212.574 88.292 214.274 86.192 214.674 C 84.392 214.874 81.492 215.674 79.792 216.374 C 77.092 217.474 76.092 217.474 71.992 215.774 C 69.392 214.774 65.692 212.374 63.692 210.474 C 59.892 206.874 59.792 206.874 52.892 211.374 C 51.292 212.474 49.192 213.574 48.392 213.974 C 47.592 214.274 45.192 215.274 43.192 216.074 C 37.492 218.474 29.992 216.074 24.192 209.874 L 20.392 205.974 L 20.392 195.774 C 20.392 188.674 20.892 184.774 21.892 182.774 C 22.692 181.174 23.392 178.774 23.392 177.474 C 23.392 173.674 32.092 163.474 35.492 163.374 C 36.392 163.374 37.692 162.674 38.392 161.874 C 39.992 159.874 48.392 159.874 50.992 161.874 Z" fill="#000000" stroke="none">
    <title>26</title>
  </path>
</svg>