<svg viewBox="0 0 120 220" xmlns="http://www.w3.org/2000/svg">
  <path d="M 69.474 57.184 C 67.874 59.184 66.374 61.184 66.174 61.684 C 65.974 62.184 64.574 62.584 63.074 62.584 C 60.074 62.584 55.174 66.684 50.474 73.084 C 48.774 75.284 46.874 77.684 46.274 78.384 C 45.574 79.084 44.974 80.384 44.974 81.184 C 44.974 81.984 44.574 82.584 44.074 82.584 C 42.974 82.584 38.974 90.084 38.974 91.984 C 38.974 92.684 38.274 93.884 37.474 94.584 C 36.674 95.284 35.974 96.584 35.974 97.584 C 35.974 98.584 35.274 100.684 34.474 102.184 C 33.674 103.784 32.974 106.084 32.974 107.284 C 32.974 108.484 32.274 112.084 31.474 115.284 C 30.474 119.084 29.974 125.884 29.974 135.584 C 29.974 145.684 29.474 151.284 28.474 154.084 C 27.674 156.284 27.074 160.584 26.974 163.584 C 26.974 166.584 26.274 170.884 25.474 173.084 C 24.674 175.284 24.074 178.684 23.974 180.584 C 23.974 182.584 23.474 184.684 22.874 185.284 C 22.274 185.884 21.574 189.784 21.274 193.884 C 20.774 199.984 20.974 201.984 22.374 203.984 C 23.274 205.384 23.974 207.184 23.974 207.984 C 23.974 208.784 26.174 211.384 28.774 213.784 C 34.974 219.284 41.974 221.184 49.174 219.284 C 51.874 218.584 54.474 217.484 55.174 216.784 C 55.874 216.084 56.874 215.584 57.474 215.584 C 57.974 215.584 59.574 214.384 60.874 213.084 C 63.374 210.384 65.774 209.984 68.974 211.584 C 70.074 212.084 71.874 212.984 72.974 213.584 C 74.074 214.084 76.274 214.584 77.874 214.584 C 79.574 214.584 81.174 214.084 81.474 213.584 C 81.774 212.984 82.974 212.584 84.074 212.584 C 86.774 212.584 92.674 207.984 96.174 203.184 C 98.774 199.584 98.974 198.584 98.974 189.884 C 98.974 181.184 98.774 180.184 95.774 174.784 L 92.474 169.084 L 92.774 151.584 C 92.974 140.684 93.674 132.084 94.574 128.684 C 96.574 120.884 96.474 93.784 94.474 88.884 C 93.674 86.984 92.974 84.084 92.974 82.584 C 92.974 81.084 92.274 79.284 91.474 78.584 C 90.674 77.884 89.974 76.684 89.974 75.984 C 89.974 75.184 87.974 71.884 85.474 68.484 C 82.974 65.084 80.974 61.384 80.974 60.184 C 80.974 57.484 77.074 53.584 74.374 53.584 C 73.374 53.684 71.174 55.284 69.474 57.184 Z M 78.274 60.484 C 79.074 63.584 78.874 64.084 75.574 66.784 L 71.974 69.684 L 71.974 83.384 C 71.974 92.584 71.474 98.684 70.474 101.984 C 69.674 104.684 68.974 108.784 68.974 110.984 C 68.974 113.284 68.274 115.984 67.474 116.984 C 66.674 118.084 65.974 119.884 65.974 120.984 C 65.974 122.084 64.974 124.884 63.874 127.384 C 60.274 134.684 59.474 131.684 59.674 112.484 C 59.874 99.084 60.174 95.084 61.474 93.384 C 62.274 92.184 62.974 89.784 62.974 88.084 C 62.974 86.384 63.374 84.584 63.974 83.984 C 65.174 82.784 67.174 74.484 67.374 69.584 C 67.574 64.884 68.874 61.584 71.374 58.784 C 74.374 55.684 77.174 56.284 78.274 60.484 Z M 64.074 67.784 C 65.374 70.184 63.674 79.484 61.274 83.084 C 60.574 84.184 59.974 86.584 59.974 88.584 C 59.874 90.484 59.274 93.184 58.474 94.584 C 57.374 96.484 57.074 101.584 57.074 116.584 C 56.974 127.284 57.374 136.684 57.774 137.284 C 58.774 138.784 62.974 136.284 62.974 134.184 C 62.974 133.384 63.674 132.284 64.474 131.584 C 65.274 130.884 65.974 129.584 65.974 128.584 C 65.974 127.584 66.674 126.284 67.474 125.584 C 68.274 124.884 68.974 122.884 68.974 121.184 C 68.974 119.484 69.674 117.184 70.474 116.184 C 71.274 115.084 71.974 112.084 71.974 109.484 C 71.974 106.884 72.474 103.484 73.074 101.884 C 73.774 100.384 74.474 92.284 74.874 84.084 L 75.474 69.084 L 78.574 68.784 C 81.074 68.584 82.274 69.084 84.374 71.584 C 85.774 73.284 86.974 75.284 86.974 76.084 C 86.974 76.784 87.674 77.884 88.474 78.584 C 89.274 79.284 89.974 80.984 89.974 82.484 C 90.074 83.884 90.674 86.184 91.474 87.584 C 93.574 91.184 93.574 124.284 91.474 132.284 C 90.474 135.884 89.974 142.684 89.974 150.784 C 89.974 165.184 89.374 166.384 83.774 163.084 C 77.474 159.384 37.574 162.284 36.174 166.484 C 35.974 167.084 35.174 167.584 34.474 167.584 C 33.774 167.584 32.874 168.284 32.574 169.184 C 32.274 169.984 31.574 170.384 30.974 170.084 C 29.574 169.184 29.774 155.884 31.174 153.284 C 31.874 151.984 32.674 144.184 33.074 133.584 C 33.774 115.884 34.974 107.384 37.574 102.284 C 38.374 100.684 38.974 98.884 38.974 98.284 C 38.974 95.484 51.374 74.584 53.074 74.584 C 53.574 74.584 53.974 74.184 53.974 73.684 C 53.974 72.284 60.274 65.684 61.674 65.584 C 62.374 65.584 63.374 66.584 64.074 67.784 Z M 83.074 166.184 C 83.874 166.984 85.074 167.584 85.574 167.584 C 87.174 167.584 91.774 172.884 93.874 176.884 C 96.274 181.684 97.274 188.584 96.474 194.684 C 95.874 198.584 94.974 200.484 91.574 203.884 C 87.874 207.784 79.874 212.584 77.274 212.584 C 76.774 212.584 74.174 211.484 71.574 210.084 C 68.974 208.684 66.074 207.584 64.974 207.584 C 63.974 207.584 60.974 209.284 58.274 211.384 C 46.474 220.684 34.174 218.784 26.474 206.584 C 20.874 197.784 24.874 178.984 33.874 171.584 C 35.774 169.984 39.374 167.984 41.874 166.984 C 50.474 163.784 79.574 163.184 83.074 166.184 Z" fill="#000000" stroke="none">
    <title>27</title>
  </path>
</svg>