<svg viewBox="0 0 120 220" xmlns="http://www.w3.org/2000/svg">
  <path d="M 76.394 78.3 C 74.094 80 70.994 83.1 69.594 85 C 66.394 89.4 64.394 90.5 62.594 89 C 61.794 88.3 59.994 88.1 58.694 88.4 C 55.594 89.2 45.194 100.5 42.294 106.4 C 40.994 108.9 39.594 111.2 38.994 111.5 C 38.494 111.9 38.094 113.1 38.094 114.3 C 38.094 115.5 37.394 117.4 36.594 118.4 C 35.794 119.5 35.094 121.4 35.094 122.6 C 35.094 123.8 34.394 126.4 33.594 128.3 C 32.794 130.3 32.094 134.1 32.094 136.8 C 32.094 139.4 31.594 142.1 30.894 142.8 C 30.094 143.6 29.394 149.2 28.994 158.3 C 28.294 174.2 26.594 185.5 24.494 188.5 C 22.494 191.3 22.594 206.3 24.594 208 C 25.394 208.7 26.094 209.9 26.094 210.7 C 26.094 213.9 35.494 220 40.394 220 C 42.694 220 48.794 218.2 51.094 216.9 C 51.894 216.4 53.594 215.6 54.794 215.1 C 55.894 214.5 57.194 213.6 57.594 213.1 C 57.894 212.5 60.094 212 62.394 212 C 65.694 212 67.194 212.7 69.494 215 C 74.194 219.8 80.794 218.8 88.494 212 C 89.994 210.6 91.694 208.6 92.194 207.5 C 92.694 206.4 93.494 204.8 93.994 204 C 94.494 203.2 95.494 199.9 96.194 196.7 C 97.194 192.2 97.194 190.1 96.294 187.6 C 95.594 185.8 95.094 183.2 95.094 181.8 C 95.094 180.4 94.394 178.7 93.594 178 C 92.794 177.3 92.094 175.8 92.094 174.6 C 92.094 173.4 91.394 169.9 90.494 167 C 88.194 159.2 88.194 117.5 90.494 111.1 C 91.394 108.7 92.094 105.3 92.094 103.6 C 92.094 101.9 92.794 99.6 93.594 98.6 C 95.494 96.1 95.594 85.7 93.794 84.1 C 92.594 83.2 89.794 82.4 86.894 82.1 C 86.394 82 86.094 81 86.094 79.7 C 86.094 77 84.394 75 82.194 75 C 81.294 75 78.694 76.5 76.394 78.3 Z M 83.094 82.2 C 83.094 84.5 81.794 86.6 77.894 90.9 C 74.994 94.1 70.894 100.2 68.694 104.6 C 66.594 108.9 64.194 113.7 63.494 115.2 C 62.694 116.6 62.094 119.7 62.094 122 C 62.094 124.9 61.694 126 60.894 125.8 C 58.894 125.1 58.594 111.5 60.594 108.8 C 61.394 107.5 62.094 105.3 62.094 103.8 C 62.094 102.3 62.494 100.9 62.994 100.5 C 63.494 100.2 65.094 97.5 66.494 94.5 C 67.894 91.5 69.494 89 69.994 89 C 70.594 89 71.094 88.6 71.094 88 C 71.094 86.9 76.894 81 79.694 79.4 C 82.294 77.8 83.094 78.5 83.094 82.2 Z M 92.094 91.7 C 91.994 95.2 91.494 98.3 90.594 99.4 C 89.794 100.5 89.094 102.9 89.094 104.8 C 89.094 106.6 88.394 110.3 87.494 112.9 C 85.394 119.5 85.794 163.7 87.994 166.4 C 89.294 167.9 89.294 168.3 87.994 169.1 C 86.094 170.3 85.494 170.2 83.694 168.5 C 82.894 167.7 81.594 167 80.794 167 C 79.994 167 78.794 166.3 78.094 165.5 C 77.394 164.7 76.094 164 75.094 164 C 74.094 164 71.994 163.3 70.494 162.5 C 66.794 160.6 56.194 160.6 51.894 162.4 C 50.094 163.2 47.894 164.1 47.094 164.4 C 44.994 165.2 42.194 167 37.594 170.6 C 33.394 173.9 29.094 175.7 29.094 174.3 C 29.094 173.8 29.594 172.9 30.094 172.4 C 30.694 171.8 31.394 165.7 31.694 158.9 C 31.994 152.1 32.894 144.5 33.694 142.1 C 34.494 139.6 35.094 136 35.094 133.9 C 35.094 131.9 35.794 128.9 36.594 127.4 C 37.394 125.8 38.094 123.6 38.094 122.4 C 38.094 121.3 38.794 119.5 39.594 118.4 C 40.394 117.4 41.094 115.5 41.094 114.3 C 41.094 113.1 41.594 111.8 42.194 111.5 C 42.694 111.1 43.694 109.8 44.194 108.7 C 47.394 101.6 56.394 92 59.794 92 C 62.594 92 62.894 95.2 60.694 99.7 C 57.094 106.8 55.894 114.3 56.294 128.1 C 56.494 137.9 56.994 142.2 57.994 143.4 C 60.294 146.2 61.394 143.7 61.894 134.5 C 62.094 129.8 62.694 126 63.194 126 C 63.594 126 64.294 124.3 64.594 122.2 C 64.894 120.2 65.894 117.3 66.694 115.8 C 67.494 114.4 68.094 112.3 68.094 111.2 C 68.094 110 68.494 108.9 68.994 108.5 C 69.594 108.2 70.994 105.9 72.294 103.3 C 75.794 96.2 85.894 86 89.294 86 C 91.994 86 92.094 86.1 92.094 91.7 Z M 70.694 165.5 C 71.694 166.3 73.594 167 74.694 167 C 75.894 167 77.394 167.7 78.094 168.5 C 78.794 169.3 79.894 170 80.594 170 C 81.294 170 84.094 172.1 86.694 174.7 C 93.694 181.5 95.294 188.1 92.894 198.9 C 91.794 203.4 90.594 205.4 86.294 209.7 C 81.794 214.3 80.494 215 77.094 215 C 74.194 215 72.394 214.3 69.894 212 C 67.294 209.6 65.694 209 62.294 209 C 58.894 209 56.994 209.7 54.094 212 C 51.994 213.6 49.594 215 48.794 215 C 47.994 215 45.694 215.7 43.794 216.5 C 40.494 217.9 39.794 217.8 36.394 216.2 C 32.494 214.4 29.094 211.6 29.094 210.1 C 29.094 209.6 28.394 208.7 27.594 208 C 25.494 206.3 25.494 191.2 27.594 188.4 C 28.394 187.4 29.094 185.7 29.094 184.8 C 29.094 183 40.394 170.9 43.094 169.7 C 43.894 169.3 45.294 168.6 46.094 168.2 C 52.294 164.7 54.194 164.2 61.194 164.1 C 66.394 164 69.294 164.5 70.694 165.5 Z" fill="#000000" stroke="none">
    <title>28</title>
  </path>
</svg>