<svg viewBox="0 0 120 220" xmlns="http://www.w3.org/2000/svg">
  <path d="M 40.959 2.2 C 39.059 4.9 38.659 26.3 40.459 32 C 41.559 35.8 42.959 43.4 44.359 54.5 C 44.859 58.3 45.259 73.2 45.359 87.5 C 45.459 101.8 45.959 116 46.459 119 C 47.059 122 47.859 129 48.259 134.5 C 48.659 140 49.459 145.5 50.159 146.7 C 50.859 147.9 51.359 150.6 51.359 152.7 C 51.359 154.9 52.059 157.5 52.859 158.6 C 53.659 159.6 54.359 161.3 54.359 162.4 C 54.359 163.4 55.259 165.8 56.459 167.6 C 58.759 171.4 63.059 172.3 65.359 169.5 C 66.659 168 67.659 154.4 69.359 117.5 C 69.859 107 70.659 96.2 71.259 93.5 C 71.759 90.7 72.259 84.2 72.259 79 C 72.359 73.8 72.859 67.9 73.359 66 C 73.959 64.1 74.659 58.7 74.959 54 C 75.259 49.3 76.159 43.8 76.959 41.7 C 77.759 39.7 78.359 34.9 78.359 31.2 C 78.359 27.5 78.859 22.8 79.359 20.8 C 79.959 18.7 80.559 14.9 80.659 12.2 C 80.859 8.2 80.359 6.7 78.059 3.7 L 75.259 0 L 58.859 0 C 43.059 0 42.459 0.1 40.959 2.2 Z M 76.159 5.4 C 77.859 7.2 78.359 9 78.359 13 C 78.359 15.8 77.859 19.1 77.259 20.2 C 76.659 21.4 75.959 26.2 75.659 30.9 C 75.359 35.6 74.559 41.2 73.759 43.3 C 72.959 45.3 72.359 48.4 72.359 50.1 C 72.359 53.5 70.159 57.5 66.459 60.7 C 63.359 63.3 57.259 63.8 55.359 61.5 C 54.659 60.7 53.559 60 52.859 60 C 50.859 60 45.359 47.5 45.359 42.7 C 45.259 40.9 44.659 37.7 43.859 35.5 C 42.359 31.4 41.659 5 43.059 3.7 C 43.359 3.3 50.459 3 58.759 3 C 73.359 3 73.959 3.1 76.159 5.4 Z M 53.359 63.5 C 57.859 66.3 63.459 66.8 65.359 64.5 C 67.259 62.2 70.959 63 70.559 65.5 C 70.359 66.6 69.959 74.2 69.559 82.5 C 69.159 90.7 68.459 98.1 67.959 98.9 C 67.459 99.6 66.659 110.2 66.259 122.4 C 64.459 165.4 64.259 168 62.059 168 C 60.359 168 57.359 164.8 57.359 163 C 57.359 162.1 56.659 160.5 55.859 159.4 C 55.059 158.4 54.359 155.9 54.359 154 C 54.359 152.1 53.659 149.2 52.859 147.6 C 51.959 145.9 51.359 142 51.359 137.8 C 51.359 134 50.759 127.9 49.959 124.2 C 48.459 117.2 46.759 62.9 48.059 61.7 C 48.959 60.7 48.959 60.7 53.359 63.5 Z" fill="#000000" stroke="none">
    <title>31</title>
  </path>
</svg>