<svg viewBox="0 0 120 220" xmlns="http://www.w3.org/2000/svg">
  <path d="M 42.541 2.1 C 39.941 4.9 39.041 11.4 39.841 20.9 C 41.741 43.2 42.241 47.2 43.341 48.3 C 44.041 49 44.441 56.8 44.541 73.4 C 44.541 86.7 45.041 102.7 45.541 109 C 46.041 115.3 46.841 127.5 47.341 136 C 47.841 144.5 48.741 152.8 49.341 154.3 C 49.941 155.9 50.441 159.5 50.441 162.3 C 50.441 165.2 51.141 168.8 51.941 170.4 C 52.741 171.9 53.441 174.3 53.441 175.6 C 53.441 178.7 56.741 184.8 59.441 186.7 C 61.341 188 61.741 188 63.541 186.4 C 65.041 185.1 65.441 183.4 65.441 178.6 C 65.441 175.2 66.141 165.3 66.941 156.5 C 67.741 147.7 68.441 134.9 68.441 128 C 68.441 120.1 68.841 115 69.541 114.3 C 70.141 113.7 71.041 107 71.441 99.3 C 71.941 91.7 72.741 83.5 73.341 81 C 73.941 78.5 74.341 73.8 74.441 70.5 C 74.441 67.2 74.941 62.9 75.541 61 C 76.041 59.1 76.941 53.4 77.441 48.5 C 77.841 43.5 78.741 37.7 79.341 35.5 C 79.941 33.3 80.441 26.3 80.441 20 C 80.441 10.7 80.141 8 78.741 6 C 74.741 0.3 74.041 0.1 58.741 0 C 45.441 0 44.341 0.1 42.541 2.1 Z M 75.241 6 C 77.241 8.7 77.441 10.1 77.441 22.5 C 77.441 30.2 76.941 37 76.341 38.1 C 75.841 39.2 75.041 43.2 74.741 47 C 74.441 51 73.541 54.5 72.841 55.1 C 72.041 55.7 71.441 56.7 71.441 57.3 C 71.441 59.4 66.241 65 62.841 66.6 C 59.941 68 58.941 68.1 56.941 67 C 54.041 65.4 51.341 61.7 49.041 56 C 48.041 53.5 46.641 50.1 45.941 48.5 C 44.641 45.4 42.441 24.7 42.441 15.1 C 42.441 12.1 42.941 8.1 43.641 6.3 L 44.841 3 L 58.941 3 L 73.041 3 L 75.241 6 Z M 58.841 71 C 60.241 71 61.641 70.5 61.941 70 C 62.241 69.4 63.241 69 64.141 69 C 65.041 69 66.841 68 68.141 66.9 C 70.141 64.9 70.441 64.9 71.041 66.3 C 71.841 68.5 70.941 82.2 69.541 88 C 69.041 90.5 68.541 96.9 68.441 102.3 C 68.441 107.8 67.941 113.1 67.241 114.3 C 66.541 115.6 65.741 124.6 65.241 136 C 63.041 185.3 62.841 187.1 58.541 181.2 C 57.441 179.5 56.441 177.1 56.441 175.8 C 56.441 174.5 55.741 172.5 54.941 171.4 C 54.141 170.3 53.441 167.3 53.441 164.4 C 53.441 161.6 52.841 157.1 52.041 154.4 C 51.241 151.7 50.341 143.4 50.041 136 C 49.641 128.6 48.941 120.2 48.441 117.5 C 47.441 112 47.141 64.7 48.041 63.7 C 48.341 63.4 50.341 64.9 52.541 67.1 C 54.941 69.5 57.341 71 58.841 71 Z" fill="#000000" stroke="none">
    <title>32</title>
  </path>
</svg>