<svg viewBox="0 0 120 220" xmlns="http://www.w3.org/2000/svg">
  <path d="M 52.71 2.2 C 50.51 3.3 48.61 4.7 48.41 5.1 C 48.21 5.6 47.51 6 46.81 6 C 45.31 6 36.21 15.2 36.21 16.7 C 36.21 17.3 35.71 18 35.11 18.2 C 32.61 19 30.01 41.2 32.11 43.3 C 32.71 43.9 33.21 45.6 33.21 47.2 C 33.21 48.7 33.81 51.4 34.61 53.2 C 37.81 61 38.41 64.6 39.31 83.5 C 39.81 94.5 40.61 105.3 41.21 107.5 C 41.71 109.7 42.21 115.8 42.21 121 C 42.21 126.3 42.91 133.2 43.71 136.3 C 44.51 139.5 45.21 144.4 45.21 147.3 C 45.21 150.2 45.91 153.8 46.71 155.4 C 47.51 156.9 48.21 160.1 48.21 162.4 C 48.21 164.6 48.91 167.8 49.71 169.4 C 50.51 170.9 51.21 173.4 51.21 174.9 C 51.21 176.4 51.91 178.5 52.71 179.6 C 53.51 180.6 54.21 182.4 54.21 183.6 C 54.21 184.7 54.91 186.5 55.71 187.6 C 56.51 188.6 57.21 190.1 57.21 190.9 C 57.21 194.2 67.31 204.9 73.01 207.7 C 76.01 209.2 76.41 209.1 78.31 207.4 C 79.91 205.9 80.21 204.8 79.71 202 C 79.41 200.1 78.71 193.3 78.21 187 C 77.71 180.7 76.91 171 76.31 165.5 C 75.51 157.8 75.61 152 76.71 140.5 C 77.51 132.2 78.21 120.9 78.21 115.3 C 78.21 109.7 78.71 103.9 79.31 102.3 C 79.91 100.8 80.81 93.4 81.21 86 C 82.21 70.3 83.71 60.6 85.71 56.8 C 86.51 55.4 87.21 52 87.21 49.3 C 87.21 46.7 87.71 42.9 88.21 41 C 89.41 37.1 88.11 29.8 85.41 24.1 C 83.31 19.9 70.51 6 68.71 6 C 67.91 6 66.91 5.4 66.51 4.7 C 65.51 3.1 59.81 0 58.01 0 C 57.31 0.1 54.91 1 52.71 2.2 Z M 64.61 6.5 C 71.21 10.9 82.21 22.4 83.61 26.5 C 86.81 36 87.01 37.1 86.11 39.7 C 85.61 41.3 84.81 45.4 84.31 49 C 83.31 56.8 81.81 60.8 77.61 67.6 C 72.71 75.5 68.31 78.3 61.21 78.3 C 55.21 78.3 52.01 77 47.61 72.6 C 45.01 70 39.21 59.3 39.21 57.1 C 39.21 56.1 38.51 54.5 37.71 53.4 C 36.91 52.4 36.21 50.4 36.21 49 C 36.21 47.7 35.41 44.6 34.51 42.2 C 32.81 37.8 33.21 33.3 35.91 23.5 C 37.61 17.1 44.41 10.1 53.71 4.8 C 57.91 2.4 58.71 2.6 64.61 6.5 Z M 49.71 78 C 50.11 78 51.01 78.7 51.81 79.5 C 52.91 80.6 55.51 81 60.91 81 C 68.11 81 68.71 80.8 72.91 77.4 C 75.31 75.4 77.61 74.1 78.01 74.5 C 79.01 75.5 78.11 99 77.01 102 C 75.81 105 73.91 137.4 73.81 155.5 C 73.81 172.9 75.61 197 77.11 199.8 C 77.81 201 78.01 202.9 77.71 204 C 77.21 205.6 76.71 205.7 74.31 204.9 C 70.41 203.5 63.71 197 61.11 192.1 C 60.01 189.8 58.61 187.7 58.11 187.4 C 57.61 187.1 57.21 185.9 57.21 184.6 C 57.21 183.4 56.51 181.5 55.71 180.4 C 54.91 179.4 54.21 177.1 54.21 175.4 C 54.21 173.8 53.51 171.5 52.71 170.4 C 51.91 169.4 51.21 166.5 51.21 164 C 51.21 161.5 50.51 158.2 49.71 156.6 C 48.91 155.1 48.21 151.4 48.21 148.4 C 48.21 145.5 47.61 141.1 46.81 138.8 C 46.01 136.4 45.21 128.4 44.91 121 C 44.51 113.6 43.81 105.9 43.21 104 C 42.11 100.2 41.81 73.7 42.91 72.6 C 43.31 72.3 44.81 73.3 46.31 75 C 47.81 76.6 49.41 78 49.71 78 Z" fill="#000000" stroke="none">
    <title>33</title>
  </path>
</svg>