<svg viewBox="0 0 120 220" xmlns="http://www.w3.org/2000/svg">
  <path d="M 53.863 1.65 C 49.163 4.65 37.263 14.65 35.063 17.45 C 33.263 19.65 32.963 21.45 32.963 28.55 C 32.963 33.75 33.563 38.25 34.363 40.15 C 36.263 44.45 37.963 54.95 38.863 68.85 C 39.363 75.15 40.163 81.65 40.863 83.15 C 41.463 84.75 41.963 88.55 41.963 91.65 C 42.063 94.75 42.663 99.15 43.463 101.35 C 44.263 103.55 44.963 107.25 44.963 109.65 C 44.963 111.95 45.663 115.55 46.463 117.55 C 47.263 119.45 47.963 122.75 47.963 124.75 C 48.063 126.75 48.663 129.45 49.463 130.85 C 50.263 132.25 50.863 134.95 50.963 136.95 C 50.963 138.85 51.663 141.35 52.463 142.45 C 53.263 143.45 53.963 145.75 53.963 147.45 C 53.963 149.05 54.663 151.35 55.463 152.45 C 56.263 153.45 56.963 155.55 56.963 156.95 C 56.963 158.35 57.663 160.35 58.463 161.45 C 59.263 162.45 59.963 164.35 59.963 165.45 C 59.963 166.65 60.663 168.15 61.463 168.85 C 62.263 169.55 62.963 170.65 62.963 171.25 C 62.963 173.15 70.363 179.85 72.463 179.85 C 75.363 179.85 76.763 178.65 78.963 174.55 C 81.363 170.05 81.663 158.45 79.463 152.35 C 77.563 147.25 77.263 81.05 79.063 77.65 C 79.663 76.55 80.463 71.05 80.963 65.55 C 81.363 59.95 82.263 53.75 82.863 51.85 C 83.463 49.95 83.963 47.05 83.963 45.35 C 83.963 43.75 84.663 41.45 85.463 40.45 C 87.563 37.65 87.563 21.05 85.463 20.25 C 84.663 19.85 83.963 19.25 83.963 18.65 C 83.963 16.85 69.263 4.35 63.063 1.15 C 59.963 -0.55 57.063 -0.35 53.863 1.65 Z M 68.263 8.05 C 72.763 11.45 78.163 15.95 80.263 18.05 C 83.963 21.95 83.963 21.95 83.963 30.35 C 83.963 35.35 83.463 39.85 82.563 41.55 C 81.863 43.05 80.363 46.15 79.363 48.35 C 77.063 53.15 72.263 58.85 70.463 58.85 C 69.763 58.85 68.963 59.55 68.563 60.35 C 68.163 61.45 66.263 61.85 60.863 61.85 C 54.363 61.85 53.363 61.55 49.563 58.65 C 44.763 54.85 41.463 50.65 39.463 45.85 C 39.063 45.05 38.063 42.65 37.263 40.65 C 36.363 38.55 35.663 33.65 35.563 28.95 L 35.463 20.95 L 40.463 15.85 C 43.163 13.15 45.963 10.85 46.563 10.85 C 47.263 10.85 47.963 10.45 48.163 9.95 C 48.663 8.45 57.263 1.95 58.763 1.95 C 59.463 1.85 63.763 4.65 68.263 8.05 Z M 45.963 59.35 C 47.263 60.75 48.863 61.85 49.563 61.85 C 50.163 61.85 51.263 62.55 51.963 63.35 C 52.863 64.45 55.263 64.85 60.463 64.85 C 65.663 64.85 68.063 64.45 68.963 63.35 C 69.663 62.55 70.863 61.85 71.563 61.85 C 72.363 61.85 73.463 60.95 74.163 59.85 C 74.863 58.75 76.063 57.85 76.763 57.85 C 77.863 57.85 77.963 59.85 77.663 67.05 C 77.363 72.15 76.763 78.55 76.163 81.35 C 74.363 89.55 74.663 142.25 76.463 149.15 C 78.563 157.25 78.463 170.25 76.263 173.95 C 74.563 176.75 72.463 177.55 70.463 176.05 C 68.363 174.65 62.963 167.05 62.963 165.65 C 62.963 164.85 62.263 163.35 61.463 162.25 C 60.663 161.25 59.963 159.15 59.963 157.75 C 59.963 156.35 59.263 154.35 58.463 153.25 C 57.663 152.25 56.963 149.95 56.963 148.25 C 56.963 146.65 56.263 144.35 55.463 143.25 C 54.663 142.25 53.963 139.75 53.963 137.85 C 53.963 135.95 53.263 133.05 52.463 131.45 C 51.663 129.95 50.963 127.35 50.963 125.75 C 50.963 124.05 50.263 121.15 49.463 119.15 C 48.663 117.25 47.963 113.55 47.963 110.95 C 47.863 108.45 47.263 104.55 46.463 102.35 C 45.663 100.15 44.963 96.35 44.963 93.85 C 44.963 91.35 44.263 86.65 43.463 83.55 C 42.663 80.35 41.963 74.75 41.963 71.05 C 41.963 67.35 41.563 62.65 41.063 60.55 C 40.263 57.35 40.463 56.85 41.863 56.85 C 42.863 56.85 44.663 57.95 45.963 59.35 Z" fill="#000000" stroke="none">
    <title>34</title>
  </path>
</svg>