<svg viewBox="0 0 120 220" xmlns="http://www.w3.org/2000/svg">
  <path d="M 47.831 2.912 C 45.631 4.512 43.331 5.812 42.731 5.912 C 42.031 5.912 41.331 6.612 40.931 7.412 C 40.631 8.212 39.831 8.912 39.031 8.912 C 35.031 8.912 29.731 20.612 30.831 26.812 C 31.131 28.812 31.731 33.412 32.131 37.012 C 32.531 40.612 33.331 44.212 33.931 45.012 C 34.531 45.812 35.331 49.312 35.731 52.812 C 36.031 56.312 36.731 59.712 37.231 60.312 C 37.631 60.912 38.331 70.912 38.731 82.612 C 39.131 94.312 39.831 105.312 40.431 107.112 C 40.931 108.912 41.331 113.912 41.331 118.212 C 41.331 122.812 41.931 127.412 42.831 129.612 C 43.631 131.512 44.331 134.812 44.331 136.812 C 44.331 138.812 45.031 141.712 45.831 143.312 C 46.631 144.812 47.331 147.312 47.331 148.812 C 47.331 150.312 48.031 152.412 48.831 153.512 C 49.631 154.512 50.331 156.312 50.331 157.512 C 50.331 158.612 51.031 160.412 51.831 161.512 C 52.631 162.512 53.331 164.112 53.331 165.012 C 53.331 165.912 54.031 167.212 54.831 167.912 C 55.631 168.612 56.331 169.912 56.331 170.812 C 56.331 172.712 62.131 179.312 64.631 180.212 C 65.531 180.612 67.431 180.412 68.731 179.912 C 71.731 178.812 72.531 174.712 72.831 159.412 C 73.131 138.812 74.531 119.412 75.931 114.512 C 76.731 111.812 77.331 107.712 77.331 105.512 C 77.331 103.212 78.031 99.612 78.831 97.412 C 79.631 95.212 80.231 91.112 80.331 88.212 C 80.331 85.312 81.031 80.412 81.831 77.212 C 82.631 74.112 83.331 68.512 83.331 64.912 C 83.431 57.412 86.531 38.312 88.231 35.212 C 89.831 32.212 89.631 24.912 87.831 21.512 C 87.031 20.012 86.331 17.912 86.331 16.912 C 86.331 15.312 81.331 10.112 78.331 8.612 C 76.531 7.712 74.331 6.312 68.631 2.612 C 65.131 0.412 63.331 -0.088 58.131 0.012 C 52.831 0.112 51.131 0.512 47.831 2.912 Z M 66.231 4.212 C 67.631 5.412 70.931 7.412 73.331 8.512 C 77.331 10.412 82.331 15.412 84.231 19.212 C 86.731 24.412 87.031 34.412 84.831 37.312 C 84.031 38.412 83.331 40.212 83.331 41.312 C 83.331 44.612 77.131 56.212 73.831 59.212 C 69.731 62.812 63.531 65.912 60.331 65.912 C 55.431 65.912 41.331 56.712 41.331 53.512 C 41.331 52.712 40.631 51.612 39.831 50.912 C 39.031 50.212 38.331 48.912 38.331 47.912 C 38.331 46.912 37.631 45.612 36.831 44.912 C 35.931 44.212 35.331 42.012 35.331 39.512 C 35.331 37.312 34.631 32.912 33.831 29.912 C 32.431 24.912 32.531 24.012 34.031 19.512 C 35.231 16.412 37.131 13.712 39.431 11.812 C 41.431 10.212 43.331 8.912 43.631 8.912 C 43.931 8.912 46.131 7.612 48.531 6.012 C 50.931 4.412 53.931 2.912 55.331 2.612 C 58.631 1.912 64.531 2.812 66.231 4.212 Z M 41.831 59.912 C 42.631 59.912 44.431 61.112 46.031 62.512 C 47.531 63.912 50.031 65.312 51.531 65.612 C 53.131 65.912 54.631 66.612 54.931 67.012 C 55.631 68.212 65.031 68.112 65.831 66.912 C 66.131 66.312 67.331 65.912 68.331 65.912 C 69.431 65.912 72.131 64.112 74.431 61.912 C 79.131 57.512 80.331 57.012 80.431 59.612 C 80.731 66.512 80.031 75.212 78.731 79.312 C 77.931 82.012 77.331 86.812 77.331 89.812 C 77.331 92.912 76.631 97.212 75.831 99.412 C 75.031 101.612 74.431 105.212 74.331 107.412 C 74.331 109.612 73.631 113.312 72.831 115.712 C 71.631 119.012 71.231 125.712 71.131 144.712 C 70.931 162.512 70.531 170.112 69.631 171.912 C 68.931 173.312 68.331 175.012 68.331 175.612 C 68.331 178.012 63.631 177.012 61.731 174.112 C 58.931 170.112 57.531 167.612 56.831 165.912 C 55.531 162.712 53.131 157.312 51.731 154.612 C 50.931 153.012 50.331 150.512 50.331 149.112 C 50.231 147.612 49.631 145.312 48.831 143.912 C 48.031 142.512 47.431 139.912 47.331 138.112 C 47.331 136.312 46.631 133.212 45.831 131.212 C 45.031 129.312 44.331 124.712 44.231 121.012 C 44.231 117.412 43.731 112.112 43.231 109.412 C 42.731 106.612 41.931 94.912 41.531 83.312 C 41.031 69.412 40.331 61.612 39.531 60.712 C 38.931 59.912 38.631 58.912 39.031 58.512 C 39.431 58.112 39.931 58.312 40.131 58.812 C 40.331 59.412 41.131 59.912 41.831 59.912 Z" fill="#000000" stroke="none">
    <title>35</title>
  </path>
</svg>