<svg viewBox="0 0 120 220" xmlns="http://www.w3.org/2000/svg">
  <path d="M 14.729 4.3 C 9.629 9.5 7.429 15.6 8.329 22.7 C 9.729 34.7 10.229 37 11.529 38.1 C 12.329 38.7 12.929 40.2 12.929 41.4 C 12.929 42.6 13.429 44.1 14.029 44.7 C 14.729 45.4 16.129 48.3 17.129 51.2 C 18.929 56.1 19.129 59.2 19.029 90.5 C 18.929 119 19.129 125 20.429 127.4 C 21.229 128.9 21.929 131.4 21.929 132.9 C 21.929 134.4 22.629 136.5 23.429 137.6 C 24.229 138.6 24.929 140.5 24.929 141.6 C 24.929 142.8 25.629 144.3 26.429 145 C 27.229 145.7 27.929 146.9 27.929 147.7 C 27.929 149.3 35.929 160.1 39.929 163.9 C 41.329 165.2 44.129 167.4 46.129 168.8 C 49.629 171 50.129 171.1 52.129 169.8 C 54.929 168 57.429 160.1 56.529 156.2 C 56.129 154.7 55.529 152.3 55.229 150.8 C 54.929 149.3 54.129 147.5 53.329 146.9 C 52.529 146.3 51.929 145 51.929 144 C 51.929 143 51.329 141.7 50.529 141.1 C 46.629 137.8 46.929 111.3 51.029 108.7 C 53.429 107.2 57.929 108.7 57.929 110.9 C 57.929 111.9 58.629 113.3 59.429 114 C 60.229 114.7 60.929 116 60.929 117 C 60.929 118 61.629 119.3 62.429 120 C 63.229 120.7 63.929 122.1 63.929 123.1 C 63.929 124.1 64.329 125.1 64.829 125.4 C 65.729 126 69.029 132.6 70.229 136.2 C 70.629 137.2 71.329 138 71.929 138 C 72.429 138 72.929 138.9 72.929 139.9 C 72.929 141 73.429 142.2 74.029 142.5 C 74.529 142.9 75.429 144.2 76.029 145.3 C 77.229 148.1 78.729 150.6 82.229 155.1 C 83.729 157.1 84.929 159.2 84.929 159.7 C 84.929 160.1 86.729 162.1 89.029 164 C 91.229 165.9 94.729 168.9 96.729 170.7 C 98.829 172.4 102.129 174.1 104.029 174.5 C 107.329 175.1 107.929 174.9 109.829 172.2 C 112.329 168.7 112.529 163.7 110.429 159.6 C 109.629 158.1 108.929 156 108.929 155.1 C 108.929 154.1 108.229 152.5 107.429 151.4 C 106.629 150.4 105.929 148.6 105.929 147.4 C 105.929 146.3 105.229 144.5 104.429 143.4 C 103.629 142.4 102.929 140.1 102.929 138.5 C 102.929 136.8 102.229 134.2 101.429 132.6 C 100.629 131.1 99.929 128.1 99.929 126.1 C 99.829 124.1 99.229 120.7 98.429 118.5 C 96.129 112.1 96.329 61.8 98.729 53 C 99.729 49.4 101.029 45.5 101.729 44.3 C 102.529 42.9 102.929 37.3 102.929 28.3 L 102.929 14.4 L 99.929 11.5 C 97.129 8.8 96.329 8.6 89.929 8.7 C 85.129 8.8 82.629 8.4 81.829 7.4 C 81.229 6.6 80.129 6 79.429 6 C 78.729 6 77.629 5.3 76.929 4.5 C 76.229 3.7 74.729 3 73.429 3 C 72.229 3 69.729 2.3 67.929 1.3 C 64.829 -0.2 64.229 -0.2 59.529 1.3 C 56.729 2.2 53.429 3.2 52.229 3.5 C 50.929 3.9 49.929 4.6 49.929 5.1 C 49.929 7.5 37.229 3.9 35.329 0.9 C 35.029 0.4 31.229 0 26.929 0 L 19.129 0 L 14.729 4.3 Z M 35.829 4.3 C 37.229 5.5 39.929 7.1 43.729 9.1 C 45.629 10.2 46.929 9.8 53.229 6.7 C 57.329 4.5 61.929 3 63.829 3 C 67.429 3 74.229 5.8 79.429 9.4 C 81.729 11 83.929 11.5 89.129 11.5 C 94.729 11.5 96.229 11.9 98.129 13.7 C 100.229 15.9 100.329 16.7 100.229 29.5 C 100.029 39.9 99.629 43.5 98.529 45.2 C 97.629 46.4 96.929 48.2 96.929 49 C 96.929 49.9 95.429 52.1 93.529 53.9 L 90.229 57.1 L 77.329 56.8 C 64.929 56.4 61.829 55.8 54.329 52.2 C 51.629 50.9 50.529 50.9 46.829 52 C 38.629 54.4 31.329 54.4 25.429 52 C 20.429 50 19.829 49.4 16.529 42.6 C 14.529 38.6 12.929 34.4 12.929 33.2 C 12.929 32 12.229 29.2 11.329 27 C 9.629 22.7 9.829 18.8 12.129 12.7 C 13.829 8.2 18.429 3.3 21.329 2.7 C 24.529 2 34.229 3.1 35.829 4.3 Z M 26.329 54.9 C 27.529 56.8 36.629 57.2 42.929 55.6 C 50.429 53.6 52.829 53.6 55.329 55.5 C 56.429 56.3 58.029 57 58.929 57 C 59.829 57 62.029 57.7 63.729 58.5 C 66.129 59.8 69.629 60 80.329 59.8 L 93.929 59.5 L 93.929 85.6 C 93.929 105.8 94.229 112.8 95.429 116.6 C 96.229 119.3 96.929 123.1 96.929 125 C 96.929 126.9 97.629 129.8 98.429 131.4 C 99.229 132.9 99.929 135.7 99.929 137.4 C 99.929 139.2 100.629 141.5 101.429 142.6 C 102.229 143.6 102.929 145.6 102.929 147 C 102.929 148.4 103.629 150.4 104.429 151.4 C 105.229 152.5 105.929 154.4 105.929 155.6 C 105.929 156.8 106.629 158.3 107.429 159 C 109.729 160.9 109.429 169.6 107.029 171 C 104.029 172.5 103.729 172.4 96.629 166.9 C 90.829 162.5 83.729 154.4 81.529 150 C 81.129 149.2 79.329 145.8 77.429 142.5 C 75.529 139.2 73.429 135.3 72.829 133.7 C 72.229 132.2 71.329 131 70.829 131 C 70.329 131 69.929 130.5 69.929 129.8 C 69.929 128.2 65.929 120.1 64.829 119.4 C 64.329 119.1 63.929 118.1 63.929 117.1 C 63.929 116.1 63.229 114.7 62.429 114 C 61.629 113.3 60.929 112 60.929 111.1 C 60.829 108 57.329 105 53.729 105 C 51.029 105 49.829 105.7 47.929 108.2 C 45.729 111.1 45.629 112.3 45.529 124.6 C 45.529 135.8 45.829 138.2 47.229 139.8 C 48.129 140.8 48.929 142.5 48.929 143.4 C 48.929 144.4 49.529 146.4 50.229 147.8 C 51.029 149.3 52.329 152 53.229 153.8 C 54.129 155.7 54.929 157.7 54.929 158.3 C 54.929 159.7 50.929 168 50.229 168 C 48.029 168 35.529 156.2 33.829 152.5 C 32.229 149.1 30.229 145.9 29.029 144.7 C 28.429 144.1 27.929 142.6 27.929 141.4 C 27.929 140.2 27.229 138.7 26.429 138 C 25.629 137.3 24.929 135.7 24.929 134.3 C 24.929 133 24.229 130.3 23.329 128.2 C 21.829 125 21.629 120 21.829 90.2 C 21.829 71.3 22.229 55.4 22.529 54.9 C 23.229 53.7 25.629 53.7 26.329 54.9 Z" fill="#000000" stroke="none">
    <title>36</title>
  </path>
</svg>