<svg viewBox="0 0 120 220" xmlns="http://www.w3.org/2000/svg">
  <path d="M 20.355 4.1 C 17.955 6.6 16.255 9.2 16.255 10.6 C 16.255 11.8 15.855 13.1 15.355 13.4 C 13.855 14.3 13.155 26.2 14.355 30.5 C 14.955 32.7 15.655 35.8 15.955 37.5 C 16.255 39.1 16.855 41 17.355 41.6 C 17.855 42.2 18.755 46.4 19.255 50.9 C 19.855 55.4 20.755 60.2 21.255 61.6 C 21.855 63 22.255 66.2 22.255 68.8 C 22.255 71.4 22.955 74.8 23.755 76.4 C 24.555 77.9 25.255 81.2 25.255 83.6 C 25.255 86.1 25.955 89.7 26.755 91.7 C 27.555 93.6 28.255 96.7 28.255 98.4 C 28.355 100.1 28.955 102.6 29.755 104 C 30.555 105.4 31.155 108.1 31.255 110.1 C 31.255 112 31.955 114.5 32.755 115.6 C 33.555 116.6 34.255 118.8 34.255 120.5 C 34.255 122.1 34.955 124.6 35.755 126 C 36.555 127.4 37.155 129.5 37.255 130.6 C 37.255 131.8 37.955 133.3 38.755 134 C 39.555 134.7 40.255 135.9 40.255 136.8 C 40.255 141.6 50.155 155.2 55.355 157.6 C 56.655 158.2 58.955 159.3 60.455 160 C 63.755 161.5 65.655 160.9 67.855 157.5 C 69.355 155.2 69.455 154.3 68.255 149.2 C 67.555 146.1 66.455 142.6 65.755 141.5 C 65.055 140.4 64.355 138.1 64.055 136.5 C 63.755 134.8 63.055 132.1 62.455 130.5 C 59.355 121.2 58.255 116.8 58.255 113.4 C 58.255 111.2 57.555 108.2 56.755 106.6 C 55.955 105.1 55.455 103.4 55.755 103 C 56.655 101.6 60.355 103.2 61.355 105.4 C 61.855 106.5 63.155 108.8 64.255 110.5 C 65.355 112.1 66.655 114.4 67.255 115.5 C 67.755 116.6 68.655 118.2 69.155 119 C 69.655 119.8 70.355 121.2 70.655 122 C 71.055 122.8 72.155 124.8 73.255 126.5 C 74.355 128.1 75.755 130.6 76.355 132 C 76.855 133.4 78.455 135.8 79.655 137.5 C 80.855 139.1 82.155 141.3 82.555 142.2 C 82.855 143.2 83.655 144 84.255 144 C 84.755 144 85.255 144.6 85.255 145.4 C 85.255 147.6 97.055 158 99.555 158 C 103.455 158 106.255 153.4 106.255 147 C 106.255 143.6 105.655 140.6 104.755 139.4 C 103.955 138.4 103.255 136.5 103.255 135.4 C 103.255 134.2 102.555 132.7 101.755 132 C 100.955 131.3 100.255 129.7 100.255 128.5 C 100.255 127.3 99.555 125.7 98.755 125 C 97.955 124.3 97.255 122.8 97.255 121.6 C 97.255 120.4 96.555 118.5 95.755 117.4 C 94.955 116.4 94.255 114.1 94.255 112.4 C 94.255 110.7 93.555 107.6 92.755 105.7 C 90.955 101.3 90.655 76.5 92.355 71 C 92.955 69.1 93.755 63.4 94.255 58.5 C 94.655 53.5 95.555 47.5 96.255 45 C 96.955 42.5 97.455 35.1 97.555 28.5 C 97.655 17.1 97.555 16.3 94.955 12.3 C 93.455 9.9 90.455 6.9 88.355 5.4 C 84.755 3.1 83.655 2.9 77.055 3.3 C 69.855 3.7 63.355 5.5 61.055 7.8 C 59.355 9.5 51.755 9.3 50.255 7.5 C 49.555 6.7 48.555 6 48.055 6 C 47.555 6 46.455 5.3 45.655 4.5 C 44.755 3.7 43.255 3 42.355 3 C 41.355 3 39.955 2.3 39.255 1.5 C 38.355 0.4 36.055 0 31.255 0 C 24.655 0 24.355 0.1 20.355 4.1 Z M 39.655 4.5 C 39.955 5.3 41.055 6 42.055 6 C 43.155 6 44.555 6.7 45.255 7.5 C 45.955 8.3 47.055 9 47.755 9 C 48.455 9 49.255 9.7 49.655 10.5 C 50.055 11.6 51.655 12 55.055 12 C 58.255 12 60.455 11.5 61.255 10.5 C 61.955 9.7 63.255 9 64.155 9 C 65.155 9 66.755 8.3 67.855 7.5 C 70.555 5.5 84.555 5.4 86.255 7.5 C 86.955 8.3 88.055 9 88.655 9 C 90.655 9 93.655 15.3 94.855 21.8 C 96.955 33.9 93.355 42.7 83.855 48.8 C 80.255 51.1 78.755 51.4 71.055 51.4 C 64.455 51.3 61.755 50.9 59.655 49.6 C 56.955 47.8 50.355 47.8 41.455 49.6 C 39.655 49.9 35.555 49.6 32.255 48.9 C 22.255 46.7 17.255 38.9 16.555 24.3 C 16.155 17.9 16.455 15.5 17.655 13.8 C 18.555 12.6 19.255 10.9 19.255 10.2 C 19.255 9.4 20.455 7.5 21.955 5.9 C 24.555 3.2 25.255 3 31.855 3 C 37.355 3 39.155 3.4 39.655 4.5 Z M 92.755 48.7 C 92.355 49.7 91.655 54.5 91.255 59.5 C 90.755 64.4 89.955 70.7 89.355 73.5 C 88.055 80.1 88.055 97.5 89.355 102.5 C 89.955 104.7 90.755 108.5 91.255 111 C 91.655 113.5 93.055 118 94.255 121 C 95.455 124 96.855 127.7 97.455 129.2 C 97.955 130.8 98.855 132 99.355 132 C 99.855 132 100.255 133 100.255 134.3 C 100.255 135.6 100.955 137.5 101.755 138.6 C 102.655 139.8 103.155 142.8 103.255 146.6 C 103.255 152 102.955 152.8 100.855 154 C 98.555 155.2 98.055 154.9 93.855 151 C 91.455 148.7 88.155 144.9 86.555 142.6 C 85.055 140.4 83.455 138.3 83.155 138 C 82.855 137.7 82.255 136.8 81.955 136 C 81.555 135.2 80.355 133.1 79.255 131.5 C 78.255 129.8 76.255 126.2 74.755 123.5 C 72.055 118.2 71.455 117.1 67.055 110.2 C 65.455 107.8 64.255 105.4 64.255 104.7 C 64.255 104 62.855 102.2 61.255 100.6 C 58.555 98 57.955 97.8 55.655 98.9 C 53.355 99.9 53.155 100.5 53.655 103.3 C 54.055 105.1 54.755 109.6 55.155 113.3 C 55.655 117.1 56.455 120.6 57.155 121.3 C 57.755 121.9 58.255 123.8 58.255 125.4 C 58.255 127.1 58.955 129.8 59.755 131.4 C 60.555 132.9 61.255 135.2 61.255 136.4 C 61.255 137.6 61.955 139.5 62.755 140.6 C 63.555 141.6 64.255 143.5 64.255 144.6 C 64.255 145.8 64.955 148.3 65.755 150.2 C 67.055 153.5 67.055 153.8 64.855 155.9 C 62.655 157.9 62.355 158 58.955 156.5 C 56.855 155.7 55.255 154.5 55.255 154 C 55.255 153.4 54.655 153 54.055 153 C 50.155 152.8 40.355 133.9 37.155 120.5 C 36.555 118.3 35.755 116.1 35.155 115.5 C 34.655 115 34.255 113 34.255 111 C 34.155 109.1 33.555 106.4 32.755 105 C 31.955 103.6 31.355 100.9 31.255 98.9 C 31.255 96.9 30.555 93.6 29.755 91.7 C 28.955 89.7 28.255 86.1 28.255 83.7 C 28.255 81.3 27.555 78.5 26.755 77.4 C 25.955 76.3 25.355 73.2 25.255 69.9 C 25.255 66.8 24.555 62.3 23.755 60 C 22.155 55.6 21.755 49.8 22.955 48.7 C 23.255 48.3 24.255 48.6 25.155 49.4 C 28.255 52.1 35.255 52.7 49.955 51.4 C 55.655 51 57.655 51.2 59.455 52.4 C 63.055 55 79.055 54.6 84.255 51.9 C 86.455 50.7 88.255 49.4 88.255 49 C 88.255 48.5 89.255 47.9 90.555 47.7 C 91.755 47.5 92.955 47.2 93.155 47.1 C 93.355 47.1 93.155 47.8 92.755 48.7 Z" fill="#000000" stroke="none">
    <title>37</title>
  </path>
</svg>