<svg viewBox="0 0 120 220" xmlns="http://www.w3.org/2000/svg">
  <path d="M 17.837 0.762 C 12.937 2.362 10.237 4.862 7.937 10.262 C 5.637 15.462 5.437 18.962 7.437 22.462 C 8.237 23.862 8.837 26.262 8.937 27.762 C 8.937 29.362 9.537 31.862 10.337 33.262 C 13.337 39.362 14.337 43.562 14.937 54.962 C 15.337 61.562 16.137 68.262 16.837 69.762 C 17.437 71.362 17.937 74.062 17.937 75.762 C 17.937 77.562 18.637 80.262 19.437 81.862 C 20.237 83.362 20.937 85.962 20.937 87.462 C 20.937 89.062 21.537 91.562 22.337 93.162 C 23.137 94.662 24.537 97.962 25.537 100.462 C 26.537 102.962 27.937 105.662 28.637 106.562 C 29.337 107.362 29.937 108.662 29.937 109.362 C 29.937 110.662 33.937 116.762 35.237 117.262 C 35.637 117.462 35.937 118.162 35.937 118.762 C 35.937 119.862 48.337 133.462 49.337 133.462 C 49.637 133.462 51.137 134.662 52.637 136.062 C 54.137 137.462 56.337 139.062 57.437 139.562 C 58.537 140.062 61.237 141.562 63.437 142.962 C 68.037 145.762 73.437 146.262 74.337 143.862 C 75.737 140.262 74.537 136.862 68.837 127.962 C 67.837 126.262 66.637 124.262 66.337 123.462 C 65.137 120.462 62.637 114.862 61.337 112.162 C 60.537 110.562 59.937 108.062 59.937 106.462 C 59.937 104.862 59.237 102.862 58.337 102.062 C 57.537 101.162 56.937 99.262 57.137 97.762 C 57.437 94.662 59.137 94.362 59.937 97.162 C 62.037 104.662 86.237 133.462 90.437 133.462 C 91.037 133.462 92.037 133.962 92.737 134.662 C 96.137 138.062 108.837 139.662 112.237 137.062 C 113.237 136.262 113.937 134.362 113.937 132.262 C 113.937 129.362 113.037 127.962 107.937 123.162 C 104.637 120.062 101.937 117.062 101.937 116.462 C 101.937 115.962 101.437 115.462 100.937 115.462 C 100.337 115.462 99.437 114.462 98.937 113.162 C 98.337 111.962 96.737 108.962 95.437 106.562 C 94.037 104.162 92.937 101.162 92.937 99.962 C 92.937 98.662 92.237 97.162 91.437 96.462 C 90.537 95.662 89.937 93.562 89.937 90.962 C 89.937 88.562 89.237 83.162 88.337 78.862 C 86.637 70.562 86.737 65.762 89.237 47.862 C 89.837 42.862 91.037 38.062 91.737 37.162 C 93.737 34.762 93.537 14.862 91.537 12.562 C 90.637 11.562 89.937 10.362 89.937 9.762 C 89.937 7.462 84.737 5.262 80.837 5.862 C 78.637 6.162 76.137 6.062 75.237 5.562 C 67.337 1.662 57.637 0.462 52.837 2.862 C 49.137 4.662 39.837 4.962 38.237 3.362 C 37.537 2.662 34.937 1.862 32.237 1.362 C 29.637 0.962 26.137 0.362 24.437 0.062 C 22.837 -0.138 19.837 0.162 17.837 0.762 Z M 32.437 4.062 C 34.637 4.462 37.337 5.362 38.437 6.062 C 41.037 7.862 49.037 7.862 51.537 5.962 C 54.237 3.962 67.237 3.862 68.937 5.962 C 69.637 6.762 71.037 7.462 72.137 7.462 C 73.237 7.462 74.937 7.962 75.937 8.462 C 77.237 9.162 78.637 9.062 80.437 8.262 C 82.837 7.162 83.337 7.362 86.737 10.762 L 90.437 14.462 L 90.437 24.762 C 90.337 34.362 90.137 35.362 87.737 38.562 C 86.237 40.462 83.537 43.162 81.737 44.462 C 78.637 46.862 77.737 46.962 65.837 46.962 C 53.137 46.962 51.737 46.662 43.437 42.062 C 42.337 41.462 35.637 40.762 28.437 40.462 C 15.537 39.962 15.437 39.962 15.137 37.462 C 14.937 36.162 14.137 34.162 13.337 33.062 C 12.537 31.962 11.937 29.862 11.937 28.462 C 11.937 26.962 11.237 24.962 10.437 23.862 C 6.537 18.762 10.537 6.862 17.237 3.862 C 20.337 2.462 22.237 2.562 32.437 4.062 Z M 42.737 44.862 C 51.037 49.162 53.137 49.562 65.837 49.562 C 75.637 49.562 79.137 49.162 81.737 47.862 C 86.237 45.662 87.337 46.862 85.837 52.762 C 83.937 60.362 86.137 94.062 88.737 96.662 C 89.337 97.262 89.937 99.062 89.937 100.562 C 89.937 102.062 90.637 103.762 91.437 104.462 C 92.237 105.162 92.937 106.462 92.937 107.462 C 92.937 108.462 93.637 109.762 94.437 110.462 C 95.237 111.162 95.937 112.262 95.937 112.962 C 95.937 113.762 99.337 117.862 103.437 122.262 C 110.637 129.962 111.937 132.362 110.037 135.362 C 109.037 136.962 103.437 136.462 97.937 134.362 C 92.437 132.262 84.237 125.762 78.937 119.362 C 76.237 116.162 73.137 112.562 71.937 111.262 C 70.737 109.962 69.337 108.062 68.837 106.962 C 68.337 105.862 67.037 103.562 65.937 101.962 C 64.837 100.262 63.537 98.062 62.937 96.962 C 62.437 95.862 61.537 94.262 61.137 93.462 C 60.637 92.662 59.637 90.562 58.837 88.962 C 57.937 87.162 56.637 85.962 55.437 85.962 C 53.637 85.962 53.437 86.562 53.837 91.962 C 54.037 95.262 54.737 99.462 55.537 101.362 C 56.337 103.162 56.937 105.962 56.937 107.462 C 56.937 108.962 57.637 110.762 58.437 111.462 C 59.237 112.162 59.937 113.962 59.937 115.462 C 59.937 116.962 60.637 118.762 61.437 119.462 C 62.237 120.162 62.937 121.462 62.937 122.362 C 62.937 123.262 63.437 124.562 64.037 125.162 C 66.837 127.962 72.237 139.262 71.537 140.962 C 70.937 142.562 65.937 143.062 65.937 141.562 C 65.937 141.062 64.937 140.262 63.737 139.862 C 60.937 139.062 50.637 131.362 45.937 126.562 C 40.837 121.362 35.037 113.462 33.037 108.762 C 32.437 107.662 31.537 106.362 31.037 105.962 C 30.437 105.662 29.937 104.562 29.937 103.562 C 29.937 102.562 29.237 101.162 28.437 100.462 C 27.637 99.762 26.937 98.262 26.937 97.062 C 26.937 95.862 26.237 93.962 25.437 92.862 C 24.637 91.862 23.937 89.862 23.937 88.462 C 23.937 87.062 23.237 84.662 22.437 83.062 C 21.637 81.562 20.937 78.762 20.937 76.862 C 20.937 75.062 20.237 71.562 19.537 69.262 C 18.337 65.862 17.437 52.662 17.837 44.662 C 17.937 42.862 39.237 42.962 42.737 44.862 Z" fill="#000000" stroke="none">
    <title>38</title>
  </path>
</svg>