<svg viewBox="0 0 120 220" xmlns="http://www.w3.org/2000/svg">
  <path d="M 41.967 3.706 C 39.667 6.706 39.167 8.206 39.367 12.206 C 39.467 14.906 40.067 18.706 40.667 20.806 C 41.167 22.806 41.667 27.506 41.667 31.206 C 41.667 34.906 42.267 39.706 43.067 41.706 C 43.867 43.806 44.767 49.406 45.067 54.206 C 45.367 59.006 46.167 64.106 46.667 65.506 C 47.267 66.906 47.667 72.706 47.767 78.306 C 47.767 83.906 48.267 90.706 48.767 93.506 C 49.367 96.206 50.167 107.306 50.667 118.006 C 52.267 153.606 53.367 168.006 54.667 169.506 C 56.967 172.306 61.267 171.306 63.567 167.606 C 64.767 165.806 65.667 163.406 65.667 162.406 C 65.667 161.306 66.367 159.606 67.167 158.606 C 67.967 157.506 68.667 154.906 68.667 152.706 C 68.667 150.606 69.167 147.906 69.867 146.706 C 70.567 145.506 71.367 140.006 71.767 134.506 C 72.167 129.006 72.967 122.006 73.567 119.006 C 74.067 116.006 74.567 101.806 74.667 87.506 C 74.767 73.206 75.167 58.306 75.667 54.506 C 77.067 43.406 78.467 35.806 79.567 32.006 C 80.167 30.106 80.667 23.106 80.667 16.506 C 80.667 -0.794 81.567 0.006 61.167 0.006 L 44.767 0.006 L 41.967 3.706 Z M 77.467 17.306 C 77.667 27.606 77.367 32.206 76.167 35.606 C 75.367 38.006 74.667 41.406 74.667 43.006 C 74.667 47.506 69.067 60.006 67.167 60.006 C 66.467 60.006 65.367 60.706 64.667 61.506 C 62.767 63.806 56.667 63.306 53.567 60.706 C 48.567 56.506 46.167 48.606 44.667 32.006 C 44.267 27.306 43.367 22.206 42.767 20.706 C 40.767 15.706 41.367 8.106 43.967 5.406 C 46.167 3.006 46.467 3.006 61.667 3.306 L 77.167 3.506 L 77.467 17.306 Z M 71.767 90.106 C 71.567 109.406 70.967 120.406 70.067 124.506 C 69.267 127.806 68.667 133.506 68.667 137.106 C 68.667 140.806 67.967 145.406 67.167 147.306 C 66.367 149.306 65.667 152.406 65.667 154.206 C 65.667 156.006 64.967 158.406 64.167 159.406 C 63.367 160.506 62.667 162.006 62.667 162.906 C 62.667 164.706 59.767 168.006 58.067 168.006 C 56.467 168.006 55.567 163.706 55.167 154.206 C 54.967 150.006 54.367 136.106 53.867 123.406 C 53.367 110.706 52.567 99.606 52.067 98.906 C 51.567 98.106 50.867 90.706 50.467 82.506 C 50.067 74.206 49.667 66.606 49.467 65.506 C 49.067 63.006 52.767 62.206 54.667 64.506 C 56.567 66.806 62.667 66.406 66.667 63.606 C 68.567 62.206 70.667 61.206 71.167 61.406 C 71.767 61.606 72.067 71.706 71.767 90.106 Z" fill="#000000" stroke="none">
    <title>41</title>
  </path>
</svg>