<svg viewBox="0 0 120 220" xmlns="http://www.w3.org/2000/svg">
  <path d="M 45.097 1.8 C 40.197 5.9 39.597 7.8 39.597 20 C 39.597 26.3 40.097 33.3 40.697 35.5 C 41.297 37.7 42.197 43.5 42.597 48.5 C 43.097 53.4 43.997 59.1 44.497 61 C 45.097 62.9 45.597 67.2 45.597 70.5 C 45.697 73.8 46.097 78.5 46.697 81 C 47.197 83.5 48.097 91.7 48.597 99.4 C 48.997 107 49.897 113.7 50.497 114.3 C 51.197 115 51.597 120.3 51.597 128 C 51.597 134.9 52.297 147.7 53.097 156.5 C 53.897 165.3 54.597 175.2 54.597 178.6 C 54.597 183.3 54.997 185.1 56.497 186.4 C 57.997 187.8 58.797 187.9 60.297 187 C 62.897 185.4 66.597 178.7 66.597 175.7 C 66.597 174.3 67.297 171.9 68.097 170.4 C 68.897 168.8 69.597 165.1 69.597 162.2 C 69.597 159.3 70.097 155.9 70.697 154.7 C 71.397 153.5 72.297 145.4 72.697 136.5 C 73.197 127.7 73.997 115.5 74.497 109.5 C 74.997 103.4 75.497 87.6 75.497 74.4 C 75.597 55 75.897 49.7 77.097 47.4 C 77.897 45.8 78.597 42.7 78.597 40.5 C 78.597 38.4 79.097 31.8 79.797 26 C 81.097 13.6 80.297 5.2 77.497 2.1 C 75.697 0.1 74.497 0 61.297 0 C 49.397 0.1 46.797 0.3 45.097 1.8 Z M 76.397 6.3 C 77.097 8.1 77.597 12.1 77.597 15.1 C 77.597 24.7 75.397 45.4 74.097 48.5 C 73.397 50.1 71.997 53.5 70.997 56 C 68.697 61.7 65.997 65.4 63.097 67 C 61.097 68.1 60.097 68 57.197 66.6 C 53.797 65 48.597 59.4 48.597 57.3 C 48.597 56.7 47.997 55.7 47.197 55.1 C 46.497 54.5 45.597 51 45.297 47 C 44.997 43.2 44.197 39.2 43.697 38.1 C 43.097 37 42.597 30.2 42.597 22.5 C 42.597 10.1 42.797 8.7 44.797 6 L 46.997 3 L 61.097 3 L 75.197 3 L 76.397 6.3 Z M 72.597 86.8 C 72.597 100.9 71.997 114.1 71.097 121.5 C 70.297 128 69.597 137 69.597 141.5 C 69.597 145.9 68.897 151.7 68.097 154.4 C 67.297 157.1 66.597 161.6 66.597 164.4 C 66.597 167.3 65.897 170.3 65.097 171.4 C 64.297 172.5 63.597 174.5 63.597 175.8 C 63.597 177.1 62.597 179.5 61.497 181.2 C 57.197 187.1 56.997 185.5 54.797 136 C 54.297 124.5 53.497 115.6 52.797 114.3 C 52.097 113.1 51.597 107.9 51.597 102.3 C 51.497 96.9 50.997 90.5 50.497 88 C 48.997 81.7 48.197 65 49.297 65 C 49.897 65 51.097 65.9 52.097 67 C 53.097 68.1 54.697 69 55.697 69 C 56.697 69 57.797 69.4 58.097 70 C 59.497 72.2 63.697 70.9 67.397 67.2 C 69.397 65 71.397 63.5 71.897 63.7 C 72.297 63.9 72.597 74.3 72.597 86.8 Z" fill="#000000" stroke="none">
    <title>42</title>
  </path>
</svg>