<svg viewBox="0 0 120 220" xmlns="http://www.w3.org/2000/svg">
  <path d="M 57.29 1.8 C 55.69 2.7 53.89 4.1 53.49 4.7 C 53.09 5.4 52.09 6 51.29 6 C 49.49 6 36.69 19.9 34.59 24.1 C 31.89 29.8 30.59 37.1 31.79 41 C 32.29 42.9 32.79 46.7 32.79 49.3 C 32.79 52 33.49 55.4 34.29 56.8 C 36.39 60.6 37.79 70.4 38.79 86.6 C 39.19 94.4 40.09 101.7 40.69 102.8 C 41.29 103.9 41.79 109.7 41.79 115.7 C 41.89 121.6 42.49 132.6 43.19 140 C 44.09 149.5 44.19 156.7 43.59 164.5 C 43.09 170.5 42.29 180.7 41.79 187 C 41.29 193.3 40.59 200.1 40.29 202 C 39.79 204.8 40.09 205.9 41.69 207.4 C 43.59 209.1 43.99 209.2 46.99 207.7 C 52.69 204.9 62.79 194.2 62.79 190.9 C 62.79 190.1 63.49 188.6 64.29 187.6 C 65.09 186.5 65.79 184.7 65.79 183.6 C 65.79 182.4 66.49 180.6 67.29 179.6 C 68.09 178.5 68.79 176.4 68.79 174.9 C 68.79 173.4 69.49 170.9 70.29 169.4 C 71.09 167.8 71.79 164.6 71.79 162.4 C 71.79 160.1 72.49 156.9 73.29 155.4 C 74.09 153.8 74.79 150.2 74.79 147.3 C 74.79 144.4 75.49 139.5 76.29 136.3 C 77.09 133.2 77.79 126.3 77.79 121 C 77.79 115.8 78.29 109.7 78.79 107.5 C 79.39 105.3 80.19 94.4 80.69 83.4 C 81.19 72.3 82.09 62.3 82.69 61.2 C 83.29 60.1 83.79 58.1 83.79 56.8 C 83.79 55.5 84.49 53.6 85.29 52.6 C 86.09 51.5 86.79 49.2 86.79 47.5 C 86.79 45.8 87.29 43.9 87.89 43.3 C 89.99 41.2 87.39 19 84.89 18.2 C 84.29 18 83.79 17.3 83.79 16.6 C 83.79 15.1 74.59 6 73.09 6 C 72.49 6 71.79 5.6 71.59 5.2 C 71.09 3.9 63.79 0 61.99 0 C 61.09 0 58.99 0.8 57.29 1.8 Z M 66.09 4.7 C 75.29 9.7 82.39 17 84.09 23.5 C 86.79 33.3 87.19 37.8 85.49 42.2 C 84.59 44.6 83.79 47.7 83.79 49 C 83.79 50.4 83.09 52.4 82.29 53.4 C 81.49 54.5 80.79 56.1 80.79 57.1 C 80.79 59.3 74.99 70 72.39 72.6 C 67.99 77 64.79 78.3 58.79 78.3 C 51.69 78.3 47.29 75.5 42.39 67.6 C 38.19 60.8 36.69 56.8 35.69 49 C 35.19 45.4 34.39 41.3 33.89 39.8 C 32.89 37 35.29 27.1 37.59 24.8 C 38.29 24.1 38.79 23.2 38.79 22.8 C 38.79 21.3 50.19 9.9 55.19 6.6 C 61.09 2.5 61.69 2.4 66.09 4.7 Z M 77.79 86.8 C 77.79 94.3 77.29 102.1 76.79 104 C 76.19 105.9 75.49 113.6 75.09 121 C 74.79 128.4 73.99 136.4 73.19 138.8 C 72.39 141.1 71.79 145.5 71.79 148.4 C 71.79 151.4 71.09 155.1 70.29 156.6 C 69.49 158.2 68.79 161.5 68.79 164 C 68.79 166.5 68.09 169.4 67.29 170.4 C 66.49 171.5 65.79 173.8 65.79 175.4 C 65.79 177.1 65.09 179.4 64.29 180.4 C 63.49 181.5 62.79 183.4 62.79 184.6 C 62.79 185.9 62.39 187.1 61.89 187.4 C 61.39 187.7 60.09 189.8 58.89 192 C 55.69 198.1 48.19 205 44.59 205 C 42.09 205 41.19 202.2 42.79 199.6 C 44.39 197.1 46.19 173.8 46.19 155.5 C 46.19 137.7 44.19 105.1 42.99 101.9 C 41.89 99 40.99 75.4 41.99 74.4 C 42.39 74.1 44.69 75.4 47.09 77.4 C 51.29 80.8 51.89 81 59.09 81 C 64.49 81 67.09 80.6 68.19 79.5 C 68.99 78.7 69.99 78 70.49 78 C 70.89 77.9 72.39 76.6 73.69 75 C 74.99 73.4 76.49 72.3 76.99 72.6 C 77.39 72.9 77.79 79.3 77.79 86.8 Z" fill="#000000" stroke="none">
    <title>43</title>
  </path>
</svg>