<svg viewBox="0 0 120 220" xmlns="http://www.w3.org/2000/svg">
  <path d="M 56.5 1.324 C 51 4.624 43.4 10.824 36.9 17.524 L 33 21.424 L 33 30.024 C 33 36.024 33.4 39.224 34.5 40.624 C 35.3 41.624 36 43.924 36 45.524 C 36 47.224 36.5 50.124 37.1 52.024 C 37.7 53.924 38.6 60.124 39 65.724 C 39.5 71.224 40.3 76.724 40.9 77.824 C 42.7 81.224 42.4 147.424 40.5 152.524 C 38.3 158.624 38.6 170.224 41 174.724 C 43.2 178.824 44.6 180.024 47.5 180.024 C 49.7 180.024 57 173.324 57 171.324 C 57 170.724 57.7 169.724 58.5 169.024 C 59.3 168.324 60 166.824 60 165.624 C 60 164.524 60.7 162.624 61.5 161.624 C 62.3 160.524 63 158.524 63 157.124 C 63 155.724 63.7 153.624 64.5 152.624 C 65.3 151.524 66 149.224 66 147.624 C 66 145.924 66.7 143.624 67.5 142.624 C 68.3 141.524 69 139.224 69 137.424 C 69 135.724 69.7 132.624 70.5 130.724 C 71.3 128.724 72 125.824 72 124.224 C 72 122.624 72.7 119.624 73.5 117.724 C 74.3 115.724 75 112.024 75 109.524 C 75 106.924 75.5 104.024 76.1 102.924 C 76.6 101.824 77.4 97.724 77.7 93.724 C 78 89.724 78.8 84.324 79.6 81.624 C 80.4 78.924 81 72.524 81 67.424 C 81 62.324 81.4 57.924 81.9 57.624 C 82.3 57.324 83 53.924 83.4 50.024 C 83.8 46.224 84.8 41.824 85.6 40.224 C 86.5 38.524 87 34.424 87 28.924 C 87 18.824 86.6 18.024 75.8 9.224 C 64.1 -0.276 61.2 -1.476 56.5 1.324 Z M 67 5.724 C 69.8 7.824 72 9.824 72 10.224 C 72 10.624 72.6 11.024 73.3 11.024 C 74 11.024 76.8 13.324 79.5 16.024 L 84.5 21.124 L 84.4 29.124 C 84.3 33.824 83.6 38.724 82.7 40.824 C 81.9 42.824 80.9 45.224 80.5 46.024 C 78.5 50.824 75.2 55.024 70.4 58.824 C 66.6 61.724 65.6 62.024 59.1 62.024 C 53.7 62.024 51.8 61.624 51.4 60.524 C 51 59.724 50.2 59.024 49.5 59.024 C 47.7 59.024 42.9 53.324 40.6 48.524 C 39.6 46.324 38.1 43.224 37.4 41.724 C 36.5 40.024 36 35.524 36 30.424 C 36 22.124 36 22.024 39.6 18.324 C 44.2 13.624 59.1 2.124 60.8 2.124 C 61.5 2.024 64.3 3.724 67 5.724 Z M 78.9 60.724 C 78.4 62.824 78 67.524 78 71.224 C 78 74.924 77.3 80.524 76.5 83.724 C 75.7 86.824 75 91.524 75 94.024 C 75 96.524 74.3 100.324 73.5 102.524 C 72.7 104.724 72.1 108.624 72 111.124 C 72 113.724 71.3 117.424 70.5 119.324 C 69.7 121.324 69 124.224 69 125.924 C 69 127.524 68.3 130.124 67.5 131.624 C 66.7 133.224 66 136.124 66 138.024 C 66 139.924 65.3 142.424 64.5 143.424 C 63.7 144.524 63 146.824 63 148.424 C 63 150.124 62.3 152.424 61.5 153.424 C 60.7 154.524 60 156.524 60 157.924 C 60 159.324 59.3 161.424 58.5 162.424 C 57.7 163.524 57 165.024 57 165.824 C 57 167.224 51.6 174.824 49.5 176.224 C 47.4 177.824 45.3 176.924 43.6 173.724 C 42.2 171.124 41.9 168.824 42.3 161.524 C 42.5 156.524 43.2 150.524 43.8 148.024 C 45.2 142.124 45.2 88.224 43.8 81.524 C 43.2 78.724 42.6 72.324 42.3 67.224 C 42 60.024 42.1 58.024 43.2 58.024 C 43.9 58.024 45.1 58.924 45.8 60.024 C 46.5 61.124 47.6 62.024 48.4 62.024 C 49.1 62.024 50.3 62.724 51 63.524 C 51.9 64.624 54.3 65.024 59.5 65.024 C 64.7 65.024 67.1 64.624 68 63.524 C 68.7 62.724 69.8 62.024 70.4 62.024 C 71.1 62.024 72.7 60.924 74 59.524 C 75.3 58.124 77.1 57.024 78.1 57.024 C 79.5 57.024 79.7 57.524 78.9 60.724 Z" fill="#000000" stroke="none">
    <title>44</title>
  </path>
</svg>