<svg viewBox="0 0 120 220" xmlns="http://www.w3.org/2000/svg">
  <path d="M 51.156 2.8 C 48.956 4.4 46.456 5.9 45.656 6.3 C 39.256 9.5 33.656 14.5 33.656 17.1 C 33.656 18 32.956 20.1 32.156 21.6 C 30.356 25 30.156 32.3 31.756 35.3 C 33.456 38.4 36.556 57.5 36.656 65 C 36.656 68.6 37.156 73.3 37.756 75.5 C 38.356 77.7 39.156 83.5 39.656 88.4 C 40.056 93.2 40.956 97.7 41.556 98.3 C 42.156 98.9 42.656 101.8 42.656 104.7 C 42.656 107.6 43.256 111.9 44.056 114.2 C 45.456 118.5 46.856 138.4 47.156 159.5 C 47.456 174.8 48.256 178.9 51.256 180 C 52.556 180.5 54.456 180.7 55.356 180.3 C 57.856 179.4 63.656 172.8 63.656 170.9 C 63.656 170 64.356 168.7 65.156 168 C 65.956 167.3 66.656 166 66.656 165.1 C 66.656 164.2 67.356 162.6 68.156 161.6 C 68.956 160.5 69.656 158.7 69.656 157.6 C 69.656 156.4 70.356 154.6 71.156 153.6 C 71.956 152.5 72.656 150.4 72.656 148.9 C 72.656 147.4 73.356 144.9 74.156 143.4 C 74.956 141.8 75.656 139.1 75.656 137.4 C 75.656 135.7 76.356 132.3 77.156 130 C 77.956 127.6 78.656 122.3 78.656 118.1 C 78.656 113.9 79.056 109 79.556 107.2 C 80.156 105.4 80.856 94.6 81.256 83.2 C 81.656 71.8 82.356 61.7 82.756 60.8 C 83.256 59.9 83.956 56.3 84.256 52.8 C 84.656 49.3 85.456 45.9 86.056 45.1 C 86.656 44.3 87.456 40.7 87.856 37.1 C 88.256 33.5 88.856 28.9 89.156 26.9 C 90.356 20.5 85.056 9 80.956 9 C 80.156 9 79.356 8.3 79.056 7.5 C 78.656 6.7 77.956 6 77.456 6 C 76.856 6 74.456 4.6 71.956 3 C 68.256 0.5 66.656 0 61.356 0 C 56.256 0.1 54.456 0.5 51.156 2.8 Z M 71.456 6.1 C 73.856 7.7 76.056 9 76.356 9 C 76.656 9 78.556 10.3 80.556 11.9 C 85.256 15.6 87.156 21.1 86.256 27.7 C 85.856 30.3 85.256 35.1 84.956 38.2 C 84.656 41.4 83.756 44.5 83.056 45.1 C 82.256 45.7 81.656 47 81.656 48 C 81.656 49 80.956 50.3 80.156 51 C 79.356 51.7 78.656 52.8 78.656 53.6 C 78.656 56.8 64.556 66 59.656 66 C 56.456 66 50.256 62.9 46.156 59.3 C 42.856 56.3 36.656 44.7 36.656 41.4 C 36.656 40.3 35.956 38.5 35.156 37.4 C 32.956 34.5 33.256 24.5 35.756 19.3 C 37.656 15.5 42.656 10.5 46.656 8.6 C 49.056 7.5 52.356 5.5 53.756 4.3 C 57.556 1.3 65.356 2.1 71.456 6.1 Z M 45.556 62 C 47.856 64.2 50.556 66 51.656 66 C 52.656 66 53.856 66.4 54.156 67 C 54.956 68.2 64.356 68.3 65.056 67.1 C 65.356 66.7 66.856 66 68.456 65.7 C 69.956 65.4 72.456 64 73.956 62.6 C 75.556 61.2 77.456 60 78.256 60 C 78.956 60 79.656 59.5 79.656 58.9 C 79.656 58.4 80.156 58.2 80.656 58.5 C 81.456 59 81.356 59.7 80.456 60.7 C 79.656 61.7 79.056 68.8 78.556 82.8 C 78.156 94.2 77.356 106.2 76.756 109.5 C 76.156 112.8 75.656 118.3 75.656 121.6 C 75.656 125 74.956 129.4 74.156 131.3 C 73.356 133.3 72.656 136.4 72.656 138.2 C 72.556 140 71.956 142.6 71.156 144 C 70.356 145.4 69.756 147.5 69.656 148.7 C 69.656 149.9 68.956 152.6 68.056 154.7 C 65.256 161 63.856 164.4 63.156 166 C 62.456 167.7 61.056 170.2 58.256 174.2 C 56.356 177.1 51.656 178.1 51.656 175.7 C 51.656 175.1 51.056 173.4 50.356 172 C 49.456 170.2 49.056 162.6 48.856 144.8 C 48.756 125.8 48.356 119.1 47.156 115.8 C 46.356 113.4 45.656 109.7 45.656 107.5 C 45.556 105.3 44.956 101.7 44.156 99.5 C 43.356 97.3 42.656 93 42.656 89.9 C 42.656 86.9 42.056 82.1 41.256 79.4 C 39.956 75.3 39.256 66.6 39.556 59.7 C 39.656 57.1 40.856 57.6 45.556 62 Z" fill="#000000" stroke="none">
    <title>45</title>
  </path>
</svg>