<svg viewBox="0 0 120 220" xmlns="http://www.w3.org/2000/svg">
  <path d="M 51.671 1.5 C 50.171 2.3 47.771 3 46.571 3 C 45.271 3 43.571 3.7 42.671 4.5 C 41.871 5.3 40.771 6 40.271 6 C 39.771 6 38.771 6.6 38.171 7.4 C 37.371 8.4 34.871 8.8 30.071 8.7 C 23.671 8.6 22.871 8.8 20.071 11.5 L 17.071 14.4 L 17.071 28.3 C 17.071 37.3 17.471 42.9 18.271 44.3 C 18.971 45.5 20.271 49.4 21.271 53 C 23.671 61.8 23.871 112.1 21.571 118.5 C 20.771 120.7 20.171 124.1 20.071 126.1 C 20.071 128.1 19.371 131.1 18.571 132.6 C 17.771 134.2 17.071 136.8 17.071 138.5 C 17.071 140.1 16.371 142.4 15.571 143.4 C 14.771 144.5 14.071 146.3 14.071 147.4 C 14.071 148.6 13.371 150.4 12.571 151.4 C 11.771 152.5 11.071 154.1 11.071 155.1 C 11.071 156 10.371 158.1 9.571 159.6 C 7.471 163.7 7.671 168.7 10.171 172.2 C 12.071 174.8 12.771 175.1 15.871 174.5 C 17.771 174.2 20.771 172.5 22.471 170.9 C 24.171 169.3 25.871 168 26.271 168 C 27.271 168 35.071 160.5 35.071 159.6 C 35.071 159.1 36.271 157.1 37.871 155.1 C 41.271 150.6 42.771 148.1 43.971 145.3 C 44.571 144.2 45.471 142.9 45.971 142.5 C 46.571 142.2 47.071 141 47.071 139.9 C 47.071 138.9 47.571 138 48.071 138 C 48.671 138 49.371 137.2 49.771 136.2 C 50.971 132.6 54.271 126 55.171 125.4 C 55.671 125.1 56.071 124.1 56.071 123.1 C 56.071 122.1 56.771 120.7 57.571 120 C 58.371 119.3 59.071 118 59.071 117 C 59.071 116 59.771 114.7 60.571 114 C 61.371 113.3 62.071 111.9 62.071 110.9 C 62.071 107.6 69.571 107 70.471 110.2 C 70.671 110.9 71.371 114.5 72.071 118.1 C 73.271 125.2 72.171 134.9 69.471 140.2 C 68.671 141.6 68.071 143.5 68.071 144.3 C 68.071 145.1 67.471 146.3 66.671 146.9 C 65.871 147.5 65.071 149.3 64.771 150.8 C 64.471 152.3 63.871 154.7 63.471 156.2 C 62.571 160.1 65.071 168 67.871 169.8 C 69.871 171.1 70.371 171 73.871 168.8 C 75.871 167.4 78.671 165.2 80.071 163.9 C 84.071 160.1 92.071 149.3 92.071 147.7 C 92.071 146.9 92.771 145.7 93.571 145 C 94.371 144.3 95.071 142.8 95.071 141.6 C 95.071 140.5 95.771 138.6 96.571 137.6 C 97.371 136.5 98.071 134.4 98.071 133 C 98.071 131.5 98.771 128.9 99.571 127.3 C 100.871 124.8 101.071 120.2 100.871 102.4 C 100.571 67.5 100.971 57.1 102.771 51.5 C 103.771 48.7 105.071 45.8 105.771 44.9 C 106.471 44.1 107.071 42.4 107.071 41.3 C 107.071 40.2 107.671 38.7 108.471 38.1 C 109.771 37 110.271 34.7 111.671 22.7 C 112.571 15.6 110.371 9.5 105.271 4.3 L 100.871 0 L 93.071 0 C 88.771 0 84.971 0.4 84.671 0.9 C 83.671 2.4 75.571 6 73.171 6 C 71.971 6 70.271 5.3 69.471 4.5 C 68.571 3.7 67.071 3 66.171 3 C 65.171 3 62.671 2.3 60.771 1.5 C 56.271 -0.4 55.271 -0.4 51.671 1.5 Z M 103.571 6 C 106.671 9 110.071 17 110.071 21.3 C 110.071 22.6 109.371 25.4 108.571 27.3 C 107.771 29.3 107.071 31.9 107.071 33.1 C 107.071 34.4 105.471 38.6 103.471 42.6 C 100.171 49.4 99.571 50 94.571 52 C 88.671 54.4 81.371 54.4 73.171 52 C 69.471 50.9 68.371 50.9 65.671 52.2 C 58.171 55.8 55.071 56.4 42.671 56.8 L 29.771 57.1 L 26.471 53.9 C 24.571 52.1 23.071 49.9 23.071 49 C 23.071 48.2 22.371 46.4 21.471 45.2 C 20.371 43.5 19.971 39.9 19.771 29.5 C 19.671 16.7 19.771 15.9 21.871 13.7 C 23.771 11.9 25.271 11.5 30.871 11.5 C 36.071 11.5 38.271 11 40.571 9.4 C 45.771 5.8 52.571 3 56.171 3 C 58.071 3 62.671 4.5 66.771 6.7 C 73.071 9.8 74.371 10.2 76.271 9.1 C 80.271 7 82.771 5.5 84.171 4.3 C 85.971 2.8 91.471 2.1 96.571 2.7 C 99.271 3 101.571 4.1 103.571 6 Z M 77.171 55.6 C 83.571 57.3 90.671 56.9 94.171 54.7 C 95.471 53.9 96.371 53.9 97.071 54.6 C 97.671 55.2 98.071 68.1 98.171 90 C 98.371 120 98.171 125 96.671 128.2 C 95.771 130.3 95.071 133 95.071 134.3 C 95.071 135.7 94.371 137.3 93.571 138 C 92.771 138.7 92.071 140.3 92.071 141.6 C 92.071 142.8 91.571 144.2 90.971 144.5 C 90.471 144.9 89.571 146.2 88.971 147.3 C 87.571 150.6 85.871 153.1 82.071 157.5 C 78.971 161.1 70.871 168 69.671 168 C 69.071 168 65.071 159.6 65.071 158.3 C 65.071 157.7 65.871 155.7 66.771 153.8 C 67.671 152 68.971 149.3 69.771 147.8 C 70.471 146.4 71.071 144.3 71.071 143.2 C 71.071 142.1 71.671 140.7 72.471 140.1 C 73.471 139.2 75.371 129 75.171 124.5 C 74.771 111.4 71.871 105 66.271 105 C 62.671 105 59.171 108 59.071 111.1 C 59.071 112 58.371 113.3 57.571 114 C 56.771 114.7 56.071 116.1 56.071 117.1 C 56.071 118.1 55.671 119.1 55.171 119.4 C 54.071 120.1 50.071 128.2 50.071 129.8 C 50.071 130.5 49.671 131 49.171 131 C 48.671 131 47.771 132.2 47.171 133.7 C 46.471 135.3 44.471 139.2 42.571 142.5 C 40.671 145.8 38.771 149.2 38.371 150 C 36.371 154.3 29.171 162.5 23.371 166.9 C 16.271 172.4 15.971 172.5 12.971 171 C 10.571 169.6 10.271 160.9 12.571 159 C 13.371 158.3 14.071 156.8 14.071 155.6 C 14.071 154.4 14.771 152.5 15.571 151.4 C 16.371 150.4 17.071 148.4 17.071 147 C 17.071 145.6 17.771 143.6 18.571 142.6 C 19.371 141.5 20.071 139.2 20.071 137.4 C 20.071 135.7 20.771 132.9 21.571 131.4 C 22.371 129.8 23.071 126.9 23.071 125 C 23.071 123.1 23.771 119.3 24.571 116.6 C 25.771 112.8 26.071 105.8 26.071 85.6 L 26.071 59.5 L 39.671 59.8 C 50.371 60 53.871 59.8 56.271 58.5 C 57.971 57.7 60.171 57 61.071 57 C 61.971 57 63.571 56.3 64.671 55.5 C 67.171 53.6 69.571 53.6 77.171 55.6 Z" fill="#000000" stroke="none">
    <title>46</title>
  </path>
</svg>