<svg viewBox="0 0 120 220" xmlns="http://www.w3.org/2000/svg">
  <path d="M 80.746 1.5 C 80.046 2.3 78.646 3 77.646 3 C 76.746 3 75.246 3.7 74.346 4.5 C 73.546 5.3 72.446 6 71.946 6 C 71.446 6 70.446 6.7 69.746 7.5 C 68.246 9.3 60.646 9.5 58.946 7.8 C 56.646 5.5 50.146 3.7 42.946 3.3 C 36.346 2.9 35.246 3.1 31.646 5.4 C 29.546 6.9 26.546 9.9 25.046 12.3 C 22.446 16.3 22.346 17.1 22.446 28.5 C 22.446 35.1 23.046 42.5 23.746 45 C 24.446 47.5 25.346 53.5 25.746 58.5 C 26.246 63.4 27.046 69.1 27.646 71 C 29.346 76.5 29.046 101.3 27.246 105.7 C 26.446 107.6 25.746 110.7 25.746 112.4 C 25.746 114.1 25.046 116.4 24.246 117.4 C 23.446 118.5 22.746 120.4 22.746 121.6 C 22.746 122.8 22.046 124.3 21.246 125 C 20.446 125.7 19.746 127.3 19.746 128.5 C 19.746 129.7 19.046 131.3 18.246 132 C 17.446 132.7 16.746 134.2 16.746 135.4 C 16.746 136.5 16.046 138.4 15.246 139.4 C 14.346 140.6 13.746 143.6 13.746 147 C 13.746 153.4 16.546 158 20.446 158 C 22.946 158 34.746 147.6 34.746 145.4 C 34.746 144.6 35.246 144 35.746 144 C 36.346 144 37.146 143.2 37.446 142.2 C 37.846 141.3 39.146 139.1 40.346 137.5 C 41.546 135.8 43.146 133.4 43.646 132 C 44.246 130.6 45.646 128.1 46.746 126.5 C 47.846 124.8 48.946 122.8 49.346 122 C 49.646 121.2 50.346 119.8 50.846 119 C 51.346 118.2 52.246 116.6 52.746 115.5 C 53.346 114.4 54.646 112.1 55.746 110.5 C 56.846 108.8 58.146 106.5 58.646 105.4 C 59.646 103.2 63.346 101.6 64.246 103 C 64.546 103.4 64.046 105.1 63.246 106.6 C 62.446 108.2 61.746 111.2 61.746 113.4 C 61.746 116.8 60.646 121.2 57.546 130.5 C 56.946 132.1 56.246 134.8 55.946 136.5 C 55.646 138.1 54.946 140.4 54.246 141.5 C 53.546 142.6 52.446 146.1 51.746 149.2 C 50.546 154.3 50.646 155.2 52.146 157.5 C 53.046 158.9 54.546 160.4 55.346 160.7 C 56.846 161.2 57.646 161 64.146 157.9 C 69.846 155.2 79.746 141.8 79.746 136.8 C 79.746 135.9 80.346 134.7 81.146 134.1 C 81.946 133.5 82.746 131.7 83.046 130.2 C 83.246 128.7 84.046 126 84.646 124.2 C 85.246 122.5 86.246 119.5 86.846 117.7 C 87.446 116 88.246 112.5 88.646 110 C 89.046 107.5 89.946 104.5 90.546 103.3 C 91.246 102.1 91.746 99.8 91.746 98.2 C 91.746 96.6 92.446 93.6 93.246 91.7 C 94.046 89.7 94.746 86.1 94.746 83.6 C 94.746 81.2 95.446 77.9 96.246 76.4 C 97.046 74.8 97.746 71.1 97.746 68.2 C 97.746 65.3 98.146 62.1 98.646 61.1 C 99.246 60.1 100.146 55.6 100.646 51 C 101.246 46.5 102.146 42.2 102.646 41.6 C 103.146 41 103.746 39.1 104.046 37.5 C 104.346 35.8 105.046 32.7 105.646 30.5 C 106.846 26.2 106.146 14.3 104.646 13.4 C 104.146 13.1 103.746 11.8 103.746 10.6 C 103.746 9.2 102.046 6.6 99.646 4.1 C 95.646 0.1 95.346 0 88.746 0 C 83.946 0 81.646 0.4 80.746 1.5 Z M 98.046 5.9 C 99.546 7.5 100.746 9.4 100.746 10.2 C 100.746 11 101.446 12.5 102.246 13.6 C 104.246 16.2 104.246 29.8 102.246 33.6 C 101.446 35.2 100.746 37.2 100.746 38 C 100.746 38.8 99.046 41.3 96.946 43.6 C 94.046 46.8 92.046 48 87.646 49 C 84.546 49.7 80.446 50 78.646 49.6 C 69.646 47.8 63.046 47.8 60.346 49.5 C 58.446 50.8 55.446 51.3 48.946 51.3 C 41.246 51.4 39.846 51.1 36.146 48.8 C 26.746 42.8 23.046 33.7 25.146 21.8 C 26.546 14.4 28.946 10 33.046 7.7 C 36.746 5.5 49.346 5.4 52.146 7.5 C 53.246 8.3 54.846 9 55.846 9 C 56.746 9 58.046 9.7 58.746 10.5 C 59.546 11.5 61.746 12 64.946 12 C 68.346 12 69.946 11.6 70.346 10.5 C 70.746 9.7 71.546 9 72.246 9 C 72.946 9 74.046 8.3 74.746 7.5 C 75.446 6.7 76.846 6 77.946 6 C 78.946 6 80.046 5.3 80.346 4.5 C 80.846 3.4 82.646 3 88.146 3 C 94.746 3 95.446 3.2 98.046 5.9 Z M 31.746 49 C 31.746 49.4 33.546 50.7 35.746 51.9 C 40.946 54.6 56.946 55 60.546 52.4 C 62.846 50.8 72.746 50.8 79.146 52.5 C 82.346 53.4 92.446 51.3 94.846 49.3 C 95.746 48.6 96.746 48.3 97.046 48.7 C 98.246 49.8 97.846 55.6 96.246 60 C 95.446 62.3 94.746 66.6 94.746 69.5 C 94.746 72.4 94.046 76.1 93.246 77.6 C 92.446 79.2 91.746 82.1 91.746 84.1 C 91.746 86.1 91.046 89.7 90.246 92 C 89.446 94.3 88.746 97.7 88.746 99.4 C 88.646 101.1 88.046 103.6 87.246 105 C 86.446 106.4 85.846 109.1 85.746 111 C 85.746 113 85.346 115 84.846 115.5 C 84.246 116.1 83.446 118.3 82.846 120.5 C 79.646 133.7 69.846 152.8 66.146 153 C 65.446 153 64.746 153.6 64.446 154.3 C 64.246 154.9 62.346 156.1 60.346 156.8 C 56.946 158.1 56.546 158 54.846 155.9 C 53.146 153.8 53.146 153.3 54.546 148.6 C 55.346 145.8 56.646 142.3 57.346 140.8 C 58.146 139.4 58.746 137.1 58.746 135.8 C 58.746 134.6 59.446 132.6 60.246 131.6 C 61.046 130.5 61.746 128 61.746 126 C 61.746 124 62.246 121.9 62.846 121.3 C 63.546 120.6 64.346 117.1 64.846 113.3 C 65.246 109.6 65.946 105.1 66.346 103.3 C 66.846 100.5 66.646 99.9 64.346 98.9 C 62.046 97.8 61.446 98 58.746 100.6 C 57.146 102.2 55.746 104 55.746 104.7 C 55.746 105.4 54.546 107.8 53.046 110.2 C 48.546 117.1 47.946 118.2 45.246 123.5 C 43.746 126.2 41.746 129.8 40.746 131.5 C 39.646 133.1 38.446 135.2 38.046 136 C 37.746 136.8 37.146 137.7 36.846 138 C 36.546 138.3 34.946 140.4 33.446 142.6 C 31.846 144.9 28.546 148.7 26.146 151 C 21.946 154.9 21.446 155.2 19.146 154 C 17.046 152.8 16.746 152 16.746 146.6 C 16.846 142.8 17.346 139.8 18.246 138.6 C 19.046 137.5 19.746 135.6 19.746 134.3 C 19.746 133 20.146 132 20.546 132 C 21.046 132 22.346 129.4 23.646 126.2 C 24.846 123.1 26.546 119 27.346 117.2 C 28.146 115.4 28.746 112.7 28.746 111.2 C 28.746 109.7 29.446 106.7 30.246 104.5 C 31.946 99.8 32.146 81.1 30.646 73.5 C 30.046 70.7 29.246 64.4 28.746 59.5 C 28.346 54.5 27.646 49.8 27.346 48.9 C 26.746 47.6 27.146 47.3 29.146 47.7 C 30.546 48 31.746 48.6 31.746 49 Z" fill="#000000" stroke="none">
    <title>47</title>
  </path>
</svg>