<svg viewBox="0 0 120 220" xmlns="http://www.w3.org/2000/svg">
  <path d="M 90.5 2.123 C 87.8 2.623 84.2 3.723 82.7 4.523 C 78.9 6.423 71.1 6.323 67.1 4.323 C 62.3 1.923 52.6 3.123 44.7 7.023 C 43.8 7.523 41.3 7.623 39.1 7.323 C 35.2 6.723 30 8.923 30 11.223 C 30 11.823 29.3 13.023 28.4 14.023 C 26.2 16.523 26.2 36.323 28.4 38.823 C 29.3 39.823 30 41.623 30 43.023 C 30 44.323 30.8 50.723 31.7 57.223 C 33.3 68.323 33.3 69.523 31.7 79.223 C 30.8 84.823 30 91.023 30 93.023 C 30 95.023 29.3 97.223 28.5 97.923 C 27.7 98.623 27 100.123 27 101.423 C 27 102.623 25.9 105.623 24.5 108.023 C 23.2 110.423 21.6 113.423 21 114.623 C 20.5 115.923 19.6 116.923 19 116.923 C 18.5 116.923 18 117.423 18 117.923 C 18 118.523 15.3 121.523 12 124.623 C 6.9 129.423 6 130.823 6 133.723 C 6 135.823 6.7 137.723 7.8 138.523 C 11.1 141.123 23.8 139.523 27.2 136.123 C 27.9 135.423 28.9 134.923 29.5 134.923 C 33.7 134.923 57.9 106.123 60 98.623 C 60.8 95.823 62.5 96.123 62.8 99.223 C 63 100.723 62.4 102.623 61.6 103.523 C 60.7 104.323 60 106.323 60 107.923 C 60 109.523 59.4 112.023 58.6 113.623 C 57.3 116.323 54.8 121.923 53.6 124.923 C 53.3 125.723 52.1 127.723 51.1 129.423 C 47.1 135.623 45 140.023 45 142.223 C 45 147.423 50 148.323 56.5 144.423 C 58.7 143.023 61.4 141.523 62.5 141.023 C 63.6 140.523 65.8 138.923 67.3 137.523 C 68.8 136.123 70.3 134.923 70.6 134.923 C 71.6 134.923 84 121.323 84 120.223 C 84 119.623 84.3 118.923 84.8 118.723 C 86 118.223 90 112.123 90 110.823 C 90 110.123 90.6 108.823 91.3 108.023 C 92 107.123 93.4 104.423 94.4 101.923 C 95.4 99.423 96.8 96.123 97.6 94.623 C 98.4 93.023 99 90.523 99 88.923 C 99 87.423 99.7 84.823 100.5 83.323 C 101.3 81.723 102 79.023 102 77.223 C 102 75.523 102.5 72.823 103.1 71.223 C 103.8 69.723 104.6 63.023 105 56.423 C 105.6 45.223 106.2 42.323 109.7 34.223 C 110.4 32.523 111 30.023 111 28.723 C 111.1 27.523 111.7 25.323 112.5 23.923 C 113.3 22.523 113.9 20.223 114 18.823 C 114 15.223 110.6 7.823 107.8 5.323 C 105.7 3.423 98.5 0.723 96.4 1.023 C 95.9 1.123 93.3 1.623 90.5 2.123 Z M 102.5 5.323 C 109.3 8.223 113.1 18.623 109.5 24.923 C 108.7 26.323 108.1 28.523 108 29.923 C 108 31.323 107.4 33.423 106.6 34.523 C 105.8 35.623 105 37.623 104.8 38.923 C 104.5 41.423 104.4 41.423 91.5 41.923 C 84.4 42.223 77.6 42.923 76.5 43.523 C 68.2 48.123 66.8 48.423 54.1 48.423 C 42 48.423 41.4 48.323 38 45.723 C 30.7 40.123 29.6 37.623 29.5 26.223 L 29.5 15.923 L 33.2 12.223 C 36.6 8.823 37.1 8.623 39.5 9.723 C 41.3 10.523 42.7 10.623 44 9.923 C 45 9.423 46.7 8.923 47.8 8.923 C 48.9 8.923 50.3 8.223 51 7.423 C 52.7 5.323 65.7 5.423 68.4 7.423 C 70.9 9.323 79.1 9.323 81.6 7.423 C 82.6 6.623 84.9 5.923 86.5 5.923 C 88.2 5.823 90.4 5.423 91.5 4.923 C 94.6 3.623 98.7 3.723 102.5 5.323 Z M 102.1 46.123 C 102.5 54.123 101.6 67.323 100.4 70.723 C 99.7 73.023 99 76.523 99 78.323 C 99 80.223 98.3 83.023 97.5 84.523 C 96.7 86.123 96 88.423 96 89.623 C 96 90.823 95.4 93.023 94.6 94.623 C 93.3 97.323 90.8 102.923 89.6 105.923 C 89.3 106.723 88.1 108.723 87 110.423 C 85.9 112.023 84.7 114.123 84.3 114.923 C 83.3 117.323 77.9 124.123 74 128.023 C 69.3 132.823 59 140.523 56.3 141.323 C 55 141.723 54 142.523 54 143.023 C 54 144.523 49 144.023 48.4 142.423 C 47.7 140.723 53.1 129.423 55.9 126.623 C 56.5 126.023 57 124.723 57 123.823 C 57 122.923 57.7 121.623 58.5 120.923 C 59.3 120.223 60 118.423 60 116.923 C 60 115.423 60.7 113.623 61.5 112.923 C 62.3 112.223 63 110.423 63 108.923 C 63 107.423 63.6 104.623 64.4 102.823 C 65.2 100.923 65.9 96.723 66.1 93.423 C 66.5 88.023 66.3 87.423 64.5 87.423 C 62.8 87.423 61.2 89.423 59.5 93.923 C 59.2 94.723 58.1 96.723 57 98.423 C 55.9 100.023 54.6 102.323 54 103.423 C 50.9 109.123 49.7 110.823 39.6 122.623 C 35.9 126.923 25.6 134.923 23.8 134.923 C 23 134.923 21.5 135.623 20.4 136.423 C 17.7 138.423 10.4 138.423 9.6 136.323 C 8.3 133.023 9.2 131.523 16.5 123.723 C 20.6 119.323 24 115.223 24 114.423 C 24 113.723 24.7 112.623 25.5 111.923 C 26.3 111.223 27 109.923 27 108.923 C 27 107.923 27.7 106.623 28.5 105.923 C 29.3 105.223 30 103.523 30 102.023 C 30 100.523 30.6 98.723 31.2 98.123 C 33.8 95.523 36 61.823 34.1 54.223 C 32.6 48.423 33.6 47.223 38.3 49.423 C 41.1 50.723 44.2 50.923 55.1 50.623 C 68.2 50.323 74.3 49.023 77.2 46.123 C 78.9 44.423 102 44.423 102.1 46.123 Z" fill="#000000" stroke="none">
    <title>48</title>
  </path>
</svg>