<svg viewBox="0 0 120 220" xmlns="http://www.w3.org/2000/svg">
  <path d="M 51.97 28.2 C 50.07 30.2 48.87 32.9 48.47 35.4 C 47.67 42 45.97 73.2 45.97 83.2 C 45.97 88.3 45.47 94.3 44.87 96.5 C 44.37 98.7 43.57 105 43.07 110.5 C 42.57 116 41.67 123.1 41.07 126.2 C 40.47 129.4 39.47 134.6 38.87 137.7 C 38.27 140.9 37.37 145.7 36.97 148.5 C 36.57 151.2 35.77 154.8 35.17 156.3 C 34.47 157.9 33.97 160.2 33.97 161.6 C 33.97 162.9 32.77 166.4 31.37 169.3 C 26.87 178.1 24.77 194 26.97 201.4 C 31.77 217.3 37.17 220 64.17 220 L 81.07 220 L 85.77 216.9 C 88.37 215.2 91.27 212.3 92.27 210.4 C 94.37 206.1 94.47 196.2 92.47 190.5 C 91.67 188.3 90.97 185.6 90.97 184.5 C 90.97 183.4 90.27 181.6 89.47 180.6 C 88.67 179.5 87.97 177.9 87.97 177.1 C 87.97 176.2 86.67 172.8 85.07 169.5 C 81.97 162.9 78.97 150.7 78.97 144.5 C 78.97 142.3 78.27 138 77.47 135 C 76.67 132 75.97 127.2 75.97 124.5 C 75.97 121.7 75.27 116.8 74.47 113.5 C 73.67 110.2 72.97 105 72.97 102 C 72.97 99 72.27 93.8 71.47 90.5 C 70.67 87.2 69.97 82.2 69.97 79.5 C 69.97 76.7 69.47 72.7 68.97 70.5 C 68.37 68.3 67.47 61.5 66.97 55.5 C 64.87 32.8 62.37 25 57.27 25 C 55.87 25 53.67 26.3 51.97 28.2 Z M 60.97 35.4 C 61.07 37.1 61.67 41.4 62.47 45 C 63.27 48.6 63.97 54.2 63.97 57.5 C 63.97 60.8 64.67 66.2 65.47 69.5 C 66.27 72.8 66.97 78.2 66.97 81.5 C 66.97 84.8 67.67 90.2 68.47 93.5 C 69.27 96.8 69.97 102 69.97 105 C 69.97 108 70.67 113 71.47 116 C 72.27 119 72.97 123.6 72.97 126.2 C 72.97 128.8 73.57 133.7 74.37 137.2 C 76.57 147.3 77.07 156 75.37 156.7 C 74.57 157 73.27 156.7 72.47 156 C 69.47 153.5 59.67 152.2 53.17 153.4 C 49.87 154 46.77 154.9 46.27 155.3 C 45.37 156.3 38.77 159.1 38.37 158.8 C 38.07 158.5 39.17 153.4 41.17 145 C 41.77 142.5 42.57 137.8 42.97 134.5 C 43.37 131.2 44.17 125.8 44.77 122.5 C 47.37 108.4 48.37 96.4 50.77 50.3 C 51.57 34.1 51.77 32.9 54.07 30.6 L 56.47 28.1 L 58.67 30.2 C 60.07 31.5 60.97 33.6 60.97 35.4 Z M 70.07 158.6 C 70.87 159.3 72.07 160 72.77 160 C 74.07 160 81.97 169.1 81.97 170.7 C 81.97 171.3 82.57 173.1 83.37 174.7 C 86.17 180.3 87.97 185.1 87.97 186.9 C 87.97 187.9 88.67 190.4 89.47 192.3 C 93.07 200.9 90.27 210.6 82.97 214.8 C 79.47 216.8 77.77 217 64.77 217 C 46.57 217 39.77 215.5 35.27 210.4 C 31.97 206.7 28.97 198.5 28.97 193.4 C 28.97 185.4 32.57 173.1 36.47 167.7 C 39.37 163.5 47.67 157.8 51.87 156.9 C 56.97 155.8 68.07 156.8 70.07 158.6 Z" fill="#000000" stroke="none">
    <title>51</title>
  </path>
</svg>