<svg viewBox="0 0 120 220" xmlns="http://www.w3.org/2000/svg">
  <path d="M 57.525 48.297 C 53.025 53.197 53.125 52.197 51.625 92.197 C 51.025 107.297 49.925 123.997 49.125 129.197 C 48.225 134.397 47.625 140.297 47.625 142.297 C 47.625 144.297 46.925 147.897 46.125 150.197 C 45.325 152.497 44.625 156.097 44.525 158.097 C 44.525 160.097 43.425 163.697 42.125 166.197 C 37.425 175.097 35.625 179.497 35.625 181.597 C 35.625 182.797 34.925 184.797 34.025 186.097 C 30.825 190.597 34.125 208.997 39.025 214.097 C 43.825 219.097 50.925 220.597 65.825 219.797 C 80.325 219.097 85.125 217.697 86.625 213.597 C 89.125 207.197 83.525 173.897 79.025 168.197 C 77.125 165.797 75.525 153.097 74.625 132.197 C 74.125 121.497 73.225 106.797 72.725 99.697 C 72.125 92.497 71.625 79.397 71.625 70.397 C 71.625 52.997 70.925 49.697 66.225 45.997 C 63.125 43.397 61.725 43.797 57.525 48.297 Z M 66.625 52.197 C 68.425 55.697 68.625 57.997 68.625 75.897 C 68.625 86.797 69.125 100.897 69.625 107.197 C 70.225 113.497 71.025 126.997 71.525 137.197 C 72.025 147.397 72.725 156.397 73.125 157.297 C 74.225 160.097 71.725 160.597 66.225 158.697 C 61.125 156.997 60.825 156.997 55.025 158.997 C 51.525 160.197 48.725 160.697 48.225 160.197 C 47.625 159.597 47.925 156.897 48.925 153.197 C 49.825 149.897 50.625 145.297 50.625 142.997 C 50.625 140.597 51.125 137.097 51.725 135.197 C 52.925 131.197 54.225 110.897 55.425 77.997 C 56.325 53.997 56.325 53.897 61.525 49.397 C 63.825 47.497 64.425 47.897 66.625 52.197 Z M 66.925 162.497 C 74.625 165.197 77.125 169.497 81.725 187.697 C 83.425 194.497 84.525 209.197 83.525 211.897 C 82.525 214.597 81.425 214.897 69.225 216.197 C 54.525 217.697 44.525 215.897 40.825 211.097 C 37.125 206.197 35.725 194.297 37.725 185.497 C 40.325 174.497 45.125 167.097 51.825 163.797 C 57.825 160.897 61.425 160.597 66.925 162.497 Z" fill="#000000" stroke="none">
    <title>52</title>
  </path>
</svg>