<svg viewBox="0 0 120 220" xmlns="http://www.w3.org/2000/svg">
  <path d="M 59.236 19.3 C 52.036 22.5 51.036 27.3 49.436 66 C 48.836 78.9 47.936 91.7 47.436 94.5 C 46.936 97.2 46.536 102.6 46.436 106.5 C 46.436 110.3 45.736 116.2 44.936 119.5 C 44.136 122.8 43.536 127.5 43.436 130 C 43.436 132.5 42.936 136.1 42.336 138 C 41.736 139.9 40.936 144.2 40.536 147.6 C 40.036 150.9 38.536 156.1 37.136 159.1 C 32.436 169.4 31.236 175.5 31.636 188.5 C 32.236 204.9 34.536 210.2 43.936 216.5 C 48.936 219.8 49.836 220 57.236 220 C 63.136 220 65.536 219.6 66.436 218.5 C 67.136 217.7 68.036 217 68.536 217 C 70.836 217 83.136 202.1 85.036 197 C 85.336 196.2 86.236 194.2 87.036 192.7 C 87.936 190.8 88.436 186.6 88.436 180 C 88.436 169.6 88.036 168 82.336 156.8 C 80.736 153.6 79.436 149.8 79.436 148.2 C 79.436 146.7 78.936 143.9 78.336 142 C 77.736 140.1 76.836 134.9 76.436 130.5 C 75.936 126.1 75.136 119.3 74.536 115.5 C 72.636 102.1 71.236 59.3 72.236 43.7 C 73.336 26.5 73.136 24.9 69.436 21 C 66.436 17.8 63.636 17.3 59.236 19.3 Z M 68.036 24.2 C 68.436 25.5 68.836 41.3 68.936 59.5 C 69.236 100.5 70.236 115.2 74.536 140.4 C 75.636 146.9 75.436 147.6 72.736 146.1 C 68.936 143.9 63.036 142 60.236 142 C 58.636 142 54.536 143.4 51.236 145 C 47.836 146.7 44.736 147.7 44.336 147.3 C 43.836 146.8 44.136 144.7 44.936 142.5 C 45.736 140.3 46.336 136.5 46.436 134 C 46.436 131.5 47.136 126.6 47.936 123 C 48.736 119.4 49.436 113.8 49.436 110.5 C 49.436 107.2 50.136 100.2 50.936 95 C 51.736 89.8 52.436 81.2 52.436 76 C 52.436 70.8 53.136 57.8 53.936 47.2 C 55.236 30.3 55.636 27.6 57.636 25 C 59.336 22.6 60.536 22 63.536 22 C 66.536 22 67.436 22.5 68.036 24.2 Z M 66.536 147.2 C 71.636 148.8 77.536 154.3 80.236 160.1 C 85.036 170.5 85.436 171.9 85.436 179.5 C 85.436 187 84.636 190 80.636 197.5 C 77.536 203.4 71.036 211.2 66.836 214.1 C 58.736 219.6 47.136 217.4 40.436 209 C 38.836 206.9 37.436 204.8 37.436 204.3 C 37.436 203.7 36.736 201.9 35.836 200.1 C 34.636 197.6 34.336 194.7 34.736 186.2 C 35.636 165.8 41.236 153.8 52.336 148.3 C 57.636 145.7 60.836 145.5 66.536 147.2 Z" fill="#000000" stroke="none">
    <title>53</title>
  </path>
</svg>