<svg viewBox="0 0 120 220" xmlns="http://www.w3.org/2000/svg">
  <path d="M 44.107 47.919 L 41.407 51.519 L 42.007 65.219 C 42.807 83.119 41.407 108.319 39.607 109.519 C 37.407 110.919 36.807 110.619 36.107 107.619 C 35.807 106.119 35.107 103.819 34.507 102.419 C 33.907 101.019 33.007 98.119 32.607 95.919 C 32.207 93.719 31.307 89.919 30.707 87.419 C 27.907 76.519 27.407 73.519 26.707 67.419 C 25.607 58.219 23.607 51.719 21.107 49.319 L 18.907 47.319 L 16.807 49.519 C 14.807 51.619 14.707 52.919 14.707 68.319 C 14.707 77.919 15.307 89.119 16.207 94.819 C 17.007 100.319 17.707 107.219 17.707 110.319 C 17.707 113.419 18.407 118.419 19.207 121.419 C 20.007 124.419 20.707 128.819 20.707 131.019 C 20.707 133.319 21.407 137.119 22.207 139.419 C 23.007 141.719 23.707 144.819 23.707 146.119 C 23.707 148.419 24.907 153.019 27.907 161.919 C 29.707 167.219 30.007 169.619 29.007 170.319 C 27.207 171.519 23.807 179.919 22.207 187.219 C 20.807 193.819 20.807 195.319 22.107 202.419 C 23.007 206.819 24.207 211.319 24.907 212.419 C 26.507 215.119 33.607 218.419 37.707 218.419 C 39.407 218.419 44.007 218.919 47.907 219.519 C 55.407 220.719 62.507 219.619 65.807 216.819 C 68.807 214.219 73.407 214.019 77.707 216.319 C 86.107 220.719 93.507 217.719 96.407 208.719 C 97.807 204.119 97.907 202.419 96.807 194.719 C 95.607 186.819 94.207 182.019 91.507 177.419 C 91.107 176.619 90.407 175.219 90.007 174.419 C 89.707 173.619 88.107 171.319 86.507 169.319 C 83.007 164.719 83.007 163.219 86.707 155.919 C 88.407 152.719 89.707 149.419 89.707 148.619 C 89.707 147.819 90.307 146.019 91.107 144.619 C 91.807 143.119 93.207 139.219 94.107 135.919 C 95.007 132.619 96.507 127.819 97.307 125.319 C 98.007 122.719 98.707 119.319 98.707 117.619 C 98.707 116.019 99.407 112.719 100.207 110.419 C 101.007 108.119 101.707 104.219 101.707 101.819 C 101.707 99.519 102.307 94.519 103.107 90.719 C 104.807 82.219 106.007 57.119 104.807 52.319 C 103.807 47.819 100.907 44.419 98.207 44.419 C 93.807 44.419 86.707 54.419 86.707 60.619 C 86.707 67.119 83.807 88.319 82.107 93.519 C 81.307 96.119 80.707 99.119 80.707 100.319 C 80.707 101.419 80.107 103.819 79.307 105.619 C 78.507 107.419 77.107 110.919 76.107 113.419 C 75.107 115.919 74.007 118.319 73.707 118.719 C 72.907 119.619 68.707 112.219 68.707 110.019 C 68.707 109.219 68.107 107.319 67.307 105.719 C 66.507 104.219 65.107 100.219 64.207 96.919 C 63.307 93.619 61.907 88.919 61.107 86.419 C 60.307 83.919 59.707 80.819 59.707 79.419 C 59.707 78.019 59.007 74.719 58.207 72.019 C 57.407 69.319 56.707 64.719 56.707 61.819 C 56.707 56.319 54.507 49.219 51.907 46.119 C 49.607 43.519 47.107 44.019 44.107 47.919 Z M 51.307 51.919 C 52.107 53.819 53.007 58.219 53.307 61.719 C 53.807 67.819 55.807 78.919 57.907 86.919 C 58.507 89.119 59.307 92.519 59.807 94.419 C 60.507 97.919 62.007 102.419 64.207 107.919 C 66.607 113.819 68.007 117.919 68.407 121.019 C 68.807 123.719 68.407 124.419 65.407 126.319 C 63.007 127.819 60.307 128.419 56.407 128.419 C 51.707 128.419 50.207 127.919 46.507 125.119 C 41.507 121.219 40.807 118.519 43.207 111.619 C 44.607 107.819 45.007 101.919 45.207 79.719 C 45.507 59.719 45.907 52.019 46.907 50.519 C 48.707 47.619 49.607 47.919 51.307 51.919 Z M 100.107 50.019 C 101.007 50.819 101.807 53.019 101.807 54.719 C 102.207 64.419 101.307 81.819 100.107 87.719 C 99.307 91.519 98.707 96.319 98.707 98.619 C 98.707 102.219 97.707 107.419 94.607 119.919 C 94.007 122.119 93.207 125.719 92.807 127.919 C 92.407 130.119 91.507 132.919 90.907 134.119 C 90.207 135.319 89.707 137.319 89.707 138.619 C 89.707 139.919 89.007 141.919 88.207 143.019 C 87.407 144.019 86.707 145.819 86.707 147.019 C 86.707 148.119 86.007 149.919 85.207 151.019 C 84.407 152.019 83.707 153.519 83.707 154.219 C 83.707 154.919 82.707 156.819 81.607 158.419 L 79.407 161.319 L 76.107 158.819 C 67.407 152.119 57.307 150.419 49.107 154.119 C 44.407 156.219 35.707 162.419 35.707 163.619 C 35.707 164.019 35.007 164.419 34.207 164.419 C 32.507 164.419 30.607 161.219 29.607 156.419 C 29.207 154.519 28.407 151.119 27.807 148.919 C 25.007 137.519 23.707 130.619 23.707 127.419 C 23.607 125.519 23.007 121.219 22.207 117.919 C 21.407 114.619 20.707 109.419 20.707 106.419 C 20.707 103.419 20.007 96.219 19.207 90.419 C 17.407 78.519 17.507 54.319 19.307 53.719 C 20.307 53.419 23.207 64.519 24.107 72.419 C 24.607 77.319 26.707 87.219 27.907 91.419 C 28.507 93.319 29.407 96.519 29.807 98.419 C 31.307 105.719 37.707 121.219 40.707 124.819 C 44.407 129.419 49.407 131.419 56.707 131.419 C 64.207 131.419 69.207 129.219 74.307 123.719 C 77.707 120.119 82.107 109.919 83.707 101.919 C 84.207 99.719 85.007 96.619 85.607 95.119 C 86.207 93.519 86.707 90.819 86.707 89.119 C 86.707 87.319 87.407 82.719 88.207 78.919 C 89.007 75.019 89.707 68.819 89.707 65.019 C 89.707 59.719 90.207 57.319 91.907 54.519 C 96.007 47.919 97.307 47.119 100.107 50.019 Z M 68.907 158.219 C 71.607 159.719 75.707 162.919 78.207 165.219 C 82.807 169.719 89.707 179.419 89.707 181.419 C 89.707 182.019 90.307 183.519 91.107 184.719 C 92.907 187.319 94.207 204.619 93.007 208.819 C 92.507 210.519 90.707 212.519 88.507 213.819 L 84.807 215.919 L 80.207 213.619 C 77.707 212.419 75.307 210.419 74.807 209.219 C 73.607 206.219 68.407 200.419 66.907 200.419 C 66.207 200.419 65.707 201.119 65.707 201.919 C 65.707 202.719 66.107 203.419 66.707 203.419 C 68.207 203.419 70.707 208.919 69.807 210.219 C 69.407 210.919 67.307 212.519 65.107 213.719 C 61.707 215.619 59.907 215.919 50.307 215.719 C 38.607 215.619 32.007 214.219 28.907 211.419 C 27.707 210.319 26.607 206.919 25.707 202.019 C 23.407 188.519 27.407 175.819 36.907 166.819 C 39.807 164.119 42.907 161.419 43.707 161.019 C 44.507 160.619 47.207 159.219 49.707 157.919 C 56.007 154.619 62.807 154.719 68.907 158.219 Z" fill="#000000" stroke="none">
    <title>54</title>
  </path>
</svg>