<svg viewBox="0 0 120 220" xmlns="http://www.w3.org/2000/svg">
  <path d="M 54.345 48.505 C 50.365 52.873 50.171 54.329 50.171 78.111 C 50.171 97.137 49.782 102.378 48.423 107.717 C 47.453 111.309 46.385 114.512 46.094 114.9 C 45.317 115.58 37.066 105.193 33.475 98.981 C 30.66 94.03 24.544 81.897 22.214 76.461 C 21.438 74.616 20.176 71.898 19.399 70.442 C 18.72 69.083 18.138 67.239 18.138 66.462 C 18.138 65.686 17.458 63.744 16.681 62.288 C 15.905 60.735 15.225 58.794 15.225 57.92 C 15.225 55.882 9.595 50.252 7.557 50.252 C 5.324 50.349 1.83 53.552 0.568 56.658 C -0.694 60.056 0.277 70.928 2.218 74.713 C 2.995 76.169 3.577 78.208 3.577 79.276 C 3.577 80.343 4.159 82.673 4.936 84.42 C 6.586 88.497 8.333 93.545 9.401 97.331 C 10.663 101.796 12.41 106.746 13.866 109.659 C 14.643 111.017 15.225 113.056 15.225 114.027 C 15.225 115.094 15.905 116.745 16.681 117.812 C 17.458 118.783 18.138 120.433 18.138 121.307 C 18.138 122.181 18.72 124.122 19.496 125.675 C 20.273 127.131 22.214 131.208 23.768 134.703 C 28.039 143.924 33.572 155.184 35.61 158.485 C 38.134 162.562 38.037 163.435 33.863 168.483 C 27.65 176.151 26.486 180.034 26.388 192.944 C 26.388 202.554 26.68 204.69 28.136 206.243 C 29.009 207.311 29.786 208.67 29.786 209.252 C 29.786 211.194 38.425 217.6 42.696 218.862 C 48.909 220.706 52.5 220.415 59.295 217.212 C 64.246 214.882 65.993 214.494 67.934 215.173 C 69.293 215.659 70.555 216.726 70.749 217.406 C 71.429 219.444 94.628 218.959 99.967 216.824 C 111.713 211.97 115.984 208.184 118.605 200.225 C 120.449 195.08 120.449 194.692 118.702 189.353 C 116.566 182.558 113.945 177.413 109.868 171.589 C 105.889 165.959 105.5 164.794 106.956 161.882 C 108.898 157.902 110.548 152.952 111.325 148.195 C 111.81 145.768 112.586 141.983 113.169 139.944 C 115.013 132.955 116.469 110.92 115.887 100.146 C 114.722 81.605 113.46 68.307 112.392 64.812 C 111.81 62.968 111.325 60.153 111.325 58.697 C 111.325 53.649 106.083 46.466 102.297 46.369 C 100.161 46.369 97.444 48.796 95.502 52.776 C 94.24 55.202 93.949 59.668 93.949 77.14 C 94.046 94.419 93.755 99.175 92.493 102.184 C 91.619 104.126 90.94 106.455 90.94 107.329 C 90.94 109.27 87.057 117.521 85.698 118.395 C 83.66 119.754 82.398 119.171 81.912 116.453 C 81.718 114.997 80.456 111.406 79.291 108.494 C 78.127 105.582 76.768 101.602 76.379 99.757 C 75.991 97.913 75.117 95.001 74.632 93.448 C 71.72 84.809 70.555 80.538 70.555 78.402 C 70.555 77.043 69.876 73.84 69.099 71.219 C 68.323 68.598 67.643 63.744 67.643 60.541 C 67.643 54.426 66.381 51.514 62.304 48.116 C 59.586 45.787 56.674 45.981 54.345 48.505 Z M 62.595 53.164 C 64.246 55.396 64.731 57.338 64.731 62.386 C 64.731 65.977 65.41 71.801 66.284 75.296 C 69.682 89.565 70.749 93.545 72.108 96.651 C 72.885 98.398 73.467 100.631 73.467 101.699 C 73.467 102.767 74.147 105.096 74.923 107.038 C 75.7 108.882 76.962 111.891 77.738 113.735 C 78.515 115.58 79.486 118.589 79.777 120.433 C 80.456 123.734 80.262 124.025 76.476 125.869 C 71.914 128.296 65.41 128.49 61.431 126.452 C 59.975 125.675 58.324 124.996 57.742 124.996 C 57.257 124.996 55.509 124.025 53.762 122.86 C 52.015 121.598 50.462 120.53 50.171 120.336 C 49.297 119.754 50.171 112.668 51.627 108.494 C 52.888 104.902 53.18 99.757 53.18 80.44 C 53.18 60.735 53.471 56.27 54.83 53.552 C 56.771 49.378 59.683 49.184 62.595 53.164 Z M 106.277 54.135 C 107.442 56.173 108.412 59.085 108.412 60.638 C 108.412 62.094 109.092 66.56 109.868 70.636 C 112.295 83.45 113.072 105.387 111.713 122.569 C 110.548 137.323 110.063 140.527 106.956 151.69 C 106.18 154.311 105.306 157.514 105.015 158.679 C 104.141 161.785 101.715 161.494 96.667 157.708 C 90.163 152.952 87.154 151.593 80.068 150.137 C 72.982 148.778 63.663 149.845 57.451 152.66 C 55.898 153.437 53.859 154.214 53.083 154.505 C 52.306 154.893 49.879 156.155 47.744 157.514 C 42.502 160.717 40.172 160.62 38.425 157.029 C 37.649 155.475 35.513 150.913 33.572 147.127 C 31.63 143.245 29.786 139.362 29.398 138.585 C 29.106 137.809 28.427 136.45 28.039 135.673 C 27.553 134.897 26.388 132.47 25.515 130.334 C 24.544 128.199 23.185 125.19 22.409 123.734 C 21.632 122.181 21.05 120.239 21.05 119.268 C 21.05 118.395 20.661 117.23 20.176 116.648 C 19.205 115.774 16.681 109.27 15.225 104.126 C 14.255 100.534 12.41 95.389 10.663 91.312 C 9.984 89.662 9.401 87.721 9.401 87.041 C 9.401 86.362 8.819 84.032 8.042 81.799 C 3.771 69.18 3.092 65.783 3.48 58.794 C 3.771 52.97 10.469 53.455 12.216 59.473 C 16.293 73.063 25.127 92.186 33.086 104.611 C 40.464 116.065 52.209 127.908 56.286 127.908 C 56.965 127.908 58.421 128.587 59.489 129.364 C 62.304 131.499 73.273 131.305 78.418 128.878 C 87.154 124.898 89.969 120.822 95.405 104.611 C 96.861 100.146 97.152 95.778 97.249 77.917 C 97.444 59.959 97.638 56.076 99.094 53.358 C 101.229 49.184 103.559 49.475 106.277 54.135 Z M 81.718 153.825 C 87.251 154.699 95.405 159.941 101.715 166.541 C 107.248 172.366 108.024 173.627 111.907 181.49 C 116.469 190.906 117.149 195.468 114.722 200.807 C 112.489 205.952 105.597 212.358 102.297 212.358 C 101.52 212.358 99.676 212.941 98.123 213.717 C 94.143 215.562 77.253 216.629 74.05 215.173 C 72.691 214.494 71.526 213.717 71.526 213.329 C 71.526 211.776 64.537 203.622 63.275 203.622 C 61.334 203.622 61.431 206.146 63.372 206.922 C 65.508 207.699 64.731 211.776 62.304 212.164 C 61.236 212.358 59.683 213.135 58.907 213.814 C 51.724 219.833 37.649 215.659 31.533 205.758 C 29.592 202.554 29.301 201.001 29.495 192.556 C 29.592 182.364 30.854 177.996 35.513 171.783 C 40.658 164.891 57.936 154.214 64.537 154.019 C 65.993 153.922 68.226 153.534 69.584 153.146 C 70.943 152.66 73.37 152.466 74.923 152.757 C 76.574 152.952 79.583 153.437 81.718 153.825 Z" fill="#000000" stroke="none">
    <title>55</title>
  </path>
</svg>