<svg viewBox="0 0 120 220" xmlns="http://www.w3.org/2000/svg">
  <path d="M 58.774 26.761 C 56.474 29.361 54.174 39.261 53.174 50.861 C 52.774 56.061 51.974 63.461 51.374 67.361 C 49.474 79.661 47.974 91.161 47.074 99.861 C 46.674 104.561 45.774 110.161 45.274 112.361 C 44.674 114.561 44.174 118.561 44.174 121.361 C 44.174 124.061 43.474 128.861 42.674 131.861 C 41.874 134.861 41.174 139.361 41.174 141.861 C 41.174 144.361 40.474 149.061 39.674 152.161 C 38.874 155.361 38.174 159.461 38.174 161.361 C 38.174 163.261 37.774 164.961 37.274 165.261 C 35.974 166.061 32.174 174.161 32.174 175.961 C 32.174 176.761 31.474 178.361 30.674 179.461 C 29.874 180.461 29.174 182.361 29.174 183.461 C 29.174 184.661 28.474 187.261 27.674 189.161 C 25.574 194.361 25.674 207.661 27.874 210.861 C 30.174 214.161 32.274 216.061 35.874 218.061 C 40.174 220.561 69.074 220.661 77.274 218.261 C 85.874 215.761 90.474 210.461 92.874 200.561 C 94.074 195.361 94.174 192.961 93.074 185.361 C 92.474 180.361 91.374 175.261 90.674 173.861 C 86.874 166.161 84.774 159.561 83.174 149.861 C 82.774 147.361 81.874 142.761 81.274 139.561 C 78.374 124.561 77.974 121.761 77.174 113.061 C 76.674 107.961 75.974 103.361 75.674 102.861 C 75.074 101.861 73.974 84.161 72.274 49.561 L 71.374 31.661 L 68.074 28.261 C 64.374 24.461 61.274 23.961 58.774 26.761 Z M 68.574 49.561 C 68.974 58.561 69.674 69.661 70.174 74.161 C 70.774 78.661 71.174 85.961 71.174 90.361 C 71.174 94.761 71.674 100.161 72.174 102.361 C 72.774 104.561 73.574 110.661 74.074 115.861 C 74.974 125.061 76.174 132.561 78.374 141.861 C 78.874 144.361 79.674 148.961 80.074 152.061 C 80.874 158.561 79.874 159.461 75.274 156.161 C 71.174 153.361 61.474 151.861 55.174 153.061 C 52.174 153.661 48.974 154.761 48.074 155.461 C 47.274 156.261 45.474 156.861 44.274 156.861 C 42.274 156.861 42.074 156.461 42.674 154.561 C 42.974 153.361 43.674 148.561 44.174 143.861 C 44.674 139.161 45.574 133.761 46.174 131.861 C 46.674 129.961 47.174 126.361 47.174 123.861 C 47.274 121.361 47.874 116.461 48.674 112.861 C 49.474 109.261 50.174 104.061 50.174 101.361 C 50.174 98.561 50.874 93.661 51.674 90.361 C 52.474 87.061 53.174 81.661 53.174 78.361 C 53.174 75.061 53.874 69.661 54.674 66.361 C 55.474 63.061 56.074 57.861 56.174 54.861 C 56.174 45.761 59.174 31.661 61.474 29.561 C 63.474 27.861 63.574 27.861 65.674 30.461 C 67.674 32.961 67.974 34.861 68.574 49.561 Z M 74.974 159.961 C 79.974 163.161 84.474 168.761 87.574 175.361 C 88.974 178.461 89.474 181.861 89.574 190.861 C 89.674 201.461 89.474 202.661 87.174 206.361 C 85.874 208.561 84.074 211.061 83.174 211.961 C 80.374 214.961 69.474 216.861 55.074 216.861 C 39.474 216.861 34.874 215.461 31.374 209.661 C 28.674 205.361 28.374 195.661 30.674 190.161 C 31.474 188.261 32.174 185.761 32.174 184.861 C 32.174 183.861 32.774 181.761 33.574 180.161 C 34.374 178.661 36.374 174.361 38.174 170.761 C 40.474 165.861 42.474 163.261 45.874 160.861 C 51.674 156.661 54.974 155.861 63.474 156.461 C 68.974 156.761 71.274 157.461 74.974 159.961 Z" fill="#000000" stroke="none">
    <title>61</title>
  </path>
</svg>