<svg viewBox="0 0 120 220" xmlns="http://www.w3.org/2000/svg">
  <path d="M 52.53 18.8 C 51.63 19.2 50.03 20.6 48.93 22 C 47.03 24.5 46.93 26.2 46.83 63.5 C 46.83 86.5 46.43 105.4 45.73 109.5 C 45.13 113.3 44.23 120.9 43.73 126.3 C 43.23 131.7 42.53 136.5 42.13 137.1 C 41.83 137.7 41.13 140.9 40.73 144.3 C 40.23 148.3 38.43 153.7 35.63 159.5 C 31.43 168.4 31.33 168.6 31.33 179.5 C 31.23 190.2 31.33 190.8 34.73 197.5 C 37.03 202.1 40.83 207.1 45.83 212.2 L 53.43 220 L 62.13 220 C 69.53 220 71.33 219.7 74.63 217.6 C 79.03 214.8 85.73 207.1 85.73 204.8 C 85.73 203.9 86.43 201.6 87.23 199.7 C 89.13 195 89.23 181.8 87.23 175.4 C 86.43 172.7 85.73 169.5 85.73 168.2 C 85.73 166.9 84.43 163.2 82.73 159.8 C 81.13 156.5 79.73 152.5 79.73 151 C 79.73 149.5 79.03 146.3 78.23 144 C 77.43 141.7 76.73 137.7 76.73 135.1 C 76.73 132.6 76.03 128 75.23 125 C 74.43 122 73.73 116.6 73.73 113 C 73.63 109.4 73.23 104.5 72.73 102 C 72.13 99.5 71.33 89.4 70.83 79.5 C 70.33 69.6 69.33 53.5 68.63 43.8 L 67.33 26.1 L 64.13 22.6 C 60.93 19.1 55.83 17.4 52.53 18.8 Z M 61.83 25.2 C 64.63 28.3 64.73 28.9 64.73 37.5 C 64.73 42.4 65.43 53.2 66.23 61.5 C 67.03 69.7 67.73 80.3 67.73 85 C 67.73 89.7 68.23 96.2 68.73 99.5 C 69.33 102.8 70.23 110 70.73 115.5 C 71.53 125.3 73.03 135.9 74.63 143.2 C 75.53 147.4 73.63 149.1 70.83 146.6 C 69.93 145.9 66.93 144.4 64.03 143.4 C 58.53 141.4 56.63 141.7 47.93 145.7 C 46.13 146.6 44.43 147 44.03 146.7 C 43.73 146.3 44.23 143.2 45.13 139.6 C 46.03 136 46.73 131.3 46.73 129.1 C 46.73 127 47.43 121.6 48.33 117.3 C 49.53 111.1 49.93 100.9 50.23 67.9 C 50.43 39 50.83 25.6 51.63 24.1 C 53.43 20.8 58.23 21.3 61.83 25.2 Z M 65.93 147.9 C 68.33 148.9 71.73 151.1 73.43 152.6 C 77.03 155.9 82.73 166.7 82.73 170.2 C 82.83 171.5 83.43 175.2 84.23 178.5 C 85.03 181.8 85.73 186.5 85.73 189 C 85.73 193.9 82.83 204.3 80.93 206.2 C 80.23 206.9 79.73 207.9 79.73 208.5 C 79.73 209.8 77.43 211.8 72.63 214.8 C 69.83 216.5 67.43 217 62.63 217 C 54.43 217 52.63 215.8 43.93 205.6 C 42.63 204.1 40.03 199.9 38.03 196.2 C 34.63 189.9 34.43 189 34.33 180.3 C 34.33 171.6 35.53 166.5 38.83 161 C 39.33 160.2 40.13 158.5 40.63 157.4 C 41.83 154.6 49.33 148.6 53.23 147.2 C 57.73 145.6 61.13 145.8 65.93 147.9 Z" fill="#000000" stroke="none">
    <title>63</title>
  </path>
</svg>