<svg viewBox="0 0 120 220" xmlns="http://www.w3.org/2000/svg">
  <path d="M 18.97 45.829 C 18.27 46.129 16.87 48.029 15.77 50.229 C 13.27 55.029 13.07 65.829 15.27 78.129 C 16.07 82.829 16.77 88.829 16.77 91.629 C 16.77 94.329 17.47 99.129 18.27 102.129 C 19.07 105.129 19.77 108.929 19.77 110.529 C 19.77 112.129 20.37 115.729 21.17 118.529 C 22.67 123.829 24.27 130.129 25.77 136.129 C 27.07 141.629 30.67 150.829 35.37 160.529 C 37.17 164.329 37.17 164.629 34.57 167.729 C 27.27 176.029 22.77 188.629 22.77 200.429 C 22.77 211.129 24.67 215.329 30.37 217.129 C 34.57 218.529 42.07 217.629 43.77 215.629 C 45.17 213.929 50.37 213.629 51.27 215.029 C 51.57 215.629 53.77 217.029 56.17 218.129 C 59.97 220.029 61.57 220.229 69.87 219.829 C 94.07 218.429 97.77 215.229 97.77 195.729 C 97.77 183.929 97.37 182.229 92.57 172.929 C 90.57 169.029 90.87 164.629 93.57 156.629 C 95.27 151.629 96.77 144.929 97.77 138.129 C 98.27 134.529 99.17 130.329 99.67 128.729 C 100.27 127.229 100.77 123.629 100.77 120.829 C 100.77 117.929 101.27 113.829 101.87 111.629 C 102.37 109.429 103.27 100.629 103.77 92.129 C 104.27 83.629 105.17 72.429 105.67 67.329 C 106.57 59.429 106.47 57.529 105.07 53.829 C 104.17 51.529 102.97 49.329 102.47 49.029 C 101.07 48.029 97.77 49.229 97.77 50.629 C 97.77 51.329 97.07 52.429 96.27 53.129 C 95.37 53.829 94.77 56.029 94.77 58.329 C 94.77 60.529 94.17 65.029 93.37 68.429 C 91.67 75.629 89.97 83.729 88.87 90.129 C 88.47 92.629 87.57 95.629 86.97 96.829 C 86.27 98.029 85.77 99.829 85.77 100.929 C 85.77 103.629 81.87 112.329 80.87 111.629 C 80.37 111.429 79.77 109.229 79.47 106.929 C 79.17 104.529 78.37 99.929 77.77 96.629 C 77.17 93.129 76.77 82.129 76.97 70.029 C 77.27 50.829 77.17 49.229 75.37 47.229 C 74.27 46.029 72.37 45.129 71.17 45.129 C 66.67 45.129 64.57 51.029 61.87 71.129 C 61.47 74.729 60.57 79.229 59.97 81.129 C 59.37 83.029 58.47 86.629 57.77 89.129 C 55.17 99.729 54.67 101.329 53.87 102.929 C 52.97 104.829 51.07 110.129 49.67 114.829 C 49.07 116.629 48.37 118.129 47.97 118.129 C 44.87 118.029 42.27 112.429 38.87 98.629 C 35.47 84.629 34.77 80.529 34.67 74.429 C 34.67 68.429 34.17 65.029 32.07 54.929 C 31.77 53.429 29.77 50.529 27.67 48.629 C 23.97 45.329 21.87 44.629 18.97 45.829 Z M 26.27 51.829 C 28.97 55.929 30.67 63.629 31.37 74.629 C 31.67 80.129 32.37 86.029 32.87 87.729 C 33.47 89.529 34.27 93.129 34.77 95.729 C 37.67 111.729 43.57 123.729 50.27 127.829 C 60.57 134.029 70.77 133.129 78.47 125.329 C 80.87 122.929 82.77 120.229 82.77 119.429 C 82.77 118.629 83.37 116.729 84.17 115.329 C 86.27 111.129 88.37 104.729 90.77 95.129 C 91.47 92.629 92.57 88.629 93.37 86.129 C 94.17 83.629 94.77 80.229 94.77 78.629 C 94.77 76.929 95.27 74.029 95.87 72.129 C 96.37 70.229 97.17 65.729 97.57 62.129 C 98.17 56.529 98.57 55.629 100.27 55.629 C 102.07 55.629 102.27 56.229 102.17 61.629 C 102.07 73.029 99.77 104.629 98.77 108.629 C 98.27 110.829 97.77 114.929 97.77 117.729 C 97.77 120.529 97.07 125.029 96.27 127.729 C 95.47 130.429 94.77 134.229 94.77 136.129 C 94.77 138.029 94.17 141.629 93.37 144.129 C 91.77 149.229 89.97 156.029 88.97 160.929 C 88.57 162.729 87.97 164.329 87.57 164.429 C 87.17 164.529 84.57 162.929 81.87 160.829 C 79.07 158.829 76.47 157.129 76.17 157.129 C 75.77 157.129 74.67 156.529 73.87 155.829 C 72.97 155.029 69.67 153.829 66.47 153.129 C 59.37 151.529 52.57 152.829 45.97 157.229 C 43.57 158.829 41.07 160.129 40.27 160.129 C 38.97 160.129 36.37 155.929 34.77 151.129 C 34.27 149.729 32.97 146.129 31.77 143.129 C 30.57 140.129 29.17 136.029 28.77 134.129 C 27.27 128.029 25.67 121.829 24.17 116.529 C 23.37 113.729 22.77 109.929 22.77 108.029 C 22.77 106.129 22.27 103.029 21.67 101.129 C 21.07 99.229 20.27 93.329 19.77 88.129 C 19.37 82.929 18.37 73.829 17.67 67.929 C 16.47 58.129 16.57 57.029 18.27 53.229 C 20.47 48.229 23.57 47.729 26.27 51.829 Z M 73.87 74.629 C 74.37 97.329 75.17 106.129 77.77 116.029 C 79.07 120.929 75.67 125.329 68.67 127.529 C 64.27 129.029 62.87 129.029 58.67 128.029 C 55.97 127.329 52.77 125.729 51.67 124.529 C 49.77 122.429 49.67 122.029 51.07 119.429 C 53.77 114.229 55.77 109.029 55.77 107.329 C 55.77 106.329 56.47 104.629 57.27 103.529 C 58.07 102.529 58.77 100.829 58.77 99.729 C 58.77 98.729 59.37 95.829 60.17 93.229 C 63.47 82.829 64.77 77.229 64.77 74.029 C 64.77 72.129 65.47 68.129 66.27 65.129 C 67.07 62.129 67.77 57.829 67.77 55.529 C 67.77 51.229 69.27 48.929 71.77 49.329 C 73.07 49.629 73.37 53.429 73.87 74.629 Z M 67.17 156.829 C 75.97 158.529 89.17 171.229 92.57 181.329 C 95.07 188.529 95.67 203.629 93.67 207.429 C 91.67 211.329 88.47 214.129 86.17 214.129 C 84.87 214.129 81.27 214.829 78.07 215.629 C 68.67 218.129 62.67 217.629 55.77 213.929 C 52.27 211.929 49.77 209.929 49.77 209.029 C 49.77 208.129 51.07 205.929 52.67 204.029 C 54.27 202.229 55.37 200.329 55.17 199.929 C 54.47 198.829 46.77 204.929 46.77 206.429 C 46.77 207.029 45.37 209.029 43.57 210.829 C 40.77 213.729 39.77 214.129 35.17 214.129 C 30.27 214.129 29.77 213.929 27.87 210.729 C 25.37 206.729 25.07 195.829 27.27 189.629 C 28.07 187.429 28.77 185.129 28.77 184.429 C 28.77 182.429 35.47 171.829 39.47 167.529 C 47.07 159.329 55.77 154.729 61.67 155.829 C 62.97 156.029 65.37 156.529 67.17 156.829 Z" fill="#000000" stroke="none">
    <title>64</title>
  </path>
</svg>