<svg viewBox="0 0 120 220" xmlns="http://www.w3.org/2000/svg">
  <path d="M 11.891 48.535 C 9.064 51.654 6.53 60.133 5.653 68.808 C 5.36 72.025 4.776 76.8 4.288 79.53 C 2.729 87.813 3.021 127.385 4.678 133.622 C 5.458 136.546 6.14 140.25 6.14 141.809 C 6.14 144.343 7.407 149.216 10.234 157.501 C 12.476 163.934 12.281 166.272 9.162 170.854 C 2.534 180.698 0.098 187.032 0 194.635 C 0 199.801 0.487 202.432 1.754 204.48 C 4.288 208.475 8.284 212.569 9.648 212.569 C 10.234 212.569 11.305 213.251 11.988 214.03 C 12.67 214.811 14.034 215.493 15.107 215.493 C 16.082 215.493 18.226 216.176 19.688 216.954 C 21.443 217.831 26.998 218.612 34.015 219.002 C 45.613 219.683 45.613 219.683 48.732 217.052 C 51.949 214.323 55.554 214.323 58.771 216.954 C 62.085 219.781 68.128 220.755 74.17 219.39 C 85.672 216.954 93.859 206.233 93.859 193.758 C 93.859 184.304 90.057 173.389 84.892 167.637 C 83.332 165.981 82.162 163.739 82.26 162.569 C 82.26 161.4 84.014 157.306 86.159 153.602 C 88.205 149.801 90.252 146.097 90.545 145.319 C 90.837 144.538 92.493 141.029 94.053 137.522 C 95.612 134.012 97.562 129.626 98.439 127.774 C 99.219 125.923 100.486 123.095 101.265 121.635 C 102.046 120.075 102.631 118.125 102.631 117.151 C 102.631 116.273 103.215 114.714 103.996 113.642 C 104.676 112.57 105.555 110.621 105.847 109.256 C 106.432 106.527 108.089 101.556 109.941 97.073 C 111.012 94.344 111.792 91.908 115.983 77.58 C 116.763 74.851 117.835 71.343 118.42 69.784 C 120.661 63.35 120.563 58.672 117.835 54.676 C 115.009 50.29 112.084 49.12 108.868 50.874 C 106.724 51.947 103.605 57.307 102.338 61.986 C 99.707 71.732 87.718 96.975 83.624 101.459 C 82.845 102.336 82.162 103.408 82.162 103.799 C 82.162 104.481 78.264 109.938 75.341 113.447 C 74.074 115.006 71.442 112.862 71.052 109.938 C 68.809 94.831 68.323 87.619 68.225 70.66 C 68.031 51.167 68.031 51.069 65.595 48.535 C 62.572 45.319 59.063 45.222 55.554 48.341 C 52.631 50.874 51.656 54.676 49.999 68.808 C 49.123 76.605 47.856 82.746 45.906 88.301 C 45.419 89.861 44.541 92.785 44.152 94.637 C 43.177 99.023 41.422 104.09 39.668 107.6 C 38.888 109.159 38.303 111.011 38.303 111.79 C 38.303 114.13 35.477 119.002 34.113 119.002 C 33.041 119.002 32.261 117.54 28.557 108.769 C 27.874 107.111 26.998 103.896 26.511 101.459 C 26.12 99.023 25.341 94.344 24.755 90.933 C 24.074 87.425 23.781 77.58 23.879 68.321 L 24.171 51.85 L 21.345 48.926 C 17.739 45.222 15.009 45.124 11.891 48.535 Z M 21.053 73.584 C 21.345 93.856 22.319 101.556 25.438 109.744 C 30.02 121.926 32.65 125.045 40.935 128.749 C 46.198 131.088 55.36 131.381 59.454 129.334 C 60.915 128.554 62.864 127.58 63.645 127.287 C 68.713 125.337 81.383 113.252 82.65 109.159 C 83.04 108.185 83.722 107.307 84.209 107.307 C 84.697 107.307 85.088 106.918 85.088 106.429 C 85.088 105.844 86.257 103.603 87.816 101.264 C 93.176 92.687 94.834 89.47 100.974 75.144 C 101.753 73.292 103.117 70.075 103.996 68.028 C 104.872 65.982 105.555 63.74 105.555 62.96 C 105.555 60.524 108.965 54.676 110.72 54.091 C 112.864 53.409 114.716 54.871 116.275 58.574 C 117.25 60.914 117.153 62.279 115.983 66.08 C 115.203 68.71 113.742 73.389 112.864 76.605 C 111.986 79.822 110.72 83.525 110.232 84.89 C 109.648 86.254 108.868 88.886 108.478 90.737 C 107.991 92.589 106.724 96.587 105.555 99.509 C 104.384 102.434 103.117 106.333 102.631 108.185 C 102.143 109.938 101.363 111.888 100.779 112.473 C 100.194 113.057 99.707 114.325 99.707 115.201 C 99.707 116.175 99.122 118.125 98.343 119.685 C 97.66 121.147 96.295 124.168 95.321 126.312 C 94.443 128.456 93.078 131.478 92.3 132.94 C 91.519 134.499 90.934 136.255 90.934 137.033 C 90.934 137.716 90.252 138.788 89.472 139.469 C 88.693 140.152 88.01 141.419 88.01 142.395 C 88.01 143.369 87.329 144.636 86.548 145.319 C 85.769 146.001 85.088 147.268 85.088 148.241 C 85.088 149.216 84.405 150.483 83.624 151.166 C 82.845 151.848 82.162 153.115 82.162 153.993 C 82.066 157.989 75.633 161.789 73.878 158.866 C 73.488 158.378 72.222 157.501 71.149 156.917 C 69.98 156.429 68.323 155.65 67.542 155.162 C 62.378 152.141 52.241 149.412 45.419 149.314 C 40.837 149.216 31.968 151.264 28.46 153.31 C 25.244 155.065 18.421 160.229 18.031 161.108 C 16.179 165.396 10.916 152.433 9.064 138.983 C 8.674 135.766 7.797 130.796 7.212 127.871 C 5.945 121.537 5.945 90.446 7.212 82.941 C 7.7 80.017 8.479 74.071 8.967 69.784 C 9.941 60.133 11.696 53.896 14.23 50.972 L 16.276 48.828 L 18.421 50.874 C 20.565 52.921 20.662 53.604 21.053 73.584 Z M 64.716 74.753 C 65.106 87.619 65.788 99.607 66.471 101.459 C 67.056 103.311 67.542 106.333 67.542 108.087 C 67.542 109.84 68.225 112.57 69.005 114.228 C 70.369 116.761 70.369 117.347 69.102 119.1 C 67.738 121.049 65.008 123.095 61.695 124.363 C 60.915 124.752 59.063 125.63 57.602 126.41 C 53.995 128.36 47.661 128.067 42.592 125.826 C 37.914 123.681 37.329 122.024 39.668 117.347 C 40.935 114.812 41.812 112.57 45.127 103.408 C 45.711 101.556 46.687 98.438 47.075 96.587 C 47.465 94.734 48.342 91.81 48.83 90.251 C 50.487 85.28 52.241 77.872 53.021 71.732 C 55.166 55.358 55.847 52.532 58.089 50.777 C 59.942 49.217 60.526 49.12 62.182 50.193 C 64.035 51.46 64.132 52.921 64.716 74.753 Z M 54.873 153.896 C 57.309 154.382 60.33 155.259 61.695 156.039 C 63.06 156.722 64.814 157.695 65.595 158.086 C 66.373 158.574 68.809 159.841 70.955 160.912 C 75.73 163.446 80.993 168.028 84.405 172.706 C 87.231 176.507 90.837 188.495 90.934 194.149 C 90.934 199.704 86.743 207.988 81.871 211.983 C 75.535 217.15 66.764 217.831 59.746 213.641 C 58.966 213.154 57.309 212.374 56.14 211.983 C 53.995 211.107 53.995 210.911 55.36 208.281 C 57.114 204.966 57.211 203.797 55.75 203.797 C 54.581 203.797 49.999 208.281 49.999 209.45 C 49.901 209.84 48.83 211.399 47.563 213.057 L 45.127 215.98 L 35.184 215.687 C 21.443 215.297 14.034 212.763 7.895 206.429 C 3.314 201.847 3.217 201.556 3.217 195.609 C 3.217 183.72 12.67 168.222 25.438 159.158 C 27.096 157.989 28.849 157.015 29.337 157.015 C 29.727 157.015 30.701 156.429 31.287 155.748 C 34.406 152.726 44.346 151.946 54.873 153.896 Z" fill="#000000" stroke="none">
    <title>65</title>
  </path>
</svg>