<svg viewBox="0 0 120 220" xmlns="http://www.w3.org/2000/svg">
  <path d="M 44.85 1.404 C 40.45 3.304 39.05 7.504 39.85 15.804 C 40.25 19.504 40.95 27.704 41.35 34.004 C 42.45 48.804 44.35 61.004 46.05 63.504 C 46.95 64.704 47.45 68.504 47.45 74.004 C 47.45 78.704 47.95 85.404 48.45 89.004 C 49.05 92.604 49.95 100.004 50.35 105.504 C 51.25 115.204 52.45 122.604 54.65 132.004 C 55.25 134.504 56.05 138.104 56.55 140.004 C 58.25 147.604 60.85 153.204 64.65 157.404 C 68.95 162.404 71.45 163.604 74.35 162.104 C 77.25 160.504 77.75 156.204 75.85 148.504 C 74.45 142.704 74.15 136.104 74.15 109.504 C 74.15 78.104 74.25 77.304 76.85 66.504 C 79.25 57.104 79.65 52.604 80.15 35.404 C 80.45 24.304 80.45 14.104 80.05 12.704 C 79.15 9.104 74.15 4.404 68.75 2.004 C 63.35 -0.396 49.75 -0.696 44.85 1.404 Z M 67.65 5.004 C 70.15 6.104 73.45 8.604 74.95 10.604 L 77.75 14.304 L 77.05 33.904 C 76.65 44.704 75.85 56.004 75.15 59.004 C 73.75 65.404 70.55 70.404 66.45 72.504 C 63.95 73.804 63.15 73.804 60.15 72.504 C 56.25 70.904 48.65 62.804 48.05 59.604 C 45.85 48.104 44.45 37.204 44.45 31.604 C 44.45 27.904 43.95 21.804 43.35 18.004 C 41.65 6.504 44.65 3.004 56.55 3.004 C 61.05 3.004 64.65 3.604 67.65 5.004 Z M 56.85 74.604 C 61.45 77.204 63.35 77.304 69.25 75.504 L 71.45 74.804 L 70.85 99.104 C 70.35 121.104 71.05 138.704 73.05 153.604 C 73.55 156.904 73.25 157.804 71.85 158.404 C 69.05 159.504 63.75 152.404 61.25 144.004 C 57.45 131.504 56.45 127.204 56.45 124.404 C 56.45 122.804 55.95 119.904 55.35 118.004 C 54.75 116.104 53.95 109.804 53.45 104.004 C 53.05 98.204 52.15 89.104 51.45 83.704 C 50.45 75.304 50.65 72.004 51.85 72.004 C 52.05 72.004 54.25 73.204 56.85 74.604 Z" fill="#000000" stroke="none">
    <title>71</title>
  </path>
</svg>