<svg viewBox="0 0 120 220" xmlns="http://www.w3.org/2000/svg">
  <path d="M 37.718 1.8 C 34.918 4.9 35.618 30.2 39.018 46 C 41.618 58.4 45.018 84.6 45.018 93.1 C 45.018 96.1 45.518 100.3 46.118 102.5 C 46.618 104.7 47.518 109.9 47.918 114 C 48.918 122.5 50.618 131.8 52.318 137 C 52.918 138.9 53.718 142.3 54.118 144.5 C 55.618 152.9 59.318 160.9 63.618 165.1 C 66.218 167.6 67.418 168.1 70.618 167.8 C 74.218 167.5 74.518 167.2 75.018 164 C 75.318 162.1 75.318 153.1 74.918 144 C 74.118 125.8 75.418 87.8 76.918 81.5 C 77.518 79.3 78.018 75.3 78.018 72.7 C 78.018 70 78.618 66.4 79.418 64.7 C 81.518 60.2 84.018 38.9 84.018 26.2 C 84.018 17.7 83.618 14.8 82.018 11.5 C 77.518 2.3 71.718 0 52.618 0 C 41.018 0 39.118 0.2 37.718 1.8 Z M 66.118 4 C 72.618 5.2 75.618 7.3 78.718 12.6 C 81.518 17.5 81.718 28.8 79.418 46.5 C 77.318 62.8 77.418 62.4 74.018 65.7 C 66.918 72.7 57.518 72.2 49.918 64.4 C 47.718 62.1 45.518 58.7 45.018 56.9 C 44.618 55 43.718 52.1 43.218 50.5 C 40.218 41.9 38.018 7 40.118 4.3 C 41.518 2.7 58.118 2.5 66.118 4 Z M 52.018 70.5 C 52.818 71.2 55.618 72.5 58.218 73.5 C 62.718 75.2 63.118 75.2 68.018 73.4 C 75.118 70.9 75.618 71.7 73.418 82.1 C 71.918 89.2 71.618 96.2 71.618 127.5 C 71.518 160.8 71.318 164.5 69.918 164.8 C 67.918 165.2 61.118 157.6 60.418 154 C 60.118 152.6 59.218 150.1 58.418 148.3 C 57.618 146.6 57.018 144.3 57.018 143.2 C 57.018 142 56.518 139.9 55.918 138.3 C 55.318 136.8 54.418 133 54.018 130 C 53.618 127 52.718 122 52.218 119 C 50.018 108 48.918 99.3 48.018 88 C 47.618 81.7 46.918 74.6 46.518 72.3 C 45.818 68.3 45.918 68.1 48.118 68.7 C 49.418 69 51.218 69.8 52.018 70.5 Z" fill="#000000" stroke="none">
    <title>72</title>
  </path>
</svg>