<svg viewBox="0 0 120 220" xmlns="http://www.w3.org/2000/svg">
  <path d="M 51.218 1.904 C 46.718 4.404 43.518 7.504 39.818 12.904 C 35.418 19.104 33.118 23.904 33.118 26.504 C 33.118 27.804 32.718 29.904 32.118 31.304 C 28.718 40.304 30.318 57.304 35.818 70.404 C 38.118 75.904 38.418 78.204 39.218 98.904 C 39.718 111.304 40.518 123.604 41.018 126.404 C 41.518 129.104 42.018 134.304 42.118 137.904 C 42.118 141.504 42.818 147.104 43.618 150.404 C 44.418 153.704 45.018 158.504 45.118 161.004 C 45.118 163.504 45.818 167.804 46.618 170.504 C 47.418 173.204 48.118 177.004 48.118 178.904 C 48.118 184.104 51.418 193.704 54.518 197.504 C 56.718 200.304 57.918 200.904 61.118 200.904 C 64.418 200.904 65.218 200.404 67.018 197.504 C 68.918 194.504 69.118 192.604 69.118 179.804 C 69.118 171.904 69.618 161.304 70.118 156.404 C 70.718 151.404 71.618 140.904 72.118 132.904 C 72.618 124.904 73.518 116.604 74.118 114.404 C 74.618 112.204 75.118 107.704 75.118 104.404 C 75.118 101.104 75.818 95.704 76.618 92.404 C 77.418 89.104 78.118 84.404 78.118 81.904 C 78.218 79.004 79.018 76.004 80.618 73.404 C 82.018 71.204 83.318 68.704 83.718 67.904 C 84.018 67.104 84.818 65.004 85.618 63.404 C 86.718 60.804 87.618 56.304 89.618 42.904 C 89.818 41.504 89.318 37.504 88.418 34.004 C 84.518 18.104 67.718 -0.296 57.218 0.004 C 55.818 0.004 53.118 0.904 51.218 1.904 Z M 62.518 4.804 C 70.318 8.404 81.718 22.904 84.818 33.204 C 85.818 36.804 86.118 40.304 85.718 44.404 C 84.618 55.104 83.518 60.904 82.318 62.104 C 81.618 62.804 81.118 63.904 81.118 64.704 C 81.118 65.504 79.818 68.104 78.118 70.604 C 76.518 73.004 75.118 75.204 75.118 75.504 C 75.118 77.004 66.818 86.704 64.318 88.104 C 60.118 90.604 57.018 90.304 52.418 87.004 C 48.618 84.304 43.218 78.004 41.818 74.904 C 41.418 74.104 40.718 72.704 40.318 71.904 C 36.218 64.804 35.318 61.004 34.418 48.404 C 33.618 35.804 35.518 27.004 41.818 15.604 C 43.918 11.704 48.518 7.204 52.618 5.104 C 57.618 2.504 57.318 2.504 62.518 4.804 Z M 45.918 85.904 C 46.518 87.004 48.918 89.004 51.118 90.404 C 55.718 93.304 63.118 93.804 65.118 91.404 C 65.818 90.604 66.718 89.904 67.218 89.904 C 67.618 89.904 69.218 88.704 70.818 87.304 C 74.118 84.304 74.718 85.304 73.218 91.404 C 72.618 93.804 72.118 98.204 72.118 101.104 C 72.118 104.004 71.418 109.904 70.618 114.204 C 69.818 118.504 69.118 125.104 69.118 128.704 C 69.118 132.404 68.418 140.804 67.618 147.404 C 66.818 153.904 66.118 166.704 66.118 175.704 C 66.118 193.304 65.118 197.904 61.118 197.904 C 56.518 197.904 52.918 190.204 51.118 176.404 C 50.718 172.504 49.818 168.104 49.218 166.604 C 48.618 165.004 48.118 161.704 48.118 159.104 C 48.118 156.504 47.618 152.604 47.118 150.404 C 46.518 148.204 45.618 141.204 45.118 134.904 C 44.618 128.604 43.718 120.204 43.118 116.404 C 41.718 105.804 41.818 83.904 43.418 83.904 C 44.118 83.904 45.218 84.804 45.918 85.904 Z" fill="#000000" stroke="none">
    <title>73</title>
  </path>
</svg>