<svg viewBox="0 0 120 220" xmlns="http://www.w3.org/2000/svg">
  <path d="M 30.399 2.506 C 28.299 3.806 25.899 6.106 24.899 7.606 C 22.299 11.506 19.599 19.806 19.599 23.706 C 19.599 27.806 22.299 40.306 24.099 44.406 C 27.599 52.206 29.399 55.706 31.999 59.706 C 34.699 63.606 34.799 64.006 33.199 65.706 C 32.299 66.706 31.599 68.306 31.599 69.206 C 31.599 70.106 31.199 71.006 30.799 71.306 C 29.999 71.806 18.699 94.406 15.199 102.406 C 7.599 119.606 5.699 132.306 9.599 138.706 C 12.999 144.306 16.799 142.806 23.699 133.206 C 26.699 129.106 31.699 122.206 34.899 117.806 C 37.999 113.506 40.599 109.606 40.599 109.306 C 40.599 108.506 46.399 100.906 48.999 98.406 C 54.899 92.606 64.499 91.206 71.299 95.106 C 78.199 99.006 85.599 108.806 85.599 114.006 C 85.599 115.106 86.099 117.006 86.699 118.106 C 87.399 119.306 88.199 122.806 88.699 125.806 C 89.099 128.906 89.899 133.206 90.499 135.406 C 90.999 137.606 92.299 143.006 93.199 147.406 C 95.299 156.906 97.699 161.506 101.199 162.306 C 104.999 163.306 107.599 161.006 110.499 153.906 C 112.699 148.606 112.999 130.606 111.199 122.506 C 110.299 118.806 109.599 114.306 109.599 112.506 C 109.599 110.606 108.899 107.206 108.099 104.906 C 107.299 102.606 106.599 99.306 106.599 97.706 C 106.599 96.106 106.099 93.806 105.399 92.606 C 104.799 91.406 103.899 88.606 103.499 86.406 C 103.099 84.206 102.299 80.906 101.699 79.106 C 101.099 77.406 100.099 74.406 99.499 72.606 C 97.199 66.106 97.299 64.406 100.299 59.806 C 104.099 54.006 105.599 49.806 106.799 41.906 C 108.199 32.506 107.299 15.606 105.099 12.106 C 100.399 4.806 94.499 0.906 88.199 0.906 C 83.999 1.006 76.199 3.106 74.199 4.806 C 72.199 6.506 63.099 6.606 61.099 4.906 C 56.599 1.106 52.099 -0.094 43.099 0.006 C 35.299 0.006 33.599 0.306 30.399 2.506 Z M 56.399 6.006 C 59.499 7.706 63.099 10.306 64.299 11.706 C 65.499 13.106 66.599 14.106 66.799 13.906 C 66.999 13.606 67.599 12.506 68.199 11.406 C 68.799 10.306 70.699 9.206 72.399 8.806 C 74.199 8.406 76.199 7.706 76.799 7.206 C 77.499 6.706 80.399 5.706 83.099 5.106 C 87.299 4.006 88.899 4.106 92.299 5.306 C 96.599 6.806 100.599 9.706 100.599 11.306 C 100.599 11.806 101.399 13.106 102.399 14.206 C 104.899 17.006 104.599 42.106 101.999 49.406 C 98.499 58.806 89.899 67.606 80.599 71.406 C 79.799 71.806 77.599 72.706 75.799 73.506 C 73.999 74.306 69.399 74.906 65.499 74.906 C 59.699 74.906 57.499 74.406 51.999 71.706 C 45.299 68.406 37.499 61.706 33.999 56.406 C 30.799 51.306 29.699 49.506 29.099 47.906 C 26.799 42.606 25.599 38.506 24.099 31.706 C 22.399 24.206 22.399 23.806 24.499 17.206 C 25.699 13.506 27.199 9.606 27.999 8.606 C 30.899 4.806 35.799 3.006 43.399 3.006 C 49.699 2.906 51.499 3.306 56.399 6.006 Z M 41.199 69.006 C 42.199 70.206 43.999 71.506 45.099 72.006 C 46.199 72.506 47.799 73.306 48.599 73.806 C 56.199 78.206 69.999 79.406 77.299 76.306 C 83.999 73.406 88.999 70.906 91.299 69.306 C 93.399 67.806 93.599 67.906 95.599 71.106 C 96.699 72.906 97.599 75.306 97.599 76.406 C 97.599 77.406 98.199 80.106 98.999 82.406 C 100.899 87.906 102.599 94.506 103.499 99.906 C 103.999 102.406 104.799 106.406 105.399 108.906 C 107.399 117.206 109.599 134.406 109.599 140.906 C 109.499 148.506 105.999 158.206 103.199 158.706 C 102.199 158.906 100.699 158.106 99.799 156.706 C 98.099 154.406 97.799 153.206 95.599 142.406 C 94.999 139.106 93.799 134.106 92.999 131.306 C 92.199 128.506 91.599 125.206 91.599 123.906 C 91.599 120.906 88.899 111.506 86.499 106.206 C 84.099 101.206 77.899 94.806 72.499 92.006 C 66.699 88.906 56.799 89.106 51.799 92.306 C 48.299 94.506 40.599 102.106 40.599 103.406 C 40.599 103.706 38.499 106.906 35.899 110.406 C 33.199 114.006 29.099 119.806 26.599 123.406 C 24.099 127.006 21.299 131.006 20.199 132.206 C 19.199 133.406 17.799 135.206 17.099 136.206 C 16.199 137.506 15.099 137.906 13.799 137.506 C 8.499 135.806 10.099 123.406 17.999 104.406 C 20.199 99.406 34.899 69.506 35.899 68.106 C 37.299 66.306 38.999 66.606 41.199 69.006 Z" fill="#000000" stroke="none">
    <title>74</title>
  </path>
</svg>