<svg viewBox="0 0 120 220" xmlns="http://www.w3.org/2000/svg">
  <path d="M 16.909 2.095 C 10.309 4.495 9.409 5.195 6.009 10.395 C 3.609 14.195 3.409 15.095 3.509 26.895 C 3.609 40.795 5.209 47.495 11.109 57.895 C 11.509 58.695 12.309 60.295 12.809 61.395 C 13.309 62.495 14.909 65.095 16.309 67.195 C 19.209 71.495 19.609 74.095 17.409 75.895 C 16.609 76.595 15.909 77.895 15.909 78.795 C 15.909 79.795 15.209 81.395 14.409 82.495 C 13.609 83.495 12.909 85.295 12.909 86.395 C 12.909 87.495 12.209 89.295 11.409 90.295 C 10.609 91.395 9.909 93.095 9.909 94.195 C 9.909 95.295 9.209 98.195 8.409 100.795 C 5.209 111.195 3.609 125.195 4.209 138.495 C 4.509 145.595 5.409 153.195 6.109 155.395 C 8.809 163.795 13.109 167.095 18.109 164.895 C 20.809 163.595 24.909 157.695 24.909 154.995 C 24.909 153.995 25.609 151.195 26.409 148.895 C 27.209 146.595 27.909 143.495 27.909 141.995 C 27.909 139.395 30.109 131.895 32.409 126.395 C 36.909 116.095 39.109 112.695 45.509 105.895 L 52.709 98.395 L 59.609 98.395 C 65.809 98.395 66.809 98.695 71.009 101.895 C 76.109 105.795 82.009 113.195 84.509 118.895 C 84.809 119.695 86.309 123.095 87.809 126.395 C 91.309 133.895 92.909 138.395 93.809 142.895 C 94.209 144.795 95.109 147.395 95.709 148.595 C 96.409 149.795 96.909 151.795 96.909 153.095 C 96.909 158.095 100.709 166.395 104.509 169.695 C 110.609 174.895 113.909 173.595 115.809 165.295 C 116.709 161.595 116.709 158.095 116.009 151.895 C 115.409 147.195 114.909 140.695 114.909 137.295 C 114.909 133.995 114.209 128.995 113.409 126.295 C 112.609 123.595 111.909 119.995 111.909 118.395 C 111.809 116.695 111.209 114.295 110.409 112.895 C 109.609 111.495 108.909 109.295 108.909 107.895 C 108.909 106.495 108.209 104.495 107.409 103.495 C 106.609 102.395 105.909 100.695 105.909 99.795 C 105.909 98.795 105.209 96.795 104.409 95.195 C 103.709 93.695 102.009 90.395 100.909 87.895 C 97.909 81.695 96.309 78.895 95.009 77.595 C 93.209 75.795 93.809 72.895 96.509 70.395 C 98.009 68.995 99.909 66.695 100.709 65.195 C 102.909 60.995 105.809 46.295 105.909 38.795 C 105.909 31.195 103.509 18.995 101.109 14.095 C 99.209 10.395 90.709 3.495 86.909 2.595 C 85.509 2.295 82.509 1.395 80.109 0.695 C 76.209 -0.405 75.209 -0.305 68.109 2.295 C 57.309 6.195 56.409 6.295 52.809 4.495 C 51.009 3.595 48.609 2.895 47.409 2.895 C 46.209 2.895 43.209 2.195 40.909 1.395 C 34.909 -0.705 23.709 -0.405 16.909 2.095 Z M 40.409 4.495 C 44.309 5.395 49.709 7.295 52.509 8.595 L 57.609 11.095 L 61.509 8.595 C 63.709 7.195 67.609 5.295 70.209 4.295 C 74.809 2.695 75.409 2.695 80.209 4.195 C 83.109 5.095 86.509 6.095 87.809 6.495 C 89.009 6.795 92.209 9.195 94.809 11.895 C 99.609 16.795 100.209 18.595 102.509 35.195 C 103.209 40.095 100.609 57.995 98.809 60.895 C 98.309 61.695 97.509 63.295 97.009 64.495 C 94.509 70.095 81.009 76.495 65.709 79.395 C 58.509 80.795 56.109 80.795 51.209 79.795 C 48.009 79.195 43.809 78.495 41.909 78.195 C 38.509 77.795 35.509 76.595 27.409 72.695 C 25.209 71.595 21.809 68.595 19.909 66.095 C 16.209 61.295 9.909 49.295 9.909 47.095 C 9.909 46.395 9.209 44.495 8.409 42.795 C 6.009 38.195 6.109 17.195 8.509 12.795 C 10.709 8.795 13.809 5.995 15.909 5.895 C 16.709 5.895 19.209 5.195 21.409 4.395 C 26.709 2.495 31.909 2.495 40.409 4.495 Z M 26.709 76.095 C 29.209 78.595 44.209 82.695 54.309 83.595 C 62.209 84.295 78.109 80.895 86.109 76.795 C 90.109 74.795 90.009 74.595 97.609 89.395 C 99.109 92.095 100.809 95.695 101.509 97.395 C 102.109 98.995 103.409 102.095 104.309 104.195 C 105.209 106.295 105.909 108.995 105.909 110.195 C 106.009 111.395 106.609 113.495 107.409 114.895 C 108.209 116.295 108.809 118.695 108.909 120.395 C 108.909 121.995 109.609 125.595 110.409 128.395 C 112.109 133.895 113.009 166.395 111.609 168.695 C 110.609 170.195 107.109 168.595 104.909 165.495 C 102.909 162.695 99.909 154.095 99.909 150.895 C 99.809 149.495 99.209 147.295 98.409 145.895 C 97.609 144.495 97.009 142.395 96.909 141.195 C 96.909 139.995 96.209 137.295 95.309 135.195 C 94.409 133.095 93.109 129.995 92.409 128.395 C 89.609 121.695 84.309 111.695 83.209 110.695 C 82.509 110.095 81.909 109.095 81.909 108.395 C 81.909 107.695 79.409 104.795 76.409 101.995 C 69.109 95.395 62.009 92.995 55.709 94.795 C 47.209 97.395 35.309 109.595 31.309 119.895 C 31.009 120.695 30.209 122.695 29.409 124.395 C 28.709 125.995 27.809 128.495 27.609 129.895 C 27.309 131.295 26.609 133.695 26.109 135.395 C 25.509 136.995 24.309 141.995 23.409 146.395 C 22.509 150.795 20.909 155.995 19.909 157.895 C 17.709 162.195 14.209 162.995 11.809 159.595 C 7.409 153.495 5.409 129.095 8.409 117.895 C 9.209 114.895 9.909 110.595 9.909 108.395 C 9.909 106.195 10.609 103.295 11.409 101.895 C 12.209 100.495 12.809 98.395 12.909 97.195 C 12.909 94.995 14.609 90.495 17.509 84.595 C 18.309 82.995 18.909 81.195 18.909 80.495 C 18.909 78.395 22.009 74.895 23.809 74.895 C 24.709 74.895 26.009 75.395 26.709 76.095 Z" fill="#000000" stroke="none">
    <title>75</title>
  </path>
</svg>