<svg viewBox="0 0 120 220" xmlns="http://www.w3.org/2000/svg">
  <path d="M 51.442 1.803 C 49.142 2.703 45.642 5.203 43.642 7.403 L 40.042 11.403 L 40.442 34.903 C 40.842 55.903 41.042 59.203 43.142 65.903 C 45.242 72.903 45.442 75.503 45.842 105.903 C 46.242 133.103 46.042 139.503 44.742 145.203 C 42.642 154.303 42.642 159.203 44.942 161.203 C 45.942 162.203 47.542 162.903 48.442 162.903 C 50.442 162.903 57.042 157.303 58.242 154.503 C 58.742 153.303 59.542 151.703 60.042 150.903 C 61.542 148.303 63.342 142.603 64.142 137.703 C 64.642 135.103 65.442 132.103 66.042 131.003 C 66.642 129.903 67.142 127.303 67.142 125.203 C 67.142 123.103 67.642 119.803 68.142 117.903 C 68.742 116.003 69.642 109.703 70.142 103.903 C 70.642 98.103 71.542 87.103 72.142 79.403 C 72.842 71.703 73.942 64.003 74.642 62.403 C 76.442 58.203 77.942 47.403 79.242 27.203 C 80.642 5.603 80.342 3.603 75.142 1.503 C 69.842 -0.597 57.042 -0.497 51.442 1.803 Z M 71.342 3.903 C 73.442 4.503 75.542 5.803 76.142 6.803 C 77.442 9.203 76.342 33.003 74.542 43.303 C 73.742 47.603 73.142 52.703 73.142 54.603 C 73.142 64.003 60.842 75.703 53.942 72.803 C 45.842 69.503 43.342 59.203 43.242 29.203 L 43.142 12.903 L 45.942 9.803 C 51.242 3.903 62.142 1.403 71.342 3.903 Z M 69.642 72.903 C 69.942 73.403 69.742 76.503 69.142 79.703 C 68.642 82.903 67.642 91.303 67.142 98.503 C 66.642 105.603 65.742 113.803 65.142 116.603 C 64.642 119.503 63.642 124.303 63.142 127.103 C 62.542 130.003 61.642 134.603 61.142 137.303 C 60.642 140.003 59.742 142.703 59.142 143.303 C 58.642 143.803 58.142 145.103 58.142 146.203 C 58.142 148.803 52.042 157.803 49.842 158.503 C 46.142 159.703 45.642 157.403 47.642 148.703 C 49.142 141.603 49.442 135.803 49.342 108.203 C 49.242 76.603 49.642 73.003 52.442 75.803 C 54.242 77.603 59.442 77.003 63.642 74.403 C 68.142 71.703 68.742 71.503 69.642 72.903 Z" fill="#000000" stroke="none">
    <title>81</title>
  </path>
</svg>