<svg viewBox="0 0 120 220" xmlns="http://www.w3.org/2000/svg">
  <path d="M 56.548 1.714 C 54.448 2.714 51.348 4.814 49.548 6.414 C 45.948 9.614 36.848 21.214 36.848 22.514 C 36.848 23.014 36.348 23.914 35.748 24.514 C 33.648 26.614 30.848 36.114 30.848 41.314 C 30.848 49.514 34.248 63.014 37.948 69.814 C 41.348 75.914 42.848 80.314 42.848 84.514 C 42.948 87.114 43.548 92.014 44.348 95.314 C 45.148 98.614 45.848 104.014 45.848 107.314 C 45.948 110.614 46.348 115.314 46.948 117.814 C 47.448 120.314 48.348 129.314 48.848 137.814 C 49.348 146.314 50.248 158.514 50.848 164.814 C 51.348 171.114 51.848 180.514 51.848 185.614 C 51.848 198.614 53.648 201.514 61.348 200.914 C 63.948 200.614 69.848 193.914 69.848 191.214 C 69.848 190.014 70.548 187.114 71.348 184.814 C 72.148 182.514 72.848 178.914 72.848 176.914 C 72.848 174.914 73.548 171.114 74.348 168.414 C 75.148 165.714 75.848 161.414 75.848 158.914 C 75.948 156.414 76.548 151.414 77.348 147.814 C 78.148 144.214 78.848 138.414 78.848 134.814 C 78.848 131.214 79.548 123.814 80.348 118.314 C 81.148 112.814 81.848 101.214 81.848 92.514 C 81.848 80.914 82.248 75.914 83.248 74.014 C 87.848 65.114 89.248 58.414 89.148 45.314 C 89.148 32.114 88.048 25.514 85.248 20.414 C 83.948 18.214 82.448 15.314 81.948 14.214 C 80.348 10.714 72.648 3.314 68.548 1.514 C 63.948 -0.586 61.448 -0.486 56.548 1.714 Z M 68.748 5.414 C 72.048 7.114 79.348 15.514 81.148 19.814 C 81.748 21.214 82.748 23.014 83.448 23.814 C 87.148 28.514 86.948 59.514 83.248 65.514 C 82.448 66.714 81.848 68.214 81.848 68.914 C 81.848 69.514 80.548 72.014 78.848 74.514 C 77.248 76.914 75.848 79.114 75.848 79.314 C 75.848 80.214 69.848 86.214 67.148 87.914 C 59.748 92.814 52.748 88.014 42.148 70.314 C 39.548 65.914 37.548 61.114 36.748 57.314 C 33.348 39.814 33.348 40.114 35.348 34.014 C 37.648 27.214 38.748 25.314 45.248 16.814 C 54.648 4.614 60.948 1.514 68.748 5.414 Z M 78.848 93.114 C 78.848 98.214 78.148 107.714 77.348 114.314 C 76.548 120.914 75.848 129.014 75.848 132.314 C 75.848 135.614 75.148 141.214 74.348 144.814 C 73.548 148.414 72.848 153.314 72.848 155.814 C 72.848 158.314 72.148 162.814 71.348 165.814 C 70.548 168.814 69.848 172.914 69.848 174.914 C 69.848 176.914 69.148 180.514 68.348 182.814 C 67.548 185.114 66.848 188.114 66.848 189.314 C 66.848 192.114 62.348 197.814 60.048 197.814 C 59.248 197.814 57.648 197.114 56.648 196.114 C 55.048 194.714 54.848 192.714 54.848 179.914 C 54.848 171.914 54.148 159.914 53.348 153.314 C 52.548 146.714 51.848 137.914 51.848 133.814 C 51.848 129.714 51.148 122.514 50.348 117.814 C 49.548 113.114 48.848 106.814 48.848 103.714 C 48.848 100.614 48.148 95.914 47.348 93.214 C 46.548 90.514 46.148 87.514 46.448 86.514 C 46.948 85.014 47.648 85.414 51.748 88.814 C 55.748 92.214 57.148 92.814 61.148 92.814 C 66.348 92.814 71.048 90.414 74.748 85.914 C 76.148 84.314 77.548 83.114 78.048 83.414 C 78.448 83.714 78.848 88.114 78.848 93.114 Z" fill="#000000" stroke="none">
    <title>83</title>
  </path>
</svg>