<svg viewBox="0 0 120 220" xmlns="http://www.w3.org/2000/svg">
  <path d="M 63.95 1.907 C 62.15 2.907 59.95 4.207 59.05 5.007 C 56.95 6.807 48.45 6.607 45.55 4.807 C 44.25 4.007 40.65 2.707 37.45 1.907 C 22.35 -1.593 11.65 9.607 11.65 29.007 C 11.65 35.907 13.65 47.907 15.25 51.107 C 16.05 52.507 16.65 54.207 16.65 54.907 C 16.65 55.607 18.05 58.207 19.75 60.707 C 22.65 64.907 22.75 65.707 21.75 68.407 C 20.15 72.407 17.75 80.407 16.65 85.707 C 16.15 88.007 15.25 90.807 14.65 91.807 C 14.15 92.907 13.65 95.207 13.65 96.907 C 13.65 98.607 13.15 101.007 12.55 102.207 C 11.85 103.307 11.05 107.207 10.55 110.807 C 10.05 114.407 9.25 119.407 8.75 121.907 C 7.15 129.107 7.35 150.607 9.05 153.707 C 9.85 155.207 10.75 157.207 11.05 158.107 C 11.85 160.807 16.15 163.107 18.95 162.407 C 21.85 161.607 25.65 155.407 25.65 151.507 C 25.65 150.207 26.35 147.507 27.15 145.607 C 27.95 143.607 28.65 140.407 28.65 138.407 C 28.65 136.407 29.35 133.207 30.15 131.207 C 30.95 129.307 31.65 126.507 31.65 125.107 C 31.65 121.907 34.35 112.507 36.45 107.907 C 42.35 95.607 55.55 89.707 65.65 95.007 C 70.95 97.807 74.75 102.507 92.35 128.407 C 102.15 142.807 106.95 145.207 110.75 137.807 C 114.05 131.207 112.25 120.007 105.15 103.407 C 101.95 96.107 87.25 66.807 86.45 66.307 C 85.25 65.507 85.45 62.207 86.95 60.707 C 89.15 58.207 91.95 52.907 96.15 43.407 C 99.25 36.307 100.35 22.007 98.25 15.107 C 94.85 3.607 89.35 -0.193 75.85 0.007 C 69.65 0.107 66.25 0.607 63.95 1.907 Z M 86.85 4.907 C 91.55 7.607 94.05 11.407 95.55 18.107 C 96.85 23.507 96.75 26.007 94.75 35.907 C 91.75 50.507 81.75 65.007 70.95 70.307 C 68.85 71.307 65.95 72.807 64.45 73.507 C 60.75 75.407 48.65 75.307 43.95 73.307 C 33.25 68.707 30.75 67.107 25.65 61.907 C 19.45 55.607 18.15 52.507 16.15 39.407 C 12.35 15.507 20.85 1.607 36.85 5.407 C 39.75 6.107 43.55 7.407 45.15 8.307 C 46.85 9.207 48.95 9.907 49.95 9.907 C 50.85 9.907 51.65 10.207 51.65 10.607 C 51.65 11.107 52.15 12.107 52.65 12.907 C 53.45 14.207 53.95 14.007 55.85 11.707 C 57.15 10.207 60.65 7.607 63.65 5.907 C 68.25 3.407 70.25 2.907 76.35 2.907 C 81.75 2.907 84.35 3.407 86.85 4.907 Z M 83.85 68.607 C 84.65 69.607 86.35 72.407 87.55 74.907 C 89.75 79.507 90.85 81.507 92.65 84.607 C 93.25 85.607 93.95 87.107 94.25 87.907 C 94.55 88.707 96.25 92.307 97.95 95.907 C 108.15 117.807 111.35 131.607 107.35 136.607 C 105.55 139.007 103.65 137.907 98.75 131.107 C 95.95 127.407 93.25 123.907 92.65 123.207 C 92.15 122.507 91.65 121.707 91.65 121.407 C 91.65 121.007 89.65 118.107 87.15 114.907 C 84.65 111.707 82.65 108.807 82.65 108.407 C 82.65 107.407 74.05 96.607 71.95 94.907 C 64.85 89.307 55.05 88.107 47.45 92.007 C 42.65 94.507 35.75 101.407 33.55 106.007 C 31.35 110.507 28.65 120.007 28.65 122.907 C 28.65 124.207 28.05 127.507 27.25 130.307 C 25.05 138.307 22.65 149.207 22.65 151.207 C 22.65 152.307 21.85 154.407 20.95 156.007 C 18.35 160.307 14.95 159.607 12.85 154.407 C 10.85 149.307 10.15 131.407 11.65 124.607 C 12.35 121.707 13.15 116.707 13.65 113.407 C 14.55 105.507 16.65 97.007 23.45 73.007 C 24.85 68.207 27.15 68.007 33.15 71.907 C 34.85 73.007 36.85 74.107 37.65 74.507 C 38.45 74.807 40.65 75.707 42.45 76.507 C 49.35 79.507 64.35 78.107 71.65 73.807 C 72.45 73.307 73.85 72.607 74.65 72.207 C 75.45 71.807 77.25 70.507 78.65 69.207 C 81.65 66.407 81.95 66.407 83.85 68.607 Z" fill="#000000" stroke="none">
    <title>84</title>
  </path>
</svg>