<svg viewBox="0 0 120 220" xmlns="http://www.w3.org/2000/svg">
  <path d="M 36.944 1.7 C 24.944 5.4 19.144 10.8 16.244 21.3 C 13.744 30 13.844 47.1 16.444 56.9 C 18.344 64 22.144 70.6 25.044 71.7 C 26.844 72.4 26.844 75 24.944 77.7 C 22.144 81.7 14.444 97.3 14.444 99 C 14.444 99.9 13.944 101.1 13.444 101.6 C 12.244 102.8 9.644 111.4 8.544 118 C 8.044 120.5 7.244 124.5 6.644 127 C 4.844 134.1 3.144 153.8 3.644 161.2 C 4.044 168.2 6.444 173.2 9.644 173.8 C 10.444 174 13.144 172.1 15.544 169.8 C 19.944 165.4 20.344 164.5 24.344 149 C 27.344 137.5 29.544 131.5 34.344 121.9 C 39.144 112.4 43.644 106.3 49.444 102 C 53.444 98.9 54.644 98.5 59.944 98.5 C 65.344 98.5 66.544 98.9 70.244 101.8 C 75.144 105.7 82.144 114.7 84.844 120.5 C 85.944 122.7 87.344 125.7 88.144 127.2 C 88.844 128.6 89.444 130.8 89.444 132 C 89.444 133.2 89.944 135 90.544 136.2 C 91.144 137.3 92.044 140.7 92.544 143.9 C 94.044 153.7 95.944 159.1 99.144 162.6 C 102.944 166.9 105.744 166.9 109.844 162.7 C 118.444 154.1 118.144 119.6 109.344 93.5 C 108.744 91.8 108.044 89.6 107.744 88.5 C 107.244 86.4 105.044 81.4 102.744 76.8 C 101.244 73.8 101.044 69 102.344 69 C 103.444 69 104.144 67.8 109.544 56.8 C 115.444 44.6 116.444 40.5 116.444 27.3 C 116.444 17.4 116.144 14.8 114.444 11.5 C 112.244 7.2 107.844 3.1 105.344 3 C 104.444 3 102.044 2.3 100.144 1.5 C 98.144 0.7 93.644 0 90.144 0 C 86.544 0 81.744 0.7 79.444 1.5 C 77.144 2.3 74.144 3 72.944 3 C 71.644 3 69.344 3.7 67.844 4.5 C 64.244 6.4 61.044 6.4 57.644 4.6 C 53.944 2.8 45.244 0 43.444 0.1 C 42.644 0.1 39.744 0.9 36.944 1.7 Z M 50.244 4.9 C 53.144 5.9 56.844 7.7 58.444 8.9 C 62.044 11.5 61.944 11.5 67.944 8.6 C 72.944 6.2 85.844 3 90.444 3 C 94.544 3 106.344 6.7 108.144 8.5 C 112.344 12.7 113.444 16.7 113.444 27.2 C 113.444 37.1 112.444 42.4 108.944 50.5 C 108.244 52.1 107.344 54.2 107.044 55 C 106.744 55.8 105.544 57.8 104.444 59.5 C 103.344 61.1 102.044 63.4 101.544 64.6 C 100.044 68 92.744 73.7 87.644 75.4 C 81.444 77.6 65.944 81 62.144 81 C 55.544 81 41.944 77.2 32.544 72.6 C 27.344 70.1 21.144 63.1 20.344 58.7 C 19.944 56.9 19.144 52.8 18.444 49.5 C 16.944 42.2 17.744 27.6 19.944 20.5 C 21.644 14.9 28.744 7.4 33.244 6.4 C 34.744 6.1 37.744 5.2 39.944 4.4 C 45.044 2.7 44.144 2.7 50.244 4.9 Z M 99.944 78.7 C 105.544 90.2 109.044 101.3 110.544 112 C 112.544 127.2 113.244 135.3 112.844 138.7 C 110.444 157.5 108.944 161.9 104.844 162 C 103.744 162 102.044 161.2 101.044 160.2 C 99.244 158.1 96.544 149.3 95.444 141.5 C 94.744 136.8 94.244 135.1 90.644 125.5 C 86.744 115 83.044 109.3 74.944 101.5 C 60.544 87.7 43.044 95.2 31.444 120 C 30.244 122.5 28.644 125.8 27.944 127.3 C 27.144 128.9 26.444 130.9 26.444 131.8 C 26.444 132.7 25.744 134.4 24.944 135.4 C 24.144 136.5 23.444 138.5 23.444 139.8 C 23.444 141.1 22.944 143.1 22.244 144.3 C 21.644 145.5 20.744 148.3 20.344 150.5 C 18.744 159 16.744 164.1 13.944 167 C 12.344 168.6 10.644 170 10.244 170 C 9.744 170 8.644 168.3 7.744 166.2 C 6.344 163 6.344 160.7 7.344 148 C 8.044 140 8.944 131.5 9.544 129 C 10.144 126.5 10.944 122.5 11.444 120 C 13.344 110.3 17.644 98.1 21.644 91 C 22.044 90.2 22.644 89 22.844 88.5 C 24.444 84.5 25.744 82.2 28.544 78.2 C 30.244 75.9 30.244 75.9 35.344 77.6 C 38.144 78.5 40.744 79.6 41.044 80.1 C 41.344 80.6 42.744 81 44.144 81 C 45.544 81 49.144 81.7 52.244 82.6 C 56.244 83.8 59.844 84.1 65.344 83.7 C 76.444 82.8 90.844 79 93.644 76.2 C 95.844 74 98.144 75 99.944 78.7 Z" fill="#000000" stroke="none">
    <title>85</title>
  </path>
</svg>